<svg xmlns="http://www.w3.org/2000/svg" width="159.263" height="185.091" viewBox="0 0 159.263 185.091"><defs><style>.a{font-size:6px;font-family:Montserrat-SemiBold, Montserrat;font-weight:600;letter-spacing:-0.004em;}.b{fill:#21221e;}.b,.c{fill-rule:evenodd;}</style></defs><g transform="translate(1.138 33.279)"><text class="a" transform="translate(0 6)"><tspan x="0" y="0">Startup 1</tspan></text></g><path class="b" d="M16.551-133.229l11.2-11.751L25.03-147.8l1.1-1.141,3.852,3.962-9.676,10.073h8.285l9.644-10.14-9.418-9.669-10.1,10.609L6-144.041l12.33-12.925L22.182-153l-1.1,1.174-2.751-2.819-8.543,8.931,8.253-.034L28.817-157l11.65,11.952L29.237-133.3Z" transform="translate(-6 160.566)"/><path class="c" d="M82.88-146.278l-9.818,11.017v-10.383L84.582-160H65.272l1.408,1.769H80.949l-8.738,10.884-.032.033-.033-.033L62-160v16.927l6.775,7.812V-138.1L63.7-143.775v-11.317l7.592,9.448v15.357l13.288-15.357v-10.283l-1.7,2.136Z" transform="translate(4.558 160)"/><g transform="translate(60.984 33.279)"><text class="a" transform="translate(0 6)"><tspan x="0" y="0">Startup 2</tspan></text></g><path class="b" d="M117.439-150.966h11.277l6.055,8.98-6.055,8.946H117.023l-5.7-8.468h2.05l4.518,6.692h9.995l4.838-7.17-4.838-7.2H119.2ZM117.023-158h11.693l5.7,8.434h-2.05l-4.486-6.658h-9.995l-4.838,7.2,4.838,7.17h8.65l1.762,1.776H117.023L111-149.021Z" transform="translate(13.796 160.377)"/><g transform="translate(119.529 33.279)"><text class="a" transform="translate(0 6)"><tspan x="0" y="0">Startup 3</tspan></text></g><path class="b" d="M32.361-91.678,22.275-80.893l-1.629-1.774L30.732-93.453l-1-1.072L19.645-83.74l-1.66-1.776L28.1-96.3l-1-1.071L17.014-86.586l-1.66-1.743L25.439-99.114l-1-1.072L14.352-89.4l-1.66-1.741,10.085-10.819-1-1.039L11-91.477v11.657h1.409v-9.514l1.222,1.307v11.02h1.441v-9.512l1.221,1.339v10.986H17.7v-9.479l1.252,1.307v11.02h1.379v-9.514l1.252,1.34v10.987H23V-79.519l1.221-1.34v9.514h1.442v-11.02l1.221-1.307v9.479h1.409V-85.181l1.252-1.339v9.512H30.92v-11.02l1.252-1.307v9.514h1.409V-90.405Z" transform="translate(-5.057 170.746)"/><g transform="translate(0.023 109.345)"><text class="a" transform="translate(0 6)"><tspan x="0" y="0">Startup 4</tspan></text></g><path class="b" d="M73.668-74.511l2.391,1.43v2.929l-2.391,1.431-2.391-1.431v-2.929ZM67.4-77.27l1.97,1.157v2.385L67.4-72.536l-1.972-1.192v-2.385Zm11.956-.681,2.391,1.4v2.929L79.356-72.2l-2.392-1.431v-2.929Zm-17.8-1.67,1.55.954v1.873l-1.55.954L60-76.794v-1.873Zm12.214-1.226,1.906,1.193V-77.3l-1.906,1.191L71.794-77.3v-2.351Zm11.18-.51,2.391,1.43v2.9L84.946-75.6l-2.392-1.43v-2.9ZM67.4-83.47l1.421.852v1.736L67.4-80l-1.422-.886v-1.736Zm11.956-.478,1.808,1.091v2.214l-1.808,1.125-1.81-1.125v-2.214ZM61.2-86.809l1.195.75v1.43l-1.195.75-1.2-.75v-1.43Zm12.57-.544,1.615,1.021v1.975l-1.615.988-1.649-.988v-1.975Zm11.18-.886,2.391,1.43v2.93l-2.391,1.43-2.392-1.43v-2.93ZM67.4-90.351l1.421.852v1.736l-1.421.886-1.422-.886V-89.5Zm11.956-.476,1.808,1.089v2.214L79.356-86.4l-1.81-1.125v-2.214Zm-5.59-3.747,1.906,1.157v2.385l-1.906,1.193-1.972-1.193v-2.385ZM61.1-94.608l1.1.647V-92.6l-1.1.681L60-92.6v-1.362Zm23.847-.512,2.391,1.43v2.93l-2.391,1.43-2.392-1.43v-2.93ZM67.4-98.185l1.97,1.226v2.351L67.4-93.417l-1.972-1.191v-2.351Zm11.956-.34,2.391,1.465v2.895l-2.391,1.431-2.392-1.431v-2.895ZM73.668-102l2.391,1.465v2.895l-2.391,1.43-2.391-1.43v-2.895Z" transform="translate(4.181 170.935)"/><g transform="translate(60.984 109.345)"><text class="a" transform="translate(0 6)"><tspan x="0" y="0">Startup 5</tspan></text></g><path class="b" d="M123.262-69.852,109-78.17V-96l14.262,8.318L137.525-96v17.83Zm-12.23-9.511,12.23,7.125,12.23-7.125V-92.454l-12.23,7.125-12.23-7.125Z" transform="translate(13.419 172.066)"/><path class="b" d="M115.889-95.869l6.807-4.525,6.776,4.525h3.921L122.7-103,112-95.869Z" transform="translate(13.984 170.746)"/><path class="b" d="M119.9-94.434l2.075-1.21,2.044,1.21h3.868v-.033L121.974-98,116-94.434Z" transform="translate(14.739 171.689)"/><g transform="translate(119.38 109.345)"><text class="a" transform="translate(0 6)"><tspan x="0" y="0">Startup 6</tspan></text></g><path class="b" d="M21.859-38h5.122l5.413,5.358v15.126l-5.7,5.664-8.881-8.513V-25.35h1.523v4.307l7.358,7.02,4.182-4.172V-31.963l-4.506-4.443H23.544Zm-5.122,0,8.914,8.479V-24.5H24.1V-28.81L16.769-35.8l-4.213,4.1v13.8l4.473,4.443h2.852l1.686,1.594H16.445L11-17.21V-32.37Z" transform="translate(-5.057 183.001)"/><g transform="translate(0.321 177.091)"><text class="a" transform="translate(0 6)"><tspan x="0" y="0">Startup 7</tspan></text></g><path class="b" d="M69.451-11.852,64-17.618,74.453-28.674l.834.882L65.7-17.618l3.751,4L80.129-24.909,69.451-36.2,65.7-32.234l5,5.29-.834.881L64-32.234,69.451-38,81.828-24.909Z" transform="translate(4.935 183.001)"/><g transform="translate(60.761 177.091)"><text class="a" transform="translate(0 6)"><tspan x="0" y="0">Startup 8</tspan></text></g><path class="c" d="M133.655-27.623v14.017l-4.633-4.762v-4.493Zm-13.512,0v14.017l-4.6-4.762v-4.493ZM142.531-35l4.633,4.695L136.2-18.972v-9.456Zm-13.51,0,4.633,4.695-10.9,11.334-.065-9.456Zm-13.478,0,4.6,4.728L106.6-16.356,102-21.084Z" transform="translate(12.099 183.567)"/><g transform="translate(119.38 177.091)"><text class="a" transform="translate(0 6)"><tspan x="0" y="0">Startup 9</tspan></text></g></svg>