<svg xmlns="http://www.w3.org/2000/svg" xmlns:xlink="http://www.w3.org/1999/xlink" width="427.057" height="208.531" viewBox="0 0 427.057 208.531"><defs><style>.a{fill:none;}.b{fill:#94c529;}.c{clip-path:url(#a);}.d{fill:#93c529;}.e{fill:#fff;}.f{clip-path:url(#b);}.g{font-size:16px;font-family:Avenir-Heavy, Avenir;font-weight:800;}</style><clipPath id="a"><path class="a" d="M0-512.005H208.528v208.531H0Z" transform="translate(0 512.005)"/></clipPath><clipPath id="b"><path class="b" d="M549.024,415.922H517a.6.6,0,0,1-.549-.354L511.7,405.089a.6.6,0,0,1,.549-.852h36.773a.6.6,0,0,1,.6.6v10.479A.6.6,0,0,1,549.024,415.922Z" transform="translate(-511.647 -404.237)"/></clipPath></defs><g transform="translate(0 0)"><g transform="translate(113.203 0)"><g class="c"><g transform="translate(3.055 3.096)"><path d="M-262.218-188.665a24.732,24.732,0,0,1,7.25,17.268c0,13.4-11.608,24.437-26.514,25.944a24.294,24.294,0,0,1,.285,3.462c0,14.418-13.44,26.106-29.976,26.106-12.341,0-22.93-6.475-27.532-15.761a2.725,2.725,0,0,0-2.444-1.425,2.681,2.681,0,0,0-2.444,1.425,26.044,26.044,0,0,1-5.783,7.616,32.163,32.163,0,0,1-21.749,8.146c-16.576,0-29.976-11.689-29.976-26.106a24.285,24.285,0,0,1,.285-3.462C-415.764-146.96-427.331-158-427.331-171.4a24.732,24.732,0,0,1,7.25-17.268c-12.87-2.974-22.319-13.115-22.319-25.211,0-6.965,3.1-14.051,9.53-19.55a18.182,18.182,0,0,1-5.783-13.074c0-10.63,9.693-19.224,21.79-19.55a17.7,17.7,0,0,1-3.055-9.816c0-10.833,10.06-19.59,22.482-19.59a29.636,29.636,0,0,1,3.788.285c0-.2-.041-.407-.041-.652.2-12.137,11.933-22.319,25.862-22.482a28.369,28.369,0,0,1,18.776,6.557,23.016,23.016,0,0,1,5.417,6.679,2.769,2.769,0,0,0,2.444,1.385,2.688,2.688,0,0,0,2.444-1.385c4.236-7.9,13.481-13.359,24.193-13.236,13.929.163,25.659,10.385,25.862,22.482,0,.2-.041.407-.041.652a30.2,30.2,0,0,1,3.788-.285c12.422,0,22.482,8.757,22.482,19.59a17.7,17.7,0,0,1-3.055,9.816c12.1.326,21.79,8.96,21.79,19.55a18.113,18.113,0,0,1-5.783,13.074c6.435,5.5,9.53,12.585,9.53,19.55,0,12.1-9.449,22.237-22.238,25.211" transform="translate(442.4 318.305)"/></g><g transform="translate(104.305 3.055)"><path class="d" d="M-114.869-188.724a24.732,24.732,0,0,1,7.25,17.268c0,13.4-11.608,24.437-26.514,25.944a24.292,24.292,0,0,1,.285,3.462c0,14.418-13.44,26.106-29.976,26.106-12.341,0-22.93-6.475-27.532-15.761a2.725,2.725,0,0,0-2.444-1.425V-303.782a2.689,2.689,0,0,0,2.444-1.385c4.236-7.9,13.481-13.359,24.193-13.237,13.929.163,25.659,10.386,25.862,22.482,0,.2-.041.407-.041.651a30.276,30.276,0,0,1,3.788-.285c12.422,0,22.482,8.757,22.482,19.591a17.7,17.7,0,0,1-3.055,9.815c12.1.326,21.79,8.96,21.79,19.55a18.113,18.113,0,0,1-5.783,13.074c6.435,5.5,9.53,12.585,9.53,19.55-.041,12.137-9.49,22.278-22.278,25.252" transform="translate(193.8 318.405)"/></g><g transform="translate(126.298 162.997)"><path class="e" d="M-8.891,0A6.109,6.109,0,0,1-2.782,6.109a6.109,6.109,0,0,1-6.109,6.109A6.109,6.109,0,0,1-15,6.109,6.109,6.109,0,0,1-8.891,0" transform="translate(15 0)"/></g><g transform="translate(126.298 38.409)"><path class="e" d="M-8.891,0A6.109,6.109,0,0,1-2.782,6.109a6.109,6.109,0,0,1-6.109,6.109A6.109,6.109,0,0,1-15,6.109,6.109,6.109,0,0,1-8.891,0" transform="translate(15 0)"/></g><g transform="translate(152.609 142.795)"><path class="e" d="M-8.891,0A6.109,6.109,0,0,1-2.782,6.109a6.109,6.109,0,0,1-6.109,6.109A6.109,6.109,0,0,1-15,6.109,6.109,6.109,0,0,1-8.891,0" transform="translate(15 0)"/></g><g transform="translate(152.609 57.999)"><path class="e" d="M-8.891,0A6.109,6.109,0,0,1-2.782,6.109a6.109,6.109,0,0,1-6.109,6.109A6.109,6.109,0,0,1-15,6.109,6.109,6.109,0,0,1-8.891,0" transform="translate(15 0)"/></g><g transform="translate(19.475 160.6)"><path class="e" d="M-167.018-69.753c-12.911,0-24.6-6.6-29.976-16.9-5.417,10.3-17.106,16.9-29.976,16.9C-245.176-69.753-260-82.827-260-98.914v-.855a32.912,32.912,0,0,1-21.219-13.074,3.067,3.067,0,0,1,.733-4.276,3.067,3.067,0,0,1,4.276.733c4.276,6.028,11.73,10.141,19.875,10.955a3.043,3.043,0,0,1,2.118,1.182,2.985,2.985,0,0,1,.611,2.322,21.252,21.252,0,0,0-.244,2.973c0,12.707,12.1,23.052,26.921,23.052,10.834,0,20.568-5.5,24.8-14.051a5.752,5.752,0,0,1,5.172-3.136,5.636,5.636,0,0,1,5.172,3.136c4.236,8.553,13.97,14.051,24.8,14.051,14.866,0,26.921-10.345,26.921-23.052a21.792,21.792,0,0,0-.244-3.014,2.985,2.985,0,0,1,.611-2.321,3.108,3.108,0,0,1,2.118-1.181A30.05,30.05,0,0,0-126.7-108.69a3.04,3.04,0,0,1,4.114,1.3,3.04,3.04,0,0,1-1.3,4.114,35.9,35.9,0,0,1-10.06,3.462v.855c0,16.128-14.825,29.2-33.071,29.2" transform="translate(281.783 117.683)"/></g><g transform="translate(0 27.015)"><path class="e" d="M-26.257-183.372a3.077,3.077,0,0,1-3.055-3.055,27.685,27.685,0,0,1,5.01-15.68c-11.974-4.521-20-14.988-20-26.758a28.288,28.288,0,0,1,8.309-19.753,20.815,20.815,0,0,1-4.562-12.911c0-10.875,8.512-19.916,20.12-22.115a20.23,20.23,0,0,1-1.344-7.25c0-7.087,3.625-13.644,9.978-17.962a3.067,3.067,0,0,1,4.236.815,3.067,3.067,0,0,1-.815,4.236c-4.643,3.177-7.331,7.861-7.331,12.911a15.081,15.081,0,0,0,2.525,8.146,3.021,3.021,0,0,1,.163,3.1,3.13,3.13,0,0,1-2.647,1.67c-10.549.285-18.816,7.535-18.816,16.495a15.085,15.085,0,0,0,4.847,10.874,3.2,3.2,0,0,1,.937,2.281,3.162,3.162,0,0,1-1.059,2.24c-5.417,4.684-8.431,10.793-8.431,17.228,0,10.345,8.186,19.509,19.875,22.2a3.029,3.029,0,0,1,2.24,2.118,3.077,3.077,0,0,1-.774,3.013A21.7,21.7,0,0,0-23.2-186.427a3.025,3.025,0,0,1-3.055,3.055" transform="translate(44.3 309.375)"/></g><g transform="translate(44.964 0)"><path class="e" d="M-206.266-241.18a2.937,2.937,0,0,1-1.629-.489,3.081,3.081,0,0,1-.937-4.236,20.547,20.547,0,0,0,3.3-11.037,21.7,21.7,0,0,0-6.354-15.111,3.123,3.123,0,0,1-.774-3.014,2.963,2.963,0,0,1,2.24-2.118c11.73-2.729,19.875-11.852,19.875-22.2,0-6.435-3.014-12.585-8.431-17.228a3.163,3.163,0,0,1-1.059-2.24,3.044,3.044,0,0,1,.937-2.281A15.085,15.085,0,0,0-194.251-332c0-8.96-8.268-16.21-18.816-16.495a3.143,3.143,0,0,1-2.647-1.629,3.021,3.021,0,0,1,.163-3.1,14.547,14.547,0,0,0,2.525-8.146c0-9.123-8.716-16.535-19.427-16.535a25.877,25.877,0,0,0-3.38.244,2.96,2.96,0,0,1-2.484-.815,3.1,3.1,0,0,1-.937-2.444v-.367c-.2-10.386-10.63-19.3-22.849-19.468-9.2-.123-17.635,4.439-21.464,11.607a5.744,5.744,0,0,1-5.132,2.973,5.791,5.791,0,0,1-5.132-2.973c-3.828-7.209-12.218-11.77-21.464-11.648-12.178.163-22.645,9.082-22.849,19.468V-381a3,3,0,0,1-.937,2.444,2.959,2.959,0,0,1-2.484.815,25.935,25.935,0,0,0-3.38-.244A3.077,3.077,0,0,1-348-381.04a3.077,3.077,0,0,1,3.055-3.055h.9a24.905,24.905,0,0,1,8.634-15.355,31.544,31.544,0,0,1,20.079-7.453c11.241-.123,21.667,5.5,26.636,14.377,4.928-8.8,15.151-14.377,26.229-14.377h.407a31.165,31.165,0,0,1,20.038,7.494,24.905,24.905,0,0,1,8.634,15.355h.9c14.092,0,25.537,10.142,25.537,22.645a20.072,20.072,0,0,1-1.344,7.25c11.567,2.2,20.12,11.241,20.12,22.115a20.815,20.815,0,0,1-4.562,12.911,28.215,28.215,0,0,1,8.309,19.753c0,11.77-8.023,22.237-20.038,26.758a27.686,27.686,0,0,1,5.01,15.68,26.247,26.247,0,0,1-4.276,14.336,2.851,2.851,0,0,1-2.525,1.425Z" transform="translate(348 406.905)"/></g><g transform="translate(25.537 52.256)"><path class="e" d="M-19.145-14.344a3.038,3.038,0,0,1-2.036-.774c-3.258-2.892-8.023-2.973-8.064-2.973A3.077,3.077,0,0,1-32.3-21.145,3.05,3.05,0,0,1-29.245-24.2c.326,0,7.087.041,12.1,4.521a3.039,3.039,0,0,1,.244,4.317,2.837,2.837,0,0,1-2.24,1.018" transform="translate(32.3 24.2)"/></g><g transform="translate(41.551 162.624)"><path class="e" d="M-4.433-23.777a1.372,1.372,0,0,1-.407-.041,3.031,3.031,0,0,1-2.607-3.421A22.39,22.39,0,0,1-1.419-39.253a3.037,3.037,0,0,1,4.317.081,3.037,3.037,0,0,1-.081,4.318,16.434,16.434,0,0,0-4.236,8.431,3.031,3.031,0,0,1-3.014,2.647" transform="translate(7.479 40.114)"/></g><g transform="translate(183.432 84.91)"><path class="e" d="M-4.457-15.426a3.062,3.062,0,0,1-3.055-2.81,3.113,3.113,0,0,1,2.81-3.3,13.168,13.168,0,0,0,7.494-3.584A3.073,3.073,0,0,1,7.11-25.16a3.073,3.073,0,0,1,.041,4.317,19.664,19.664,0,0,1-11.4,5.376.305.305,0,0,1-.2.041" transform="translate(7.52 26.026)"/></g><g transform="translate(149.599 22.525)"><path class="e" d="M-4.439-26.376a3.182,3.182,0,0,1-1.955-.692,3.047,3.047,0,0,1-.367-4.317c3.3-3.91,3.38-10.019,3.38-10.06A3.077,3.077,0,0,1-.325-44.5a3.077,3.077,0,0,1,3.055,3.055c0,.326-.041,8.309-4.806,14.011a3.124,3.124,0,0,1-2.362,1.059" transform="translate(7.489 44.5)"/></g><g transform="translate(101.21 49.854)"><path class="e" d="M-4.445-205.91A3.077,3.077,0,0,1-7.5-208.964v-135.38A3.077,3.077,0,0,1-4.445-347.4a3.077,3.077,0,0,1,3.055,3.055v135.38a3.05,3.05,0,0,1-3.055,3.055" transform="translate(7.5 347.399)"/></g><g transform="translate(101.21 14.624)"><path class="e" d="M-4.445-39.652A3.077,3.077,0,0,1-7.5-42.707V-63.844A3.077,3.077,0,0,1-4.445-66.9a3.077,3.077,0,0,1,3.055,3.055v21.138a3.077,3.077,0,0,1-3.055,3.055" transform="translate(7.5 66.899)"/></g><g transform="translate(123.244 159.942)"><path class="e" d="M-13.336-8.891a3.077,3.077,0,0,0-3.055,3.055,3.077,3.077,0,0,0,3.055,3.055,3.077,3.077,0,0,0,3.055-3.055,3.05,3.05,0,0,0-3.055-3.055m0,12.218A9.178,9.178,0,0,1-22.5-5.836,9.178,9.178,0,0,1-13.336-15,9.178,9.178,0,0,1-4.172-5.836a9.178,9.178,0,0,1-9.164,9.164" transform="translate(22.5 15)"/></g><g transform="translate(104.305 141.222)"><path class="e" d="M-45.343-31.689h-6.109c0-5.539-1.263-9.612-3.788-12.056-4.154-3.991-11.567-3.706-17.513-3.5-1.344.04-2.566.081-3.747.081v-6.109c1.059,0,2.281-.041,3.543-.081,6.761-.244,16.006-.571,21.993,5.213,3.706,3.666,5.62,9.2,5.62,16.454" transform="translate(76.5 53.464)"/></g><g transform="translate(123.244 35.354)"><path class="e" d="M-13.336-8.891a3.077,3.077,0,0,0-3.055,3.055,3.077,3.077,0,0,0,3.055,3.055,3.077,3.077,0,0,0,3.055-3.055,3.05,3.05,0,0,0-3.055-3.055m0,12.218A9.178,9.178,0,0,1-22.5-5.836,9.178,9.178,0,0,1-13.336-15,9.178,9.178,0,0,1-4.172-5.836a9.178,9.178,0,0,1-9.164,9.164" transform="translate(22.5 15)"/></g><g transform="translate(104.264 50.587)"><path class="e" d="M-11.8-31.71c-1.588,0-3.136-.041-4.562-.122-1.263-.041-2.484-.081-3.543-.081v-6.109c1.181,0,2.444.041,3.747.081,5.987.2,13.4.488,17.513-3.5C3.885-43.888,5.148-47.92,5.148-53.5h6.109c0,7.29-1.914,12.788-5.661,16.454C.912-32.484-5.849-31.71-11.8-31.71" transform="translate(19.9 53.5)"/></g><g transform="translate(149.554 139.74)"><path class="e" d="M-13.336-8.891a3.077,3.077,0,0,0-3.055,3.055,3.077,3.077,0,0,0,3.055,3.055,3.077,3.077,0,0,0,3.055-3.055,3.05,3.05,0,0,0-3.055-3.055m0,12.218A9.178,9.178,0,0,1-22.5-5.836,9.178,9.178,0,0,1-13.336-15,9.178,9.178,0,0,1-4.172-5.836a9.178,9.178,0,0,1-9.164,9.164" transform="translate(22.5 15)"/></g><g transform="translate(104.264 116.077)"><path class="e" d="M-83.692-38.882H-89.8c0-19.753-16.7-20.608-51.4-20.608V-65.6c16.169,0,30.139,0,40.158,3.1,11.689,3.584,17.35,11.282,17.35,23.622" transform="translate(141.2 65.6)"/></g><g transform="translate(149.554 54.945)"><path class="e" d="M-13.336-8.891a3.077,3.077,0,0,0-3.055,3.055,3.077,3.077,0,0,0,3.055,3.055,3.077,3.077,0,0,0,3.055-3.055,3.05,3.05,0,0,0-3.055-3.055m0,12.218A9.178,9.178,0,0,1-22.5-5.836,9.178,9.178,0,0,1-13.336-15,9.178,9.178,0,0,1-4.172-5.836a9.178,9.178,0,0,1-9.164,9.164" transform="translate(22.5 15)"/></g><g transform="translate(104.264 70.258)"><path class="e" d="M0-38.882v-6.109c34.7,0,51.4-.9,51.4-20.608h6.109c0,12.3-5.661,20.039-17.35,23.622-10.019,3.1-23.989,3.1-40.158,3.1" transform="translate(0 65.6)"/></g><g transform="translate(165.479 103.758)"><path class="e" d="M-4.445-8.859a3.175,3.175,0,0,1-.611-.081,2.317,2.317,0,0,1-.57-.163,2.179,2.179,0,0,1-.529-.285A4.382,4.382,0,0,1-6.6-9.755a3.052,3.052,0,0,1-.9-2.159,3.083,3.083,0,0,1,.041-.611A2.335,2.335,0,0,1-7.3-13.1a2.194,2.194,0,0,1,.285-.529,4.285,4.285,0,0,1,.367-.448,1.949,1.949,0,0,1,.448-.367,2.194,2.194,0,0,1,.529-.285,2.97,2.97,0,0,1,.57-.163,3.166,3.166,0,0,1,2.77.815,3.517,3.517,0,0,1,.367.448,3.366,3.366,0,0,1,.285.529,2.335,2.335,0,0,1,.163.57,3.144,3.144,0,0,1,.081.611,1.583,1.583,0,0,1-.081.611,3,3,0,0,1-.163.57,2.2,2.2,0,0,1-.285.53,4.328,4.328,0,0,1-.367.448,2.89,2.89,0,0,1-2.118.9" transform="translate(7.5 14.947)"/></g><g transform="translate(144.748 103.757)"><path class="e" d="M-4.386-8.861A3.176,3.176,0,0,1-5-8.943a2.317,2.317,0,0,1-.57-.163A2.179,2.179,0,0,1-6.1-9.391a4.382,4.382,0,0,1-.448-.367,1.959,1.959,0,0,1-.367-.448,2.2,2.2,0,0,1-.285-.53,3,3,0,0,1-.163-.57,3.083,3.083,0,0,1-.041-.611,3.083,3.083,0,0,1,.041-.611A2.335,2.335,0,0,1-7.2-13.1a2.194,2.194,0,0,1,.285-.529,4.285,4.285,0,0,1,.367-.448,1.949,1.949,0,0,1,.448-.367,2.194,2.194,0,0,1,.529-.285A2.97,2.97,0,0,1-5-14.889a2.883,2.883,0,0,1,1.181,0c.2.041.407.122.57.163a2.194,2.194,0,0,1,.529.285,4.276,4.276,0,0,1,.448.367,3.517,3.517,0,0,1,.367.448,3.366,3.366,0,0,1,.285.529,2.335,2.335,0,0,1,.163.57,3.144,3.144,0,0,1,.081.611,3.052,3.052,0,0,1-.9,2.159,1.959,1.959,0,0,1-.448.367,2.179,2.179,0,0,1-.529.285,2.972,2.972,0,0,1-.57.163,2.778,2.778,0,0,1-.57.081" transform="translate(7.4 14.95)"/></g><g transform="translate(129.394 19.694)"><path class="e" d="M-4.386-8.8A3.053,3.053,0,0,1-5-8.843a2.317,2.317,0,0,1-.57-.163A2.194,2.194,0,0,1-6.1-9.291a4.277,4.277,0,0,1-.448-.367,3.514,3.514,0,0,1-.367-.448,2.2,2.2,0,0,1-.285-.529,3,3,0,0,1-.163-.57,3.083,3.083,0,0,1-.041-.611c0-.2.041-.407.041-.611A2.335,2.335,0,0,1-7.2-13a3.388,3.388,0,0,1,.285-.53,4.365,4.365,0,0,1,.367-.448,1.972,1.972,0,0,1,.448-.367,2.193,2.193,0,0,1,.529-.285A2.317,2.317,0,0,1-5-14.789a2.883,2.883,0,0,1,1.181,0,2.317,2.317,0,0,1,.57.163,2.193,2.193,0,0,1,.529.285,4.383,4.383,0,0,1,.448.367,3.572,3.572,0,0,1,.367.448,3.388,3.388,0,0,1,.285.53,3,3,0,0,1,.163.57,3.083,3.083,0,0,1,.041.611,3.083,3.083,0,0,1-.041.611,2.335,2.335,0,0,1-.163.57,2.2,2.2,0,0,1-.285.529,4.278,4.278,0,0,1-.367.448,3.515,3.515,0,0,1-.448.367c-.163.081-.326.2-.529.285a2.969,2.969,0,0,1-.57.163,2.48,2.48,0,0,1-.57.041" transform="translate(7.4 14.85)"/></g><g transform="translate(129.353 187.861)"><path class="e" d="M-4.445-8.861a3.176,3.176,0,0,1-.611-.081,2.317,2.317,0,0,1-.57-.163,2.179,2.179,0,0,1-.529-.285A4.382,4.382,0,0,1-6.6-9.757a3.574,3.574,0,0,1-.367-.448,2.2,2.2,0,0,1-.285-.53,3,3,0,0,1-.163-.57,3.144,3.144,0,0,1-.081-.611,1.583,1.583,0,0,1,.081-.611,2.335,2.335,0,0,1,.163-.57,2.194,2.194,0,0,1,.285-.529,4.285,4.285,0,0,1,.367-.448,1.949,1.949,0,0,1,.448-.367,2.194,2.194,0,0,1,.529-.285,2.317,2.317,0,0,1,.57-.163,2.883,2.883,0,0,1,1.181,0,2.317,2.317,0,0,1,.57.163,2.194,2.194,0,0,1,.529.285,4.276,4.276,0,0,1,.448.367,3.517,3.517,0,0,1,.367.448,2.194,2.194,0,0,1,.285.529,2.335,2.335,0,0,1,.163.57,3.083,3.083,0,0,1,.041.611,3.083,3.083,0,0,1-.041.611,3,3,0,0,1-.163.57,2.2,2.2,0,0,1-.285.53,4.328,4.328,0,0,1-.367.448,3.545,3.545,0,0,1-.448.367,2.179,2.179,0,0,1-.529.285,2.972,2.972,0,0,1-.57.163,1.294,1.294,0,0,1-.57.081" transform="translate(7.5 14.95)"/></g><g transform="translate(34.489 79.699)"><path class="e" d="M-4.457-40.791h-.2a3.021,3.021,0,0,1-2.851-3.218A29.513,29.513,0,0,1-4.457-54.557,26.374,26.374,0,0,1,13.626-68.731a3.078,3.078,0,0,1,3.706,2.24,3.078,3.078,0,0,1-2.24,3.706C-.18-59.078-1.321-44.294-1.362-43.642a3.166,3.166,0,0,1-3.1,2.851" transform="translate(7.519 68.821)"/></g><g transform="translate(65.151 33.833)"><path class="e" d="M-4.466-32.206a3.058,3.058,0,0,1-2.892-2.036,3.073,3.073,0,0,1,1.873-3.91c.448-.163,10.345-3.828,11.282-13.4a3.066,3.066,0,0,1,3.34-2.77,3.066,3.066,0,0,1,2.77,3.34C10.644-37.46-2.837-32.572-3.407-32.369a3.367,3.367,0,0,1-1.059.163" transform="translate(7.535 54.336)"/></g><g transform="translate(65.112 141.687)"><path class="e" d="M-22.6-41.621a2.9,2.9,0,0,1-1.3-.285c-15.68-7.454-14.214-24.8-14.173-25.537a3.094,3.094,0,0,1,3.34-2.77,3.08,3.08,0,0,1,2.77,3.3c-.041.571-1.059,13.888,10.712,19.468a3.063,3.063,0,0,1,1.425,4.073,3.085,3.085,0,0,1-2.77,1.751" transform="translate(38.131 70.22)"/></g><g transform="translate(70.362 99.935)"><path class="e" d="M-4.47-27.879a3.085,3.085,0,0,1-2.77-1.752A3.064,3.064,0,0,1-5.814-33.7c5.987-2.851,5.5-9.734,5.5-10.019a3.08,3.08,0,0,1,2.77-3.3,3.02,3.02,0,0,1,3.3,2.728c.041.448.937,11.4-8.96,16.088a2.339,2.339,0,0,1-1.263.326Z" transform="translate(7.541 47.036)"/></g></g></g><g transform="translate(0 91.229)"><g transform="translate(49.027)"><path class="b" d="M549.024,415.922H517a.6.6,0,0,1-.549-.354L511.7,405.089a.6.6,0,0,1,.549-.852h36.773a.6.6,0,0,1,.6.6v10.479A.6.6,0,0,1,549.024,415.922Z" transform="translate(-511.647 -404.237)"/><g class="f"><g transform="translate(2.959 -11.026)"><path class="e" d="M529.13,435.069l-.53-.352a15.366,15.366,0,0,1,3.445-4.107,4.622,4.622,0,0,1,3.711-1.092,8.75,8.75,0,0,1,1.451.387,8.33,8.33,0,0,0,1.365.373.834.834,0,0,1,.793,1.073,3.671,3.671,0,0,1-.752,1.7,3.773,3.773,0,0,1-1.437,1.13,3.021,3.021,0,0,1-1.758.224,4.389,4.389,0,0,1-1.32-.469,4.448,4.448,0,0,0-1.348-.473,2.824,2.824,0,0,0-1.851.252A8.677,8.677,0,0,0,529.13,435.069Z" transform="translate(-528.6 -414.031)"/><path class="e" d="M563.827,430.375q-1-.166-.856-1.054a3.648,3.648,0,0,1,.755-1.714,3.938,3.938,0,0,1,1.437-1.13,2.956,2.956,0,0,1,1.76-.238,2.783,2.783,0,0,0,1.607-.2,5.443,5.443,0,0,0,1.764-1.5l.568.3a16.79,16.79,0,0,1-1.133,1.96,12.383,12.383,0,0,1-1.584,1.929,6.634,6.634,0,0,1-1.979,1.379A4.008,4.008,0,0,1,563.827,430.375Z" transform="translate(-556.957 -409.965)"/><path class="e" d="M598.232,408.082l.047-.64q.778-.254,1.8-.643t2.1-.888q1.083-.5,2.008-1.021a10.284,10.284,0,0,0,1.54-1.039,1.768,1.768,0,0,0,.691-.974,3.156,3.156,0,0,0-.6-1.879,8.819,8.819,0,0,0-2.72-2.583,9.288,9.288,0,0,1,.586-.962q.409-.608.907-1.306t.965-1.3a8.706,8.706,0,0,1,.781-.9l.315.052a7.527,7.527,0,0,1,1.323,1.513,6.582,6.582,0,0,1,.9,2.032,6.01,6.01,0,0,1,.069,2.512,9.932,9.932,0,0,1-.661,2.215,12.272,12.272,0,0,1-1.2,2.2,10.434,10.434,0,0,1-1.532,1.791,4.563,4.563,0,0,1-1.655,1.02A29.267,29.267,0,0,1,598.232,408.082Z" transform="translate(-586.078 -384.719)"/><path class="e" d="M683.355,365.268q-3.379-.559-2.321-6.945.389-2.347.845-4.479t.876-3.87q.421-1.74.748-2.921t.456-1.6a12.694,12.694,0,0,1,.861-2.181q.524-1.031,1.248-2.206l.549.238a54.04,54.04,0,0,0-1.45,5.29q-.7,3.09-1.366,7.1-.19,1.146-.315,2.345a12.028,12.028,0,0,0-.036,2.259,3.831,3.831,0,0,0,.558,1.784,2.085,2.085,0,0,0,1.5.9q1.26.209.99,1.841a3.032,3.032,0,0,1-.733,1.673,2.493,2.493,0,0,1-1.206.712A3.05,3.05,0,0,1,683.355,365.268Z" transform="translate(-654.22 -341.065)"/><path class="e" d="M690.749,449.466q-1.231-.2-.961-1.836a3,3,0,0,1,.709-1.618,2.615,2.615,0,0,1,1.2-.743,2.8,2.8,0,0,1,1.207-.094,2.865,2.865,0,0,0,1.724-.288,5.459,5.459,0,0,0,1.891-1.82l.577.243a13.309,13.309,0,0,1-2.929,4.9A3.928,3.928,0,0,1,690.749,449.466Z" transform="translate(-661.613 -425.263)"/></g></g></g><g transform="translate(0)"><path d="M230.754,404.237h4.357a11.032,11.032,0,0,1,1.527.107,4.174,4.174,0,0,1,1.378.429,2.642,2.642,0,0,1,.99.9,2.759,2.759,0,0,1,.38,1.535,2.451,2.451,0,0,1-.553,1.642,3.04,3.04,0,0,1-1.461.932v.033a3.344,3.344,0,0,1,1.048.322,2.8,2.8,0,0,1,.809.611,2.606,2.606,0,0,1,.52.866,3.046,3.046,0,0,1,.182,1.056,2.808,2.808,0,0,1-.4,1.543,3.114,3.114,0,0,1-1.023,1,4.48,4.48,0,0,1-1.411.545,7.545,7.545,0,0,1-1.56.165h-4.786Zm2.575,4.671h1.865a2.609,2.609,0,0,0,.586-.066,1.618,1.618,0,0,0,.52-.214,1.118,1.118,0,0,0,.371-.4,1.189,1.189,0,0,0,.141-.594,1.08,1.08,0,0,0-.157-.6,1.094,1.094,0,0,0-.4-.371,1.931,1.931,0,0,0-.561-.19,3.361,3.361,0,0,0-.611-.058h-1.749Zm0,4.836h2.311a2.846,2.846,0,0,0,.6-.066,1.592,1.592,0,0,0,.553-.231,1.312,1.312,0,0,0,.4-.429,1.239,1.239,0,0,0,.157-.644,1.033,1.033,0,0,0-.206-.668,1.311,1.311,0,0,0-.52-.388,2.67,2.67,0,0,0-.677-.182,5.061,5.061,0,0,0-.677-.049h-1.948Z" transform="translate(-230.754 -404.237)"/><path d="M290.173,404.237H292.3l5.083,11.685h-2.9l-1.007-2.476h-4.539l-.974,2.476h-2.839Zm.99,3.4-1.419,3.631H292.6Z" transform="translate(-275.633 -404.237)"/><path d="M362.091,404.237h3.862a11.026,11.026,0,0,1,2.665.314,6.1,6.1,0,0,1,2.2,1.015,4.974,4.974,0,0,1,1.494,1.824,6.116,6.116,0,0,1,.553,2.723,5.557,5.557,0,0,1-.536,2.5,5.378,5.378,0,0,1-1.444,1.816,6.381,6.381,0,0,1-2.1,1.114,8.134,8.134,0,0,1-2.492.38h-4.209Zm2.575,9.308H366a7.19,7.19,0,0,0,1.659-.182,3.539,3.539,0,0,0,1.328-.6,2.887,2.887,0,0,0,.883-1.106,3.922,3.922,0,0,0,.322-1.675,3.268,3.268,0,0,0-.322-1.494,2.986,2.986,0,0,0-.866-1.048,3.8,3.8,0,0,0-1.279-.619,5.687,5.687,0,0,0-1.543-.206h-1.518Z" transform="translate(-339.167 -404.237)"/><path d="M433.669,404.237h2.574v11.685h-2.574Z" transform="translate(-398.252 -404.237)"/><path d="M459.993,404.237h2.129l5.083,11.685h-2.9l-1.007-2.476h-4.539l-.974,2.476h-2.839Zm.99,3.4-1.419,3.631h2.855Z" transform="translate(-415.813 -404.237)"/></g><g transform="translate(0.033 14.169)"><path d="M230.942,487.116h2.938l2.888,7.658h.033l2.938-7.658h2.756L237.676,498.8h-2.063Z" transform="translate(-230.942 -486.819)"/><path d="M304.7,487.116h7.938v2.376H307.27v2.179h5.067v2.376H307.27v2.377h5.661V498.8H304.7Z" transform="translate(-291.822 -486.819)"/><path d="M363.7,487.116h3.5l4.968,8.12h.033v-8.12h2.574V498.8H371.4l-5.1-8.318h-.033V498.8H363.7Z" transform="translate(-340.526 -486.819)"/><path d="M437.947,489.394h-3.334v-2.277h9.242v2.277h-3.334V498.8h-2.575Z" transform="translate(-399.064 -486.819)"/><path d="M504.886,494.3a5.64,5.64,0,0,1-.314,1.915,4.214,4.214,0,0,1-.932,1.518,4.268,4.268,0,0,1-1.543,1.007,6.472,6.472,0,0,1-4.275,0,4.266,4.266,0,0,1-1.543-1.007,4.213,4.213,0,0,1-.932-1.518,5.633,5.633,0,0,1-.314-1.915v-7.179h2.575v7.08a2.844,2.844,0,0,0,.173,1.007,2.4,2.4,0,0,0,.487.8,2.206,2.206,0,0,0,.751.528,2.354,2.354,0,0,0,.949.19,2.3,2.3,0,0,0,.941-.19,2.233,2.233,0,0,0,.743-.528,2.4,2.4,0,0,0,.487-.8,2.849,2.849,0,0,0,.173-1.007v-7.08h2.575Z" transform="translate(-448.938 -486.819)"/><path d="M565.1,487.116h4.522a7.978,7.978,0,0,1,1.692.173,4.014,4.014,0,0,1,1.4.578,2.882,2.882,0,0,1,.957,1.089,3.69,3.69,0,0,1,.355,1.708,3.43,3.43,0,0,1-.643,2.1,2.9,2.9,0,0,1-1.881,1.1l2.97,4.935h-3.086l-2.443-4.671h-1.271V498.8H565.1Zm2.575,4.836h1.518q.347,0,.734-.025a2.3,2.3,0,0,0,.7-.149,1.215,1.215,0,0,0,.52-.388,1.18,1.18,0,0,0,.206-.743,1.234,1.234,0,0,0-.182-.71,1.215,1.215,0,0,0-.462-.4,2.055,2.055,0,0,0-.644-.19,5.245,5.245,0,0,0-.71-.05h-1.683Z" transform="translate(-506.774 -486.819)"/><path d="M626.938,487.116h7.938v2.376h-5.363v2.179h5.066v2.376h-5.066v2.377h5.661V498.8h-8.235Z" transform="translate(-557.821 -486.819)"/><path d="M687.579,488.566a1.837,1.837,0,0,0-.85-.586,3.052,3.052,0,0,0-1.015-.19,2.675,2.675,0,0,0-.578.066,2.22,2.22,0,0,0-.561.206,1.22,1.22,0,0,0-.429.371,1.028,1.028,0,0,0,.231,1.37,3.744,3.744,0,0,0,1,.479q.6.2,1.3.4a5.34,5.34,0,0,1,1.3.561,3.073,3.073,0,0,1,1,.974,2.967,2.967,0,0,1,.4,1.634,3.76,3.76,0,0,1-.363,1.7,3.445,3.445,0,0,1-.982,1.2,4.178,4.178,0,0,1-1.436.71,6.589,6.589,0,0,1-3.837-.116,5.289,5.289,0,0,1-1.815-1.122l1.832-2.014a2.67,2.67,0,0,0,1,.817,2.851,2.851,0,0,0,1.246.289,2.81,2.81,0,0,0,.635-.074,2.071,2.071,0,0,0,.578-.223,1.245,1.245,0,0,0,.413-.38.946.946,0,0,0,.157-.545.989.989,0,0,0-.4-.833,3.734,3.734,0,0,0-1.015-.52q-.611-.214-1.32-.429a5.914,5.914,0,0,1-1.32-.578,3.179,3.179,0,0,1-1.015-.957,2.738,2.738,0,0,1-.4-1.568,3.511,3.511,0,0,1,.371-1.65,3.584,3.584,0,0,1,.99-1.188,4.307,4.307,0,0,1,1.428-.718,5.847,5.847,0,0,1,1.667-.239,6.56,6.56,0,0,1,1.915.28,4.424,4.424,0,0,1,1.667.941Z" transform="translate(-602.387 -485.414)"/></g></g><rect width="44" transform="translate(100.056 81.881) rotate(90)"/><rect width="44" height="2" rx="1" transform="translate(336.056 81.881) rotate(90)"/><rect width="44" height="2" rx="1" transform="translate(102.056 81.881) rotate(90)"/><text class="g" transform="translate(349.057 108.881)"><tspan x="0" y="0">Enterprise</tspan></text></g></svg>