<svg xmlns="http://www.w3.org/2000/svg" xmlns:xlink="http://www.w3.org/1999/xlink" width="160.682" height="48.842" viewBox="0 0 160.682 48.842"><defs><style>.a{fill:#94c529;}.b{clip-path:url(#a);}.c{fill:#fff;}</style><clipPath id="a"><path class="a" d="M580.674,425.816H521.53a1.113,1.113,0,0,1-1.014-.654l-8.769-19.352a1.113,1.113,0,0,1,1.014-1.573h67.912a1.113,1.113,0,0,1,1.113,1.113V424.7A1.113,1.113,0,0,1,580.674,425.816Z" transform="translate(-511.647 -404.237)"/></clipPath></defs><g transform="translate(-230.754 -404.237)"><g transform="translate(321.296 404.237)"><path class="a" d="M580.674,425.816H521.53a1.113,1.113,0,0,1-1.014-.654l-8.769-19.352a1.113,1.113,0,0,1,1.014-1.573h67.912a1.113,1.113,0,0,1,1.113,1.113V424.7A1.113,1.113,0,0,1,580.674,425.816Z" transform="translate(-511.647 -404.237)"/><g class="b"><g transform="translate(5.464 -20.363)"><path class="c" d="M529.579,439.819l-.979-.651a28.38,28.38,0,0,1,6.363-7.585,8.537,8.537,0,0,1,6.853-2.016,16.15,16.15,0,0,1,2.679.715,15.388,15.388,0,0,0,2.521.689,1.54,1.54,0,0,1,1.465,1.981,6.778,6.778,0,0,1-1.389,3.138,6.967,6.967,0,0,1-2.655,2.087,5.578,5.578,0,0,1-3.247.413,8.107,8.107,0,0,1-2.437-.865,8.213,8.213,0,0,0-2.49-.874,5.216,5.216,0,0,0-3.418.466A16.023,16.023,0,0,0,529.579,439.819Z" transform="translate(-528.6 -400.967)"/><path class="c" d="M564.568,435.323q-1.85-.307-1.58-1.946a6.736,6.736,0,0,1,1.393-3.165,7.272,7.272,0,0,1,2.655-2.087,5.459,5.459,0,0,1,3.251-.439,5.141,5.141,0,0,0,2.969-.378,10.053,10.053,0,0,0,3.257-2.775l1.049.554a31.005,31.005,0,0,1-2.093,3.619,22.874,22.874,0,0,1-2.925,3.563,12.253,12.253,0,0,1-3.654,2.546A7.4,7.4,0,0,1,564.568,435.323Z" transform="translate(-551.88 -397.628)"/><path class="c" d="M598.232,420.048l.086-1.181q1.437-.469,3.321-1.188t3.884-1.639q2-.918,3.708-1.885a18.989,18.989,0,0,0,2.844-1.919,3.266,3.266,0,0,0,1.275-1.8,5.828,5.828,0,0,0-1.109-3.471,16.288,16.288,0,0,0-5.023-4.771,17.126,17.126,0,0,1,1.082-1.776q.755-1.124,1.676-2.412t1.782-2.394a16.078,16.078,0,0,1,1.443-1.663l.582.1a13.9,13.9,0,0,1,2.443,2.795,12.155,12.155,0,0,1,1.661,3.752,11.1,11.1,0,0,1,.128,4.639,18.355,18.355,0,0,1-1.22,4.09,22.684,22.684,0,0,1-2.221,4.06,19.28,19.28,0,0,1-2.83,3.307,8.428,8.428,0,0,1-3.056,1.884A54.041,54.041,0,0,1,598.232,420.048Z" transform="translate(-575.787 -376.903)"/><path class="c" d="M685.534,385.762q-6.241-1.033-4.287-12.825.718-4.335,1.56-8.271t1.618-7.148q.776-3.213,1.382-5.394t.843-2.958a23.436,23.436,0,0,1,1.59-4.028q.967-1.9,2.305-4.073l1.013.44a99.787,99.787,0,0,0-2.677,9.77q-1.3,5.707-2.524,13.11-.35,2.116-.581,4.331a22.209,22.209,0,0,0-.066,4.172,7.075,7.075,0,0,0,1.03,3.294,3.851,3.851,0,0,0,2.769,1.654q2.327.385,1.828,3.4a5.6,5.6,0,0,1-1.354,3.09,4.6,4.6,0,0,1-2.228,1.315A5.634,5.634,0,0,1,685.534,385.762Z" transform="translate(-631.728 -341.065)"/><path class="c" d="M691.6,454.885q-2.274-.377-1.775-3.39a5.532,5.532,0,0,1,1.31-2.989,4.829,4.829,0,0,1,2.21-1.373,5.173,5.173,0,0,1,2.23-.174,5.291,5.291,0,0,0,3.184-.532,10.082,10.082,0,0,0,3.491-3.361l1.066.449q-2.382,6.179-5.41,9.046T691.6,454.885Z" transform="translate(-637.798 -410.188)"/></g></g></g><g transform="translate(230.754 404.237)"><path class="c" d="M230.754,404.237H238.8a20.375,20.375,0,0,1,2.819.2,7.708,7.708,0,0,1,2.545.792,4.88,4.88,0,0,1,1.829,1.661,5.1,5.1,0,0,1,.7,2.835,4.527,4.527,0,0,1-1.021,3.033,5.614,5.614,0,0,1-2.7,1.722v.061a6.172,6.172,0,0,1,1.935.594,5.167,5.167,0,0,1,1.494,1.128,4.812,4.812,0,0,1,.96,1.6,5.626,5.626,0,0,1,.335,1.95,5.185,5.185,0,0,1-.731,2.85,5.752,5.752,0,0,1-1.89,1.844,8.276,8.276,0,0,1-2.606,1.006,13.937,13.937,0,0,1-2.88.3h-8.839Zm4.755,8.625h3.444a4.824,4.824,0,0,0,1.082-.122,2.99,2.99,0,0,0,.96-.4,2.064,2.064,0,0,0,.686-.731,2.195,2.195,0,0,0,.259-1.1,2,2,0,0,0-.29-1.113,2.021,2.021,0,0,0-.747-.686,3.567,3.567,0,0,0-1.036-.35,6.208,6.208,0,0,0-1.128-.107h-3.231Zm0,8.93h4.267a5.257,5.257,0,0,0,1.112-.122,2.942,2.942,0,0,0,1.021-.427,2.423,2.423,0,0,0,.747-.792,2.289,2.289,0,0,0,.29-1.189,1.909,1.909,0,0,0-.381-1.234,2.422,2.422,0,0,0-.96-.716,4.939,4.939,0,0,0-1.249-.336,9.351,9.351,0,0,0-1.25-.091h-3.6Z" transform="translate(-230.754 -404.237)"/><path class="c" d="M294.45,404.237h3.931l9.387,21.579H302.4l-1.859-4.572h-8.382l-1.8,4.572h-5.242Zm1.828,6.278-2.621,6.705h5.273Z" transform="translate(-267.598 -404.237)"/><path class="c" d="M362.091,404.237h7.132a20.369,20.369,0,0,1,4.922.579,11.266,11.266,0,0,1,4.069,1.874,9.188,9.188,0,0,1,2.759,3.368,11.3,11.3,0,0,1,1.021,5.029A10.261,10.261,0,0,1,381,419.7a9.929,9.929,0,0,1-2.667,3.353,11.783,11.783,0,0,1-3.871,2.057,15.019,15.019,0,0,1-4.6.7h-7.772Zm4.755,17.19h2.469a13.281,13.281,0,0,0,3.063-.335,6.538,6.538,0,0,0,2.453-1.113,5.332,5.332,0,0,0,1.631-2.042,7.242,7.242,0,0,0,.595-3.093,6.035,6.035,0,0,0-.595-2.759,5.516,5.516,0,0,0-1.6-1.935,7.015,7.015,0,0,0-2.362-1.143,10.5,10.5,0,0,0-2.85-.381h-2.8Z" transform="translate(-319.756 -404.237)"/><path class="c" d="M433.669,404.237h4.754v21.579h-4.754Z" transform="translate(-368.262 -404.237)"/><path class="c" d="M464.27,404.237H468.2l9.387,21.579h-5.364l-1.859-4.572h-8.382l-1.8,4.572h-5.242Zm1.829,6.278-2.621,6.705h5.273Z" transform="translate(-382.679 -404.237)"/></g><g transform="translate(230.815 430.403)"><path class="c" d="M230.942,487.116h5.425l5.334,14.142h.061l5.425-14.142h5.09l-8.9,21.579h-3.81Z" transform="translate(-230.942 -486.567)"/><path class="c" d="M304.7,487.116h14.66V491.5H309.45v4.023h9.357v4.389H309.45v4.389H319.9v4.389H304.7Z" transform="translate(-280.922 -486.567)"/><path class="c" d="M363.7,487.116h6.462l9.174,15h.061v-15h4.754v21.579h-6.217l-9.418-15.361h-.061v15.361H363.7Z" transform="translate(-320.905 -486.567)"/><path class="c" d="M440.77,491.322h-6.157v-4.206h17.068v4.206h-6.157v17.373H440.77Z" transform="translate(-368.963 -486.567)"/><path class="c" d="M513.229,500.374a10.415,10.415,0,0,1-.579,3.536,7.781,7.781,0,0,1-1.722,2.8,7.881,7.881,0,0,1-2.85,1.859,11.952,11.952,0,0,1-7.894,0,7.878,7.878,0,0,1-2.85-1.859,7.778,7.778,0,0,1-1.722-2.8,10.4,10.4,0,0,1-.579-3.536V487.116h4.755v13.075a5.253,5.253,0,0,0,.32,1.859,4.433,4.433,0,0,0,.9,1.478,4.073,4.073,0,0,0,1.387.975,4.346,4.346,0,0,0,1.752.35,4.245,4.245,0,0,0,1.737-.35,4.123,4.123,0,0,0,1.372-.975,4.44,4.44,0,0,0,.9-1.478,5.26,5.26,0,0,0,.32-1.859V487.116h4.755Z" transform="translate(-409.907 -486.567)"/><path class="c" d="M565.1,487.116h8.351a14.734,14.734,0,0,1,3.124.32,7.415,7.415,0,0,1,2.591,1.067,5.323,5.323,0,0,1,1.768,2.012,6.812,6.812,0,0,1,.655,3.154,6.333,6.333,0,0,1-1.189,3.886,5.35,5.35,0,0,1-3.474,2.027l5.486,9.113h-5.7l-4.511-8.625h-2.347v8.625H565.1Zm4.755,8.93h2.8q.641,0,1.356-.046a4.254,4.254,0,0,0,1.3-.274,2.244,2.244,0,0,0,.96-.716,2.179,2.179,0,0,0,.381-1.371,2.279,2.279,0,0,0-.335-1.311,2.243,2.243,0,0,0-.853-.747,3.8,3.8,0,0,0-1.189-.35,9.7,9.7,0,0,0-1.311-.092h-3.109Z" transform="translate(-457.388 -486.567)"/><path class="c" d="M626.938,487.116H641.6V491.5h-9.905v4.023h9.357v4.389h-9.357v4.389h10.454v4.389H626.938Z" transform="translate(-499.295 -486.567)"/><path class="c" d="M693.211,491.235a3.393,3.393,0,0,0-1.569-1.082,5.638,5.638,0,0,0-1.875-.35,4.942,4.942,0,0,0-1.067.122,4.1,4.1,0,0,0-1.036.381,2.253,2.253,0,0,0-.792.686,1.9,1.9,0,0,0,.427,2.53,6.919,6.919,0,0,0,1.844.884q1.112.366,2.393.731a9.86,9.86,0,0,1,2.393,1.036,5.673,5.673,0,0,1,1.844,1.8,5.48,5.48,0,0,1,.731,3.017,6.943,6.943,0,0,1-.671,3.139,6.364,6.364,0,0,1-1.813,2.225,7.717,7.717,0,0,1-2.652,1.311,12.167,12.167,0,0,1-7.086-.213,9.769,9.769,0,0,1-3.353-2.073l3.383-3.718a4.931,4.931,0,0,0,1.844,1.509,5.265,5.265,0,0,0,2.3.533,5.193,5.193,0,0,0,1.173-.137,3.824,3.824,0,0,0,1.067-.412,2.3,2.3,0,0,0,.762-.7,1.748,1.748,0,0,0,.29-1.006,1.826,1.826,0,0,0-.747-1.539,6.9,6.9,0,0,0-1.874-.96q-1.128-.4-2.439-.793a10.913,10.913,0,0,1-2.438-1.067,5.87,5.87,0,0,1-1.875-1.768,5.056,5.056,0,0,1-.747-2.9,6.484,6.484,0,0,1,.686-3.048,6.62,6.62,0,0,1,1.829-2.194,7.953,7.953,0,0,1,2.637-1.326,10.8,10.8,0,0,1,3.078-.442,12.116,12.116,0,0,1,3.536.518,8.168,8.168,0,0,1,3.078,1.737Z" transform="translate(-535.882 -485.414)"/></g></g></svg>