<svg xmlns="http://www.w3.org/2000/svg" width="234.509" height="148.9" viewBox="0 0 234.509 148.9"><defs><style>.a{fill:#94c529;}</style></defs><path class="a" d="M202.818,157.768a26.773,26.773,0,1,0-30.717,0,46.389,46.389,0,0,0-15.823,9.28,60.027,60.027,0,0,0-21.716-11.832,33.919,33.919,0,1,0-35.079,0A60.527,60.527,0,0,0,78,166.909a46.766,46.766,0,0,0-15.637-9.095,26.773,26.773,0,1,0-30.717,0A47,47,0,0,0,0,202.22v3.062a.2.2,0,0,0,.186.186H56.934a62.41,62.41,0,0,0-.51,7.842v3.155A24.674,24.674,0,0,0,81.109,241.15H153.03a24.674,24.674,0,0,0,24.685-24.685V213.31a62.407,62.407,0,0,0-.51-7.842h57.119a.2.2,0,0,0,.186-.186V202.22A47.176,47.176,0,0,0,202.818,157.768ZM168.11,135.82a19.349,19.349,0,1,1,19.72,19.349h-.742A19.321,19.321,0,0,1,168.11,135.82Zm-77.675-9.651a26.495,26.495,0,1,1,28.026,26.448H115.4A26.533,26.533,0,0,1,90.435,126.169ZM27.516,135.82a19.349,19.349,0,1,1,19.72,19.349h-.742A19.352,19.352,0,0,1,27.516,135.82ZM58.233,198H7.517a39.646,39.646,0,0,1,39.069-35.4h.557a39.234,39.234,0,0,1,25.288,9.419A60.924,60.924,0,0,0,58.233,198ZM170.2,216.465a17.288,17.288,0,0,1-17.261,17.261H81.016a17.288,17.288,0,0,1-17.261-17.261V213.31A53.3,53.3,0,0,1,115.4,160.088c.51.046,1.067.046,1.578.046s1.067,0,1.578-.046A53.3,53.3,0,0,1,170.2,213.31ZM175.72,198a60.763,60.763,0,0,0-14.059-25.8,39.423,39.423,0,0,1,25.52-9.6h.557A39.646,39.646,0,0,1,226.807,198Z" transform="translate(0 -92.25)"/></svg>