<svg xmlns="http://www.w3.org/2000/svg" width="167.589" height="168.189" viewBox="0 0 167.589 168.189"><defs><style>.a{fill:#94c529;}</style></defs><path class="a" d="M300.044,165.439a6.671,6.671,0,0,0,4.64-6.32V53.921a6.67,6.67,0,0,0-4.64-6.316l-77.1-24.861a6.668,6.668,0,0,0-4.087,0L141.742,47.6a6.677,6.677,0,0,0-4.647,6.32v105.2a6.673,6.673,0,0,0,4.64,6.32l77.1,24.857a6.814,6.814,0,0,0,4.11,0Zm-72.517,9.428V83.6L291.41,63.029V154.29ZM220.89,36.035l55.453,17.886L220.89,71.8l-55.454-17.88Zm-70.521,27,63.883,20.576V174.87l-63.883-20.576Z" transform="translate(-137.095 -22.424)"/></svg>