<svg xmlns="http://www.w3.org/2000/svg" width="210.479" height="163.084" viewBox="0 0 210.479 163.084"><defs><style>.a{fill:#94c529;}</style></defs><g transform="translate(0 -57.645)"><g transform="translate(0 57.645)"><path class="a" d="M209.158,113.073l-5.482-9.5a4.111,4.111,0,0,0-7.12,4.11l5.483,9.5a1.6,1.6,0,0,1-.587,2.191l-14.5,8.371a1.608,1.608,0,0,1-2.192-.587L155.6,76.642a1.607,1.607,0,0,1,.587-2.192l14.5-8.37a1.607,1.607,0,0,1,2.192.587l5.184,8.98a4.111,4.111,0,1,0,7.12-4.111l-5.185-8.98a9.837,9.837,0,0,0-13.423-3.6l-14.5,8.37a9.791,9.791,0,0,0-4.443,5.525h-41.1a21.463,21.463,0,0,0-15.276,6.328l-4.211,4.211A48.629,48.629,0,0,0,75.762,82.06H63a9.8,9.8,0,0,0-4.593-6.049l-14.5-8.371a9.827,9.827,0,0,0-13.423,3.6L1.321,121.754a9.825,9.825,0,0,0,3.6,13.423l14.5,8.371a9.762,9.762,0,0,0,4.9,1.315,9.891,9.891,0,0,0,1.8-.169l11.866,11.867a14.952,14.952,0,0,0-.276,2.861,14.771,14.771,0,0,0,13.967,14.757,15.017,15.017,0,0,0-.083,1.561,14.789,14.789,0,0,0,14.789,14.789c.107,0,.213-.005.32-.008,0,.107-.008.213-.008.32A14.789,14.789,0,0,0,81.48,205.628c.107,0,.213-.005.32-.008,0,.107-.008.213-.008.32A14.788,14.788,0,0,0,107.038,216.4l5.848-5.848a14.692,14.692,0,0,0,3.61-5.914,14.8,14.8,0,0,0,22.9-7.515,14.8,14.8,0,0,0,22.557-9.411,14.791,14.791,0,0,0,15.12-24.5l-9.594-9.594,17.513-17.513a9.9,9.9,0,0,0,1.174.073,9.765,9.765,0,0,0,4.9-1.314l14.5-8.37a9.826,9.826,0,0,0,3.6-13.422ZM9.027,128.057a1.6,1.6,0,0,1-.587-2.192L37.607,75.348a1.6,1.6,0,0,1,.974-.747,1.649,1.649,0,0,1,.42-.055,1.583,1.583,0,0,1,.8.215l14.5,8.37a1.607,1.607,0,0,1,.587,2.192L25.718,135.84a1.607,1.607,0,0,1-2.192.587Zm36.9,31.363a6.523,6.523,0,0,1,1.924-4.644l3.548-3.548a6.567,6.567,0,1,1,9.287,9.287l-3.547,3.548a6.567,6.567,0,0,1-11.211-4.643Zm20.451,22.885a6.567,6.567,0,0,1-4.644-11.21l5.848-5.848a6.567,6.567,0,1,1,9.287,9.287l-5.847,5.848A6.524,6.524,0,0,1,66.379,182.305Zm15.1,15.1A6.567,6.567,0,0,1,76.837,186.2l5.848-5.847a6.567,6.567,0,1,1,9.287,9.287l-5.848,5.848A6.523,6.523,0,0,1,81.48,197.407Zm25.593,7.33-5.848,5.848a6.567,6.567,0,1,1-9.287-9.288l5.848-5.847a6.567,6.567,0,1,1,9.287,9.287Zm64.188-26.42a6.566,6.566,0,0,1-9.287,0l-39.237-39.237a4.111,4.111,0,1,0-5.814,5.814l35.188,35.189a6.567,6.567,0,1,1-9.287,9.287l-42.284-42.284a4.111,4.111,0,0,0-5.814,5.814l35.188,35.189a6.567,6.567,0,1,1-9.287,9.287l-7.739-7.739c-.011-.011-.023-.02-.033-.03a14.741,14.741,0,0,0-10.745-4.286c0-.109.008-.217.008-.327a14.769,14.769,0,0,0-15.109-14.774c0-.109.008-.217.008-.327a14.778,14.778,0,0,0-16.2-14.715,14.789,14.789,0,0,0-25.229-9.761l-3.548,3.547-.012.013L32.9,139.847,61.514,90.282H75.762a40.366,40.366,0,0,1,4.173.218l-4.7,4.7A14.789,14.789,0,0,0,96.15,116.114l11.1-11.1,64.013,64.013a6.574,6.574,0,0,1,0,9.287Zm-39.5-60.41A23.328,23.328,0,0,0,141.414,99a4.111,4.111,0,1,0-8.221,0,15.106,15.106,0,0,1-7.362,12.972L110.174,96.314a4.107,4.107,0,0,0-5.81-.042L90.336,110.3a6.567,6.567,0,1,1-9.287-9.287L97.066,85a13.293,13.293,0,0,1,9.463-3.919h42.134l28.979,50.194c.069.119.143.232.216.347l-16.19,16.19Z" transform="translate(0 -57.645)"/><path class="a" d="M458.4,133.631a4.112,4.112,0,1,0-2.906-1.2A4.15,4.15,0,0,0,458.4,133.631Z" transform="translate(-267.538 -97.552)"/></g></g></svg>