<svg xmlns="http://www.w3.org/2000/svg" width="497.787" height="380.238" viewBox="0 0 497.787 380.238"><defs><style>.a,.i,.l{fill:#94c529;}.b,.c,.e,.k{fill:#fff;}.b{opacity:0.7;}.b,.k{isolation:isolate;}.c,.d,.e,.f,.h,.l,.o,.p{stroke:#263238;}.c,.d,.e,.f,.h,.i,.j,.l,.m,.n,.o,.p{stroke-linecap:round;stroke-linejoin:round;}.d,.f,.g,.j{fill:#263238;}.e,.f{stroke-width:0.711px;}.h,.m,.n,.o,.p{fill:none;}.h,.m{stroke-width:0.75px;}.i,.j,.m,.n{stroke:#fff;}.k{opacity:0.3;}.p{stroke-width:0.5px;}</style></defs><g transform="translate(-35.903 -78.649)"><g transform="translate(35.903 126.045)"><path class="a" d="M109.876,435.2S75.4,449.772,50.283,398.726,30.027,299.878,88.341,269.9s84.267-116.685,161.243-141.8,135.313,8.919,161.243,45.348,21.872,59.965,68.058,91.557,57.534,63.953,54.29,102.906-50.232,66.441-50.232,66.441Z" transform="translate(-35.903 -119.454)"/><path class="b" d="M109.876,435.2S75.4,449.772,50.283,398.726,30.027,299.878,88.341,269.9s84.267-116.685,161.243-141.8,135.313,8.919,161.243,45.348,21.872,59.965,68.058,91.557,57.534,63.953,54.29,102.906-50.232,66.441-50.232,66.441Z" transform="translate(-35.903 -119.454)"/></g><g transform="translate(141.754 78.958)"><path class="c" d="M132.57,81.8s2.326-3.046,16-2.326,52.941,5.349,70.848,4.186,46.511-6.86,51.418-3.814-1.907,8.465-1.907,8.465l-131.022-.384Z" transform="translate(-126.018 -78.958)"/><path class="d" d="M138.824,87.5s.756-6.477-5.337-6.093-8.384,7.616-4.953,15.616,6.477,7.616,11.814,26.663,1.9,89.127,1.9,106.65.384,22.093.384,22.093l13.337-1.907s-2.674-119.22-6.477-138.266S138.824,87.5,138.824,87.5Z" transform="translate(-126.935 -78.563)"/><path class="c" d="M167.468,224.33c0,1.523-5.7,169.01-5.7,169.01l6.465-1.163,6.058-165.289Z" transform="translate(-121.265 -55.295)"/><path class="d" d="M162.546,393.251l5.663-167.615-4.953-.756L157,390.518Z" transform="translate(-122.041 -55.205)"/><path class="d" d="M240.92,214.66c.116,1.512,15.918,167.44,15.918,167.44l-5.046-2.721L234.35,217.672Z" transform="translate(-109.45 -56.869)"/><path class="e" d="M255.879,382.075,240.1,216.006l4.884-1.116,16.709,166.022Z" transform="translate(-108.514 -56.831)"/><path class="e" d="M192.106,218c0,1.081-4.046,120.15-4.046,120.15l4.593-.837,4.3-117.511Z" transform="translate(-116.985 -56.325)"/><path class="f" d="M188.612,338.087l4.023-119.162-3.523-.535L184.67,336.145Z" transform="translate(-117.537 -56.261)"/><path class="c" d="M137.16,86.64c.372,1.907,10.279,168.743,10.279,168.743l135.6-6.477L268.182,87.059Z" transform="translate(-125.271 -77.708)"/><path class="g" d="M176.738,168.209l-10.93.2-4.988-63.139,10.942-.2Z" transform="translate(-121.419 -74.708)"/><path class="a" d="M190.282,165.34l-10.942.2-3.5-44.43,10.93-.2Z" transform="translate(-118.974 -72.129)"/><path class="g" d="M203.857,163.018l-10.93.2-2.337-29.628,10.93-.2Z" transform="translate(-116.573 -70.098)"/><path class="a" d="M217.968,167.461l-10.93.2-4.988-63.139,10.942-.209Z" transform="translate(-114.708 -74.832)"/><line class="h" y1="0.128" x2="6.732" transform="translate(27.877 33.769)"/><line class="h" y1="0.116" x2="6.732" transform="translate(28.552 42.35)"/><line class="h" y1="0.128" x2="6.732" transform="translate(29.226 50.92)"/><line class="h" y1="0.128" x2="6.721" transform="translate(29.912 59.49)"/><line class="h" y1="0.116" x2="6.732" transform="translate(30.587 68.071)"/><line class="h" y1="0.128" x2="6.732" transform="translate(31.261 76.641)"/><line class="h" y1="0.116" x2="6.733" transform="translate(31.936 85.222)"/><line class="h" y1="0.128" x2="6.721" transform="translate(32.622 93.792)"/><path class="i" d="M211.217,194.9v-.919a25.78,25.78,0,0,0-6.407-17.046l-19.5,17.046Z" transform="translate(-117.433 -63.009)"/><path class="j" d="M190.973,169.393c-.674,0-1.349-.093-2.035-.093a25.93,25.93,0,0,0-11.477,49.174l11.477-23.256Z" transform="translate(-121.061 -64.252)"/><path class="i" d="M186.917,191.6,175.44,214.856a25.638,25.638,0,0,0,11.477,2.686,25.918,25.918,0,0,0,25.907-25.011Z" transform="translate(-119.04 -60.622)"/><path class="i" d="M204.827,178.171a25.816,25.816,0,0,0-17.442-8.791l-2.035,25.837Z" transform="translate(-117.426 -64.239)"/></g><g transform="translate(374.505 176.021)"><path class="a" d="M327.262,187.348a4.442,4.442,0,0,1,3.109-5.458,4.52,4.52,0,0,1,.461-.1c3.721-.5,8.291,4.488,9.732,7.512.128.256,1.6,4.57,1.535,4.57s-6.593.151-9.3-1.023C330.53,191.848,327.879,189.929,327.262,187.348Zm95.557-11.465c-.558,2.593-3.14,4.57-5.407,5.639s-7.628,1.244-8.953,1.267c-.709.849-1.465,1.767-2.326,2.791-1.407,1.826-3,3.9-4.57,6.256-.419.628-.837,1.326-1.267,1.988.953-.977,2.267-2.326,2.419-2.4,2.616-2.093,8.907-4.593,12.035-2.512a4.441,4.441,0,0,1,1.069,6.191,4.351,4.351,0,0,1-.289.367c-1.686,2.058-4.9,2.616-7.4,2.523s-7.512-2.488-8.57-3.012c-.919,1.477-1.837,3.035-2.686,4.651a58.222,58.222,0,0,0-3.942,9.407l.2.1c.767-1,2.419-3.07,2.581-3.233,2.326-2.326,8.349-5.535,11.686-3.814a4.441,4.441,0,0,1,1.742,6.035,4.317,4.317,0,0,1-.253.407c-1.442,2.221-4.57,3.14-7.07,3.314-2.872.2-8.826-2.046-9.058-2.128a79.85,79.85,0,0,0-2.163,9.907c-.384,2.477-.674,5-.942,7.535.523-.721,2.7-3.488,2.872-3.616,2.326-2.326,8.36-5.535,11.686-3.814a4.453,4.453,0,0,1,1.742,6.052,4.34,4.34,0,0,1-.242.39c-1.453,2.221-4.581,3.14-7.081,3.314-2.8.2-8.512-1.93-9-2.116-.116,1.163-.244,2.326-.36,3.488-.36,3.767-.709,7.558-1.163,11.279-.163,1.279-.372,2.546-.57,3.814.814-1.047,2.326-2.942,2.477-3.081,2.326-2.326,8.36-5.535,11.628-3.814a4.43,4.43,0,0,1,1.759,6.013,4.382,4.382,0,0,1-.259.417c-1.453,2.221-4.581,3.14-7.081,3.314s-7.349-1.512-8.7-2c-.349,2.1-.744,4.186-1.233,6.221-.221.872-.4,1.767-.663,2.593s-.5,1.663-.744,2.488c-.57,1.674-1.081,3.233-1.651,4.791-.279.779-.57,1.512-.849,2.267.663-1.163,1.744-3.058,1.86-3.209,1.988-2.7,7.419-6.744,10.977-5.546a4.452,4.452,0,0,1,2.633,5.721,4.149,4.149,0,0,1-.179.419c-1.093,2.407-4.058,3.791-6.5,4.349-2.686.6-8.465-.57-9.174-.721-.7,1.86-1.4,3.651-2.081,5.326-2.163,5.291-4.174,9.6-5.616,12.616l-.233.488h10.523l-3.628,70.848a10.138,10.138,0,0,1-10.116,9.616h0a10.138,10.138,0,0,1-10.116-9.616l-3.628-70.848h11.291a14.433,14.433,0,0,0-.174-1.593c-.384-3.279-.988-7.953-1.965-13.523-.279-1.616-.6-3.314-.953-5.058-.733.1-6.57.837-9.2,0-2.4-.733-5.244-2.326-6.151-4.826a4.431,4.431,0,0,1,2.436-5.772,4.278,4.278,0,0,1,.459-.158c3.64-.93,8.756,3.488,10.535,6.337.116.186,1.221,2.488,1.767,3.663-.221-1.047-.43-2.093-.674-3.186-.326-1.57-.732-3.221-1.163-4.826l-.7-2.5c-.221-.849-.535-1.64-.8-2.477-.419-1.163-.907-2.442-1.384-3.674-1.581.442-6.244,1.651-8.651,1.3s-5.523-1.512-6.8-3.837a4.424,4.424,0,0,1,1.965-6.3c3.488-1.465,9.186,2.139,11.372,4.651.07.081.477.663.953,1.36-.5-1.163-1.012-2.326-1.57-3.558-1.581-3.36-3.291-6.733-4.988-10.128-.36-.709-.7-1.419-1.058-2.128-1.326.384-6.372,1.733-8.884,1.372s-5.523-1.512-6.8-3.837a4.424,4.424,0,0,1,1.965-6.3c3.488-1.477,9.186,2.14,11.372,4.651.081.081.57.791,1.1,1.57-.907-1.849-1.779-3.709-2.581-5.581a79.274,79.274,0,0,1-3.57-9.872c-.465.14-6.337,1.849-9.14,1.442-2.477-.36-5.523-1.512-6.8-3.837a4.424,4.424,0,0,1,1.965-6.3c3.488-1.465,9.186,2.14,11.372,4.651.163.174,1.9,2.709,2.488,3.64a.488.488,0,0,1,0-.116,57.08,57.08,0,0,1-1.709-10.151,80.663,80.663,0,0,1-.221-9.2c.07-2.86.3-5.453.535-7.756.128-1.244.279-2.384.419-3.488h-.058c-.058,0-1.314-4.349-1.372-4.651-.547-3.3.326-10.012,3.663-11.744a4.455,4.455,0,0,1,6.116,2.512c.965,2.465-.093,5.558-1.4,7.686s-5.535,5.5-6.7,6.3c-.128,1.163-.256,2.326-.36,3.593-.186,2.326-.36,4.9-.36,7.732v2.326c.256-1.337.628-3.163.686-3.337,1.035-3.186,4.907-8.732,8.651-8.732a4.442,4.442,0,0,1,4.307,4.572,4.313,4.313,0,0,1-.04.474c-.267,2.64-2.64,4.884-4.779,6.186s-7.628,2.07-8.814,2.209c.058,1.744.151,3.488.36,5.407a58.387,58.387,0,0,0,1.907,10.023h.221c.081-1.256.326-3.907.372-4.116.674-3.291,3.907-9.232,7.64-9.628a4.438,4.438,0,0,1,4.8,4.546c0,2.64-2.093,5.139-4.081,6.663-2.326,1.756-8.488,3.163-8.721,3.209a77.863,77.863,0,0,0,3.663,9.465c1.047,2.326,2.2,4.546,3.372,6.8,0-.884.349-4.349.4-4.593.674-3.291,3.919-9.232,7.651-9.639a4.43,4.43,0,0,1,4.778,4.053,4.353,4.353,0,0,1,.013.493c0,2.651-2.081,5.151-4.07,6.674-2.233,1.709-8.139,3.093-8.674,3.2l1.6,3.081c1.779,3.349,3.57,6.7,5.233,10.058.581,1.163,1.1,2.326,1.64,3.488.093-1.326.314-3.744.36-3.942.674-3.291,3.919-9.232,7.651-9.628a4.43,4.43,0,0,1,4.778,4.053,4.354,4.354,0,0,1,.013.493c0,2.639-2.081,5.139-4.07,6.663s-6.977,2.791-8.372,3.128c.872,1.953,1.7,3.907,2.419,5.814.291.86.64,1.709.872,2.535s.5,1.663.756,2.488c.453,1.709.872,3.3,1.256,4.907.2.8.36,1.57.547,2.326-.1-1.36-.233-3.488-.221-3.709.174-3.349,2.477-9.709,6.093-10.674a4.441,4.441,0,0,1,5.345,3.3,4.3,4.3,0,0,1,.085.469,4.657,4.657,0,0,1,.07.977,17.347,17.347,0,0,1,2.326,8.4c0,.209-.349,2.744-.558,4.023.407-.988.8-1.977,1.163-3.023.581-1.5,1.163-3.1,1.721-4.651.256-.814.523-1.639.791-2.465s.465-1.663.709-2.5c.314-1.244.593-2.547.86-3.837-1.558-.5-6.116-2.07-7.919-3.686s-3.779-4.314-3.57-6.977a4.453,4.453,0,0,1,4.674-4.221,4.541,4.541,0,0,1,.453.047c3.686.686,6.477,6.849,6.907,10.174v1.663c.221-1.267.453-2.535.651-3.837.535-3.674.965-7.43,1.419-11.2.093-.779.2-1.57.291-2.326-1.314-.419-6.267-2.07-8.139-3.767s-3.779-4.314-3.558-6.977a4.436,4.436,0,0,1,5.116-4.174c3.7.686,6.477,6.849,6.907,10.174v1.919c.279-2.046.581-4.07.93-6.081a78.791,78.791,0,0,1,2.477-10.2c-.465-.14-6.314-1.965-8.419-3.837-1.86-1.674-3.779-4.314-3.558-6.977a4.431,4.431,0,0,1,4.627-4.224,4.592,4.592,0,0,1,.49.05c3.686.674,6.477,6.849,6.907,10.174,0,.233.081,3.3.058,4.407v-.116a57.517,57.517,0,0,1,4.186-9.419,79.776,79.776,0,0,1,4.884-7.791c1.628-2.326,3.267-4.384,4.721-6.174.8-.965,1.547-1.826,2.256-2.628h-.081c-.07,0,1.3-4.349,1.419-4.651,1.36-3.058,5.814-8.139,9.523-7.767a4.455,4.455,0,0,1,3.919,5.581ZM379.8,265.917c-.64-.314-5.558-2.744-7.488-4.826a47.724,47.724,0,0,1-5.128,2.419c.442,1.93.849,3.814,1.163,5.581,1.163,5.6,1.826,10.314,2.326,13.628.093.7.174,1.326.256,1.907h.244l.826-1.6c1.488-2.942,3.57-7.174,5.814-12.372.64-1.477,1.3-3.07,1.977-4.721Zm19.651-71.639c.058,0,1.163-4.372,1.244-4.651.465-3.314-.593-10-3.977-11.628a4.443,4.443,0,0,0-6.047,2.674c-.9,2.488.244,5.535,1.6,7.639,1.593,2.465,7.163,5.977,7.163,5.977Z" transform="translate(-327.103 -162.433)"/><path class="k" d="M327.262,187.348a4.442,4.442,0,0,1,3.109-5.458,4.52,4.52,0,0,1,.461-.1c3.721-.5,8.291,4.488,9.732,7.512.128.256,1.6,4.57,1.535,4.57s-6.593.151-9.3-1.023C330.53,191.848,327.879,189.929,327.262,187.348Zm95.557-11.465c-.558,2.593-3.14,4.57-5.407,5.639s-7.628,1.244-8.953,1.267c-.709.849-1.465,1.767-2.326,2.791-1.407,1.826-3,3.9-4.57,6.256-.419.628-.837,1.326-1.267,1.988.953-.977,2.267-2.326,2.419-2.4,2.616-2.093,8.907-4.593,12.035-2.512a4.441,4.441,0,0,1,1.069,6.191,4.351,4.351,0,0,1-.289.367c-1.686,2.058-4.9,2.616-7.4,2.523s-7.512-2.488-8.57-3.012c-.919,1.477-1.837,3.035-2.686,4.651a58.222,58.222,0,0,0-3.942,9.407l.2.1c.767-1,2.419-3.07,2.581-3.233,2.326-2.326,8.349-5.535,11.686-3.814a4.441,4.441,0,0,1,1.742,6.035,4.317,4.317,0,0,1-.253.407c-1.442,2.221-4.57,3.14-7.07,3.314-2.872.2-8.826-2.046-9.058-2.128a79.85,79.85,0,0,0-2.163,9.907c-.384,2.477-.674,5-.942,7.535.523-.721,2.7-3.488,2.872-3.616,2.326-2.326,8.36-5.535,11.686-3.814a4.453,4.453,0,0,1,1.742,6.052,4.34,4.34,0,0,1-.242.39c-1.453,2.221-4.581,3.14-7.081,3.314-2.8.2-8.512-1.93-9-2.116-.116,1.163-.244,2.326-.36,3.488-.36,3.767-.709,7.558-1.163,11.279-.163,1.279-.372,2.546-.57,3.814.814-1.047,2.326-2.942,2.477-3.081,2.326-2.326,8.36-5.535,11.628-3.814a4.43,4.43,0,0,1,1.759,6.013,4.382,4.382,0,0,1-.259.417c-1.453,2.221-4.581,3.14-7.081,3.314s-7.349-1.512-8.7-2c-.349,2.1-.744,4.186-1.233,6.221-.221.872-.4,1.767-.663,2.593s-.5,1.663-.744,2.488c-.57,1.674-1.081,3.233-1.651,4.791-.279.779-.57,1.512-.849,2.267.663-1.163,1.744-3.058,1.86-3.209,1.988-2.7,7.419-6.744,10.977-5.546a4.452,4.452,0,0,1,2.633,5.721,4.149,4.149,0,0,1-.179.419c-1.093,2.407-4.058,3.791-6.5,4.349-2.686.6-8.465-.57-9.174-.721-.7,1.86-1.4,3.651-2.081,5.326-2.163,5.291-4.174,9.6-5.616,12.616l-.233.488h10.523l-3.628,70.848a10.138,10.138,0,0,1-10.116,9.616h0a10.138,10.138,0,0,1-10.116-9.616l-3.628-70.848h11.291a14.433,14.433,0,0,0-.174-1.593c-.384-3.279-.988-7.953-1.965-13.523-.279-1.616-.6-3.314-.953-5.058-.733.1-6.57.837-9.2,0-2.4-.733-5.244-2.326-6.151-4.826a4.431,4.431,0,0,1,2.436-5.772,4.278,4.278,0,0,1,.459-.158c3.64-.93,8.756,3.488,10.535,6.337.116.186,1.221,2.488,1.767,3.663-.221-1.047-.43-2.093-.674-3.186-.326-1.57-.732-3.221-1.163-4.826l-.7-2.5c-.221-.849-.535-1.64-.8-2.477-.419-1.163-.907-2.442-1.384-3.674-1.581.442-6.244,1.651-8.651,1.3s-5.523-1.512-6.8-3.837a4.424,4.424,0,0,1,1.965-6.3c3.488-1.465,9.186,2.139,11.372,4.651.07.081.477.663.953,1.36-.5-1.163-1.012-2.326-1.57-3.558-1.581-3.36-3.291-6.733-4.988-10.128-.36-.709-.7-1.419-1.058-2.128-1.326.384-6.372,1.733-8.884,1.372s-5.523-1.512-6.8-3.837a4.424,4.424,0,0,1,1.965-6.3c3.488-1.477,9.186,2.14,11.372,4.651.081.081.57.791,1.1,1.57-.907-1.849-1.779-3.709-2.581-5.581a79.274,79.274,0,0,1-3.57-9.872c-.465.14-6.337,1.849-9.14,1.442-2.477-.36-5.523-1.512-6.8-3.837a4.424,4.424,0,0,1,1.965-6.3c3.488-1.465,9.186,2.14,11.372,4.651.163.174,1.9,2.709,2.488,3.64a.488.488,0,0,1,0-.116,57.08,57.08,0,0,1-1.709-10.151,80.663,80.663,0,0,1-.221-9.2c.07-2.86.3-5.453.535-7.756.128-1.244.279-2.384.419-3.488h-.058c-.058,0-1.314-4.349-1.372-4.651-.547-3.3.326-10.012,3.663-11.744a4.455,4.455,0,0,1,6.116,2.512c.965,2.465-.093,5.558-1.4,7.686s-5.535,5.5-6.7,6.3c-.128,1.163-.256,2.326-.36,3.593-.186,2.326-.36,4.9-.36,7.732v2.326c.256-1.337.628-3.163.686-3.337,1.035-3.186,4.907-8.732,8.651-8.732a4.442,4.442,0,0,1,4.307,4.572,4.313,4.313,0,0,1-.04.474c-.267,2.64-2.64,4.884-4.779,6.186s-7.628,2.07-8.814,2.209c.058,1.744.151,3.488.36,5.407a58.387,58.387,0,0,0,1.907,10.023h.221c.081-1.256.326-3.907.372-4.116.674-3.291,3.907-9.232,7.64-9.628a4.438,4.438,0,0,1,4.8,4.546c0,2.64-2.093,5.139-4.081,6.663-2.326,1.756-8.488,3.163-8.721,3.209a77.863,77.863,0,0,0,3.663,9.465c1.047,2.326,2.2,4.546,3.372,6.8,0-.884.349-4.349.4-4.593.674-3.291,3.919-9.232,7.651-9.639a4.43,4.43,0,0,1,4.778,4.053,4.353,4.353,0,0,1,.013.493c0,2.651-2.081,5.151-4.07,6.674-2.233,1.709-8.139,3.093-8.674,3.2l1.6,3.081c1.779,3.349,3.57,6.7,5.233,10.058.581,1.163,1.1,2.326,1.64,3.488.093-1.326.314-3.744.36-3.942.674-3.291,3.919-9.232,7.651-9.628a4.43,4.43,0,0,1,4.778,4.053,4.354,4.354,0,0,1,.013.493c0,2.639-2.081,5.139-4.07,6.663s-6.977,2.791-8.372,3.128c.872,1.953,1.7,3.907,2.419,5.814.291.86.64,1.709.872,2.535s.5,1.663.756,2.488c.453,1.709.872,3.3,1.256,4.907.2.8.36,1.57.547,2.326-.1-1.36-.233-3.488-.221-3.709.174-3.349,2.477-9.709,6.093-10.674a4.441,4.441,0,0,1,5.345,3.3,4.3,4.3,0,0,1,.085.469,4.657,4.657,0,0,1,.07.977,17.347,17.347,0,0,1,2.326,8.4c0,.209-.349,2.744-.558,4.023.407-.988.8-1.977,1.163-3.023.581-1.5,1.163-3.1,1.721-4.651.256-.814.523-1.639.791-2.465s.465-1.663.709-2.5c.314-1.244.593-2.547.86-3.837-1.558-.5-6.116-2.07-7.919-3.686s-3.779-4.314-3.57-6.977a4.453,4.453,0,0,1,4.674-4.221,4.541,4.541,0,0,1,.453.047c3.686.686,6.477,6.849,6.907,10.174v1.663c.221-1.267.453-2.535.651-3.837.535-3.674.965-7.43,1.419-11.2.093-.779.2-1.57.291-2.326-1.314-.419-6.267-2.07-8.139-3.767s-3.779-4.314-3.558-6.977a4.436,4.436,0,0,1,5.116-4.174c3.7.686,6.477,6.849,6.907,10.174v1.919c.279-2.046.581-4.07.93-6.081a78.791,78.791,0,0,1,2.477-10.2c-.465-.14-6.314-1.965-8.419-3.837-1.86-1.674-3.779-4.314-3.558-6.977a4.431,4.431,0,0,1,4.627-4.224,4.592,4.592,0,0,1,.49.05c3.686.674,6.477,6.849,6.907,10.174,0,.233.081,3.3.058,4.407v-.116a57.517,57.517,0,0,1,4.186-9.419,79.776,79.776,0,0,1,4.884-7.791c1.628-2.326,3.267-4.384,4.721-6.174.8-.965,1.547-1.826,2.256-2.628h-.081c-.07,0,1.3-4.349,1.419-4.651,1.36-3.058,5.814-8.139,9.523-7.767a4.455,4.455,0,0,1,3.919,5.581ZM379.8,265.917c-.64-.314-5.558-2.744-7.488-4.826a47.724,47.724,0,0,1-5.128,2.419c.442,1.93.849,3.814,1.163,5.581,1.163,5.6,1.826,10.314,2.326,13.628.093.7.174,1.326.256,1.907h.244l.826-1.6c1.488-2.942,3.57-7.174,5.814-12.372.64-1.477,1.3-3.07,1.977-4.721Zm19.651-71.639c.058,0,1.163-4.372,1.244-4.651.465-3.314-.593-10-3.977-11.628a4.443,4.443,0,0,0-6.047,2.674c-.9,2.488.244,5.535,1.6,7.639,1.593,2.465,7.163,5.977,7.163,5.977Z" transform="translate(-327.103 -162.433)"/></g><g transform="translate(256.2 110.925)"><path class="l" d="M322.5,227.636s11.814-8.57,12.57-9.139,11.244,4,11.814,6.86.186,3.616-.57,4-21.709,6.093-22.291,6.279S322.5,227.636,322.5,227.636Z" transform="translate(-209.547 -88.219)"/><path class="c" d="M252.938,168.5a8.07,8.07,0,0,1,.163-5.36c1.163-2.6,2.93-3.419,2.116-5.372s-5.7-6.349-6.186-8.791-1.953-2.326-2.767-.814a3.57,3.57,0,0,0,.977,4.558,3.875,3.875,0,0,1,1.953,2.6c0,.488-1.163,1.163-1.163,1.163s-4.872-4.4-6.012-4.721-1.465,0-1.465,1.953-.314,10.267.988,13.2,6.977,5.814,6.977,5.814Z" transform="translate(-222.892 -99.837)"/><path class="g" d="M250.8,172.82a1.652,1.652,0,0,0,.9-2.128L226.523,106.46l-1.163.384,23.256,65.011a1.663,1.663,0,0,0,2.13,1l.079-.031Z" transform="translate(-225.36 -106.448)"/><path class="l" d="M293.126,163.257a.186.186,0,0,0-.349,0,122.249,122.249,0,0,0-6.465,16.825,77.925,77.925,0,0,1-9.43,19.36s-13.349-16.756-17.256-22.291-7.651-11.232-7.651-11.232L246.44,169.5a218.535,218.535,0,0,0,8.628,20.837c4.07,7.965,13.407,21.279,19.1,26.651s9.744,5.907,13.279,3.616c1.547-1,6.977-10.581,6.977-10.581s2.326-16.43,1.465-28.477A93.225,93.225,0,0,0,293.126,163.257Z" transform="translate(-221.929 -97.223)"/><path class="d" d="M332.134,259.4c0-13.5-.326-32.221-.326-32.221a227.725,227.725,0,0,1-23.442,2.116c-9.919.163-20.663-7.814-20.663-7.814s-1.465,4.558-1.465,17.093S287.7,295.34,287.7,295.34s2.163,16.4,2.779,25.581,9.221,60.825,9.221,60.825-6.151,6.139-10.465,9.826-9.826,6.139-6.139,7.988,11.965-.3,13.814-.907c.965-.326,3.57-2.8,6.116-4.081a6.99,6.99,0,0,1,2.593-.791,5.4,5.4,0,0,0,2.581-.919l1.93-1.291s.616,7.372.616,10.465,1.837,10.465,4.3,11.058,4.837.326,7.291-4.581-.791-25.965-.791-25.965,1.826-10.174,2.756-17.3C325.39,356.688,332.134,269.235,332.134,259.4Z" transform="translate(-216.158 -87.725)"/><path class="m" d="M313.86,234.11s1.407,5.186,3.767,7.779,7.535,2.326,7.535,2.326" transform="translate(-210.954 -85.669)"/><path class="m" d="M297.85,236.34l.709,12.953,2.593,3.07.942-13.2" transform="translate(-213.56 -85.306)"/><path class="m" d="M298.33,359.33a21.272,21.272,0,0,0,8.919,4.267" transform="translate(-213.482 -65.286)"/><path class="m" d="M317.406,360s-4.651,6.977-10.046,1.581" transform="translate(-212.012 -65.177)"/><path class="m" d="M296.52,244.56l6.081,8.512,5.326,124.941s8.535-17.825,11.628-31.4,4.267-32.162,4.267-32.162" transform="translate(-213.776 -83.968)"/><path class="l" d="M304.832,159.91s-16.279,2.767-18.221,3.419-.488,29.453-.488,29.453-.814,41.976.651,46.372,10.465,5.814,14.116,6.535a48.627,48.627,0,0,0,19.942-.4c3.8-.837,9.035-1.267,10.046-5.814s2.116-30.593,4.4-39.221,10.732-22.453,7.314-28.151-18.546-9.919-25.058-10.732S304.832,159.91,304.832,159.91Z" transform="translate(-215.554 -97.748)"/><path class="g" d="M300.509,166.954l2.1,11.07L291.23,231.244l6.349,10.732,7.965-9.442-.977-53.86,5.7-9.767-3.256-6.337Z" transform="translate(-214.638 -97.315)"/><path class="l" d="M305.869,157.67a22.774,22.774,0,0,0-6.337,5.046c-2.767,3.244-7.488,11.872-6.977,11.546s13.5-8.3,13.5-8.3Z" transform="translate(-214.428 -98.112)"/><path class="l" d="M314.776,156.27,304.52,167.5l2.93,10.244L319.5,162.456Z" transform="translate(-212.474 -98.34)"/><path class="d" d="M298.165,125.159s-6.674,1.3-7.488-4.558,8.3-14.151,21.314-14.151,23.256,10.9,22.791,21.477a36.919,36.919,0,0,1-6.674,19.035c-.651.977-6.023,3.907-8.3,4.233s-3.907-2.93-2.767-7.163-2.442-5.36-.977-9.3,3.419-3.907,4.07-5.209-6.512-4.07-13.023-3.744S298.165,125.159,298.165,125.159Z" transform="translate(-214.736 -106.45)"/><path class="n" d="M308.4,117.712c7.779-.186,18.674,1.163,20.011,10.221" transform="translate(-211.843 -104.619)"/><path class="n" d="M301.61,118.422s1.616-.291,4.07-.512" transform="translate(-212.948 -104.585)"/><path class="n" d="M315.2,114.27s13.779.535,15.581,12.384" transform="translate(-210.736 -105.177)"/><path class="c" d="M303.514,153.19a2.731,2.731,0,0,1-.1.628c-.349,2-1.407,8.267-1.686,12.07-.326,4.546,2.93,4.384,4.233,3.081s8.139-8.139,9.3-11.058S319,146.19,319,146.19Z" transform="translate(-212.933 -99.981)"/><path class="c" d="M297.649,122.988s-2.326,12.7-3.093,19.36-1.628,10.581,1.163,14.814,10.57,1.465,14.477-.163,11.884-6.837,11.884-6.837,5.535.326,7.814-2.442a4.187,4.187,0,0,0-1.465-6.349c-1.3-.326-4.233.814-5.209,1.953s-.814,2.442-1.953,2.442-2.767.326-2.442-.814,2.767-4.884,2.116-7.314-5.535-4.07-1.465-6.349,8.3-2.116,6.349-5.535-12.046-6.977-18.4-5.7A46.679,46.679,0,0,0,297.649,122.988Z" transform="translate(-214.219 -104.278)"/><path class="o" d="M299.259,125.77s3.8-.814,3.57,3.093c-.081,1.535-6.826,8.628-5.814,10.244a8.563,8.563,0,0,0,2.6,2.6" transform="translate(-213.713 -103.317)"/><path class="o" d="M305.92,129.4a4.487,4.487,0,0,1,6.837,1.465" transform="translate(-212.246 -102.878)"/><path class="o" d="M297.81,143.53s.977,2.442,4.872,2.116,5.046-1.163,5.046-1.163" transform="translate(-213.566 -100.414)"/><path class="g" d="M308.16,134.154c-.233,1.081-.872,1.849-1.442,1.733s-.849-1.093-.616-2.163.872-1.849,1.442-1.733S308.38,133.085,308.16,134.154Z" transform="translate(-212.23 -102.294)"/><path class="g" d="M300,131.053c-.2,1.035-.814,1.791-1.36,1.686s-.837-1.047-.628-2.081.814-1.791,1.372-1.686S300.207,130.006,300,131.053Z" transform="translate(-213.545 -102.786)"/><path class="l" d="M324.26,194.994a38.277,38.277,0,0,1,2.593-9.419c2.326-5.5,7.977-16.628,9.442-15.116s4.07,6.349,5.7,14.814,6.674,34.5,8.791,39.058,2.6,6.337,1.3,8.139c0,0-4.558,6.512-10.581,3.907s-16.1-27.337-16.1-27.337" transform="translate(-209.261 -96.053)"/><path class="c" d="M237.586,148.724c-.965,2.186,2.116,3.965,3.884,4.337,1.465.314,2.988-2.14,1.9-3.244a7.539,7.539,0,0,0-3.593-1.849,2.233,2.233,0,0,0-2.07.57A1,1,0,0,0,237.586,148.724Z" transform="translate(-223.4 -99.701)"/><path class="c" d="M243.3,154.532s-4.07-.919-5.256-.453-1.163,3.419-.523,4.2,6.5.4,7.291-.256S245.277,155.171,243.3,154.532Z" transform="translate(-223.451 -98.718)"/><path class="c" d="M238.08,158.191s-.058,3.023.791,3.872,6.9-.2,7.36-1.244-.523-3.616-1.058-3.488S240.452,158.714,238.08,158.191Z" transform="translate(-223.29 -98.168)"/><path class="c" d="M239.1,161.786a5.493,5.493,0,0,0,.849,3.023c.86.919,5.919-.721,6.837-1.907a1.372,1.372,0,0,0-.663-2.233,29.662,29.662,0,0,1-4.721,1.047C239.891,161.786,239.1,161.786,239.1,161.786Z" transform="translate(-223.123 -97.624)"/></g><g transform="translate(55.547 243.435)"><path class="g" d="M406.395,282.57h0q23.115,9.964,46.186,19.988a5.815,5.815,0,0,1,3.14,7.488c-2.326,5.965-6.674,15.767-12.965,23.418-9.709,11.814-13.139,22.279-14.279,34.093s0,33.523,0,33.523l-59.046-51.43s6.86-29.9,17.721-39.046A62.41,62.41,0,0,0,406.395,282.57Z" transform="translate(-1.255 -210.291)"/><path class="l" d="M397.767,275.2s-21.721.756-23.616.756-7.814,28.767-9.721,42.279-4,23.616-4,23.616,19.43,11.814,28.953,16.2S409,367.188,409,367.188s11.046-31.616,17.709-44.953,12.57-13.9,8.57-21.325-16.372-16.953-21.139-20.128S397.767,275.2,397.767,275.2Z" transform="translate(-2.72 -211.49)"/><path class="g" d="M388.5,288.413l1.337,9.139-24,47.081s10.465,8,10.663,6.86,16.384-52.941,16.384-52.941l7.8-6.291-4-9.3A24.487,24.487,0,0,0,388.5,288.413Z" transform="translate(-1.839 -210.227)"/><path class="l" d="M388.955,274.1s-.57.2-3.43,4.57-3.8,18.674-3.233,18.093,7.43-9.3,9.139-8.756,6.477,11.814,6.663,12.791,7.814-6.663,10.093-13.139,1.337-12.791-1.326-14.663S393.28,270.293,388.955,274.1Z" transform="translate(0.813 -212.107)"/><path class="g" d="M89.079,294.532,54.2,321.927a3.641,3.641,0,0,0,.291,5.942c7.6,4.779,22.663,15.325,27.163,26.279,6.093,14.86,8.372,35.232,13.139,42.476a28.444,28.444,0,0,0,12.337,10.093l37.128-46.86s-6.849,1.535-11.8-20.93-18.477-36.569-24.418-40.953S89.079,294.532,89.079,294.532Z" transform="translate(-52.797 -208.357)"/><path class="l" d="M125.459,293.05s30.86,15.046,31.4,19.232-2.477,14.291-4.384,15.616-19.232-5.9-22.093-7.616S123.564,298.189,125.459,293.05Z" transform="translate(-41.049 -208.585)"/><path class="l" d="M111.6,285.924a38.433,38.433,0,0,1,10.279-4c2.721-.709,8.384,2.326,10.465,8.57a138.812,138.812,0,0,0,6.279,14.791c1.93,4.14,5.628,9.709,5.558,14.349-.093,5.407-3.488,11.4-6.116,16l6.1,14.093-38.476,49.139S95.6,396.2,94.258,380.958s.384-36.942.384-36.942-10.663-8-12.791-16.756,5.326-21.337,12.791-26.86S111.6,285.924,111.6,285.924Z" transform="translate(-48.127 -210.412)"/><path class="c" d="M113.714,244.57s1.721,8.384,5.523,9.139,5.721-.384,5.337,3.616a13.359,13.359,0,0,1-2.093,6.291s1.709,9.9,1.163,14.279-3.8,3.43-7.616,4a45.727,45.727,0,0,1-6.093.57s.756,8,2.326,12,3.244,5.721,1.337,6.663-11.8-4.186-16.57-10.663,1.709-12.953,4.57-18.093-6.093-10.849-.953-18.093A28.139,28.139,0,0,1,113.714,244.57Z" transform="translate(-45.873 -216.476)"/><path class="g" d="M113.817,254.671c.337,1.163.279,2.326-.128,2.4s-1.012-.779-1.349-2-.279-2.326.128-2.4S113.48,253.45,113.817,254.671Z" transform="translate(-43.14 -215.158)"/><path class="c" d="M108.52,252.8s.2-3.814,3.488-3.814" transform="translate(-43.726 -215.757)"/><path class="c" d="M478.067,420.057C475.776,351.825,390.382,297,285.371,297,178.93,297,92.64,353.36,92.64,422.894" transform="translate(-46.311 -207.942)"/><path class="c" d="M178.539,325.64,152.26,363.733l31.6,6.291,24.384-40.569Z" transform="translate(-36.606 -203.28)"/><line class="p" x1="20.407" y2="32.407" transform="translate(125.328 126.011)"/><line class="p" x1="20.558" y2="32.453" transform="translate(129.561 126.802)"/><line class="p" x1="20.488" y2="32.5" transform="translate(134.026 127.604)"/><line class="p" x1="20.523" y2="32.302" transform="translate(138.375 128.407)"/><line class="p" x1="20.186" y2="32.36" transform="translate(143.096 129.197)"/><line class="p" x2="26.593" y2="4.477" transform="translate(139.224 128.081)"/><line class="p" x2="26.942" y2="4.593" transform="translate(137.177 130.86)"/><line class="p" x2="27.07" y2="4.709" transform="translate(135.363 133.639)"/><line class="p" x2="27.093" y2="4.744" transform="translate(133.793 136.418)"/><line class="p" x2="27.29" y2="4.512" transform="translate(131.607 139.442)"/><line class="p" x2="27.465" y2="4.639" transform="translate(129.433 142.104)"/><line class="p" x2="27.046" y2="4.779" transform="translate(127.863 144.755)"/><line class="p" x2="26.86" y2="4.663" transform="translate(126.049 147.662)"/><line class="p" x2="26.918" y2="4.558" transform="translate(124.003 150.558)"/><line class="p" x2="27.104" y2="4.686" transform="translate(121.828 153.221)"/><line class="p" x2="27.163" y2="4.581" transform="translate(119.77 156.116)"/><path class="d" d="M179.44,371.2l19.244-4.953,27.8-47.8-22.663,12.186Z" transform="translate(-32.182 -204.452)"/><path class="c" d="M295.837,355.914l-42.721,1.767-10.186-43.1,42.721-1.767Z" transform="translate(-21.847 -205.368)"/><path class="l" d="M314.645,362.884l-42.709,1.767-10.186-43.1,42.709-1.767Z" transform="translate(-18.783 -204.234)"/><path class="c" d="M376.389,398.975l-58.732.407-5.907-32.046,58.732-.4Z" transform="translate(-10.644 -196.557)"/><path class="l" d="M195.165,401.744l-60.825-1.535,8.012-30.779,60.825,1.535Z" transform="translate(-39.523 -196.151)"/><path class="l" d="M418.726,310.434l-18.128,42.6a279.162,279.162,0,0,1-28.186,5.151c-13.139,1.523-26.093,1.9-26.093,1.9l.186,8s20.57,2.326,37.139,2.477,23.046,4.767,27.43.57,27.988-50.465,30.849-59.034-4.384-15.8-8.953-19.046" transform="translate(-5.017 -208.585)"/><path class="c" d="M351.692,351.81s-12.953-5.9-16.384-7.616-15.8,4.2-17.325,4.767-4.953,2.663-4.384,4,5.337,1.907,5.337,1.907-4.384.57-3.43,1.9,15.616-.953,16.942-.953,4.384,3.43,8,4.2,11.43-.2,11.43-.2Z" transform="translate(-10.353 -200.31)"/><path class="c" d="M160.889,343.565c.674-.453,2.326-.767,5.721,0s8.942,2.326,8.372,3.046-2.093.756-4,.756-4.57.2-4.57.2S157.272,346.042,160.889,343.565Z" transform="translate(-35.339 -200.438)"/><path class="c" d="M83.63,317.75s2.477,15.8,7.046,36.372S100.956,383.831,104,385.168s38.86-11.244,46.662-14.86,13.523-2.663,16-2.663,5.907-5.721,8.384-6.663,13.663,1.709,14.477-.384-5.523-6.291-7.43-7.616-5.907-4.384-8.767-3.43-10.465,11.232-12.57,12.372-22.279,2.326-32.372,2.1-11.046-.384-11.046-.384-7.616-32.558-7.616-38.86c0-5.814-1.64-14.8-7.744-17.256-4.151-1.651-11-1.953-14.546,1.267A11.836,11.836,0,0,0,83.63,317.75Z" transform="translate(-47.778 -206.425)"/><path class="l" d="M107.816,379.831c6.86-3.488,9.523-16.186,9.523-16.186s-7.616-32.558-7.616-38.86c0-5.814-1.64-14.8-7.744-17.256-4.151-1.651-11-1.953-14.546,1.267a11.836,11.836,0,0,0-3.8,8.953s2.477,15.8,7.046,36.372c3.256,14.674,7.093,23.511,10.139,27.907A21.955,21.955,0,0,0,107.816,379.831Z" transform="translate(-47.778 -206.425)"/><path class="c" d="M176.994,353.588s-11.43-4.2-13.151-4.2a10.21,10.21,0,0,0-3.233.581" transform="translate(-35.247 -199.414)"/><path class="c" d="M160.94,346.819a8.268,8.268,0,0,1,5.326.2c2.326,1.163,9.3,4.186,9.3,4.186" transform="translate(-35.193 -199.889)"/><path class="c" d="M153.787,308.954s-3.419-1.163-6.477,4.384-3.046,10.279,1.337,13.326,16.186,5.907,19.046,8,5.337,4.953,6.86,5.337,7.232,1.523,5.709-6.291-12.791-16-18.477-20.57S153.787,308.954,153.787,308.954Z" transform="translate(-37.761 -206.012)"/><path class="c" d="M168.989,328.361a15.865,15.865,0,0,1-2.477,4.279c-1.477,1.64-2.791,2.465-1.477,4.779a71.5,71.5,0,0,1,3.488,7.244c.826,1.977,2.209-.43,2.535-3.07s-1.907-6.279-.221-6.651c.5-.1,1.965-2.965,5.1-1.477s8.4,6.744,8.884,2.791-2.628-7.244-6.256-9.058S170.8,324.872,168.989,328.361Z" transform="translate(-34.614 -203.256)"/><path class="c" d="M183.09,330.57s1.64,0,3.291,3.128,2.465,4.767,1.314,5.267-1.477,0-2.465-1.814-1.814-3.628-1.814-3.628v-2.14Z" transform="translate(-31.587 -202.477)"/><path class="c" d="M179.69,328.3a5.813,5.813,0,0,1,4.279,3.488c1.163,2.965,1.814,6.593.826,8.07s-2.965.663-3.291-1.977S179.69,328.3,179.69,328.3Z" transform="translate(-32.141 -202.847)"/><path class="c" d="M176.15,326.462s1.8-.326,4.116,2.139,2.8,11.035,1.977,11.686-2.326.988-3.128-1.163S176.15,326.462,176.15,326.462Z" transform="translate(-32.717 -203.148)"/><path class="c" d="M171.05,327.132s3.128-4.442,5.1-2.139,3.953,14.488,3.291,15.314-2.628,1.314-3.953-1.64a55.536,55.536,0,0,1-2.465-8.57" transform="translate(-33.547 -203.493)"/><path class="d" d="M117.974,252.014c-3.058,2.488-6.244,4.756-7.1,8.965-1.337,6.477,5.139,10.849.953,16.756s-9.523,7.43-3.814,13.337,23.43,15.232,20.384,31.232S113.73,336.781,111.056,335.1s-14.279-9.139-19.418-6.477-1.337,12.57-2.86,15.814-17.139,0-22.663-7.046S55.823,311.1,61.73,300.619,76.777,286.9,73.916,276.026s-5.9-24,2.1-36.046,23.593-18.837,35.8-16c5.744,1.337,12.012,5.046,13.709,11.07,1.5,5.372-1.012,10.372-4.651,14.244A30.478,30.478,0,0,1,117.974,252.014Z" transform="translate(-51.785 -219.933)"/><path class="n" d="M116.091,239.33a15.311,15.311,0,0,1-5.593,6.442c-7.372,4.744-12.1,10.012-10,17.384s2.628,12.1-6.849,16.849-4.744,20.57,5.267,24.756,23.7,14.209,15.267,23.163" transform="translate(-46.983 -217.329)"/><path class="n" d="M113.833,233.1a17.225,17.225,0,0,1-.523,3.686" transform="translate(-42.946 -218.343)"/><path class="n" d="M73.58,316c.477,2.512,1.64,4.488,2.488,4.767" transform="translate(-49.414 -204.849)"/><path class="n" d="M106.054,249.4s-13.163,5.267-12.628,11.058,2.628,10.012-1.058,14.221-16.849,8.43-16.849,16.849,10.465,13.163,10,19.488-8.419,4.209-11.058,8.953a8.339,8.339,0,0,0-.721,1.733" transform="translate(-49.388 -215.69)"/><path class="c" d="M385.555,236.1s-3.8,5.907-3.8,9.523,1.163,5.139.372,5.709-11.418.581-9.709,3.43a11.624,11.624,0,0,0,4.953,4.2s-.57,14.849,0,18.093,1.523,3.047,4.186,2.326a45.15,45.15,0,0,1,5.907-1.163s2.477,12.953,5.907,14.849,12.186-7.616,12.953-11.232-.953-10.663.186-12.791,6.093-5.721,5.337-10.86-5.337-6.663-7.43-8.953.372-7.232-1.523-10.093S387.462,235.143,385.555,236.1Z" transform="translate(-0.799 -217.91)"/><path class="c" d="M400.781,263.6s-2.674,4.186-5.337,3.8-4.384-4-4.384-4" transform="translate(2.266 -213.411)"/><path class="c" d="M394.747,266.19s-5.523,4.186-9.907,5.337" transform="translate(1.254 -212.957)"/><path class="d" d="M376.971,255.728s7.8,8.942,5.139,10.849-7.43-2.849-7.43-6.477S374.494,255.158,376.971,255.728Z" transform="translate(-0.401 -214.681)"/><path class="g" d="M383.79,250.326c-.07,1.267-.512,2.267-1.012,2.244s-.837-1.07-.767-2.326.512-2.326,1-2.244S383.848,249.059,383.79,250.326Z" transform="translate(0.792 -215.919)"/><path class="o" d="M381.79,245.375s3.3-.767,4.07,4.837" transform="translate(0.757 -216.351)"/><path class="d" d="M397.981,242.41s-19.767-.953-22.279-7.616,16.186-17.523,36.558-13.523,21.965,32.942,14.291,39.035S408.26,272.689,405.411,273.1s-2.86-1.163-2.093-2.477,5.9-10.86,2.477-11.244-10.1,3.488-10.86,3.488-1.709-1.163-.953-2.849,3.616-2.86.57-5.721-5.326-3.8-3.8-5.907S397.981,242.41,397.981,242.41Z" transform="translate(-0.271 -220.409)"/><path class="n" d="M380.06,232.64s1.581.535,11.058,2.64,35.279,2.628,36.337,16.279" transform="translate(0.476 -218.418)"/><path class="n" d="M414.566,253.61a6.552,6.552,0,0,1-.547,3.488" transform="translate(6.004 -215.005)"/><path class="n" d="M391.38,243.51a48.278,48.278,0,0,0,17.372,5.814,15.051,15.051,0,0,1,7.07,2.233" transform="translate(2.318 -216.649)"/><path class="n" d="M397.27,250.31s18.953,4.733,14.744,10.523" transform="translate(3.277 -215.542)"/><path class="l" d="M377.571,275.85s-6.093,2.477-8.2,7.814-23.988,30.093-27.232,36.186-4,9.709,0,12,7.046.953,12.384-2.674,14.232-18.407,14.232-18.407Z" transform="translate(-6.14 -211.385)"/><path class="l" d="M347.733,310.74s-5.907,4.384-8,11.046-10.093,25.3-10.093,25.3l7.244,5.523s16.186-25.325,17.325-29.139.186-5.709.186-5.709" transform="translate(-7.732 -205.705)"/><path class="c" d="M331.872,341.03a5.126,5.126,0,0,1,4.186.57c1.907,1.337,6.477,7.616,4.953,8.2s-3.616-.2-5.139-1.907-3.244-2.86-4-2.86H330Z" transform="translate(-7.673 -200.809)"/><path class="c" d="M320.122,345.46a15.736,15.736,0,0,0-4.57,3.628c-1.337,1.9-2.86,8.372-2.093,8.942s1.709-1.326,3.047-4.756S320.122,345.46,320.122,345.46Z" transform="translate(-10.399 -200.053)"/><path class="c" d="M334.119,341.085c.7.488-3.628,8.384-5.337,11.628s-9.3,6.86-11.232,7.046-2.477-10.279,3.047-14.849S332.247,339.794,334.119,341.085Z" transform="translate(-9.92 -200.864)"/><path class="o" d="M319.936,358.3s-1.9-2.326-.186-7.232a75.829,75.829,0,0,1,3.488-8.384" transform="translate(-9.458 -200.506)"/><path class="o" d="M322.777,356.47s-.57-2.326.767-6.86a39.307,39.307,0,0,1,3.8-8.57" transform="translate(-8.869 -200.773)"/></g></g></svg>