<svg xmlns="http://www.w3.org/2000/svg" width="475" height="424.198" viewBox="0 0 475 424.198"><defs><style>.a{fill:#94c529;}.b{fill:#fff;opacity:0.9;}.b,.d,.e,.h,.l,.m,.o{isolation:isolate;}.c{fill:#f5f5f5;}.d{opacity:0.3;}.e,.f,.l,.o{fill:#fafafa;}.e{opacity:0.1;}.g{fill:#ebb376;}.h,.l{opacity:0.6;}.i{fill:#263238;}.j{fill:#e4897b;}.k{fill:#de5753;}.m{opacity:0.2;}.n{fill:#da9d62;}.o{opacity:0.4;}</style></defs><g transform="translate(-46.33 -72.52)"><g transform="translate(180.086 93.992)"><path class="a" d="M472.175,180.613c-4.038-92.25-150.543-106.6-226.675-74.794C179.583,133.3,142.748,248.954,164.577,316.95c22.51,70.11,146.756,109.383,205.061,78.856C418.72,370.154,475.018,247.031,472.175,180.613Z" transform="translate(-158.279 -90.492)"/><path class="b" d="M472.175,180.613c-4.038-92.25-150.543-106.6-226.675-74.794C179.583,133.3,142.748,248.954,164.577,316.95c22.51,70.11,146.756,109.383,205.061,78.856C418.72,370.154,475.018,247.031,472.175,180.613Z" transform="translate(-158.279 -90.492)"/></g><g transform="translate(58.015 469.668)"><ellipse class="c" cx="231.658" cy="13.525" rx="231.658" ry="13.525"/></g><g transform="translate(46.33 72.52)"><rect class="a" width="1.195" height="7.969" transform="translate(295.231 34.616) rotate(-2.43)"/><rect class="d" width="1.195" height="7.969" transform="translate(295.231 34.616) rotate(-2.43)"/><rect class="a" width="1.195" height="17.289" transform="translate(294.192 10.371) rotate(-2.43)"/><rect class="d" width="1.195" height="17.289" transform="translate(294.192 10.371) rotate(-2.43)"/><path class="a" d="M46.33,84.838,56.02,313.8l12.593,61.4,280.8-11.9L337.094,72.52Z" transform="translate(-46.33 -72.52)"/><path class="d" d="M46.33,84.838,56.02,313.8l12.593,61.4,280.8-11.9L337.094,72.52Z" transform="translate(-46.33 -72.52)"/><path class="a" d="M337.742,352.081h0l-.55-12.892h0l-.55-12.892h0l-.538-12.892h0l-.55-12.892h0l-.55-12.892h0l-.55-12.892h0l-.538-12.88h0l-.55-12.892h0l-.55-12.892h0l-.526-12.952h0l-.275-6.452-.275-6.44h0l-.55-12.892h0l-.55-12.892h0l-.538-12.892h0l-.562-12.88h0L329,145.777h0l-.55-12.892h0l-.538-12.892h0l-.55-12.892h0l-.55-12.951h0l-.49-12.9h0a.3.3,0,0,0-.3-.287h0l-12.892.55h0l-12.892.538h0l-12.9.55h0L55.1,92.43a.45.45,0,0,0-.215.1.334.334,0,0,0-.072.215L60.551,228.17l4.779,111.725L54.47,312.163l12.581,61.388,4.875-9.9,7.611-.323h0l12.892-.55h0l12.856-.538h0l12.892-.55h0l12.892-.55h0l12.88-.538h0l12.892-.55h0l12.88-.55h0l12.892-.55h0l12.892-.538h0l12.88-.55h0l12.892-.55h0l13.047-.55h0l12.892-.538h0l12.88-.55h0l12.892-.55h0l12.88-.538h0l12.88-.538h0l12.88-.55h0l12.88-.55h0l12.88-.538h0a.308.308,0,0,0,.2-.108A.276.276,0,0,0,337.742,352.081ZM65.331,325.163l12.294-.514.526,12.294-12.294.526Zm-.55-12.892,12.306-.526.514,12.306-12.294.514Zm-.538-12.892,12.294-.526.526,12.294-12.306.526Zm-.609-12.868,12.294-.526.526,12.306-12.306.526Zm-.55-12.892,12.306-.526.514,12.223-12.294.526Zm-.55-12.9,12.306-.514.573,12.259-12.294.526ZM62,247.824l12.294-.526.526,12.306-12.306.514Zm-.55-12.9,12.294-.514.478,12.259-12.294.526Zm-.287-6.739-.263-6.189,12.306-.526.251,6.153.263,6.153-12.294.514Zm-.812-19.117,12.306-.514.526,12.294-12.306.526Zm-.538-12.892,12.294-.466.526,12.306-12.306.514Zm-.55-12.9,12.294-.514.526,12.294-12.294.526ZM58.688,170.4l12.306-.526.514,12.306-12.294.514Zm-.514-12.928,12.294-.514.526,12.294-12.306.526Zm-.55-12.892,12.294-.526.526,12.306-12.306.514Zm-.55-12.892,12.366-.5.514,12.294-12.294.526Zm-.55-12.9,12.306-.526.514,12.306-12.294.526ZM55.987,105.9l12.259-.5.526,12.294-12.306.526Zm-.55-12.9,12.294-.514.514,12.318-12.294.526Zm270.763.86-12.294.514-.526-12.294,12.306-.526Zm.55,12.892-12.306.526-.514-12.306,12.294-.514Zm.55,12.892-12.306.526-.514-12.294,12.294-.526Zm.538,12.9-12.294.514-.526-12.294,12.306-.526Zm.55,12.892-12.294.526-.526-12.306,12.294-.514Zm.55,12.9-12.306.514-.514-12.294,12.294-.526Zm.55,12.892-12.306.526-.526-12.306,12.306-.514Zm.538,12.9-12.294.514-.526-12.294,12.306-.526Zm.55,12.892-12.294.526-.526-12.306,12.294-.514Zm.55,12.9-12.306.514-.514-12.294,12.294-.526Zm.287,6.739.251,6.153-12.294.526-.215-6.129-.263-6.153,12.306-.514Zm.8,19.057-12.294.514-.526-12.294,12.306-.526Zm.55,12.892-12.306.526-.514-12.306,12.354-.5Zm.55,12.892L321,262.03l-.514-12.294,12.294-.526Zm.538,12.9-12.294.514-.526-12.306,12.306-.526Zm.55,12.892-12.294.526-.526-12.306,12.306-.514Zm.55,12.9-12.306.514-.514-12.294,12.294-.526Zm.55,12.892-12.306.526-.514-12.306,12.294-.514Zm.538,12.9-12.294.514-.526-12.294,12.306-.526Zm.55,12.892-12.294.526-.526-12.306,12.294-.514ZM74.053,227.6l-.251-6.153,12.294-.526.263,6.153.263,6.153-12.306.526Zm244.454-10.383.263,6.153-12.294.514-.263-6.141-.263-6.153,12.294-.526Zm-231.55,9.809-.263-6.153L99,220.356l.251,6.141.263,6.153-12.294.526Zm218.646-9.26.263,6.153-12.306.514-.263-6.153-.263-6.141,12.306-.526ZM99.848,226.5l-.251-6.141,12.294-.526.263,6.153.263,6.141-12.306.526Zm192.863-8.16.263,6.141L280.679,225l-.263-6.153-.263-6.153,12.294-.514ZM112.752,225.96l-.263-6.153,12.294-.526.263,6.153.263,6.153-12.294.514Zm167.067-7.085.263,6.153-12.306.55-.263-6.153-.251-6.153,12.294-.514ZM125.691,225.41l-.263-6.153,12.306-.514.263,6.141.263,6.153-12.306.526Zm141.272-5.974.263,6.153-12.294.514-.263-6.141-.263-6.153,12.306-.526ZM138.547,224.86l-.263-6.153,12.294-.514.263,6.153.263,6.141-12.294.526Zm115.476-4.887.263,6.141-12.306.526-.263-6.153-.227-6.141,12.294-.526Zm-102.584,4.337-.263-6.141,12.306-.526.263,6.153.263,6.153-12.306.514Zm89.681-3.8.263,6.153-12.294.526-.263-6.153-.263-6.153,12.306-.514Zm-76.777,3.262-.263-6.153,12.294-.526.263,6.153.263,6.153-12.294.514Zm63.885-2.712.263,6.153-12.306.526-.251-6.153-.263-6.153,12.294-.526Zm-38.114,1.613-.263-6.141,12.294-.526.263,6.153.263,6.141-12.306.526Zm-.812-19.045,12.306-.526.514,12.306-12.294.526Zm-.048,12.39-12.306.514-.514-12.294,12.294-.526Zm26.082,5.651.251,6.153-12.294.514-.263-6.141-.263-6.153,12.306-.526Zm-12.593-6.225-.514-12.306,12.294-.514.526,12.294Zm0,13.513.526,12.306-12.306.514-.514-12.294Zm.6,0,12.294-.514.526,12.294-12.294.526Zm12.892-.538,12.306-.526.526,12.294-12.306.526Zm-.562-13.5-.526-12.294,12.294-.526.526,12.294Zm-.55-12.892-.526-12.306,12.306-.514.514,12.294Zm-.6,0-12.306.514-.514-12.294L214,189.722Zm-12.9.538-12.294.526L188.8,190.8l12.306-.526Zm-12.892.55-12.306.526-.514-12.306,12.294-.514Zm-12.9.55-12.294.526L163,191.884l12.306-.526Zm0,.6.514,12.294-12.294.526-.526-12.294Zm1.41,18.925-.263-6.153,12.306-.514.263,6.141.251,6.153-12.294.526Zm12.593,6.225.514,12.306-12.294.585-.526-12.294Zm.538,12.9.526,12.294-12.306.526-.514-12.306Zm.6,0,12.306-.514.514,12.294-12.294.526Zm12.9-.538,12.294-.526.526,12.306-12.306.514Zm12.892-.55,12.306-.526.478,12.354-12.294.514Zm12.9-.55,12.294-.514.526,12.294-12.306.526Zm0-.6-.526-12.294,12.294-.526.526,12.306Zm-1.1-25.8-.526-12.294,12.306-.526.526,12.306Zm-.55-12.892-.514-12.306,12.294-.514.526,12.294Zm-.538-12.9L226.95,176.2l12.294-.526.526,12.306Zm-.6,0L214.572,189l-.562-12.259,12.294-.526Zm-12.9.538-12.294.526-.526-12.306,12.306-.514Zm-12.892.55-12.306.526-.514-12.306,12.294-.514Zm-12.9.55-12.294.514-.526-12.294,12.306-.526Zm-12.892.538-12.306.526-.538-12.211,12.294-.526Zm-12.9.55-12.294.526-.526-12.306,12.306-.514Zm0,.6.526,12.306-12.294.514-.526-12.294Zm.55,12.9.526,12.294-12.306.526-.466-12.27Zm1.1,25.8.514,12.294-12.294.526-.526-12.306Zm.6,0L176.972,230l.478,12.306-12.306.526Zm12.844,12.378.514,12.306-12.294.514-.526-12.294Zm.55,12.9.514,12.294-12.318.5-.526-12.306Zm.6,0,12.294-.526.526,12.294-12.306.526Zm12.892-.55,12.294-.526.526,12.306-12.294.514Zm12.892-.55,12.306-.514.526,12.294L204.93,267Zm12.9-.55,12.294-.514.526,12.294-12.294.526Zm12.892-.538,12.306-.526.514,12.306-12.294.514Zm12.9-.55,12.294-.526.526,12.306-12.306.514Zm0-.6-.526-12.294,12.306-.526.514,12.294Zm-.55-12.892-.526-12.306,12.306-.526.514,12.306Zm-1.063-25.819-.526-12.306,12.294-.514.526,12.294Zm-.55-12.9-.574-12.306,12.306-.526.514,12.306Zm-.645-12.892-.526-12.306,12.306-.514.526,12.294Zm-.55-12.9-.514-12.294,12.294-.526.526,12.306Zm-.6,0-12.294.526-.526-12.306,12.306-.514Zm-12.892.55-12.306.526-.514-12.306,12.294-.514Zm-12.9.55-12.294.514-.526-12.294,12.306-.526Zm-12.892.55-12.306.514-.43-12.27,12.294-.526Zm-12.9.538-12.294.526-.526-12.306,12.306-.514Zm-12.892.55-12.294.526-.526-12.306,12.294-.514Zm-12.892.55-12.306.514-.514-12.294,12.294-.526Zm-12.9.538-12.294.526L136.05,167.1l12.306-.526Zm0,.6.526,12.306-12.306.514L136.576,180Zm.55,12.9.526,12.294-12.306.526-.514-12.306Zm.55,12.892.514,12.306-12.294.514-.526-12.294Zm1.087,25.8.526,12.306-12.306.514-.514-12.294Zm.55,12.9.526,12.294-12.306.526-.526-12.306Zm.6,0,12.294-.526.526,12.294-12.294.526Zm12.844,12.366.526,12.306-12.306.526-.514-12.306Zm.55,12.9.514,12.294-12.294.526-.454-12.27Zm.6,0,12.294-.526.526,12.306-12.306.514Zm12.892-.55,12.306-.526.514,12.306-12.294.526Zm12.9-.55,12.294-.514.526,12.294-12.306.526Zm12.892-.538,12.306-.526.514,12.294-12.294.526Zm12.9-.55,12.294-.526.526,12.306-12.306.514Zm12.892-.55,12.306-.514.514,12.294L231.2,278.8Zm12.9-.55,12.294-.514.526,12.294-12.306.526Zm12.892-.538,12.306-.526.514,12.306L257,277.706Zm0-.6-.526-12.306,12.306-.514.514,12.294Zm-.55-12.9-.514-12.294,12.294-.526.526,12.306Zm-.55-12.892-.514-12.306,12.294-.514.526,12.294Zm-1.087-25.8-.526-12.306,12.306-.514.514,12.27Zm-.55-12.9-.514-12.294,12.294-.526.526,12.306Zm-.538-12.892-.526-12.306,12.294-.514.526,12.294Zm-.55-12.9-.478-12.27,12.306-.526.514,12.306Zm-.55-12.892-.526-12.294,12.306-.526.526,12.294Zm-.6,0-12.294.526-.526-12.306,12.294-.514Zm-12.892.55L226.3,162.7l-.514-12.294,12.294-.526Zm-12.9.55-12.294.514-.526-12.294,12.306-.526Zm-12.892.538-12.306.526L200,151.488l12.294-.514Zm-12.9.55-12.294.526-.526-12.306,12.306-.514Zm-12.892.55-12.306.514-.514-12.294,12.294-.526Zm-12.9.55-12.294.514-.526-12.294,12.306-.526Zm-12.892.538-12.306.526-.514-12.306,12.294-.514Zm-12.9.55-12.294.526-.526-12.306,12.306-.514Zm-12.892.55-12.223.478-.514-12.294,12.294-.526Zm0,.6.526,12.294-12.306.526-.514-12.306Zm.55,12.892.514,12.306-12.294.514-.526-12.294Zm.538,12.9.526,12.294-12.294.526-.526-12.306Zm.55,12.892.526,12.306-12.306.514-.514-12.294Zm1.1,25.8.514,12.294-12.294.526-.526-12.294Zm.538,12.892.526,12.306-12.294.526-.526-12.306Zm.55,12.9.526,12.294-12.306.526-.514-12.294Zm.6,0,12.306-.526.514,12.306-12.294.514Zm12.916,12.354.526,12.294-12.306.526-.514-12.306Zm.55,12.892.526,12.306-12.306.514L141.02,283.2Zm.6,0,12.306-.526.514,12.306-12.294.514Zm12.9-.55,12.294-.514.526,12.294-12.306.526Zm12.892-.538L192,281.063l.526,12.294-12.294.526Zm12.892-.55,12.306-.526.526,12.306-12.306.514Zm12.9-.55,12.294-.526.526,12.306-12.294.526Zm12.892-.55,12.306-.514.514,12.294-12.294.526Zm12.9-.538,12.294-.526.526,12.294-12.306.526Zm12.892-.55,12.306-.526.514,12.306-12.294.514Zm12.9-.55,12.294-.514.526,12.294-12.306.526Zm12.892-.55,12.306-.514.514,12.294-12.294.526Zm0-.6-.514-12.294,12.294-.526.526,12.306Zm-.55-12.892-.514-12.306,12.294-.514.526,12.294Zm-.538-12.9-.526-12.294,12.294-.526.526,12.306Zm-.55-12.892-.573-12.318,12.306-.526.514,12.294Zm-1.1-25.8-.514-12.294,12.294-.526.526,12.306Zm-.538-12.892-.526-12.306,12.306-.514.514,12.294Zm-.55-12.9-.526-12.294,12.306-.526.514,12.306Zm-.55-12.892L265.1,161.68l12.294-.514.526,12.294Zm-.538-12.9-.526-12.294,12.294-.526.526,12.306Zm-.55-12.892L264,135.884l12.306-.514.514,12.294Zm-.6,0-12.306.526-.514-12.306L263.4,135.9Zm-12.9.55-12.294.514L238.2,136.96l12.306-.526Zm-12.892.538-12.306.526-.514-12.294,12.294-.526Zm-12.9.55-12.294.526-.526-12.306,12.306-.514Zm-12.892.55-12.306.514-.514-12.294,12.294-.526Zm-12.9.55-12.294.514-.526-12.294,12.306-.526Zm-12.9.573-12.294.526-.526-12.306L186,139.206Zm-12.892.55-12.306.526-.514-12.306,12.294-.514Zm-12.9.55-12.294.514-.538-12.366,12.306-.526Zm-12.892.55-12.306.514-.514-12.294,12.294-.526Zm-12.9.538-12.294.526-.526-12.306,12.306-.514Zm-12.892.55-12.306.526-.514-12.306,12.294-.514Zm0,.6.514,12.294-12.294.526-.526-12.294Zm.55,12.892.514,12.306-12.294.514-.514-12.318Zm.538,12.9.526,12.294-12.306.526-.514-12.306Zm.55,12.892.526,12.306-12.306.514-.514-12.294Zm.55,12.9.514,12.294-12.294.526-.526-12.306Zm1.087,25.8.526,12.294-12.306.526-.514-12.306Zm.55,12.892.526,12.306-12.306.514-.526-12.294Zm.55,12.9.514,12.294-12.294.526-.526-12.306Zm.538,12.892.526,12.306-12.294.514-.526-12.294Zm.6,0,12.306-.526.514,12.306-12.294.514Zm12.856,12.378.514,12.294-12.294.526L128.1,283.8Zm.538,12.892.526,12.306L129.168,309l-.514-12.294Zm.6,0,12.306-.514.514,12.294-12.294.526Zm12.9-.55,12.294-.514.526,12.294-12.306.526Zm12.892-.538,12.306-.526.514,12.306-12.294.514Zm12.9-.55,12.294-.526.526,12.306-12.306.514Zm12.892-.55,12.306-.514.514,12.294-12.294.526Zm12.9-.538,12.294-.526.526,12.294-12.306.526Zm12.892-.55,12.306-.526.514,12.306-12.294.514Zm12.9-.55,12.294-.526.526,12.306-12.306.526Zm12.892-.55,12.306-.514.514,12.294-12.294.526Zm12.9-.538,12.294-.526.526,12.294-12.306.526Zm12.892-.55,12.306-.621.526,12.306-12.294.514Zm12.9-.621,12.306-.514.514,12.294-12.294.526Zm0-.6-.514-12.294,12.294-.526.526,12.306Zm-.538-12.892-.526-12.306,12.294-.514.526,12.294Zm-.55-12.9-.526-12.294,12.306-.526.514,12.306Zm-.55-12.892-.526-12.306,12.306-.514.526,12.294Zm-.55-12.9-.538-12.33L293,225.051l.526,12.306Zm-1.087-25.8-.526-12.294,12.306-.526.514,12.306Zm-.55-12.892-.514-12.306,12.294-.514.526,12.294Zm-.55-12.9-.526-12.306,12.294-.526.526,12.306Zm-.526-12.9L278,161.118l12.306-.526.514,12.294Zm-.55-12.892-.526-12.306,12.306-.514L290.273,160Zm-.55-12.9-.514-12.294,12.294-.526.526,12.306Zm-.573-12.844-.526-12.306,12.294-.514.526,12.294Zm-.6,0-12.306.514-.526-12.294,12.306-.526Zm-12.9.55-12.294.514-.526-12.294,12.294-.526Zm-12.892.538-12.306.526-.514-12.306,12.294-.514Zm-12.9.55-12.294.526-.526-12.306,12.306-.514Zm-12.892.55-12.306.514-.514-12.259,12.294-.526Zm-12.9.538-12.294.526-.526-12.294,12.306-.526Zm-12.892.55-12.306.526-.514-12.306,12.294-.514Zm-12.9.55-12.294.514-.526-12.294,12.306-.526Zm-12.892.55-12.306.514-.526-12.318,12.294-.526Zm-12.9.538-12.294.526-.526-12.306,12.306-.514Zm-12.892.55-12.306.526-.514-12.306,12.294-.514Zm-12.9.55-12.294.514L121.557,129l12.306-.526Zm-12.892.55-12.294.514-.526-12.294,12.294-.526Zm-12.892.538-12.306.526-.562-12.33,12.306-.514Zm0,.6.514,12.306-12.294.514-.526-12.294Zm.538,12.9.526,12.294-12.27.562-.466-12.366Zm.573,12.856.526,12.306-12.306.514-.514-12.294Zm.55,12.9.514,12.294-12.294.526-.526-12.306Zm.55,12.892.514,12.306-12.294.514-.526-12.33Zm.538,12.9.526,12.294-12.306.526-.514-12.306Zm1.111,25.819.514,12.306-12.294.526-.526-12.306Zm.538,12.9.526,12.294-12.294.526-.526-12.294Zm.55,12.892.526,12.306-12.366.49-.466-12.306Zm.55,12.9.526,12.294-12.306.526-.526-12.306Zm.55,12.892.514,12.306-12.259.49-.526-12.294Zm.6,0,12.294-.514.526,12.294-12.306.526Zm12.844,12.378.514,12.294-12.294.526-.526-12.294Zm.55,12.892.514,12.306-12.294.526-.526-12.306Zm.6,0,12.294-.514.526,12.294-12.306.526Zm12.892-.538,12.306-.526.514,12.294-12.294.526Zm12.9-.55,12.294-.526.526,12.306-12.306.514Zm12.892-.55,12.294-.514.526,12.294-12.294.526Zm12.892-.55,12.306-.514.526,12.294-12.306.526Zm12.892-.6,12.294-.526.526,12.306-12.294.514Zm12.892-.55,12.306-.526.514,12.306-12.294.514Zm12.9-.55,12.294-.514.526,12.294-12.306.526Zm12.892-.538,12.306-.526.514,12.294-12.294.526Zm12.9-.55,12.294-.526.526,12.306-12.306.514Zm12.928-.562,12.306-.526.514,12.306-12.294.526Zm12.9-.55,12.294-.514.526,12.294-12.306.526Zm12.892-.538,12.306-.526.514,12.294-12.294.526Zm12.9-.55,12.294-.526.526,12.306-12.306.514Zm0-.6-.514-12.306,12.294-.514.526,12.294Zm-.538-12.9-.526-12.294,12.306-.526.514,12.306Zm-.55-12.892-.526-12.306,12.306-.514.514,12.294Zm-.55-12.9-.514-12.294,12.294-.526.526,12.306Zm-.538-12.892-.526-12.294,12.294-.526.526,12.294Zm-.55-12.892-.526-12.306,12.306-.514.514,12.294Zm-1.1-25.8-.585-12.27,12.294-.514.526,12.294Zm-.538-12.9-.526-12.294,12.294-.526.49,12.259Zm-.55-12.892-.526-12.306,12.306-.514.514,12.294Zm-.55-12.9-.514-12.294,12.294-.526.526,12.306Zm-.55-12.892-.514-12.306,12.294-.514.526,12.294Zm-.538-12.9-.6-12.294,12.306-.526.514,12.306Zm-.55-12.892-.538-12.306,12.306-.514.514,12.294Zm-.55-12.9-.514-12.294,12.294-.526.526,12.306Zm-.6,0-12.294.514-.526-12.294,12.306-.526Zm-12.892.538-12.306.526-.514-12.306,12.294-.514Zm-12.9.55-12.294.526-.526-12.306,12.306-.514Zm-12.892.55-12.306.514-.514-12.294,12.294-.526Zm-12.9.55-12.318.562-.526-12.294,12.306-.526ZM224.19,124l-12.306.526-.514-12.306,12.294-.514Zm-12.9.55-12.294.526-.526-12.306,12.306-.514Zm-12.892.55-12.294.514-.526-12.294,12.294-.526Zm-12.892.538-12.306.526-.514-12.294,12.294-.526Zm-12.9.55-12.294.526-.526-12.306,12.306-.514Zm-12.892.55-12.306.514-.514-12.294,12.294-.526Zm-12.9.55-12.294.514-.55-12.259,12.306-.526Zm-12.892.538-12.306.526-.514-12.306,12.294-.514Zm-12.9.55-12.294.526-.526-12.306,12.306-.514Zm-12.892.55-12.306.514L95.3,117.138l12.294-.526Zm-12.9.55-12.366.526L82.321,117.7l12.306-.526Zm0,.6.514,12.33-12.294.526-.526-12.306Zm.514,12.928.526,12.294-12.306.526-.514-12.294Zm.55,12.892.526,12.306-12.306.514-.526-12.294Zm.55,12.9.514,12.294-12.294.526L84.519,169.3Zm.538,12.892.526,12.306-12.306.526-.526-12.294Zm.55,12.9.526,12.294-12.306.526L85.618,195.1Zm.55,12.892.514,12.306-12.294.514L86.168,208Zm1.087,25.8.526,12.306-12.306.514L87.255,233.8Zm.55,12.9.526,12.294L88.318,259,87.8,246.689Zm.538,12.856.514,12.306-12.294.514-.526-12.294Zm.538,12.9.526,12.33-12.294.526-.526-12.306Zm.526,12.928.526,12.294-12.306.526-.514-12.294Zm.55,12.892.526,12.306-12.306.526-.514-12.306Zm.6,0,12.294-.514.526,12.294-12.294.526Zm12.844,12.378.526,12.306-12.306.514-.514-12.294Zm.55,12.9.514,12.294-12.294.526-.5-12.306Zm.6,0,12.294-.526.526,12.294-12.306.526Zm12.892-.55,12.306-.526.514,12.306-12.294.514Zm12.9-.55,12.294-.526.526,12.306-12.306.526Zm12.892-.55,12.306-.514.538,12.235-12.294.526Zm12.9-.538,12.294-.526.526,12.294-12.306.526Zm12.892-.55,12.306-.526.514,12.306-12.294.514Zm12.9-.55,12.294-.514.526,12.294-12.306.526Zm12.892-.55,12.306-.514.514,12.294-12.294.526Zm12.9-.538,12.294-.526.526,12.306-12.306.514Zm12.892-.55,12.294-.526.526,12.306-12.294.514Zm12.892-.55,12.306-.514.526,12.294-12.306.526Zm12.9-.538L271,316.5l.526,12.294-12.294.526Zm12.892-.55,12.306-.526.514,12.306-12.294.514Zm12.9-.55L296.8,315.4l.526,12.306-12.306.526Zm12.892-.55,12.306-.514.514,12.294-12.294.526Zm12.9-.538,12.294-.526.526,12.294-12.33.526Zm0-.6-.526-12.306,12.306-.514.514,12.294Zm-.55-12.9-.526-12.294,12.306-.526.514,12.306Zm-.55-12.892-.514-12.306,12.294-.514.526,12.294Zm-.55-12.9-.514-12.294,12.294-.526.526,12.306Zm-.538-12.928-.526-12.306,12.306-.514.514,12.294Zm-.55-12.9-.526-12.294,12.306-.526.514,12.306Zm-.55-12.892-.514-12.306L318.793,224l.526,12.294Zm-1.087-25.8L305.4,198.73l12.306-.526.514,12.294Zm-.55-12.9-.562-12.306,12.306-.526.526,12.306Zm-.562-12.9-.514-12.294,12.294-.526.526,12.294Zm-.538-12.892-.526-12.306,12.294-.514.526,12.294Zm-.55-12.9-.526-12.294,12.306-.526.514,12.306Zm-.55-12.892-.514-12.306,12.294-.514L315.483,146Zm-.55-12.9-.514-12.294,12.294-.526.526,12.306Zm-.538-12.892-.526-12.306,12.306-.514.514,12.294Zm-.55-12.9-.526-12.294,12.306-.526.514,12.306Zm-.6,0-12.294.526-.562-12.27,12.294-.526Zm-12.892.55-12.306.526L275.219,96.6l12.306-.514Zm-12.9.55-12.294.514-.526-12.294,12.294-.526Zm-12.892.55-12.306.514-.5-12.259L261.8,97.2Zm-12.9.538-12.294.526-.526-12.306,12.306-.514Zm-12.892.55-12.306.526-.514-12.306,12.294-.514Zm-12.9.55-12.294.514-.526-12.294,12.306-.526Zm-12.892.55-12.306.514-.514-12.294,12.294-.526Zm-12.9.538-12.294.526-.526-12.306,12.306-.514Zm-12.892.55-12.306.526-.514-12.306,12.294-.514Zm-12.9.55-12.294.514-.526-12.294L171.452,101Zm-12.916.562-12.306.526L146.23,102.1l12.294-.526Zm-12.9.55-12.294.526-.526-12.306,12.306-.514Zm-12.892.55-12.294.514-.526-12.294,12.33-.526Zm-12.892.55-12.306.514-.49-12.318,12.306-.526Zm-12.9.538-12.294.526-.526-12.306,12.33-.562Zm-12.892.55-12.306.526-.514-12.306,12.294-.514Zm-12.9.55-12.223.514-.526-12.294,12.306-.526Zm0,.6.585,12.247-12.306.526-.5-12.259Zm.55,12.892.526,12.306-12.306.514-.454-12.27Zm.55,12.9.514,12.294-12.294.526-.526-12.306Zm.538,12.892.526,12.306-12.294.514-.526-12.294Zm.55,12.9.526,12.294-12.306.526-.514-12.306Zm.55,12.892.574,12.282-12.306.514-.526-12.294Zm.55,12.9.514,12.294-12.294.526L72.7,195.707Zm.538,12.892.526,12.294-12.235.478L73.252,208.5Zm1.1,25.8.514,12.294-12.294.526-.526-12.294Zm.55,12.892.514,12.306-12.235.514-.526-12.294Zm.538,12.9.526,12.294-12.306.526-.478-12.306Zm.55,12.892.526,12.306-12.306.514-.514-12.294Zm.55,12.9.514,12.294-12.294.526-.526-12.306ZM89.31,298.3l.526,12.306-12.294.514-.526-12.294Zm.55,12.9.585,12.342-12.306.526-.514-12.306Zm.6,0,12.306-.526.514,12.294-12.294.526Zm12.9,12.342.526,12.306-12.294.514-.526-12.294Zm.55,12.9.526,12.294-12.306.526-.514-12.306Zm.6,0,12.306-.526.514,12.306-12.294.514Zm12.9-.55,12.294-.526.526,12.306-12.306.514Zm12.892-.55,12.306-.514.514,12.294-12.294.526Zm12.9-.538,12.259-.514.526,12.294-12.306.526Zm12.892-.55,12.294-.526.526,12.306-12.294.514Zm12.892-.55,12.306-.526.526,12.306-12.306.526Zm12.9-.55,12.294-.514.526,12.294-12.294.526Zm12.892-.538,12.306-.526.514,12.294-12.294.526Zm12.9-.55,12.294-.526.526,12.306-12.306.514Zm12.892-.55,12.306-.514.514,12.294-12.294.526Zm12.9-.55,12.294-.514.526,12.294L234,343.288Zm12.892-.538,12.306-.526.514,12.306-12.294.514Zm12.9-.55,12.294-.526.526,12.306-12.306.514Zm12.892-.55,12.306-.514.514,12.294-12.294.526Zm12.9-.538,12.294-.526.526,12.294-12.306.526Zm12.892-.55,12.306-.526.514,12.306-12.294.514Zm12.9-.55,12.294-.526.526,12.306L311.385,340Zm2.39-233.27-12.306.526-.514-12.306,12.294-.514Zm-12.9.55-12.27.5-.526-12.306,12.306-.514Zm-12.892.55-12.306.514-.514-12.294,12.294-.526Zm-12.9.538-12.247.466L261.8,84.282l12.306-.526Zm-12.892.55-12.306.526-.514-12.306,12.294-.514Zm-12.9.55-12.294.514-.526-12.294,12.306-.526Zm-12.844.562-12.294.514L223.1,85.954l12.294-.526Zm-12.892.538-12.306.526L210.2,86.492l12.306-.514Zm-12.9.55-12.294.526-.55-12.366,12.294-.514Zm-12.844.514-12.306.514-.514-12.294,12.247-.574Zm-12.9.55-12.294.514L171.559,88.1l12.306-.526Zm-12.892.538-12.306.526-.514-12.306,12.247-.466Zm-12.9.55-12.294.526-.526-12.306,12.306-.526Zm-12.892.55-12.306.514-.514-12.294,12.294-.526Zm-12.9.538-12.294.526-.526-12.294h0l12.306-.526Zm-12.892.55-12.306.526-.514-12.27h0l12.294-.514Zm-12.9.55-12.342.55-.526-12.247h0l12.354-.609Zm-12.94.55-12.306.514-.514-12.235h0l12.294-.526Zm-12.9.538-12.294.526-.514-12.211v-.1l12.306-.514ZM78.163,324.625l12.306-.526.526,12.306-12.306.514ZM91.019,337l.514,12.294-12.294.538-.526-12.306Zm.538,12.892.585,12.294-12.294.526-.526-12.294Zm.6,0,12.306-.526.514,12.306-12.294.514Zm12.9-.55,12.294-.514.526,12.294-12.306.526Zm12.892-.55,12.306-.514.514,12.294-12.294.526Zm12.9-.538,12.294-.526.526,12.306-12.306.514Zm12.892-.55,12.306-.526.514,12.306L144.27,360Zm12.9-.55,12.294-.514.526,12.294-12.306.526Zm12.892-.538,12.306-.526.514,12.294-12.294.526Zm12.9-.55,12.294-.526.526,12.306-12.306.514Zm12.892-.55L207.642,345l.514,12.306-12.294.526Zm12.9-.55,12.294-.514.526,12.294-12.306.526Zm12.892-.538,12.294-.526.526,12.294-12.294.526Zm12.892-.55,12.306-.526.526,12.306-12.306.514Zm12.9-.55,12.294-.514.526,12.294-12.294.526Zm12.892-.55,12.306-.514.514,12.294-12.294.526Zm12.9-.538,12.294-.526.526,12.306-12.306.514Zm12.892-.55,12.306-.526.514,12.306-12.294.514Zm12.9-.55,12.294-.514.526,12.294-12.306.526Zm12.892-.55,12.306-.514.514,12.294-12.294.526Zm12.9-.538,12.294-.526.526,12.306-12.306.514Zm-258.457-2,12.294-.526.49,12.294-9.3.394L65.964,341.6Zm3.752,12.76,9.092-.382.526,12.294-6.99.3,1.195-2.39Z" transform="translate(-44.744 -70.876)"/><path class="e" d="M337.742,352.081h0l-.55-12.892h0l-.55-12.892h0l-.538-12.892h0l-.55-12.892h0l-.55-12.892h0l-.55-12.892h0l-.538-12.88h0l-.55-12.892h0l-.55-12.892h0l-.526-12.952h0l-.275-6.452-.275-6.44h0l-.55-12.892h0l-.55-12.892h0l-.538-12.892h0l-.562-12.88h0L329,145.777h0l-.55-12.892h0l-.538-12.892h0l-.55-12.892h0l-.55-12.951h0l-.49-12.9h0a.3.3,0,0,0-.3-.287h0l-12.892.55h0l-12.892.538h0l-12.9.55h0L55.1,92.43a.45.45,0,0,0-.215.1.334.334,0,0,0-.072.215L60.551,228.17l4.779,111.725L54.47,312.163l12.581,61.388,4.875-9.9,7.611-.323h0l12.892-.55h0l12.856-.538h0l12.892-.55h0l12.892-.55h0l12.88-.538h0l12.892-.55h0l12.88-.55h0l12.892-.55h0l12.892-.538h0l12.88-.55h0l12.892-.55h0l13.047-.55h0l12.892-.538h0l12.88-.55h0l12.892-.55h0l12.88-.538h0l12.88-.538h0l12.88-.55h0l12.88-.55h0l12.88-.538h0a.308.308,0,0,0,.2-.108A.276.276,0,0,0,337.742,352.081ZM65.331,325.163l12.294-.514.526,12.294-12.294.526Zm-.55-12.892,12.306-.526.514,12.306-12.294.514Zm-.538-12.892,12.294-.526.526,12.294-12.306.526Zm-.609-12.868,12.294-.526.526,12.306-12.306.526Zm-.55-12.892,12.306-.526.514,12.223-12.294.526Zm-.55-12.9,12.306-.514.573,12.259-12.294.526ZM62,247.824l12.294-.526.526,12.306-12.306.514Zm-.55-12.9,12.294-.514.478,12.259-12.294.526Zm-.287-6.739-.263-6.189,12.306-.526.251,6.153.263,6.153-12.294.514Zm-.812-19.117,12.306-.514.526,12.294-12.306.526Zm-.538-12.892,12.294-.466.526,12.306-12.306.514Zm-.55-12.9,12.294-.514.526,12.294-12.294.526ZM58.688,170.4l12.306-.526.514,12.306-12.294.514Zm-.514-12.928,12.294-.514.526,12.294-12.306.526Zm-.55-12.892,12.294-.526.526,12.306-12.306.514Zm-.55-12.892,12.366-.5.514,12.294-12.294.526Zm-.55-12.9,12.306-.526.514,12.306-12.294.526ZM55.987,105.9l12.259-.5.526,12.294-12.306.526Zm-.55-12.9,12.294-.514.514,12.318-12.294.526Zm270.763.86-12.294.514-.526-12.294,12.306-.526Zm.55,12.892-12.306.526-.514-12.306,12.294-.514Zm.55,12.892-12.306.526-.514-12.294,12.294-.526Zm.538,12.9-12.294.514-.526-12.294,12.306-.526Zm.55,12.892-12.294.526-.526-12.306,12.294-.514Zm.55,12.9-12.306.514-.514-12.294,12.294-.526Zm.55,12.892-12.306.526-.526-12.306,12.306-.514Zm.538,12.9-12.294.514-.526-12.294,12.306-.526Zm.55,12.892-12.294.526-.526-12.306,12.294-.514Zm.55,12.9-12.306.514-.514-12.294,12.294-.526Zm.287,6.739.251,6.153-12.294.526-.215-6.129-.263-6.153,12.306-.514Zm.8,19.057-12.294.514-.526-12.294,12.306-.526Zm.55,12.892-12.306.526-.514-12.306,12.354-.5Zm.55,12.892L321,262.03l-.514-12.294,12.294-.526Zm.538,12.9-12.294.514-.526-12.306,12.306-.526Zm.55,12.892-12.294.526-.526-12.306,12.306-.514Zm.55,12.9-12.306.514-.514-12.294,12.294-.526Zm.55,12.892-12.306.526-.514-12.306,12.294-.514Zm.538,12.9-12.294.514-.526-12.294,12.306-.526Zm.55,12.892-12.294.526-.526-12.306,12.294-.514ZM74.053,227.6l-.251-6.153,12.294-.526.263,6.153.263,6.153-12.306.526Zm244.454-10.383.263,6.153-12.294.514-.263-6.141-.263-6.153,12.294-.526Zm-231.55,9.809-.263-6.153L99,220.356l.251,6.141.263,6.153-12.294.526Zm218.646-9.26.263,6.153-12.306.514-.263-6.153-.263-6.141,12.306-.526ZM99.848,226.5l-.251-6.141,12.294-.526.263,6.153.263,6.141-12.306.526Zm192.863-8.16.263,6.141L280.679,225l-.263-6.153-.263-6.153,12.294-.514ZM112.752,225.96l-.263-6.153,12.294-.526.263,6.153.263,6.153-12.294.514Zm167.067-7.085.263,6.153-12.306.55-.263-6.153-.251-6.153,12.294-.514ZM125.691,225.41l-.263-6.153,12.306-.514.263,6.141.263,6.153-12.306.526Zm141.272-5.974.263,6.153-12.294.514-.263-6.141-.263-6.153,12.306-.526ZM138.547,224.86l-.263-6.153,12.294-.514.263,6.153.263,6.141-12.294.526Zm115.476-4.887.263,6.141-12.306.526-.263-6.153-.227-6.141,12.294-.526Zm-102.584,4.337-.263-6.141,12.306-.526.263,6.153.263,6.153-12.306.514Zm89.681-3.8.263,6.153-12.294.526-.263-6.153-.263-6.153,12.306-.514Zm-76.777,3.262-.263-6.153,12.294-.526.263,6.153.263,6.153-12.294.514Zm63.885-2.712.263,6.153-12.306.526-.251-6.153-.263-6.153,12.294-.526Zm-38.114,1.613-.263-6.141,12.294-.526.263,6.153.263,6.141-12.306.526Zm-.812-19.045,12.306-.526.514,12.306-12.294.526Zm-.048,12.39-12.306.514-.514-12.294,12.294-.526Zm26.082,5.651.251,6.153-12.294.514-.263-6.141-.263-6.153,12.306-.526Zm-12.593-6.225-.514-12.306,12.294-.514.526,12.294Zm0,13.513.526,12.306-12.306.514-.514-12.294Zm.6,0,12.294-.514.526,12.294-12.294.526Zm12.892-.538,12.306-.526.526,12.294-12.306.526Zm-.562-13.5-.526-12.294,12.294-.526.526,12.294Zm-.55-12.892-.526-12.306,12.306-.514.514,12.294Zm-.6,0-12.306.514-.514-12.294L214,189.722Zm-12.9.538-12.294.526L188.8,190.8l12.306-.526Zm-12.892.55-12.306.526-.514-12.306,12.294-.514Zm-12.9.55-12.294.526L163,191.884l12.306-.526Zm0,.6.514,12.294-12.294.526-.526-12.294Zm1.41,18.925-.263-6.153,12.306-.514.263,6.141.251,6.153-12.294.526Zm12.593,6.225.514,12.306-12.294.585-.526-12.294Zm.538,12.9.526,12.294-12.306.526-.514-12.306Zm.6,0,12.306-.514.514,12.294-12.294.526Zm12.9-.538,12.294-.526.526,12.306-12.306.514Zm12.892-.55,12.306-.526.478,12.354-12.294.514Zm12.9-.55,12.294-.514.526,12.294-12.306.526Zm0-.6-.526-12.294,12.294-.526.526,12.306Zm-1.1-25.8-.526-12.294,12.306-.526.526,12.306Zm-.55-12.892-.514-12.306,12.294-.514.526,12.294Zm-.538-12.9L226.95,176.2l12.294-.526.526,12.306Zm-.6,0L214.572,189l-.562-12.259,12.294-.526Zm-12.9.538-12.294.526-.526-12.306,12.306-.514Zm-12.892.55-12.306.526-.514-12.306,12.294-.514Zm-12.9.55-12.294.514-.526-12.294,12.306-.526Zm-12.892.538-12.306.526-.538-12.211,12.294-.526Zm-12.9.55-12.294.526-.526-12.306,12.306-.514Zm0,.6.526,12.306-12.294.514-.526-12.294Zm.55,12.9.526,12.294-12.306.526-.466-12.27Zm1.1,25.8.514,12.294-12.294.526-.526-12.306Zm.6,0L176.972,230l.478,12.306-12.306.526Zm12.844,12.378.514,12.306-12.294.514-.526-12.294Zm.55,12.9.514,12.294-12.318.5-.526-12.306Zm.6,0,12.294-.526.526,12.294-12.306.526Zm12.892-.55,12.294-.526.526,12.306-12.294.514Zm12.892-.55,12.306-.514.526,12.294L204.93,267Zm12.9-.55,12.294-.514.526,12.294-12.294.526Zm12.892-.538,12.306-.526.514,12.306-12.294.514Zm12.9-.55,12.294-.526.526,12.306-12.306.514Zm0-.6-.526-12.294,12.306-.526.514,12.294Zm-.55-12.892-.526-12.306,12.306-.526.514,12.306Zm-1.063-25.819-.526-12.306,12.294-.514.526,12.294Zm-.55-12.9-.574-12.306,12.306-.526.514,12.306Zm-.645-12.892-.526-12.306,12.306-.514.526,12.294Zm-.55-12.9-.514-12.294,12.294-.526.526,12.306Zm-.6,0-12.294.526-.526-12.306,12.306-.514Zm-12.892.55-12.306.526-.514-12.306,12.294-.514Zm-12.9.55-12.294.514-.526-12.294,12.306-.526Zm-12.892.55-12.306.514-.43-12.27,12.294-.526Zm-12.9.538-12.294.526-.526-12.306,12.306-.514Zm-12.892.55-12.294.526-.526-12.306,12.294-.514Zm-12.892.55-12.306.514-.514-12.294,12.294-.526Zm-12.9.538-12.294.526L136.05,167.1l12.306-.526Zm0,.6.526,12.306-12.306.514L136.576,180Zm.55,12.9.526,12.294-12.306.526-.514-12.306Zm.55,12.892.514,12.306-12.294.514-.526-12.294Zm1.087,25.8.526,12.306-12.306.514-.514-12.294Zm.55,12.9.526,12.294-12.306.526-.526-12.306Zm.6,0,12.294-.526.526,12.294-12.294.526Zm12.844,12.366.526,12.306-12.306.526-.514-12.306Zm.55,12.9.514,12.294-12.294.526-.454-12.27Zm.6,0,12.294-.526.526,12.306-12.306.514Zm12.892-.55,12.306-.526.514,12.306-12.294.526Zm12.9-.55,12.294-.514.526,12.294-12.306.526Zm12.892-.538,12.306-.526.514,12.294-12.294.526Zm12.9-.55,12.294-.526.526,12.306-12.306.514Zm12.892-.55,12.306-.514.514,12.294L231.2,278.8Zm12.9-.55,12.294-.514.526,12.294-12.306.526Zm12.892-.538,12.306-.526.514,12.306L257,277.706Zm0-.6-.526-12.306,12.306-.514.514,12.294Zm-.55-12.9-.514-12.294,12.294-.526.526,12.306Zm-.55-12.892-.514-12.306,12.294-.514.526,12.294Zm-1.087-25.8-.526-12.306,12.306-.514.514,12.27Zm-.55-12.9-.514-12.294,12.294-.526.526,12.306Zm-.538-12.892-.526-12.306,12.294-.514.526,12.294Zm-.55-12.9-.478-12.27,12.306-.526.514,12.306Zm-.55-12.892-.526-12.294,12.306-.526.526,12.294Zm-.6,0-12.294.526-.526-12.306,12.294-.514Zm-12.892.55L226.3,162.7l-.514-12.294,12.294-.526Zm-12.9.55-12.294.514-.526-12.294,12.306-.526Zm-12.892.538-12.306.526L200,151.488l12.294-.514Zm-12.9.55-12.294.526-.526-12.306,12.306-.514Zm-12.892.55-12.306.514-.514-12.294,12.294-.526Zm-12.9.55-12.294.514-.526-12.294,12.306-.526Zm-12.892.538-12.306.526-.514-12.306,12.294-.514Zm-12.9.55-12.294.526-.526-12.306,12.306-.514Zm-12.892.55-12.223.478-.514-12.294,12.294-.526Zm0,.6.526,12.294-12.306.526-.514-12.306Zm.55,12.892.514,12.306-12.294.514-.526-12.294Zm.538,12.9.526,12.294-12.294.526-.526-12.306Zm.55,12.892.526,12.306-12.306.514-.514-12.294Zm1.1,25.8.514,12.294-12.294.526-.526-12.294Zm.538,12.892.526,12.306-12.294.526-.526-12.306Zm.55,12.9.526,12.294-12.306.526-.514-12.294Zm.6,0,12.306-.526.514,12.306-12.294.514Zm12.916,12.354.526,12.294-12.306.526-.514-12.306Zm.55,12.892.526,12.306-12.306.514L141.02,283.2Zm.6,0,12.306-.526.514,12.306-12.294.514Zm12.9-.55,12.294-.514.526,12.294-12.306.526Zm12.892-.538L192,281.063l.526,12.294-12.294.526Zm12.892-.55,12.306-.526.526,12.306-12.306.514Zm12.9-.55,12.294-.526.526,12.306-12.294.526Zm12.892-.55,12.306-.514.514,12.294-12.294.526Zm12.9-.538,12.294-.526.526,12.294-12.306.526Zm12.892-.55,12.306-.526.514,12.306-12.294.514Zm12.9-.55,12.294-.514.526,12.294-12.306.526Zm12.892-.55,12.306-.514.514,12.294-12.294.526Zm0-.6-.514-12.294,12.294-.526.526,12.306Zm-.55-12.892-.514-12.306,12.294-.514.526,12.294Zm-.538-12.9-.526-12.294,12.294-.526.526,12.306Zm-.55-12.892-.573-12.318,12.306-.526.514,12.294Zm-1.1-25.8-.514-12.294,12.294-.526.526,12.306Zm-.538-12.892-.526-12.306,12.306-.514.514,12.294Zm-.55-12.9-.526-12.294,12.306-.526.514,12.306Zm-.55-12.892L265.1,161.68l12.294-.514.526,12.294Zm-.538-12.9-.526-12.294,12.294-.526.526,12.306Zm-.55-12.892L264,135.884l12.306-.514.514,12.294Zm-.6,0-12.306.526-.514-12.306L263.4,135.9Zm-12.9.55-12.294.514L238.2,136.96l12.306-.526Zm-12.892.538-12.306.526-.514-12.294,12.294-.526Zm-12.9.55-12.294.526-.526-12.306,12.306-.514Zm-12.892.55-12.306.514-.514-12.294,12.294-.526Zm-12.9.55-12.294.514-.526-12.294,12.306-.526Zm-12.9.573-12.294.526-.526-12.306L186,139.206Zm-12.892.55-12.306.526-.514-12.306,12.294-.514Zm-12.9.55-12.294.514-.538-12.366,12.306-.526Zm-12.892.55-12.306.514-.514-12.294,12.294-.526Zm-12.9.538-12.294.526-.526-12.306,12.306-.514Zm-12.892.55-12.306.526-.514-12.306,12.294-.514Zm0,.6.514,12.294-12.294.526-.526-12.294Zm.55,12.892.514,12.306-12.294.514-.514-12.318Zm.538,12.9.526,12.294-12.306.526-.514-12.306Zm.55,12.892.526,12.306-12.306.514-.514-12.294Zm.55,12.9.514,12.294-12.294.526-.526-12.306Zm1.087,25.8.526,12.294-12.306.526-.514-12.306Zm.55,12.892.526,12.306-12.306.514-.526-12.294Zm.55,12.9.514,12.294-12.294.526-.526-12.306Zm.538,12.892.526,12.306-12.294.514-.526-12.294Zm.6,0,12.306-.526.514,12.306-12.294.514Zm12.856,12.378.514,12.294-12.294.526L128.1,283.8Zm.538,12.892.526,12.306L129.168,309l-.514-12.294Zm.6,0,12.306-.514.514,12.294-12.294.526Zm12.9-.55,12.294-.514.526,12.294-12.306.526Zm12.892-.538,12.306-.526.514,12.306-12.294.514Zm12.9-.55,12.294-.526.526,12.306-12.306.514Zm12.892-.55,12.306-.514.514,12.294-12.294.526Zm12.9-.538,12.294-.526.526,12.294-12.306.526Zm12.892-.55,12.306-.526.514,12.306-12.294.514Zm12.9-.55,12.294-.526.526,12.306-12.306.526Zm12.892-.55,12.306-.514.514,12.294-12.294.526Zm12.9-.538,12.294-.526.526,12.294-12.306.526Zm12.892-.55,12.306-.621.526,12.306-12.294.514Zm12.9-.621,12.306-.514.514,12.294-12.294.526Zm0-.6-.514-12.294,12.294-.526.526,12.306Zm-.538-12.892-.526-12.306,12.294-.514.526,12.294Zm-.55-12.9-.526-12.294,12.306-.526.514,12.306Zm-.55-12.892-.526-12.306,12.306-.514.526,12.294Zm-.55-12.9-.538-12.33L293,225.051l.526,12.306Zm-1.087-25.8-.526-12.294,12.306-.526.514,12.306Zm-.55-12.892-.514-12.306,12.294-.514.526,12.294Zm-.55-12.9-.526-12.306,12.294-.526.526,12.306Zm-.526-12.9L278,161.118l12.306-.526.514,12.294Zm-.55-12.892-.526-12.306,12.306-.514L290.273,160Zm-.55-12.9-.514-12.294,12.294-.526.526,12.306Zm-.573-12.844-.526-12.306,12.294-.514.526,12.294Zm-.6,0-12.306.514-.526-12.294,12.306-.526Zm-12.9.55-12.294.514-.526-12.294,12.294-.526Zm-12.892.538-12.306.526-.514-12.306,12.294-.514Zm-12.9.55-12.294.526-.526-12.306,12.306-.514Zm-12.892.55-12.306.514-.514-12.259,12.294-.526Zm-12.9.538-12.294.526-.526-12.294,12.306-.526Zm-12.892.55-12.306.526-.514-12.306,12.294-.514Zm-12.9.55-12.294.514-.526-12.294,12.306-.526Zm-12.892.55-12.306.514-.526-12.318,12.294-.526Zm-12.9.538-12.294.526-.526-12.306,12.306-.514Zm-12.892.55-12.306.526-.514-12.306,12.294-.514Zm-12.9.55-12.294.514L121.557,129l12.306-.526Zm-12.892.55-12.294.514-.526-12.294,12.294-.526Zm-12.892.538-12.306.526-.562-12.33,12.306-.514Zm0,.6.514,12.306-12.294.514-.526-12.294Zm.538,12.9.526,12.294-12.27.562-.466-12.366Zm.573,12.856.526,12.306-12.306.514-.514-12.294Zm.55,12.9.514,12.294-12.294.526-.526-12.306Zm.55,12.892.514,12.306-12.294.514-.526-12.33Zm.538,12.9.526,12.294-12.306.526-.514-12.306Zm1.111,25.819.514,12.306-12.294.526-.526-12.306Zm.538,12.9.526,12.294-12.294.526-.526-12.294Zm.55,12.892.526,12.306-12.366.49-.466-12.306Zm.55,12.9.526,12.294-12.306.526-.526-12.306Zm.55,12.892.514,12.306-12.259.49-.526-12.294Zm.6,0,12.294-.514.526,12.294-12.306.526Zm12.844,12.378.514,12.294-12.294.526-.526-12.294Zm.55,12.892.514,12.306-12.294.526-.526-12.306Zm.6,0,12.294-.514.526,12.294-12.306.526Zm12.892-.538,12.306-.526.514,12.294-12.294.526Zm12.9-.55,12.294-.526.526,12.306-12.306.514Zm12.892-.55,12.294-.514.526,12.294-12.294.526Zm12.892-.55,12.306-.514.526,12.294-12.306.526Zm12.892-.6,12.294-.526.526,12.306-12.294.514Zm12.892-.55,12.306-.526.514,12.306-12.294.514Zm12.9-.55,12.294-.514.526,12.294-12.306.526Zm12.892-.538,12.306-.526.514,12.294-12.294.526Zm12.9-.55,12.294-.526.526,12.306-12.306.514Zm12.928-.562,12.306-.526.514,12.306-12.294.526Zm12.9-.55,12.294-.514.526,12.294-12.306.526Zm12.892-.538,12.306-.526.514,12.294-12.294.526Zm12.9-.55,12.294-.526.526,12.306-12.306.514Zm0-.6-.514-12.306,12.294-.514.526,12.294Zm-.538-12.9-.526-12.294,12.306-.526.514,12.306Zm-.55-12.892-.526-12.306,12.306-.514.514,12.294Zm-.55-12.9-.514-12.294,12.294-.526.526,12.306Zm-.538-12.892-.526-12.294,12.294-.526.526,12.294Zm-.55-12.892-.526-12.306,12.306-.514.514,12.294Zm-1.1-25.8-.585-12.27,12.294-.514.526,12.294Zm-.538-12.9-.526-12.294,12.294-.526.49,12.259Zm-.55-12.892-.526-12.306,12.306-.514.514,12.294Zm-.55-12.9-.514-12.294,12.294-.526.526,12.306Zm-.55-12.892-.514-12.306,12.294-.514.526,12.294Zm-.538-12.9-.6-12.294,12.306-.526.514,12.306Zm-.55-12.892-.538-12.306,12.306-.514.514,12.294Zm-.55-12.9-.514-12.294,12.294-.526.526,12.306Zm-.6,0-12.294.514-.526-12.294,12.306-.526Zm-12.892.538-12.306.526-.514-12.306,12.294-.514Zm-12.9.55-12.294.526-.526-12.306,12.306-.514Zm-12.892.55-12.306.514-.514-12.294,12.294-.526Zm-12.9.55-12.318.562-.526-12.294,12.306-.526ZM224.19,124l-12.306.526-.514-12.306,12.294-.514Zm-12.9.55-12.294.526-.526-12.306,12.306-.514Zm-12.892.55-12.294.514-.526-12.294,12.294-.526Zm-12.892.538-12.306.526-.514-12.294,12.294-.526Zm-12.9.55-12.294.526-.526-12.306,12.306-.514Zm-12.892.55-12.306.514-.514-12.294,12.294-.526Zm-12.9.55-12.294.514-.55-12.259,12.306-.526Zm-12.892.538-12.306.526-.514-12.306,12.294-.514Zm-12.9.55-12.294.526-.526-12.306,12.306-.514Zm-12.892.55-12.306.514L95.3,117.138l12.294-.526Zm-12.9.55-12.366.526L82.321,117.7l12.306-.526Zm0,.6.514,12.33-12.294.526-.526-12.306Zm.514,12.928.526,12.294-12.306.526-.514-12.294Zm.55,12.892.526,12.306-12.306.514-.526-12.294Zm.55,12.9.514,12.294-12.294.526L84.519,169.3Zm.538,12.892.526,12.306-12.306.526-.526-12.294Zm.55,12.9.526,12.294-12.306.526L85.618,195.1Zm.55,12.892.514,12.306-12.294.514L86.168,208Zm1.087,25.8.526,12.306-12.306.514L87.255,233.8Zm.55,12.9.526,12.294L88.318,259,87.8,246.689Zm.538,12.856.514,12.306-12.294.514-.526-12.294Zm.538,12.9.526,12.33-12.294.526-.526-12.306Zm.526,12.928.526,12.294-12.306.526-.514-12.294Zm.55,12.892.526,12.306-12.306.526-.514-12.306Zm.6,0,12.294-.514.526,12.294-12.294.526Zm12.844,12.378.526,12.306-12.306.514-.514-12.294Zm.55,12.9.514,12.294-12.294.526-.5-12.306Zm.6,0,12.294-.526.526,12.294-12.306.526Zm12.892-.55,12.306-.526.514,12.306-12.294.514Zm12.9-.55,12.294-.526.526,12.306-12.306.526Zm12.892-.55,12.306-.514.538,12.235-12.294.526Zm12.9-.538,12.294-.526.526,12.294-12.306.526Zm12.892-.55,12.306-.526.514,12.306-12.294.514Zm12.9-.55,12.294-.514.526,12.294-12.306.526Zm12.892-.55,12.306-.514.514,12.294-12.294.526Zm12.9-.538,12.294-.526.526,12.306-12.306.514Zm12.892-.55,12.294-.526.526,12.306-12.294.514Zm12.892-.55,12.306-.514.526,12.294-12.306.526Zm12.9-.538L271,316.5l.526,12.294-12.294.526Zm12.892-.55,12.306-.526.514,12.306-12.294.514Zm12.9-.55L296.8,315.4l.526,12.306-12.306.526Zm12.892-.55,12.306-.514.514,12.294-12.294.526Zm12.9-.538,12.294-.526.526,12.294-12.33.526Zm0-.6-.526-12.306,12.306-.514.514,12.294Zm-.55-12.9-.526-12.294,12.306-.526.514,12.306Zm-.55-12.892-.514-12.306,12.294-.514.526,12.294Zm-.55-12.9-.514-12.294,12.294-.526.526,12.306Zm-.538-12.928-.526-12.306,12.306-.514.514,12.294Zm-.55-12.9-.526-12.294,12.306-.526.514,12.306Zm-.55-12.892-.514-12.306L318.793,224l.526,12.294Zm-1.087-25.8L305.4,198.73l12.306-.526.514,12.294Zm-.55-12.9-.562-12.306,12.306-.526.526,12.306Zm-.562-12.9-.514-12.294,12.294-.526.526,12.294Zm-.538-12.892-.526-12.306,12.294-.514.526,12.294Zm-.55-12.9-.526-12.294,12.306-.526.514,12.306Zm-.55-12.892-.514-12.306,12.294-.514L315.483,146Zm-.55-12.9-.514-12.294,12.294-.526.526,12.306Zm-.538-12.892-.526-12.306,12.306-.514.514,12.294Zm-.55-12.9-.526-12.294,12.306-.526.514,12.306Zm-.6,0-12.294.526-.562-12.27,12.294-.526Zm-12.892.55-12.306.526L275.219,96.6l12.306-.514Zm-12.9.55-12.294.514-.526-12.294,12.294-.526Zm-12.892.55-12.306.514-.5-12.259L261.8,97.2Zm-12.9.538-12.294.526-.526-12.306,12.306-.514Zm-12.892.55-12.306.526-.514-12.306,12.294-.514Zm-12.9.55-12.294.514-.526-12.294,12.306-.526Zm-12.892.55-12.306.514-.514-12.294,12.294-.526Zm-12.9.538-12.294.526-.526-12.306,12.306-.514Zm-12.892.55-12.306.526-.514-12.306,12.294-.514Zm-12.9.55-12.294.514-.526-12.294L171.452,101Zm-12.916.562-12.306.526L146.23,102.1l12.294-.526Zm-12.9.55-12.294.526-.526-12.306,12.306-.514Zm-12.892.55-12.294.514-.526-12.294,12.33-.526Zm-12.892.55-12.306.514-.49-12.318,12.306-.526Zm-12.9.538-12.294.526-.526-12.306,12.33-.562Zm-12.892.55-12.306.526-.514-12.306,12.294-.514Zm-12.9.55-12.223.514-.526-12.294,12.306-.526Zm0,.6.585,12.247-12.306.526-.5-12.259Zm.55,12.892.526,12.306-12.306.514-.454-12.27Zm.55,12.9.514,12.294-12.294.526-.526-12.306Zm.538,12.892.526,12.306-12.294.514-.526-12.294Zm.55,12.9.526,12.294-12.306.526-.514-12.306Zm.55,12.892.574,12.282-12.306.514-.526-12.294Zm.55,12.9.514,12.294-12.294.526L72.7,195.707Zm.538,12.892.526,12.294-12.235.478L73.252,208.5Zm1.1,25.8.514,12.294-12.294.526-.526-12.294Zm.55,12.892.514,12.306-12.235.514-.526-12.294Zm.538,12.9.526,12.294-12.306.526-.478-12.306Zm.55,12.892.526,12.306-12.306.514-.514-12.294Zm.55,12.9.514,12.294-12.294.526-.526-12.306ZM89.31,298.3l.526,12.306-12.294.514-.526-12.294Zm.55,12.9.585,12.342-12.306.526-.514-12.306Zm.6,0,12.306-.526.514,12.294-12.294.526Zm12.9,12.342.526,12.306-12.294.514-.526-12.294Zm.55,12.9.526,12.294-12.306.526-.514-12.306Zm.6,0,12.306-.526.514,12.306-12.294.514Zm12.9-.55,12.294-.526.526,12.306-12.306.514Zm12.892-.55,12.306-.514.514,12.294-12.294.526Zm12.9-.538,12.259-.514.526,12.294-12.306.526Zm12.892-.55,12.294-.526.526,12.306-12.294.514Zm12.892-.55,12.306-.526.526,12.306-12.306.526Zm12.9-.55,12.294-.514.526,12.294-12.294.526Zm12.892-.538,12.306-.526.514,12.294-12.294.526Zm12.9-.55,12.294-.526.526,12.306-12.306.514Zm12.892-.55,12.306-.514.514,12.294-12.294.526Zm12.9-.55,12.294-.514.526,12.294L234,343.288Zm12.892-.538,12.306-.526.514,12.306-12.294.514Zm12.9-.55,12.294-.526.526,12.306-12.306.514Zm12.892-.55,12.306-.514.514,12.294-12.294.526Zm12.9-.538,12.294-.526.526,12.294-12.306.526Zm12.892-.55,12.306-.526.514,12.306-12.294.514Zm12.9-.55,12.294-.526.526,12.306L311.385,340Zm2.39-233.27-12.306.526-.514-12.306,12.294-.514Zm-12.9.55-12.27.5-.526-12.306,12.306-.514Zm-12.892.55-12.306.514-.514-12.294,12.294-.526Zm-12.9.538-12.247.466L261.8,84.282l12.306-.526Zm-12.892.55-12.306.526-.514-12.306,12.294-.514Zm-12.9.55-12.294.514-.526-12.294,12.306-.526Zm-12.844.562-12.294.514L223.1,85.954l12.294-.526Zm-12.892.538-12.306.526L210.2,86.492l12.306-.514Zm-12.9.55-12.294.526-.55-12.366,12.294-.514Zm-12.844.514-12.306.514-.514-12.294,12.247-.574Zm-12.9.55-12.294.514L171.559,88.1l12.306-.526Zm-12.892.538-12.306.526-.514-12.306,12.247-.466Zm-12.9.55-12.294.526-.526-12.306,12.306-.526Zm-12.892.55-12.306.514-.514-12.294,12.294-.526Zm-12.9.538-12.294.526-.526-12.294h0l12.306-.526Zm-12.892.55-12.306.526-.514-12.27h0l12.294-.514Zm-12.9.55-12.342.55-.526-12.247h0l12.354-.609Zm-12.94.55-12.306.514-.514-12.235h0l12.294-.526Zm-12.9.538-12.294.526-.514-12.211v-.1l12.306-.514ZM78.163,324.625l12.306-.526.526,12.306-12.306.514ZM91.019,337l.514,12.294-12.294.538-.526-12.306Zm.538,12.892.585,12.294-12.294.526-.526-12.294Zm.6,0,12.306-.526.514,12.306-12.294.514Zm12.9-.55,12.294-.514.526,12.294-12.306.526Zm12.892-.55,12.306-.514.514,12.294-12.294.526Zm12.9-.538,12.294-.526.526,12.306-12.306.514Zm12.892-.55,12.306-.526.514,12.306L144.27,360Zm12.9-.55,12.294-.514.526,12.294-12.306.526Zm12.892-.538,12.306-.526.514,12.294-12.294.526Zm12.9-.55,12.294-.526.526,12.306-12.306.514Zm12.892-.55L207.642,345l.514,12.306-12.294.526Zm12.9-.55,12.294-.514.526,12.294-12.306.526Zm12.892-.538,12.294-.526.526,12.294-12.294.526Zm12.892-.55,12.306-.526.526,12.306-12.306.514Zm12.9-.55,12.294-.514.526,12.294-12.294.526Zm12.892-.55,12.306-.514.514,12.294-12.294.526Zm12.9-.538,12.294-.526.526,12.306-12.306.514Zm12.892-.55,12.306-.526.514,12.306-12.294.514Zm12.9-.55,12.294-.514.526,12.294-12.306.526Zm12.892-.55,12.306-.514.514,12.294-12.294.526Zm12.9-.538,12.294-.526.526,12.306-12.306.514Zm-258.457-2,12.294-.526.49,12.294-9.3.394L65.964,341.6Zm3.752,12.76,9.092-.382.526,12.294-6.99.3,1.195-2.39Z" transform="translate(-44.744 -70.876)"/><path class="f" d="M160.838,145.091c-3.7,0-7.384-.072-11.016-.191a.289.289,0,0,1-.227-.131.274.274,0,0,1,0-.251,305.165,305.165,0,0,1,21.291-53.849,1.721,1.721,0,0,1,1.434-.908,1.672,1.672,0,0,1,1.493.789,305.4,305.4,0,0,1,25.772,51.842.284.284,0,0,1,0,.263.277.277,0,0,1-.215.143c-8.065.968-16.381,1.649-24.7,2C169.942,145.007,165.342,145.091,160.838,145.091Zm-10.61-.777c7.993.263,16.177.227,24.338-.119s16.345-1,24.278-1.947a308.277,308.277,0,0,0-25.58-51.376,1.1,1.1,0,0,0-.968-.514,1.123,1.123,0,0,0-.932.6,309.106,309.106,0,0,0-21.2,53.359Z" transform="translate(-26.221 -69.162)"/><path class="f" d="M142.285,249.579a.287.287,0,0,1-.3-.263c-1.195-9.475-1.9-17.922-2.222-25.64-1.195-27.839,2.748-57.35,11.673-87.709a.324.324,0,0,1,.3-.215c8.113.287,16.428.251,24.72-.108s16.608-1.016,24.66-1.983a.287.287,0,0,1,.311.179A294.024,294.024,0,0,1,216.7,187.008a.3.3,0,0,1-.244.345h-.007a.3.3,0,0,1-.347-.239,293.247,293.247,0,0,0-15.078-52.845c-8.005.968-16.237,1.625-24.469,1.971s-16.488.394-24.553.108c-8.853,30.228-12.76,59.6-11.578,87.3.323,7.766,1.051,16.13,2.222,25.592a.311.311,0,0,1-.263.335Zm77.852-3.3h0a.3.3,0,0,1-.287-.311h0c.358-9.558.382-17.922,0-25.688a.3.3,0,0,1,.287-.311h0a.287.287,0,0,1,.309.262.177.177,0,0,1,0,.025c.335,7.778.311,16.2,0,25.736a.3.3,0,0,1-.311.287Z" transform="translate(-28.171 -60.611)"/><path class="f" d="M176.529,209.03a26.345,26.345,0,0,1-26.4-24.744v-.657a26.53,26.53,0,0,1,53.013-2.246v.657a26.369,26.369,0,0,1-25.4,26.966C177.317,209.03,176.923,209.03,176.529,209.03Zm.084-52.463h-1.123a25.928,25.928,0,0,0-24.817,26.991v.668a25.962,25.962,0,1,0,51.878-2.174v-.645a25.926,25.926,0,0,0-25.879-24.84Zm0,45.306a19.248,19.248,0,1,1,.836,0Zm.824-.311-.8-37.839h-.8a18.775,18.775,0,1,0,1.589,37.516h0a18.782,18.782,0,0,0-.789-37.54Z" transform="translate(-26.117 -56.264)"/><path class="f" d="M175.32,200.665a19.248,19.248,0,1,1,.836,0Zm.824-.311-.789-37.839h-.812a18.775,18.775,0,0,0,1.589,37.516h0a18.749,18.749,0,0,0-.812-37.48Z" transform="translate(-24.872 -55.056)"/><path class="f" d="M131.776,325.583a5.584,5.584,0,0,1-1.936-.358c-2.533-.956-4.97-3.907-4.779-8.363l2.115-39.99a9.429,9.429,0,0,1,.621-2.951l16.978-43.012a.31.31,0,0,1,.323-.191.334.334,0,0,1,.263.263c1.613,13.083,3.811,26.154,5.974,38.783.669,3.931,1.326,7.826,1.948,11.649l22.247-.944-1.195-5.114a9.722,9.722,0,0,1-.108-3.9,11.829,11.829,0,0,1,23.1-.98,9.674,9.674,0,0,1,.215,3.883l-.741,5.209,22.247-.944q.453-5.807.956-11.781c1.051-12.76,2.139-25.963,2.64-39.141a.3.3,0,0,1,.562-.119l20.562,41.423a9.121,9.121,0,0,1,.872,2.891l5.5,39.667c.609,4.421-1.577,7.563-4.014,8.722a5.543,5.543,0,0,1-6.655-1.505L218.076,295.8l-23.752,1-.9,6.249a6.392,6.392,0,0,1-12.569.538l-1.4-6.177-23.752,1-19.368,24.744A5.8,5.8,0,0,1,131.776,325.583Zm13.143-93.361-16.548,41.925a8.822,8.822,0,0,0-.6,2.76l-2.1,39.99h0c-.227,4.158,2.019,6.894,4.349,7.766a4.983,4.983,0,0,0,5.819-1.876L155.29,297.96a.287.287,0,0,1,.215-.108l24.135-1.027a.31.31,0,0,1,.311.239l1.47,6.392a5.807,5.807,0,0,0,11.41-.49l.932-6.488a.3.3,0,0,1,.275-.263l24.147-1.016a.252.252,0,0,1,.227.1l21.506,23.083a4.959,4.959,0,0,0,5.974,1.374c2.246-1.063,4.253-3.979,3.68-8.1l-5.484-39.667a8.6,8.6,0,0,0-.824-2.712L223.226,228.9c-.514,12.8-1.577,25.6-2.6,38.006q-.5,6.093-.968,12.032a.3.3,0,0,1-.287.275l-22.868.968a.335.335,0,0,1-.239-.1.3.3,0,0,1-.072-.239l.8-5.568a9.142,9.142,0,0,0-.2-3.644,11.231,11.231,0,0,0-21.936.932,9.131,9.131,0,0,0,.1,3.644l1.266,5.472a.3.3,0,0,1,0,.251.309.309,0,0,1-.227.119l-22.868.968a.276.276,0,0,1-.3-.249v0q-.968-5.86-2-11.948c-2.127-12.223-4.265-24.9-5.866-37.6Z" transform="translate(-30.996 -42.347)"/></g><g transform="translate(234.449 123.695)"><path class="g" d="M382.181,214.831l-5.651-.251,2.557,10.753a29.627,29.627,0,0,0,5.472-4.839,2.713,2.713,0,0,0-.276-3.826l-.011-.01Z" transform="translate(-170.13 -96.024)"/><path class="g" d="M371.04,220.375l2.545,8.746,6.571-3.811L377.6,214.58Z" transform="translate(-171.2 -96.024)"/><rect class="a" width="7.73" height="191.381" transform="translate(19.552 76.126) rotate(-76.81)"/><rect class="h" width="7.73" height="191.381" transform="translate(19.552 76.126) rotate(-76.81)"/><rect class="a" width="7.73" height="191.381" transform="translate(16.022 91.172) rotate(-76.81)"/><rect class="h" width="7.73" height="191.381" transform="translate(16.022 91.172) rotate(-76.81)"/><rect class="i" width="7.73" height="191.381" transform="translate(17.786 83.643) rotate(-76.81)"/><path class="j" d="M207.8,184.373l1.589-6.774,14.923-4.839-5.293,22.57Z" transform="translate(-202.997 -104.17)"/><path class="f" d="M203.78,178.889l6.392-2.079-1.589,6.774Z" transform="translate(-203.78 -103.381)"/><path class="g" d="M315.821,173.557c-4,5.377-8.137,10.442-12.545,15.425-2.21,2.473-4.445,4.934-6.8,7.324s-4.779,4.779-7.324,7.025l-.478.43-.657.573a12.145,12.145,0,0,1-2.115,1.386,12.927,12.927,0,0,1-4.11,1.266,20.863,20.863,0,0,1-6.619-.239,47.457,47.457,0,0,1-10.383-3.405,95.928,95.928,0,0,1-17.432-10.395l3.393-5.651c2.856,1.195,5.831,2.473,8.77,3.584s5.89,2.175,8.806,3.023a42.8,42.8,0,0,0,8.364,1.744,9.447,9.447,0,0,0,3.083-.179c.323-.1.5-.2.49-.227s0,0-.1,0,.108-.119.227-.251l.406-.406c4.265-4.433,8.364-9.272,12.426-14.17s8.065-9.941,11.948-14.875Z" transform="translate(-195.291 -105.576)"/><path class="g" d="M240.354,175.03l-4.934,6.285,8.519,6.3,4.923-9.236Z" transform="translate(-197.617 -103.728)"/><path class="g" d="M252.025,185.082l-4.552-7.252-4.923,9.236s4.194,6.213,9.558,3.811Z" transform="translate(-196.228 -103.182)"/><path class="g" d="M347.271,164.64q4.934,8.71,9.5,17.647c1.541,2.951,3.023,5.974,4.54,8.925l2.21,4.5.562,1.111c.119.191.143.335.323.6s.287.478.49.765.382.538.609.824a83.734,83.734,0,0,0,6.129,7.025c2.21,2.39,4.552,4.66,6.87,7l14.17,13.943-4.1,5.161c-5.687-3.7-11.183-7.587-16.524-11.757-2.7-2.067-5.317-4.242-7.933-6.476a88.94,88.94,0,0,1-7.694-7.432c-.311-.346-.633-.729-.944-1.135s-.645-.812-.968-1.267-.681-1.016-1-1.529l-.645-1.075-2.569-4.3c-1.673-2.879-3.393-5.735-5.03-8.638q-5.018-8.651-9.654-17.5Z" transform="translate(-178.101 -105.751)"/><path class="i" d="M307.822,136.394c.143.693-.108,1.35-.55,1.47s-.932-.358-1.075-1.051.1-1.35.538-1.47S307.666,135.7,307.822,136.394Z" transform="translate(-183.839 -111.462)"/><path class="k" d="M307.851,137.34a26.567,26.567,0,0,1-2.031,6.751,4.047,4.047,0,0,0,3.417-.2Z" transform="translate(-183.904 -111.069)"/><path class="i" d="M306.069,132.923a.416.416,0,0,1-.346-.179.407.407,0,0,1,.1-.566l.011-.007a4.072,4.072,0,0,1,3.764-.287.431.431,0,0,1,.227.55.418.418,0,0,1-.538.227,3.216,3.216,0,0,0-2.975.191A.435.435,0,0,1,306.069,132.923Z" transform="translate(-183.937 -112.196)"/><path class="g" d="M331.154,138.43c-1.505,6.428-3.214,18.185,1.111,22.474,0,0-2.007,6.512-13.943,6.512-13.143,0-5.974-6.512-5.974-6.512,7.228-1.709,7.252-7.025,6.2-12.008Z" transform="translate(-183.012 -110.857)"/><path class="a" d="M333.846,160.109c1.028-2.055,2.151-4.421,0-5.161-2.318-.812-15.186-1.637-19.69-.119a4.779,4.779,0,0,0-3.405,5.711Z" transform="translate(-182.968 -107.828)"/><path class="l" d="M333.846,160.109c1.028-2.055,2.151-4.421,0-5.161-2.318-.812-15.186-1.637-19.69-.119a4.779,4.779,0,0,0-3.405,5.711Z" transform="translate(-182.968 -107.828)"/><path class="a" d="M347.027,409.875s-3.333-2.39-4.122-1.016C341.973,410.449,345.617,410.221,347.027,409.875Z" transform="translate(-176.709 -58.263)"/><path class="a" d="M346.708,410.225s-.143-3.74-1.756-3.584S345.6,409.616,346.708,410.225Z" transform="translate(-176.391 -58.614)"/><path class="a" d="M303.393,409.875s-4.134-2.39-4.994-1.016S301.7,410.221,303.393,409.875Z" transform="translate(-185.372 -58.263)"/><path class="a" d="M303.02,410.225s-.215-3.74-2.151-3.584S301.67,409.616,303.02,410.225Z" transform="translate(-184.999 -58.614)"/><path class="g" d="M312.085,412.953H303.3l-.084-20.323h8.77Z" transform="translate(-184.41 -61.342)"/><path class="g" d="M356.772,412.953H347.99l-3.62-20.323h8.77Z" transform="translate(-176.395 -61.342)"/><path class="i" d="M349.189,408.79h9.857a.729.729,0,0,1,.729.609l1.434,7.8a1.352,1.352,0,0,1-1.35,1.553c-3.441-.06-5.1-.263-9.439-.263-2.664,0-8.172.287-11.852.287s-4.026-3.584-2.509-3.979c6.822-1.482,9.451-3.525,11.685-5.46A2.185,2.185,0,0,1,349.189,408.79Z" transform="translate(-178.179 -58.194)"/><path class="i" d="M306.875,408.79h9.558a.717.717,0,0,1,.717.609l1.434,7.8a1.324,1.324,0,0,1-1.326,1.553c-3.453-.06-8.435-.263-12.784-.263-5.078,0-9.487.287-15.437.287-3.584,0-4.468-3.584-2.951-3.979,6.93-1.505,12.545-1.661,18.615-5.317A4.14,4.14,0,0,1,306.875,408.79Z" transform="translate(-187.886 -58.194)"/><path class="a" d="M344.657,158.944c8.148,1.888,16.727,24.314,16.727,24.314L344.43,194.584a132.051,132.051,0,0,1-10.192-18.555C329.734,165.766,336.317,157.02,344.657,158.944Z" transform="translate(-178.653 -106.913)"/><path class="a" d="M337.384,170.87l7.013,20.8-.8.538s-3.2-4.779-6.607-11.147Z" transform="translate(-177.832 -104.538)"/><path class="m" d="M337.384,170.87l7.013,20.8-.8.538s-3.2-4.779-6.607-11.147Z" transform="translate(-177.832 -104.538)"/><path class="a" d="M296.88,198.483c.072,9.8.657,21.984,2.127,37.11h47c.6-7.169-2.581-42.367,5.675-76.323a120.842,120.842,0,0,0-15.628-1.983,173.7,173.7,0,0,0-19.953,0,89.794,89.794,0,0,0-13.6,2.39s-4.014,4.349-5.233,24.744C297.024,188.495,296.856,193.13,296.88,198.483Z" transform="translate(-185.646 -107.24)"/><path class="a" d="M296.88,195.226c2.844-5.185,8.005-15.592,7.276-21.506l-6.93,7.5C297.024,185.238,296.857,189.874,296.88,195.226Z" transform="translate(-185.646 -103.983)"/><path class="m" d="M296.88,195.226c2.844-5.185,8.005-15.592,7.276-21.506l-6.93,7.5C297.024,185.238,296.857,189.874,296.88,195.226Z" transform="translate(-185.646 -103.983)"/><path class="a" d="M314.7,167.229c.741,8.364-18.221,28.484-18.221,28.484l-15.2-12.378a97.968,97.968,0,0,1,14.206-18.519C304.375,156.225,313.874,157.861,314.7,167.229Z" transform="translate(-188.684 -106.811)"/><path class="n" d="M303.22,392.64l.048,10.466h8.782L312,392.64Z" transform="translate(-184.41 -61.34)"/><path class="n" d="M353.142,392.64H344.36l1.876,10.466h8.782Z" transform="translate(-176.397 -61.34)"/><path class="g" d="M330.323,131.768c1.278,8.65,2.473,13.621-.86,19.117a11.339,11.339,0,0,1-20.06-1.063c-3.429-7.169-4.958-20.12,2.581-25.592a11.446,11.446,0,0,1,18.34,7.539Z" transform="translate(-183.758 -114.088)"/><path class="i" d="M339.871,137.3c-3.011,7.742-5.185,11.147-8.794,12.4-9.415,3.274-15.234-8.2-17.42-18.2a17.605,17.605,0,0,1-8.364-2.569c-4.158-2.652-5.592-7.36,1.565-11.41.06.263,1.517,3.154,6.99,1.195,9.176-3.286,26.751-6.774,23.991,3.25C342.189,122.028,342.87,129.568,339.871,137.3Z" transform="translate(-184.68 -115.352)"/><path class="g" d="M318.43,135.192a10.3,10.3,0,0,1-2.1,6.081c-1.78,2.294-3.823,1.195-4.313-1.386-.43-2.294,0-6.261,2.222-7.647S318.442,132.563,318.43,135.192Z" transform="translate(-182.726 -112.159)"/><path class="i" d="M330.66,121.559a7.369,7.369,0,0,0,4.946-4.779S337.243,123.638,330.66,121.559Z" transform="translate(-179.065 -115.074)"/><path class="a" d="M312.6,222.78s7.372,67.075,11.864,92.2c4.923,27.48,23.9,119.192,23.9,119.192h16.094s-11.422-89.454-13.788-116.695c-2.569-29.571-7.814-94.7-7.814-94.7Z" transform="translate(-182.583 -94.426)"/><path class="l" d="M312.6,222.78s7.372,67.075,11.864,92.2c4.923,27.48,23.9,119.192,23.9,119.192h16.094s-11.422-89.454-13.788-116.695c-2.569-29.571-7.814-94.7-7.814-94.7Z" transform="translate(-182.583 -94.426)"/><path class="a" d="M340.62,394.75c-.072,0,1.422,6.177,1.422,6.177h18.077l-.108-5.508Z" transform="translate(-177.126 -60.929)"/><path class="e" d="M340.62,394.75c-.072,0,1.422,6.177,1.422,6.177h18.077l-.108-5.508Z" transform="translate(-177.126 -60.929)"/><path class="a" d="M317.515,242.8c11.434,2.258,8.555,45.211,6.32,67.3-2.724-15.664-6.428-45.665-8.925-67.04A4,4,0,0,1,317.515,242.8Z" transform="translate(-182.133 -90.548)"/><path class="o" d="M317.515,242.8c11.434,2.258,8.555,45.211,6.32,67.3-2.724-15.664-6.428-45.665-8.925-67.04A4,4,0,0,1,317.515,242.8Z" transform="translate(-182.133 -90.548)"/><path class="a" d="M299.283,222.78s-3.74,65.618-3.823,92.393c-.084,27.839,6.117,119,6.117,119h14.839s4-89.537,5.723-116.874c1.864-29.81,7.969-94.52,7.969-94.52Z" transform="translate(-185.922 -94.426)"/><path class="l" d="M299.283,222.78s-3.74,65.618-3.823,92.393c-.084,27.839,6.117,119,6.117,119h14.839s4-89.537,5.723-116.874c1.864-29.81,7.969-94.52,7.969-94.52Z" transform="translate(-185.922 -94.426)"/><path class="a" d="M304.436,422.7a.155.155,0,0,1-.155-.143c-1.649-25.234-5.472-86.288-5.4-108.176.06-22.414,2.724-72.524,3.584-87.351a.155.155,0,0,1,.106-.192.157.157,0,0,1,.192.108.147.147,0,0,1,0,.085c-.812,14.827-3.477,64.937-3.584,87.339-.072,21.877,3.752,82.93,5.4,108.152a.155.155,0,0,1-.142.167h0Z" transform="translate(-185.256 -93.637)"/><path class="o" d="M304.436,422.7a.155.155,0,0,1-.155-.143c-1.649-25.234-5.472-86.288-5.4-108.176.06-22.414,2.724-72.524,3.584-87.351a.155.155,0,0,1,.106-.192.157.157,0,0,1,.192.108.147.147,0,0,1,0,.085c-.812,14.827-3.477,64.937-3.584,87.339-.072,21.877,3.752,82.93,5.4,108.152a.155.155,0,0,1-.142.167h0Z" transform="translate(-185.256 -93.637)"/><path class="a" d="M298.381,394.75c-.072,0,.6,6.177.6,6.177h18.065l.7-5.508Z" transform="translate(-185.354 -60.929)"/><path class="e" d="M298.381,394.75c-.072,0,.6,6.177.6,6.177h18.065l.7-5.508Z" transform="translate(-185.354 -60.929)"/></g></g></svg>