<svg xmlns="http://www.w3.org/2000/svg" width="460.116" height="446.672" viewBox="0 0 460.116 446.672"><defs><style>.a,.o{fill:#94c529;}.b,.d,.f,.l,.n{fill:#fff;}.b{opacity:0.8;isolation:isolate;}.c,.e{fill:#263238;}.c,.d,.h,.i{stroke:#263238;}.c,.d,.i,.j,.n{stroke-linecap:round;stroke-linejoin:round;}.g{fill:#cfcfcf;}.h,.i,.j,.k,.m,.p{fill:none;}.h,.k,.l,.m,.o,.p{stroke-miterlimit:10;}.j{stroke:gray;}.k{stroke:#fff;}.l,.m,.n,.o{stroke:#8f8f8f;}.p{stroke:#94c529;}</style></defs><g transform="translate(-28.5 -31.183)"><path class="a" d="M37.62,176.94S56.87,95.58,132.73,56s166.33-22.74,240-11.1,120.53,68,115.52,135.61-64.42,74-109.78,141.79-47.71,93-120.78,124.16-166.91-20.11-203-111S37.62,176.94,37.62,176.94Z"/><path class="b" d="M37.62,176.94S56.87,95.58,132.73,56s166.33-22.74,240-11.1,120.53,68,115.52,135.61-64.42,74-109.78,141.79-47.71,93-120.78,124.16-166.91-20.11-203-111S37.62,176.94,37.62,176.94Z"/><path class="c" d="M250.46,112.63s-10.69,1.62-15.83,10.94c-3.62,6.54,1.43,18.72-3.17,22.17s-6.91.87-8.64,6,3.17,8.07,1.73,10.37-3.46,2.88-3.46,6.91,7.49,7.2,10.08,6.62,6.05-4.32,7.77-3.74,3.17,4.32,8.93,3.74,7.2-3.45,10.66-2,5.76,3.45,9.79,2.59,7.48-4.61,8.92-4,9.22,5.18,15.27,4.32,6.33-6.63,5.18-11.81,1.15-6.33.86-10.94-7.2-8.07-10.94-9.79-2.31-13-6.06-21.61S261.12,109.17,250.46,112.63Z"/><path class="d" d="M227.8,415.86s4,35.77,4,36.58-.81,9.15-2.15,12.64a17.754,17.754,0,0,1-4.57,7.26c-2.16,2.16-3.5,3.77-1.89,4.58s18,0,18,0a43,43,0,0,1,1.08-7,23.02,23.02,0,0,1,1.88-4.84l.32,11.82h1.35s.48-12.36,1-14a30.348,30.348,0,0,0,1.62-8.07c0-2.69-3.5-6.72-3.5-6.72l2.72-32Z"/><path class="e" d="M228.52,422.3h18.66l.52-6.17-19.9-.27S228.09,418.48,228.52,422.3Z"/><path class="c" d="M242.83,457.55c-2.15,5.65-2.69,11.57-4.84,13.18s-10.76-.27-10.76-.27l-.4-.08a21.6,21.6,0,0,1-1.75,2c-2.16,2.16-3.5,3.77-1.89,4.58s18,0,18,0a43.006,43.006,0,0,1,1.08-7,23.02,23.02,0,0,1,1.88-4.84l.32,11.82h1.35s.48-12.36,1-14a30.348,30.348,0,0,0,1.62-8.07c0-1.64-1.31-3.79-2.33-5.21C245.41,452.18,244.17,454,242.83,457.55Z"/><path class="d" d="M278.64,415.86S276,451.63,276,452.44s.81,9.15,2.15,12.64a17.754,17.754,0,0,0,4.57,7.26c2.16,2.16,3.5,3.77,1.89,4.58s-18,0-18,0a43,43,0,0,0-1.08-7,23.018,23.018,0,0,0-1.88-4.84l-.32,11.82h-1.34s-.49-12.36-1-14a30.373,30.373,0,0,1-1.61-8.07c0-2.69,3.49-6.72,3.49-6.72l-4-32Z"/><path class="e" d="M278.64,415.86l-19.9.27.78,6.17h18.64C278.45,418.48,278.64,415.86,278.64,415.86Z"/><path class="c" d="M264.93,457.55c2.15,5.65,2.69,11.57,4.84,13.18s10.76-.27,10.76-.27l.4-.08a21.6,21.6,0,0,0,1.75,2c2.16,2.16,3.5,3.77,1.89,4.58s-18,0-18,0a43.006,43.006,0,0,0-1.08-7,23.019,23.019,0,0,0-1.88-4.84l-.32,11.82h-1.34s-.49-12.36-1-14a30.38,30.38,0,0,1-1.61-8.07c0-1.64,1.3-3.79,2.32-5.21C262.35,452.18,263.59,454,264.93,457.55Z"/><path class="f" d="M209.46,284.28s-1.21,25.69-.23,42.87,3.88,91.72,3.88,91.72l35.33,1,1.3-89.78,4.54,89.45,41.16-.32s-3.56-74.22-3.56-93.67,2.59-30.79,2.26-40.19-13-16.86-35.65-19.45-41.49,7.13-45.05,11A14.681,14.681,0,0,0,209.46,284.28Z"/><path class="g" d="M283.07,272.21c-.59-.29-1.2-.57-1.84-.85v148h1.84Z"/><path class="g" d="M285.21,273.35l-.93-.51V419.29h.93Z"/><path class="g" d="M251,267.24a.92.92,0,0,0-.92.92h0v69.32L252,373.79V268.16a.919.919,0,0,0-.916-.923A.788.788,0,0,0,251,267.24Z"/><path class="g" d="M253.63,267.7a.45.45,0,0,0-.46.44V397.66l.92,18.15V268.16A.46.46,0,0,0,253.63,267.7Z"/><path class="g" d="M264.79,419.44V268.16a.47.47,0,0,0-.93,0V419.45Z"/><path class="g" d="M269.65,268.16a.46.46,0,0,0-.46-.46.45.45,0,0,0-.46.44V419.41h.92Z"/><path class="g" d="M267.52,268.16a.93.93,0,0,0-1.85,0V419.43h1.85Z"/><path class="g" d="M280.34,271l-.92-.37v148.7h.92Z"/><path class="g" d="M220.84,272.14c-.65.31-1.26.62-1.84.93V419h1.84Z"/><path class="g" d="M217.19,419h.92V273.56l-.92.54Z"/><path class="g" d="M248.77,267.7a.45.45,0,0,0-.46.44v151.7h.13l.79-54.34V268.16A.46.46,0,0,0,248.77,267.7Z"/><path class="g" d="M223,271.16l-.92.41V419.12H223Z"/><path class="g" d="M235.48,267.24a.92.92,0,0,0-.92.92h0v151.3l1.84.06V268.16a.92.92,0,0,0-.92-.92Z"/><path class="g" d="M232.75,268.16V419.41h.92V268.16a.46.46,0,0,0-.46-.46h-.19A.44.44,0,0,0,232.75,268.16Z"/><path class="g" d="M238.07,267.7a.46.46,0,0,0-.46.46V419.55h.92V268.16a.45.45,0,0,0-.44-.46Z"/><path class="h" d="M209.46,284.28s-1.21,25.69-.23,42.87,3.88,91.72,3.88,91.72l35.33,1,1.3-89.78,4.54,89.45,41.16-.32s-3.56-74.22-3.56-93.67,2.59-30.79,2.26-40.19-13-16.86-35.65-19.45-41.49,7.13-45.05,11A14.681,14.681,0,0,0,209.46,284.28Z"/><path class="c" d="M248.61,274.39s-4.8,12.81-4,14.81,5.2,2.4,5.2,2.4l1.6-16.81s4,15.21,6,14.81,4-1.6,3.2-4.81S249,272.39,249,272.39Z"/><path class="d" d="M254.29,126.83S237.61,137.66,237,140.26s.44,12.34,1.52,16.24,5.2,10.83,6.93,12.13,3.47,9.31,1.08,11.7-5.19,2.38-9.31.86-7.8-3.68-10.83-3.46-26.64,6.28-31,7.14-7.58,1.3-8.44,1.52-4.77-.87-5.64-.43-1.73-1.52-4.76-3.9-5.2-4.33-5.2-4.33L160.73,187l1.73,3.46s-.43,6.07,1.52,9.32,5.41,5.84,8.88,11S180,223,187.15,223s16.24-7.8,22.53-10.83,11.91-6.06,11.91-6.06-6.28,39.85-10,47.21-11.91,16.46-10,21,4.55,10,7.8,10,38.33-10.61,44.83-10.61,35.73,12.56,39,14.29c0,0-.65,3.47,1.3,3.47s5-2.82,6.28-6.93-4.76-15.6-5.41-23.18-4.12-34-4.12-34,9.53,26.42,10.83,30.54,7.58,9.31,13,8.45,14.07-5.64,11.69-17.55S313,219.53,309.73,212.81s-10-21-14.94-26-9.1-4.76-15.81-4.76-13-.87-13.65-3-.43-12.56-.43-12.56l4.55-9.32s3,1.09,4.11-1.51a17.576,17.576,0,0,0,1.09-5.85s-3.47-1.73-11.7-9.75S254.29,126.83,254.29,126.83Z"/><path class="c" d="M245.41,168.63s4.07,4.05,8.23,2.17a65.161,65.161,0,0,0,6.06-3.25S255.18,175,247.6,175Z"/><path class="i" d="M248.88,147.47a5.872,5.872,0,0,1-2.17,3c-1.52.86,0,3,1.52,3.25a4.258,4.258,0,0,0,2.59-.44"/><path class="i" d="M247.79,157.87s3.68,1.73,8-2"/><path class="e" d="M245.25,145.5c0,1.17-.47,2.12-1.06,2.12s-1.06-1-1.06-2.12.47-2.13,1.06-2.13S245.25,144.32,245.25,145.5Z"/><path class="e" d="M256.93,145.5c0,1.17-.47,2.12-1.06,2.12s-1.06-1-1.06-2.12.48-2.13,1.06-2.13S256.93,144.32,256.93,145.5Z"/><path class="i" d="M245.9,148.53h-8.45a1,1,0,0,1-1-.83l-.94-4.6a1,1,0,0,1,.73-1.211.981.981,0,0,1,.27-.029h10.23a1,1,0,0,1,1.024.975,1.009,1.009,0,0,1-.024.245l-.83,4.6A1.05,1.05,0,0,1,245.9,148.53Z"/><path class="i" d="M262.73,148.53h-9.42a1.14,1.14,0,0,1-1.14-.83l-1-4.6a1.08,1.08,0,0,1,1.14-1.24h11.4a1.07,1.07,0,0,1,1.14,1.22l-.93,4.6A1.131,1.131,0,0,1,262.73,148.53Z"/><line class="i" x2="5.03" transform="translate(247.23 142.01)"/><line class="i" x2="3.49" transform="translate(247.68 144.28)"/><path class="i" d="M241.61,140.64A3.89,3.89,0,0,1,247,139.532l.071.048"/><path class="i" d="M252.38,139.58s2.69-2.78,6.75.31"/><path class="c" d="M309.73,212.81c-3.25-6.71-10-21-14.94-26s-9.1-4.76-15.81-4.76-13-.87-13.65-3a24.278,24.278,0,0,1-.4-4.47,41.684,41.684,0,0,1-17.33.45c.19,2.16-.07,4.27-1.11,5.32-2.38,2.38-5.19,2.38-9.31.86s-7.8-3.68-10.83-3.46-26.64,6.28-31,7.14-7.58,1.3-8.44,1.52-4.77-.87-5.64-.43-1.73-1.52-4.76-3.9-5.2-4.33-5.2-4.33L160.73,187l1.73,3.46s-.43,6.07,1.52,9.32,5.41,5.84,8.88,11S180,223,187.15,223s16.24-7.8,22.53-10.83,11.91-6.06,11.91-6.06-6.28,39.85-10,47.21-11.91,16.46-10,21,4.55,10,7.8,10,38.33-10.61,44.83-10.61,35.73,12.56,39,14.29c0,0-.65,3.47,1.3,3.47s5-2.82,6.28-6.93-4.76-15.6-5.41-23.18-4.12-34-4.12-34,9.53,26.42,10.83,30.54,7.58,9.31,13,8.45,14.07-5.64,11.69-17.55S313,219.53,309.73,212.81Z"/><line class="j" x1="5.29" y1="23.03" transform="translate(285.26 200.92)"/><path class="j" d="M186.17,187.93s2.4,6,2,16.81"/><path class="j" d="M183,187.13s2.4,9.61.8,16.81"/><path class="j" d="M306.65,242.37s6-4.81,13.6,0"/><path class="j" d="M219.79,193.54l1.8,12.56-6.6-11.76"/><path class="j" d="M251,272.79s-16.41-2.41-18.41-2"/><path class="d" d="M302,242.84s13.16,1.94,15.54,2.8,2.59,10.15,0,13.39-5.61,1.94-9.5.43-11.22-9.07-11.22-9.07Z"/><path class="d" d="M303.3,240.47l-7.12-6.7-1.08,4.75,2.59,3.67Z"/><path class="d" d="M275.38,224.22l-8.75,32.7a1.31,1.31,0,0,0,.912,1.612,1.274,1.274,0,0,0,.368.048l22.33-.19a1.34,1.34,0,0,0,1.26-.94l9.38-31a2.451,2.451,0,0,0-1.645-3.05,2.5,2.5,0,0,0-.595-.1l-20.79-.86A2.45,2.45,0,0,0,275.38,224.22Z"/><path class="d" d="M301,239.89s-13.94,1.29-16.68,1.93-2,2.79-.4,4.73,7.07,6,9.62,7.52,5.1,1.72,6.47-.43,3.93-12.25,3.34-13.11S301,239.89,301,239.89Z"/><line class="i" x2="14.19" y2="2.87" transform="translate(286.18 241.53)"/><line class="i" x2="16.68" y2="4.3" transform="translate(282.71 243.75)"/><line class="i" x2="11.77" y2="3.22" transform="translate(285.85 248.48)"/><path class="d" d="M171.34,177.73l-20.65-24s-7.73-13.79-11-17.66-5.24-3.31-5.24-1.93,3,3.59,4.14,5.24a28.674,28.674,0,0,1,2.21,4.69l-3.31,7.18a72.142,72.142,0,0,0,6.07,5.51,9.612,9.612,0,0,0,3.58,1.38L160.73,187Z"/><path class="d" d="M139.1,141.06l5.24,6.62-4.69,6.34-5.79-3.31Z"/><line class="i" x2="5.63" y2="4.06" transform="translate(135.66 147.41)"/><line class="i" x2="5.39" y2="4.56" transform="translate(137.46 144.65)"/><path class="d" d="M150.69,153.75s-3.31-12.69-4.69-13.24c-1.07-.43-4.66,2.91-6.22,4.43a2,2,0,0,0-.45,2.27.869.869,0,0,0,1,.54c1.38-.28,4-2.28,4-2.28s-1.1,6.62,1.93,8.28"/><path class="e" d="M332.85,73.42H303.77a3.19,3.19,0,0,0-3.19,3.19h0V88.75a3.19,3.19,0,0,0,3.19,3.19h25.75L336,99.53V76.61A3.179,3.179,0,0,0,332.85,73.42Z"/><line class="k" x2="21.34" transform="translate(307.36 78.61)"/><line class="k" x2="21.34" transform="translate(307.36 82.51)"/><line class="k" x2="21.34" transform="translate(307.36 86.41)"/><path class="e" d="M447.19,202.41h29.07a3.19,3.19,0,0,1,3.19,3.19h0v12.14a3.19,3.19,0,0,1-3.19,3.19H450.51L444,228.52V205.6a3.19,3.19,0,0,1,3.19-3.19Z"/><line class="k" x1="21.33" transform="translate(451.34 207.6)"/><line class="k" x1="21.33" transform="translate(451.34 211.5)"/><line class="k" x1="21.33" transform="translate(451.34 215.39)"/><path class="e" d="M67.79,212.09H38.71a3.18,3.18,0,0,0-3.19,3.17v12.16a3.18,3.18,0,0,0,3.18,3.18H64.46L71,238.2V215.27a3.18,3.18,0,0,0-3.18-3.18Z"/><line class="k" x2="21.34" transform="translate(42.3 217.28)"/><line class="k" x2="21.34" transform="translate(42.3 221.18)"/><line class="k" x2="21.34" transform="translate(42.3 225.07)"/><path class="l" d="M204.41,292.7h29.08a3.19,3.19,0,0,1,3.19,3.19h0V308a3.19,3.19,0,0,1-3.19,3.19H207.74l-6.52,7.59V295.89a3.19,3.19,0,0,1,3.19-3.19Z"/><line class="m" x1="21.34" transform="translate(208.56 297.89)"/><line class="m" x1="21.34" transform="translate(208.56 301.79)"/><line class="m" x1="21.34" transform="translate(208.56 305.69)"/><line class="m" x2="28.75" transform="translate(49.48 272.05)"/><rect class="l" width="26.16" height="21.51" transform="translate(337.26 214.41)"/><path class="m" d="M337.55,226.03l9.89-6.39,5.81,7.85,4.94-2.62,4.65,5.52"/><path class="m" d="M360.22,219.64a3.2,3.2,0,1,1-3.2-3.2h.01A3.2,3.2,0,0,1,360.22,219.64Z"/><path class="n" d="M362.06,95.8h-17.9V75.27l4.71-4.53h13.19Z"/><path class="n" d="M344.16,75.27h4.87V70.74Z"/><path class="n" d="M381.63,95.8h-17.9V75.27l4.71-4.53h13.19Z"/><path class="n" d="M363.73,75.27h4.87V70.74Z"/><path class="n" d="M401.2,95.8H383.3V75.27l4.71-4.53H401.2Z"/><path class="n" d="M383.3,75.27h4.87V70.74Z"/><line class="m" x2="55.83" transform="translate(41.15 333.89)"/><line class="m" y1="18.39" transform="translate(69.1 315.5)"/><circle class="l" cx="10.25" cy="10.25" r="10.25" transform="translate(30.902 323.637)"/><path class="o" d="M49.29,340.1l-8.42-4.77V323.65a10.25,10.25,0,1,0,8.42,16.45Z"/><path class="l" d="M47.16,333.89a6,6,0,1,1-6-6A6,6,0,0,1,47.16,333.89Z"/><circle class="l" cx="10.25" cy="10.25" r="10.25" transform="translate(58.854 323.641)"/><path class="o" d="M77.24,340.1l-8.41-4.77V323.65a10.25,10.25,0,1,0,8.41,16.45Z"/><path class="l" d="M75.11,333.89a6,6,0,1,1-6-6A6,6,0,0,1,75.11,333.89Z"/><circle class="l" cx="10.25" cy="10.25" r="10.25" transform="translate(86.803 323.643)"/><path class="o" d="M105.19,340.1l-8.41-4.77V323.65a10.25,10.25,0,1,0,8.41,16.45Z"/><path class="l" d="M103.07,333.89a6,6,0,1,1-6-6A6,6,0,0,1,103.07,333.89Z"/><circle class="m" cx="31.76" cy="31.76" r="31.76" transform="translate(102.65 102.4)"/><circle class="m" cx="20.76" cy="20.76" r="20.76" transform="translate(113.65 113.4)"/><line class="m" x2="13" y2="70.5" transform="translate(411.17 233)"/><line class="m" x2="94.22" y2="13.39" transform="translate(151.17 237.5)"/><line class="m" x1="33.5" y2="38" transform="translate(139.67 298)"/><path class="m" d="M139.67,338.5,90.17,245l61-7.5,22,60.5,169.5-112V133.05"/><path class="m" d="M90.17,245l-16.5-65,60.74-45.84L182.3,133"/><line class="m" x1="77.5" y1="57.5" transform="translate(73.67 180)"/><path class="m" d="M151.17,237.5l-36.55,54.09L72.17,311"/><path class="m" d="M200.02,326.28,173.17,298,182,264.23"/><line class="m" x1="32.53" y1="11.75" transform="translate(140.64 286.25)"/><path class="m" d="M445.55,234.87,411.17,233l-35.68,35.9"/><path class="m" d="M337.95,104.89,342,131.12l-18.06,17.8"/><line class="m" y1="14.89" x2="27.31" transform="translate(342 116.23)"/><line class="m" x1="4.99" y1="16.35" transform="translate(389.19 255.54)"/><line class="m" x1="2.14" y1="16.95" transform="translate(148.54 218.88)"/><line class="m" x1="17" y1="1.74" transform="translate(70.61 241.98)"/><line class="m" x1="6.43" y1="36.59" transform="translate(63.24 276.91)"/><path class="m" d="M165.3,94.97l-30.89,39.19V59.44H178.4"/><line class="m" x2="68.5" y2="47" transform="translate(342.67 186)"/><circle class="a" cx="5" cy="5" r="5" transform="translate(337 126.12)"/><circle class="p" cx="9.21" cy="9.21" r="9.21" transform="translate(330.968 193.586) rotate(-77.16)"/><circle class="a" cx="5" cy="5" r="5" transform="translate(337 181.66)"/><circle class="p" cx="9.21" cy="9.21" r="9.21" transform="translate(401.65 223.93)"/><circle class="a" cx="5" cy="5" r="5" transform="translate(405.86 228.14)"/><circle class="p" cx="9.21" cy="9.21" r="9.21" transform="translate(161.846 304.415) rotate(-76.5)"/><circle class="a" cx="5" cy="5" r="5" transform="translate(167.95 292.59)"/><circle class="p" cx="9.21" cy="9.21" r="9.21" transform="translate(125.098 124.688)"/><circle class="a" cx="5" cy="5" r="5" transform="translate(129.3 128.89)"/><circle class="a" cx="2.5" cy="2.5" r="2.5" transform="translate(373.39 266.31)"/><circle class="a" cx="2.5" cy="2.5" r="2.5" transform="translate(442.67 232.36)"/><circle class="a" cx="2.5" cy="2.5" r="2.5" transform="translate(321.81 146.15)"/><circle class="a" cx="2.5" cy="2.5" r="2.5" transform="translate(366.91 113.98)"/><circle class="a" cx="2.5" cy="2.5" r="2.5" transform="translate(335.07 102.37)"/><circle class="a" cx="2.5" cy="2.5" r="2.5" transform="translate(137.17 333.5)"/><circle class="a" cx="2.5" cy="2.5" r="2.5" transform="translate(60.74 274.41)"/><circle class="a" cx="2.5" cy="2.5" r="2.5" transform="translate(137.48 283.95)"/><circle class="a" cx="2.5" cy="2.5" r="2.5" transform="translate(178.91 261.77)"/><path class="a" d="M205.12,326.27a4.74,4.74,0,1,1-4.74-4.74h0A4.74,4.74,0,0,1,205.12,326.27Z"/><circle class="a" cx="2.5" cy="2.5" r="2.5" transform="translate(148.67 235)"/><circle class="a" cx="2.5" cy="2.5" r="2.5" transform="translate(181.14 130.76)"/><circle class="a" cx="2.5" cy="2.5" r="2.5" transform="translate(162.8 92.47)"/><circle class="a" cx="2.5" cy="2.5" r="2.5" transform="translate(71.17 177.5)"/><circle class="a" cx="5" cy="5" r="5" transform="translate(419.17 298.5)"/><circle class="a" cx="5" cy="5" r="5" transform="translate(109.77 286.76)"/><circle class="a" cx="5" cy="5" r="5" transform="translate(239.14 246.08)"/><circle class="a" cx="5" cy="5" r="5" transform="translate(64.56 306.43)"/><circle class="a" cx="5" cy="5" r="5" transform="translate(85.17 240)"/><path class="a" d="M393.33,274.36a2.5,2.5,0,1,1,3-1.865l0,.015A2.5,2.5,0,0,1,393.33,274.36Z"/><path class="a" d="M149.8,216.58a2.5,2.5,0,1,1-3.28,1.32,2.5,2.5,0,0,1,3.28-1.32Z"/><path class="a" d="M68.65,240.24a2.5,2.5,0,1,1,.54,3.5A2.5,2.5,0,0,1,68.65,240.24Z"/><rect class="a" width="4.15" height="12.14" transform="translate(51.39 259.59)"/><rect class="a" width="4.15" height="22.04" transform="translate(58.42 249.69)"/><rect class="a" width="4.15" height="18.21" transform="translate(65.45 253.52)"/><rect class="a" width="4.15" height="7.67" transform="translate(72.48 264.06)"/><path class="a" d="M185.07,46.17h-2.81a.7.7,0,1,1-.167-1.39.667.667,0,0,1,.167,0h2.81a.7.7,0,1,1,.167,1.39A.667.667,0,0,1,185.07,46.17Zm.7,2.53a.7.7,0,0,0-.7-.7h-2.81a.7.7,0,1,0-.167,1.39.667.667,0,0,0,.167,0h2.81a.69.69,0,0,0,.7-.68Zm0,3.22a.7.7,0,0,0-.7-.7h-2.81a.7.7,0,1,0-.167,1.39.667.667,0,0,0,.167,0h2.81a.69.69,0,0,0,.7-.68Zm0,3.22a.7.7,0,0,0-.7-.7h-2.81a.7.7,0,1,0-.167,1.39.667.667,0,0,0,.167,0h2.81a.69.69,0,0,0,.7-.68Zm0,3.22a.7.7,0,0,0-.7-.7h-2.81a.7.7,0,1,0-.167,1.39.667.667,0,0,0,.167,0h2.81a.69.69,0,0,0,.7-.68Zm0,3.22a.69.69,0,0,0-.69-.69h-2.82a.69.69,0,0,0-.7.68v.01a.7.7,0,0,0,.7.7h2.81A.7.7,0,0,0,185.77,61.58Zm0,3.22a.69.69,0,0,0-.69-.69h-2.82a.7.7,0,1,0-.167,1.39.666.666,0,0,0,.167,0h2.81A.7.7,0,0,0,185.77,64.8Zm0,3.22a.69.69,0,0,0-.69-.69h-2.82a.7.7,0,1,0-.167,1.39.667.667,0,0,0,.167,0h2.81a.7.7,0,0,0,.7-.7v0Zm10.54-22.54a.69.69,0,0,0-.68-.7h-7.41a.7.7,0,1,0-.167,1.39.667.667,0,0,0,.167,0h7.4a.69.69,0,0,0,.69-.69Zm0,3.22a.69.69,0,0,0-.68-.7h-7.41a.7.7,0,1,0-.167,1.39.667.667,0,0,0,.167,0h7.4a.69.69,0,0,0,.69-.69Zm0,3.22a.69.69,0,0,0-.68-.7h-7.41a.7.7,0,1,0-.167,1.39.667.667,0,0,0,.167,0h7.4a.69.69,0,0,0,.69-.69Zm0,3.22a.69.69,0,0,0-.68-.7h-7.41a.7.7,0,1,0-.167,1.39.667.667,0,0,0,.167,0h7.4a.69.69,0,0,0,.69-.69Zm0,3.22a.69.69,0,0,0-.68-.7h-7.41a.7.7,0,1,0-.167,1.39.667.667,0,0,0,.167,0h7.4a.69.69,0,0,0,.69-.69Zm8.86,3.22a.69.69,0,0,0-.69-.69h-7.4a.69.69,0,0,0-.7.68v.01a.7.7,0,0,0,.7.7h7.39a.7.7,0,0,0,.7-.7Zm0,3.22a.69.69,0,0,0-.69-.69h-7.4a.7.7,0,1,0-.167,1.39.666.666,0,0,0,.167,0h7.39a.7.7,0,0,0,.7-.7Zm0,3.22a.69.69,0,0,0-.69-.69h-7.4a.7.7,0,1,0-.167,1.39.667.667,0,0,0,.167,0h7.39a.7.7,0,0,0,.7-.7v0Zm-5.6-22.54a.81.81,0,1,0-.82.8h.01a.81.81,0,0,0,.81-.8Zm2.41,0a.81.81,0,1,0-.82.8h.02a.8.8,0,0,0,.82-.78v-.02Zm2.42,0a.81.81,0,1,0-.82.8h.01a.81.81,0,0,0,.81-.8Zm2.41,0a.81.81,0,1,0-.82.8h.02a.8.8,0,0,0,.8-.8Zm2.42,0a.81.81,0,1,0-.82.8h.02a.8.8,0,0,0,.8-.8Zm2.42,0a.81.81,0,1,0-.82.8h.01a.81.81,0,0,0,.81-.8Zm-12.08,6.44a.81.81,0,1,0-.82.8h.01a.81.81,0,0,0,.81-.8Zm2.41,0a.81.81,0,1,0-.82.8h.02a.8.8,0,0,0,.82-.78v-.02Zm2.42,0a.81.81,0,1,0-.82.8h.01a.81.81,0,0,0,.81-.8Zm2.41,0a.81.81,0,1,0-.82.8h.02a.8.8,0,0,0,.8-.8Zm2.42,0a.81.81,0,1,0-.82.8h.02a.8.8,0,0,0,.8-.8Zm2.42,0a.81.81,0,1,0-.82.8h.01a.81.81,0,0,0,.81-.8Zm-3.83,9.26a.81.81,0,1,0-.82.8h.02a.8.8,0,0,0,.8-.8Zm2.42,0a.81.81,0,1,0-.82.8h.01a.81.81,0,0,0,.81-.8Zm2.41,0a.81.81,0,1,0-.82.8h.02a.8.8,0,0,0,.8-.8Zm2.42,0a.81.81,0,1,0-.82.8h.01a.81.81,0,0,0,.81-.8Zm2.41,0a.81.81,0,1,0-.82.8h.02a.8.8,0,0,0,.8-.8Zm2.42,0a.81.81,0,1,0-.82.8h.01A.81.81,0,0,0,219.9,61.18Zm-12.08,6.64a.81.81,0,1,0-.81.81h.01a.8.8,0,0,0,.8-.8v-.01Zm2.42,0a.81.81,0,1,0-.81.81h0a.8.8,0,0,0,.81-.79v-.02Zm2.41,0a.81.81,0,1,0-.81.81h.01a.8.8,0,0,0,.8-.8Zm2.42,0a.81.81,0,1,0-.81.81h0a.8.8,0,0,0,.81-.79v-.02Zm2.41,0a.81.81,0,1,0-.81.81h.01a.8.8,0,0,0,.8-.8Zm2.42,0a.81.81,0,1,0-.81.81h0a.8.8,0,0,0,.81-.79Z"/><path class="a" d="M185.07,71.94h-2.81a.69.69,0,0,1-.7-.68v-.01a.7.7,0,0,1,.7-.7h2.81a.7.7,0,0,1,.7.7.69.69,0,0,1-.69.69Zm.7,2.53a.7.7,0,0,0-.7-.7h-2.81a.7.7,0,0,0,0,1.4h2.81a.7.7,0,0,0,.7-.7Zm0,3.22a.69.69,0,0,0-.69-.69h-2.82a.69.69,0,0,0-.7.68v.01a.7.7,0,0,0,.7.7h2.81A.7.7,0,0,0,185.77,77.69Zm0,3.22a.69.69,0,0,0-.69-.69h-2.82a.7.7,0,1,0-.167,1.39.667.667,0,0,0,.167,0h2.81A.7.7,0,0,0,185.77,80.91Zm0,3.22a.69.69,0,0,0-.69-.69h-2.82a.7.7,0,1,0-.167,1.39.667.667,0,0,0,.167,0h2.81a.7.7,0,0,0,.7-.7Zm0,3.22a.69.69,0,0,0-.69-.69h-2.82a.7.7,0,1,0-.167,1.39.667.667,0,0,0,.167,0h2.81a.7.7,0,0,0,.7-.7Zm0,3.22a.69.69,0,0,0-.69-.69h-2.82a.7.7,0,1,0-.167,1.39.666.666,0,0,0,.167,0h2.81a.7.7,0,0,0,.7-.7Zm0,3.23a.7.7,0,0,0-.7-.7h-2.81a.7.7,0,1,0-.167,1.39.666.666,0,0,0,.167,0h2.81a.69.69,0,0,0,.7-.68Zm10.54-22.55a.7.7,0,0,0-.69-.7h-7.4a.71.71,0,0,0-.7.7.7.7,0,0,0,.7.69h7.4a.69.69,0,0,0,.69-.69Zm0,3.22a.7.7,0,0,0-.69-.7h-7.4a.7.7,0,0,0,0,1.4h7.4a.7.7,0,0,0,.69-.7Zm0,3.22a.69.69,0,0,0-.69-.69h-7.4a.7.7,0,0,0-.7.69.71.71,0,0,0,.7.7h7.4a.7.7,0,0,0,.69-.7Zm0,3.22a.69.69,0,0,0-.69-.69h-7.4a.7.7,0,1,0-.167,1.39.667.667,0,0,0,.167,0h7.4a.69.69,0,0,0,.69-.69v-.01Zm0,3.22a.69.69,0,0,0-.69-.69h-7.4a.7.7,0,1,0-.167,1.39.667.667,0,0,0,.167,0h7.4a.69.69,0,0,0,.69-.69v-.01Zm8.86,3.22a.69.69,0,0,0-.69-.69h-7.4a.7.7,0,1,0-.167,1.39.667.667,0,0,0,.167,0h7.39a.7.7,0,0,0,.7-.7Zm0,3.22a.69.69,0,0,0-.69-.69h-7.4a.7.7,0,1,0-.167,1.39.666.666,0,0,0,.167,0h7.39a.7.7,0,0,0,.7-.7Zm0,3.23a.7.7,0,0,0-.7-.7h-7.39a.7.7,0,1,0-.167,1.39.666.666,0,0,0,.167,0h7.39a.69.69,0,0,0,.7-.68V93.8Zm-5.6-22.55a.81.81,0,1,0-.82.8h.01a.81.81,0,0,0,.81-.8Zm2.41,0a.81.81,0,1,0-.82.8h.02a.8.8,0,0,0,.82-.78v-.02Zm2.42,0a.81.81,0,1,0-.82.8h.01a.81.81,0,0,0,.81-.8Zm2.41,0a.81.81,0,1,0-.82.8h.02a.8.8,0,0,0,.8-.8Zm2.42,0a.81.81,0,1,0-.82.8h.02a.8.8,0,0,0,.8-.8Zm2.42,0a.81.81,0,1,0-.82.8h.01a.81.81,0,0,0,.81-.8Zm-12.08,6.44a.81.81,0,1,0-.81.81h0a.8.8,0,0,0,.81-.79v-.02Zm2.41,0a.81.81,0,1,0-.81.81h.01a.8.8,0,0,0,.82-.78v-.03Zm2.42,0a.81.81,0,1,0-.81.81h0a.8.8,0,0,0,.81-.79v-.02Zm2.41,0a.81.81,0,1,0-.81.81h.01a.8.8,0,0,0,.8-.8v-.01Zm2.42,0a.81.81,0,1,0-.81.81h.01a.8.8,0,0,0,.8-.8v-.01Zm2.42,0a.81.81,0,1,0-.81.81h0a.8.8,0,0,0,.81-.79v-.02ZM207.82,87a.81.81,0,1,0-.81.81h.01a.8.8,0,0,0,.8-.8Zm2.42,0a.81.81,0,1,0-.81.81h0a.8.8,0,0,0,.81-.79Zm2.41,0a.81.81,0,1,0-.81.81h.01a.8.8,0,0,0,.8-.8V87Zm2.42,0a.81.81,0,1,0-.81.81h0a.8.8,0,0,0,.81-.79Zm2.41,0a.81.81,0,1,0-.81.81h.01a.8.8,0,0,0,.8-.8V87Zm2.42,0a.81.81,0,1,0-.81.81h0a.8.8,0,0,0,.81-.79V87Zm-12.08,6.64a.81.81,0,1,0-.81.81h.01a.8.8,0,0,0,.8-.8c0-.021,0-.041,0-.062Zm2.42,0a.81.81,0,1,0-.81.81h0a.8.8,0,0,0,.812-.788.579.579,0,0,0,0-.072Zm2.41,0a.81.81,0,1,0-.81.81h.01a.8.8,0,0,0,.8-.8c0-.021,0-.041,0-.062Zm2.42,0a.81.81,0,1,0-.81.81h0a.8.8,0,0,0,.812-.788.579.579,0,0,0,0-.072Zm2.41,0a.81.81,0,1,0-.81.81h.01a.8.8,0,0,0,.8-.8c0-.021,0-.041,0-.062Zm2.42,0a.81.81,0,1,0-.81.81h0a.8.8,0,0,0,.812-.788.576.576,0,0,0,0-.072Z"/><path class="a" d="M185.07,98.34h-2.81a.7.7,0,1,1-.167-1.39.667.667,0,0,1,.167,0h2.81a.7.7,0,1,1,.167,1.39A.666.666,0,0,1,185.07,98.34Zm.7,2.53a.7.7,0,0,0-.7-.7h-2.81a.7.7,0,1,0-.167,1.39.666.666,0,0,0,.167,0h2.81a.69.69,0,0,0,.7-.68Zm0,3.22a.7.7,0,0,0-.7-.7h-2.81a.7.7,0,1,0-.167,1.39.666.666,0,0,0,.167,0h2.81a.69.69,0,0,0,.7-.68Zm0,3.22a.7.7,0,0,0-.7-.7h-2.81a.7.7,0,1,0-.167,1.39.666.666,0,0,0,.167,0h2.81a.69.69,0,0,0,.7-.68Zm0,3.22a.7.7,0,0,0-.7-.7h-2.81a.7.7,0,1,0-.167,1.39.667.667,0,0,0,.167,0h2.81a.69.69,0,0,0,.7-.68Zm0,3.22a.7.7,0,0,0-.7-.7h-2.81a.7.7,0,0,0-.7.7.69.69,0,0,0,.69.69h2.82a.69.69,0,0,0,.7-.68Zm0,3.22a.69.69,0,0,0-.69-.69h-2.82a.69.69,0,0,0-.7.68v.01a.7.7,0,0,0,.7.7h2.81a.7.7,0,0,0,.7-.67Zm0,3.22a.69.69,0,0,0-.69-.69h-2.82a.7.7,0,1,0-.167,1.39.666.666,0,0,0,.167,0h2.81A.7.7,0,0,0,185.77,120.19Zm10.54-22.54a.69.69,0,0,0-.68-.7h-7.41a.7.7,0,1,0-.167,1.39.666.666,0,0,0,.167,0h7.4a.69.69,0,0,0,.69-.69Zm0,3.22a.69.69,0,0,0-.68-.7h-7.41a.7.7,0,1,0-.167,1.39.666.666,0,0,0,.167,0h7.4a.69.69,0,0,0,.69-.69Zm0,3.22a.69.69,0,0,0-.68-.7h-7.41a.7.7,0,1,0-.167,1.39.666.666,0,0,0,.167,0h7.4a.69.69,0,0,0,.69-.69Zm0,3.22a.69.69,0,0,0-.68-.7h-7.41a.7.7,0,1,0-.167,1.39.666.666,0,0,0,.167,0h7.4a.69.69,0,0,0,.69-.69Zm0,3.22a.69.69,0,0,0-.68-.7h-7.41a.7.7,0,1,0-.167,1.39.667.667,0,0,0,.167,0h7.4a.69.69,0,0,0,.69-.69Zm8.86,3.22a.7.7,0,0,0-.7-.7h-7.39a.7.7,0,0,0-.7.7.69.69,0,0,0,.69.69h7.4a.69.69,0,0,0,.7-.68Zm0,3.22a.69.69,0,0,0-.69-.69h-7.4a.69.69,0,0,0-.7.68v.01a.7.7,0,0,0,.7.7h7.39a.7.7,0,0,0,.7-.67Zm0,3.22a.69.69,0,0,0-.69-.69h-7.4a.7.7,0,1,0-.167,1.39.666.666,0,0,0,.167,0h7.39a.7.7,0,0,0,.7-.7Zm-5.6-22.54a.81.81,0,1,0-.82.8h.01a.81.81,0,0,0,.81-.8Zm2.41,0a.81.81,0,1,0-.82.8h.02a.8.8,0,0,0,.82-.78v-.02Zm2.42,0a.81.81,0,1,0-.82.8h.01A.81.81,0,0,0,204.4,97.65Zm2.41,0a.81.81,0,1,0-.82.8h.02a.8.8,0,0,0,.8-.8Zm2.42,0a.81.81,0,1,0-.82.8h.02a.8.8,0,0,0,.8-.8Zm2.42,0a.81.81,0,1,0-.82.8h.01A.81.81,0,0,0,211.65,97.65Zm-12.08,6.44a.81.81,0,1,0-.82.8h.01a.81.81,0,0,0,.81-.8Zm2.41,0a.81.81,0,1,0-.82.8h.02a.8.8,0,0,0,.82-.78v-.02Zm2.42,0a.81.81,0,1,0-.82.8h.01a.81.81,0,0,0,.81-.8Zm2.41,0a.81.81,0,1,0-.82.8h.02a.8.8,0,0,0,.8-.8Zm2.42,0a.81.81,0,1,0-.82.8h.02a.8.8,0,0,0,.8-.8Zm2.42,0a.81.81,0,1,0-.82.8h.01a.81.81,0,0,0,.81-.8Zm-3.83,9.26a.81.81,0,1,0-.82.8h.02a.8.8,0,0,0,.8-.8Zm2.42,0a.81.81,0,1,0-.82.8h.01a.81.81,0,0,0,.81-.8Zm2.41,0a.81.81,0,1,0-.82.8h.02a.8.8,0,0,0,.8-.8Zm2.42,0a.81.81,0,1,0-.82.8h.01a.81.81,0,0,0,.81-.8Zm2.41,0a.81.81,0,1,0-.82.8h.02a.8.8,0,0,0,.8-.8Zm2.42,0a.81.81,0,1,0-.82.8h.01a.81.81,0,0,0,.81-.8ZM207.82,120a.81.81,0,1,0-.81.81h.01A.81.81,0,0,0,207.82,120Zm2.42,0a.81.81,0,1,0-.81.81h0A.81.81,0,0,0,210.24,120Zm2.41,0a.81.81,0,1,0-.81.81h.01a.81.81,0,0,0,.8-.81Zm2.42,0a.81.81,0,1,0-.81.81h0A.81.81,0,0,0,215.07,120Zm2.41,0a.81.81,0,1,0-.81.81h.01a.81.81,0,0,0,.8-.81Zm2.42,0a.81.81,0,1,0-.81.81h0a.81.81,0,0,0,.81-.81Z"/><path class="a" d="M228.34,46.17h-2.82a.7.7,0,0,1,0-1.39h2.82a.7.7,0,1,1,.167,1.39A.667.667,0,0,1,228.34,46.17Zm.7,2.53a.7.7,0,0,0-.7-.7h-2.82a.7.7,0,0,0,0,1.39h2.82a.69.69,0,0,0,.66-.69Zm0,3.22a.7.7,0,0,0-.7-.7h-2.82a.7.7,0,0,0,0,1.39h2.82a.69.69,0,0,0,.66-.69Zm0,3.22a.7.7,0,0,0-.7-.7h-2.82a.7.7,0,0,0,0,1.39h2.82a.69.69,0,0,0,.66-.69Zm0,3.22a.7.7,0,0,0-.7-.7h-2.82a.7.7,0,0,0,0,1.39h2.82a.69.69,0,0,0,.66-.69Zm0,3.22a.69.69,0,0,0-.69-.69h-2.83a.69.69,0,0,0-.69.69h0a.7.7,0,0,0,.69.7h2.82a.7.7,0,0,0,.66-.7Zm0,3.22a.69.69,0,0,0-.69-.69h-2.83a.7.7,0,0,0,0,1.39h2.82a.7.7,0,0,0,.66-.7ZM229,68a.69.69,0,0,0-.69-.69h-2.83a.7.7,0,0,0,0,1.39h2.82A.7.7,0,0,0,229,68Zm10.54-22.54a.69.69,0,0,0-.68-.7h-7.41a.7.7,0,1,0-.167,1.39.667.667,0,0,0,.167,0h7.4a.69.69,0,0,0,.729-.649V45.48Zm0,3.22a.69.69,0,0,0-.68-.7h-7.41a.7.7,0,1,0-.167,1.39.667.667,0,0,0,.167,0h7.4a.69.69,0,0,0,.729-.649V48.7Zm0,3.22a.69.69,0,0,0-.68-.7h-7.41a.7.7,0,1,0-.167,1.39.667.667,0,0,0,.167,0h7.4a.69.69,0,0,0,.729-.649V51.92Zm0,3.22a.69.69,0,0,0-.68-.7h-7.41a.7.7,0,1,0-.167,1.39.667.667,0,0,0,.167,0h7.4a.69.69,0,0,0,.729-.649V55.14Zm0,3.22a.69.69,0,0,0-.68-.7h-7.41a.7.7,0,1,0-.167,1.39.667.667,0,0,0,.167,0h7.4a.69.69,0,0,0,.729-.649V58.36Zm8.86,3.22a.69.69,0,0,0-.69-.69h-7.4a.69.69,0,0,0-.7.68v.01a.7.7,0,0,0,.7.7h7.39a.7.7,0,0,0,.739-.659V61.58Zm0,3.22a.69.69,0,0,0-.69-.69h-7.4a.7.7,0,1,0-.167,1.39.667.667,0,0,0,.167,0h7.39a.7.7,0,0,0,.739-.659V64.8Zm0,3.22a.69.69,0,0,0-.69-.69h-7.4a.7.7,0,1,0-.167,1.39.666.666,0,0,0,.167,0h7.39a.7.7,0,0,0,.739-.659c0-.014,0-.027,0-.041Zm-5.6-22.54a.81.81,0,1,0-.82.8h.01a.811.811,0,0,0,.85-.768V45.48Zm2.41,0a.81.81,0,1,0-.82.8h.02a.8.8,0,0,0,.839-.759V45.48Zm2.42,0a.81.81,0,1,0-.82.8h.01a.811.811,0,0,0,.85-.768V45.48Zm2.41,0a.81.81,0,1,0-.82.8h.02a.8.8,0,0,0,.839-.759V45.48Zm2.42,0a.81.81,0,1,0-.82.8h.01a.811.811,0,0,0,.85-.768V45.48Zm2.42,0a.81.81,0,1,0-.82.8h.01a.811.811,0,0,0,.85-.768V45.48ZM242.8,51.9a.81.81,0,1,0-.82.8h.01a.811.811,0,0,0,.85-.768V51.92Zm2.41,0a.81.81,0,1,0-.82.8h.02a.8.8,0,0,0,.839-.759V51.92Zm2.42,0a.81.81,0,1,0-.82.8h.01a.811.811,0,0,0,.85-.768V51.92Zm2.41,0a.81.81,0,1,0-.82.8h.02a.8.8,0,0,0,.839-.759V51.92Zm2.42,0a.81.81,0,1,0-.82.8h.01a.811.811,0,0,0,.85-.768V51.92Zm2.42,0a.81.81,0,1,0-.82.8h.01a.811.811,0,0,0,.85-.768V51.92Zm-3.83,9.26a.81.81,0,1,0-.82.8h.01a.811.811,0,0,0,.85-.768V61.18Zm2.42,0a.81.81,0,1,0-.82.8h.01a.811.811,0,0,0,.85-.768V61.18Zm2.41,0a.81.81,0,1,0-.82.8h.02a.8.8,0,0,0,.839-.759V61.18Zm2.42,0a.81.81,0,1,0-.82.8h.01a.811.811,0,0,0,.85-.768V61.18Zm2.41,0a.81.81,0,1,0-.82.8h.02a.8.8,0,0,0,.839-.759V61.18Zm2.42,0a.81.81,0,1,0-.82.8h.01a.811.811,0,0,0,.85-.768V61.18ZM251.05,67.8a.81.81,0,1,0-.81.81h0a.8.8,0,0,0,.848-.748l0-.042Zm2.42,0a.81.81,0,1,0-.81.81h0a.8.8,0,0,0,.848-.748l0-.042Zm2.41,0a.81.81,0,1,0-.81.81h.01a.8.8,0,0,0,.839-.759V67.82Zm2.42,0a.81.81,0,1,0-.81.81h0a.8.8,0,0,0,.848-.748l0-.042Zm2.41,0a.81.81,0,1,0-.81.81h.01a.8.8,0,0,0,.839-.759V67.82Zm2.42,0a.81.81,0,1,0-.81.81h0a.8.8,0,0,0,.848-.748l0-.042Z"/><path class="a" d="M228.34,72.57h-2.82a.7.7,0,0,1,0-1.39h2.82a.7.7,0,1,1,.167,1.39A.666.666,0,0,1,228.34,72.57Zm.7,2.52a.69.69,0,0,0-.69-.69h-2.83a.7.7,0,0,0,0,1.39h2.82a.7.7,0,0,0,.66-.7Zm0,3.22a.69.69,0,0,0-.69-.69h-2.83a.7.7,0,0,0,0,1.39h2.82a.7.7,0,0,0,.66-.7Zm0,3.22a.69.69,0,0,0-.69-.69h-2.83a.7.7,0,0,0,0,1.39h2.82a.7.7,0,0,0,.66-.7Zm0,3.22a.69.69,0,0,0-.69-.69h-2.83a.7.7,0,0,0,0,1.39h2.82a.7.7,0,0,0,.66-.7ZM229,88a.7.7,0,0,0-.7-.7h-2.82a.7.7,0,0,0,0,1.39h2.82a.69.69,0,0,0,.7-.68Zm0,3.22a.7.7,0,0,0-.7-.7h-2.82a.7.7,0,0,0,0,1.39h2.82a.69.69,0,0,0,.7-.68v-.01Zm0,3.22a.7.7,0,0,0-.7-.7h-2.82a.7.7,0,0,0,0,1.39h2.82a.69.69,0,0,0,.7-.68v-.01Zm10.54-22.55a.69.69,0,0,0-.69-.69h-7.4a.7.7,0,1,0-.167,1.39.666.666,0,0,0,.167,0h7.4a.69.69,0,0,0,.729-.648.579.579,0,0,0,0-.072Zm0,3.22a.69.69,0,0,0-.69-.69h-7.4a.7.7,0,1,0-.167,1.39.666.666,0,0,0,.167,0h7.4a.69.69,0,0,0,.729-.648.579.579,0,0,0,0-.072Zm0,3.22a.69.69,0,0,0-.69-.69h-7.4a.7.7,0,1,0-.167,1.39.666.666,0,0,0,.167,0h7.4a.69.69,0,0,0,.729-.648.579.579,0,0,0,0-.072Zm0,3.22a.69.69,0,0,0-.69-.69h-7.4a.7.7,0,1,0-.167,1.39.666.666,0,0,0,.167,0h7.4a.69.69,0,0,0,.729-.648.578.578,0,0,0,0-.072Zm0,3.22a.69.69,0,0,0-.69-.69h-7.4a.7.7,0,1,0-.167,1.39.667.667,0,0,0,.167,0h7.4a.69.69,0,0,0,.729-.648.578.578,0,0,0,0-.072Zm8.9,3.23a.7.7,0,0,0-.7-.7h-7.39a.7.7,0,1,0-.167,1.39.667.667,0,0,0,.167,0h7.39a.69.69,0,0,0,.7-.68Zm0,3.22a.7.7,0,0,0-.7-.7h-7.39a.7.7,0,1,0-.167,1.39.667.667,0,0,0,.167,0h7.39a.69.69,0,0,0,.7-.68v-.01Zm0,3.22a.7.7,0,0,0-.7-.7h-7.39a.7.7,0,1,0-.167,1.39.666.666,0,0,0,.167,0h7.39a.69.69,0,0,0,.7-.68v-.01Zm-5.6-22.55a.81.81,0,1,0-.81.81h0a.8.8,0,0,0,.81-.789c0-.014,0-.027,0-.041Zm2.41,0a.81.81,0,1,0-.81.81h.01a.8.8,0,0,0,.8-.8V71.89Zm2.42,0a.81.81,0,1,0-.81.81h0a.8.8,0,0,0,.81-.789.279.279,0,0,0,0-.041Zm2.41,0a.81.81,0,1,0-.81.81h.01a.8.8,0,0,0,.8-.8V71.89Zm2.42,0a.81.81,0,1,0-.81.81h0a.8.8,0,0,0,.81-.789.279.279,0,0,0,0-.041Zm2.42,0a.81.81,0,1,0-.81.81h0a.81.81,0,0,0,.81-.81v0Zm-12.08,6.44a.81.81,0,1,0-.81.81h0a.8.8,0,0,0,.81-.789c0-.014,0-.027,0-.041Zm2.41,0a.81.81,0,1,0-.81.81h.01a.8.8,0,0,0,.8-.8V78.33Zm2.42,0a.81.81,0,1,0-.81.81h0a.8.8,0,0,0,.81-.789.279.279,0,0,0,0-.041Zm2.41,0a.81.81,0,1,0-.81.81h.01a.8.8,0,0,0,.8-.8V78.33Zm2.42,0a.81.81,0,1,0-.81.81h0a.8.8,0,0,0,.81-.789.279.279,0,0,0,0-.041Zm2.42,0a.81.81,0,1,0-.81.81h0a.81.81,0,0,0,.81-.81v0Zm-3.83,9.26a.81.81,0,1,0-.81.81h0a.8.8,0,0,0,.81-.789c0-.014,0-.027,0-.041Zm2.42,0a.81.81,0,1,0-.81.81h0a.8.8,0,0,0,.81-.789c0-.014,0-.027,0-.041Zm2.41,0a.81.81,0,1,0-.81.81h.01a.8.8,0,0,0,.8-.8V87.59Zm2.42,0a.81.81,0,1,0-.81.81h0a.8.8,0,0,0,.81-.789.279.279,0,0,0,0-.041Zm2.41,0a.81.81,0,1,0-.81.81h.01a.8.8,0,0,0,.8-.8c0-.011,0-.021,0-.031Zm2.42,0a.81.81,0,1,0-.81.81h0a.8.8,0,0,0,.811-.789c0-.014,0-.027,0-.041Zm-12.08,6.65a.81.81,0,1,0-.82.8h.01a.81.81,0,0,0,.81-.81v.01Zm2.42,0a.81.81,0,1,0-.82.8h.01a.81.81,0,0,0,.81-.81v.01Zm2.41,0a.81.81,0,1,0-.82.8h.02a.8.8,0,0,0,.8-.8v0Zm2.42,0a.81.81,0,1,0-.82.8h.01a.81.81,0,0,0,.81-.81v.01Zm2.41,0a.81.81,0,1,0-.82.8h.02a.8.8,0,0,0,.8-.8v0Zm2.42,0a.81.81,0,1,0-.82.8h.01a.81.81,0,0,0,.81-.81v.01Z"/><path class="a" d="M384.4,127.68h-2.82a.7.7,0,0,1,0-1.39h2.82a.7.7,0,0,1,.167,1.39A.667.667,0,0,1,384.4,127.68Zm.7,2.52a.69.69,0,0,0-.69-.69h-2.83a.7.7,0,0,0,0,1.39h2.82a.7.7,0,0,0,.7-.7Zm0,3.23a.7.7,0,0,0-.7-.7h-2.82a.7.7,0,0,0,0,1.39h2.82a.69.69,0,0,0,.7-.68Zm0,3.22a.7.7,0,0,0-.7-.7h-2.82a.7.7,0,0,0,0,1.39h2.82a.69.69,0,0,0,.7-.68Zm0,3.22a.7.7,0,0,0-.7-.7h-2.82a.7.7,0,0,0,0,1.39h2.82a.69.69,0,0,0,.7-.68Zm0,3.22a.7.7,0,0,0-.7-.7h-2.82a.7.7,0,0,0,0,1.39h2.82a.69.69,0,0,0,.7-.68Zm0,3.22a.7.7,0,0,0-.7-.7h-2.82a.7.7,0,0,0,0,1.39h2.82a.69.69,0,0,0,.7-.68Zm0,3.22a.7.7,0,0,0-.7-.7h-2.82a.7.7,0,0,0-.69.7.69.69,0,0,0,.69.69h2.82a.69.69,0,0,0,.7-.68ZM395.64,127a.69.69,0,0,0-.69-.69h-7.4a.7.7,0,0,0-.167,1.39.666.666,0,0,0,.167,0H395A.69.69,0,0,0,395.64,127Zm0,3.22a.69.69,0,0,0-.69-.69h-7.4a.7.7,0,0,0-.167,1.39.666.666,0,0,0,.167,0H395a.69.69,0,0,0,.64-.72Zm0,3.23a.69.69,0,0,0-.68-.7h-7.41a.7.7,0,0,0-.167,1.39.666.666,0,0,0,.167,0H395a.69.69,0,0,0,.64-.71Zm0,3.22a.69.69,0,0,0-.68-.7h-7.41a.7.7,0,0,0-.167,1.39.666.666,0,0,0,.167,0H395a.69.69,0,0,0,.64-.71Zm0,3.22a.69.69,0,0,0-.68-.7h-7.41a.7.7,0,0,0-.167,1.39.666.666,0,0,0,.167,0H395a.69.69,0,0,0,.64-.71Zm8.86,3.22a.7.7,0,0,0-.7-.7h-7.39a.7.7,0,1,0-.167,1.39.666.666,0,0,0,.167,0h7.39a.69.69,0,0,0,.7-.68v-.01Zm0,3.22a.7.7,0,0,0-.7-.7h-7.39a.7.7,0,1,0-.167,1.39.668.668,0,0,0,.167,0h7.39a.69.69,0,0,0,.7-.68v-.01Zm0,3.22a.7.7,0,0,0-.7-.7h-7.39a.7.7,0,0,0-.7.7h0a.69.69,0,0,0,.69.69h7.4a.69.69,0,0,0,.7-.68v-.01ZM398.9,127a.81.81,0,1,0-.81.81h0a.8.8,0,0,0,.81-.79Zm2.41,0a.81.81,0,1,0-.81.81h.01a.8.8,0,0,0,.8-.8Zm2.42,0a.81.81,0,1,0-.81.81h0a.8.8,0,0,0,.81-.79Zm2.41,0a.81.81,0,1,0-.81.81h.01a.8.8,0,0,0,.8-.8Zm2.42,0a.81.81,0,1,0-.81.81h0a.8.8,0,0,0,.81-.79V127Zm2.42,0a.81.81,0,1,0-.81.81h0a.811.811,0,0,0,.83-.79V127Zm-12.08,6.45a.81.81,0,1,0-.82.8h.01a.81.81,0,0,0,.81-.81v.01Zm2.41,0a.81.81,0,1,0-.82.8h.02a.8.8,0,0,0,.8-.8v0Zm2.42,0a.81.81,0,1,0-.82.8h.01a.81.81,0,0,0,.81-.81v.01Zm2.41,0a.81.81,0,1,0-.82.8h.02a.8.8,0,0,0,.8-.8v0Zm2.42,0a.81.81,0,1,0-.82.8h.01a.81.81,0,0,0,.81-.81v.01Zm2.42,0a.81.81,0,1,0-.82.8h.01a.811.811,0,0,0,.83-.79v-.03Zm-3.83,9.26a.81.81,0,1,0-.82.8h.01a.81.81,0,0,0,.81-.81v.01Zm2.42,0a.81.81,0,1,0-.82.8h.01a.81.81,0,0,0,.81-.81v.01Zm2.41,0a.81.81,0,1,0-.82.8h.02a.8.8,0,0,0,.82-.78v-.04Zm2.42,0a.81.81,0,1,0-.82.8h.01a.81.81,0,0,0,.81-.81v.01Zm2.41,0a.81.81,0,1,0-.82.8h.02a.8.8,0,0,0,.8-.8v0Zm2.42,0a.81.81,0,1,0-.82.8h.01a.81.81,0,0,0,.81-.81v.01Zm-12.08,6.64a.81.81,0,1,0-.82.8h.01a.81.81,0,0,0,.81-.81v.01Zm2.42,0a.81.81,0,1,0-.82.8h.01a.81.81,0,0,0,.81-.81v.01Zm2.41,0a.81.81,0,1,0-.82.8h.02a.8.8,0,0,0,.82-.78v-.04Zm2.42,0a.81.81,0,1,0-.82.8h.01a.81.81,0,0,0,.81-.81v.01Zm2.41,0a.81.81,0,1,0-.82.8h.02a.8.8,0,0,0,.8-.8v0Zm2.42,0a.81.81,0,1,0-.82.8h.01a.81.81,0,0,0,.81-.81v.01Z"/><path class="a" d="M384.4,153.45h-2.82a.7.7,0,0,1,0-1.39h2.82a.7.7,0,0,1,.167,1.39A.666.666,0,0,1,384.4,153.45Zm.7,2.53a.7.7,0,0,0-.7-.7h-2.82a.7.7,0,0,0,0,1.39h2.82a.69.69,0,0,0,.7-.67Zm0,3.22a.7.7,0,0,0-.7-.7h-2.82a.7.7,0,0,0,0,1.39h2.82a.69.69,0,0,0,.7-.68Zm0,3.22a.7.7,0,0,0-.7-.7h-2.82a.7.7,0,0,0-.69.7.69.69,0,0,0,.69.69h2.82a.69.69,0,0,0,.7-.68Zm0,3.22a.69.69,0,0,0-.69-.69h-2.83a.69.69,0,0,0-.69.69h0a.7.7,0,0,0,.69.7h2.82a.7.7,0,0,0,.7-.7Zm0,3.22a.69.69,0,0,0-.69-.69h-2.83a.7.7,0,0,0,0,1.39h2.82a.7.7,0,0,0,.7-.7Zm0,3.22a.69.69,0,0,0-.69-.69h-2.83a.7.7,0,0,0,0,1.39h2.82a.7.7,0,0,0,.7-.7Zm0,3.22a.69.69,0,0,0-.69-.69h-2.83a.7.7,0,0,0,0,1.39h2.82a.7.7,0,0,0,.7-.7Zm10.54-22.54a.69.69,0,0,0-.68-.7h-7.41a.7.7,0,0,0-.167,1.39.666.666,0,0,0,.167,0H395a.69.69,0,0,0,.64-.69Zm0,3.22a.69.69,0,0,0-.68-.7h-7.41a.7.7,0,0,0-.167,1.39.666.666,0,0,0,.167,0H395a.69.69,0,0,0,.64-.67Zm0,3.22a.69.69,0,0,0-.68-.7h-7.41a.7.7,0,0,0-.167,1.39.666.666,0,0,0,.167,0H395a.69.69,0,0,0,.64-.69Zm0,3.22a.7.7,0,0,0-.69-.7h-7.4a.7.7,0,0,0-.7.7h0a.69.69,0,0,0,.69.69H395a.69.69,0,0,0,.64-.69Zm0,3.22A.69.69,0,0,0,395,165h-7.4a.69.69,0,0,0-.7.68v.01a.7.7,0,0,0,.7.7H395a.7.7,0,0,0,.64-.75Zm8.86,3.22a.69.69,0,0,0-.69-.69h-7.4a.7.7,0,1,0-.167,1.39.666.666,0,0,0,.167,0h7.39a.7.7,0,0,0,.7-.7Zm0,3.22a.69.69,0,0,0-.69-.69h-7.4a.7.7,0,1,0-.167,1.39.666.666,0,0,0,.167,0h7.39a.7.7,0,0,0,.7-.7Zm0,3.22a.69.69,0,0,0-.69-.69h-7.4a.7.7,0,1,0-.167,1.39.666.666,0,0,0,.167,0h7.39a.7.7,0,0,0,.7-.7Zm-5.6-22.54a.81.81,0,1,0-.82.8h.01a.81.81,0,0,0,.81-.8Zm2.41,0a.81.81,0,1,0-.82.8h.02a.8.8,0,0,0,.8-.8Zm2.42,0a.81.81,0,1,0-.82.8h.01a.81.81,0,0,0,.81-.8Zm2.41,0a.81.81,0,1,0-.82.8h.02a.8.8,0,0,0,.8-.8Zm2.42,0a.81.81,0,1,0-.82.8h.01a.81.81,0,0,0,.81-.8Zm2.42,0a.81.81,0,1,0-.82.8h.01a.811.811,0,0,0,.83-.79v-.01ZM398.9,159.2a.81.81,0,1,0-.82.8h.01A.81.81,0,0,0,398.9,159.2Zm2.41,0a.81.81,0,1,0-.82.8h.02A.8.8,0,0,0,401.31,159.2Zm2.42,0a.81.81,0,1,0-.82.8h.01A.81.81,0,0,0,403.73,159.2Zm2.41,0a.81.81,0,1,0-.82.8h.02A.8.8,0,0,0,406.14,159.2Zm2.42,0a.81.81,0,1,0-.82.8h.01a.81.81,0,0,0,.81-.8Zm2.42,0a.81.81,0,1,0-.82.8h.01a.811.811,0,0,0,.83-.79v-.01Zm-3.83,9.26a.81.81,0,1,0-.82.8h.01a.81.81,0,0,0,.81-.8Zm2.42,0a.81.81,0,1,0-.82.8h.01a.81.81,0,0,0,.81-.8Zm2.41,0a.81.81,0,1,0-.82.8h.02a.8.8,0,0,0,.82-.78v-.02Zm2.42,0a.81.81,0,1,0-.82.8h.01a.81.81,0,0,0,.81-.8Zm2.41,0a.81.81,0,1,0-.82.8h.02a.8.8,0,0,0,.8-.8Zm2.42,0a.81.81,0,1,0-.82.8h.01a.81.81,0,0,0,.81-.8Zm-12.08,6.64a.81.81,0,1,0-.81.81h0a.8.8,0,0,0,.81-.79v-.02Zm2.42,0a.81.81,0,1,0-.81.81h0a.8.8,0,0,0,.81-.79v-.02Zm2.41,0a.81.81,0,1,0-.81.81h.01a.8.8,0,0,0,.82-.78v-.03Zm2.42,0a.81.81,0,1,0-.81.81h0a.8.8,0,0,0,.81-.79v-.02Zm2.41,0a.81.81,0,1,0-.81.81h.01a.8.8,0,0,0,.8-.8v-.01Zm2.42,0a.81.81,0,1,0-.81.81h0a.8.8,0,0,0,.81-.79v-.02Z"/><path class="a" d="M384.4,179.85h-2.82a.7.7,0,0,1,0-1.39h2.82a.7.7,0,0,1,.167,1.39A.668.668,0,0,1,384.4,179.85Zm.7,2.52a.69.69,0,0,0-.69-.69h-2.83a.7.7,0,0,0,0,1.39h2.82a.7.7,0,0,0,.7-.7Zm0,3.22a.69.69,0,0,0-.69-.69h-2.83a.7.7,0,0,0,0,1.39h2.82a.7.7,0,0,0,.7-.7Zm0,3.23a.7.7,0,0,0-.7-.7h-2.82a.7.7,0,0,0,0,1.39h2.82a.69.69,0,0,0,.7-.68Zm0,3.22a.7.7,0,0,0-.7-.7h-2.82a.7.7,0,0,0,0,1.39h2.82a.69.69,0,0,0,.7-.679c0-.017,0-.034,0-.051Zm0,3.22a.7.7,0,0,0-.7-.7h-2.82a.7.7,0,0,0,0,1.39h2.82a.69.69,0,0,0,.7-.68v-.01Zm0,3.22a.7.7,0,0,0-.7-.7h-2.82a.7.7,0,0,0,0,1.39h2.82a.69.69,0,0,0,.7-.68v-.01Zm0,3.22a.7.7,0,0,0-.7-.7h-2.82a.7.7,0,0,0,0,1.39h2.82a.69.69,0,0,0,.7-.68v-.01Zm10.54-22.55a.69.69,0,0,0-.69-.69h-7.4a.7.7,0,0,0-.167,1.39.668.668,0,0,0,.167,0H395a.69.69,0,0,0,.64-.7Zm0,3.22a.69.69,0,0,0-.69-.69h-7.4a.7.7,0,0,0-.167,1.39.668.668,0,0,0,.167,0H395a.69.69,0,0,0,.64-.7Zm0,3.22a.69.69,0,0,0-.69-.69h-7.4a.7.7,0,0,0-.167,1.39.666.666,0,0,0,.167,0H395a.69.69,0,0,0,.64-.7Zm0,3.23a.69.69,0,0,0-.68-.7h-7.41a.7.7,0,0,0-.167,1.39.666.666,0,0,0,.167,0H395A.69.69,0,0,0,395.64,188.82Zm0,3.22a.69.69,0,0,0-.68-.7h-7.41a.7.7,0,0,0-.167,1.39.666.666,0,0,0,.167,0H395a.69.69,0,0,0,.64-.73Zm8.86,3.22a.7.7,0,0,0-.7-.7h-7.39a.7.7,0,1,0-.167,1.39.666.666,0,0,0,.167,0h7.39a.69.69,0,0,0,.7-.68v-.01Zm0,3.22a.7.7,0,0,0-.7-.7h-7.39a.7.7,0,1,0-.167,1.39.666.666,0,0,0,.167,0h7.39a.69.69,0,0,0,.7-.68v-.01Zm0,3.22a.7.7,0,0,0-.7-.7h-7.39a.7.7,0,1,0-.167,1.39.666.666,0,0,0,.167,0h7.39a.69.69,0,0,0,.7-.68v-.01Zm-5.6-22.55a.81.81,0,1,0-.81.81h0a.8.8,0,0,0,.81-.79v-.02Zm2.41,0a.81.81,0,1,0-.81.81h.01a.8.8,0,0,0,.8-.8v-.01Zm2.42,0a.81.81,0,1,0-.81.81h0a.8.8,0,0,0,.81-.79v-.02Zm2.41,0a.81.81,0,1,0-.81.81h.01a.8.8,0,0,0,.8-.8v-.01Zm2.42,0a.81.81,0,1,0-.81.81h0a.8.8,0,0,0,.81-.79v-.02Zm2.42,0a.81.81,0,1,0-.81.81h0a.811.811,0,0,0,.83-.79v-.02Zm-12.08,6.44a.81.81,0,1,0-.81.81h0a.8.8,0,0,0,.81-.79v-.02Zm2.41,0a.81.81,0,1,0-.81.81h.01a.8.8,0,0,0,.8-.8v-.01Zm2.42,0a.81.81,0,1,0-.81.81h0a.8.8,0,0,0,.81-.79v-.02Zm2.41,0a.81.81,0,1,0-.81.81h.01a.8.8,0,0,0,.8-.8v-.01Zm2.42,0a.81.81,0,1,0-.81.81h0a.8.8,0,0,0,.81-.79v-.02Zm2.42,0a.81.81,0,1,0-.81.81h0a.811.811,0,0,0,.83-.79v-.02Zm-3.83,9.26a.81.81,0,1,0-.81.81h0a.8.8,0,0,0,.81-.79v-.02Zm2.42,0a.81.81,0,1,0-.81.81h0a.8.8,0,0,0,.81-.79v-.02Zm2.41,0a.81.81,0,1,0-.81.81h.01a.8.8,0,0,0,.82-.78v-.03Zm2.42,0a.81.81,0,1,0-.81.81h0a.8.8,0,0,0,.81-.79v-.02Zm2.41,0a.81.81,0,1,0-.81.81h.01a.8.8,0,0,0,.8-.8v-.01Zm2.42,0a.81.81,0,1,0-.81.81h0a.8.8,0,0,0,.81-.79v-.02Zm-12.08,6.65a.81.81,0,1,0-.82.8h.01a.81.81,0,0,0,.81-.8Zm2.42,0a.81.81,0,1,0-.82.8h.01a.81.81,0,0,0,.81-.8Zm2.41,0a.81.81,0,1,0-.82.8h.02a.8.8,0,0,0,.82-.78v-.02Zm2.42,0a.81.81,0,1,0-.82.8h.01a.81.81,0,0,0,.81-.8Zm2.41,0a.81.81,0,1,0-.82.8h.02a.8.8,0,0,0,.8-.8Zm2.42,0a.81.81,0,1,0-.82.8h.01a.81.81,0,0,0,.81-.8Z"/><path class="a" d="M427.67,127.68h-2.82a.7.7,0,0,1,0-1.39h2.82a.7.7,0,1,1,.167,1.39A.667.667,0,0,1,427.67,127.68Zm.7,2.52a.69.69,0,0,0-.69-.69h-2.83a.7.7,0,0,0,0,1.39h2.82a.7.7,0,0,0,.7-.7Zm0,3.23a.7.7,0,0,0-.7-.7h-2.82a.7.7,0,0,0,0,1.39h2.82a.69.69,0,0,0,.7-.68v-.01Zm0,3.22a.7.7,0,0,0-.7-.7h-2.82a.7.7,0,0,0,0,1.39h2.82a.69.69,0,0,0,.7-.68v-.01Zm0,3.22a.7.7,0,0,0-.7-.7h-2.82a.7.7,0,0,0,0,1.39h2.82a.69.69,0,0,0,.7-.68v-.01Zm0,3.22a.7.7,0,0,0-.7-.7h-2.82a.7.7,0,0,0,0,1.39h2.82a.69.69,0,0,0,.7-.68v-.01Zm0,3.22a.7.7,0,0,0-.7-.7h-2.82a.7.7,0,0,0,0,1.39h2.82a.69.69,0,0,0,.7-.68v-.01Zm0,3.22a.7.7,0,0,0-.7-.7h-2.82a.7.7,0,0,0-.69.7.69.69,0,0,0,.69.69h2.82a.69.69,0,0,0,.7-.68v-.01ZM438.91,127a.69.69,0,0,0-.69-.69h-7.4a.7.7,0,1,0-.167,1.39.666.666,0,0,0,.167,0h7.39a.7.7,0,0,0,.7-.7Zm0,3.22a.69.69,0,0,0-.69-.69h-7.4a.7.7,0,1,0-.167,1.39.666.666,0,0,0,.167,0h7.39a.7.7,0,0,0,.7-.7v0Zm0,3.23a.7.7,0,0,0-.7-.7h-7.39a.7.7,0,1,0-.167,1.39.666.666,0,0,0,.167,0h7.39a.69.69,0,0,0,.7-.68v-.01Zm0,3.22a.7.7,0,0,0-.7-.7h-7.39a.7.7,0,1,0-.167,1.39.666.666,0,0,0,.167,0h7.39a.69.69,0,0,0,.7-.68v-.01Zm0,3.22a.7.7,0,0,0-.7-.7h-7.39a.7.7,0,1,0-.167,1.39.666.666,0,0,0,.167,0h7.39a.69.69,0,0,0,.7-.68v-.01Zm8.86,3.22a.7.7,0,0,0-.7-.7h-7.4a.7.7,0,0,0,0,1.39h7.4a.69.69,0,0,0,.7-.68v-.01Zm0,3.22a.7.7,0,0,0-.7-.7h-7.4a.7.7,0,0,0,0,1.39h7.4a.69.69,0,0,0,.7-.68v-.01Zm0,3.22a.7.7,0,0,0-.7-.7h-7.4a.7.7,0,0,0-.69.7.69.69,0,0,0,.69.69h7.4a.69.69,0,0,0,.7-.68v-.01ZM442.17,127a.764.764,0,1,0-.81.81A.81.81,0,0,0,442.17,127Zm2.41,0a.81.81,0,1,0-.81.81h.01a.8.8,0,0,0,.8-.8V127Zm2.42,0a.81.81,0,1,0-.81.81h0a.8.8,0,0,0,.81-.79V127Zm2.41,0a.81.81,0,1,0-.81.81h.01a.8.8,0,0,0,.8-.8V127Zm2.42,0a.81.81,0,1,0-.81.81h0a.8.8,0,0,0,.81-.79V127Zm2.41,0a.81.81,0,1,0-.81.81h.01a.8.8,0,0,0,.8-.8V127Zm-12.07,6.45a.81.81,0,1,0-.81.81.81.81,0,0,0,.81-.81Zm2.41,0a.81.81,0,1,0-.82.8h.02a.8.8,0,0,0,.8-.8v0Zm2.42,0a.81.81,0,1,0-.82.8h.01a.81.81,0,0,0,.81-.81v.01Zm2.41,0a.81.81,0,1,0-.82.8h.02a.8.8,0,0,0,.8-.8v0Zm2.42,0a.81.81,0,1,0-.82.8h.01a.81.81,0,0,0,.81-.81v.01Zm2.41,0a.81.81,0,1,0-.82.8h.02a.8.8,0,0,0,.8-.8v0Zm-3.82,9.26a.81.81,0,1,0-.82.8h.01a.81.81,0,0,0,.81-.81v.01Zm2.41,0a.81.81,0,1,0-.82.8h.02a.8.8,0,0,0,.8-.8v0Zm2.42,0a.81.81,0,1,0-.82.8h.02a.8.8,0,0,0,.8-.8v0Zm2.42,0a.81.81,0,1,0-.82.8h.01a.81.81,0,0,0,.81-.81v.01Zm2.41,0a.81.81,0,1,0-.82.8h.02a.8.8,0,0,0,.8-.8v0Zm2.42,0a.81.81,0,1,0-.82.8h.01a.81.81,0,0,0,.81-.81v.01Zm-12.08,6.64a.81.81,0,1,0-.82.8h.01a.81.81,0,0,0,.81-.81v.01Zm2.41,0a.81.81,0,1,0-.82.8h.02a.8.8,0,0,0,.8-.8v0Zm2.42,0a.81.81,0,1,0-.82.8h.02a.8.8,0,0,0,.8-.8v0Zm2.42,0a.81.81,0,1,0-.82.8h.01a.81.81,0,0,0,.81-.81v.01Zm2.41,0a.81.81,0,1,0-.82.8h.02a.8.8,0,0,0,.8-.8v0Zm2.42,0a.81.81,0,1,0-.82.8h.01a.81.81,0,0,0,.81-.81v.01Z"/><path class="a" d="M427.67,154.07h-2.82a.69.69,0,0,1-.69-.69h0a.7.7,0,0,1,.69-.7h2.82a.7.7,0,0,1,.7.7h0a.69.69,0,0,1-.69.69Zm.7,2.53a.69.69,0,0,0-.69-.69h-2.83a.69.69,0,0,0-.69.69h0a.7.7,0,0,0,.69.7h2.82a.7.7,0,0,0,.7-.7Zm0,3.22a.69.69,0,0,0-.69-.69h-2.83a.7.7,0,0,0,0,1.39h2.82a.7.7,0,0,0,.7-.7Zm0,3.22a.69.69,0,0,0-.69-.69h-2.83a.7.7,0,0,0,0,1.39h2.82a.7.7,0,0,0,.7-.7c0-.014,0-.027,0-.041Zm0,3.22a.69.69,0,0,0-.69-.69h-2.83a.7.7,0,0,0,0,1.39h2.82a.7.7,0,0,0,.7-.7Zm0,3.22a.69.69,0,0,0-.69-.69h-2.83a.7.7,0,0,0,0,1.39h2.82a.7.7,0,0,0,.7-.7Zm0,3.22a.69.69,0,0,0-.69-.69h-2.83a.7.7,0,0,0,0,1.39h2.82a.7.7,0,0,0,.7-.7Zm0,3.23a.7.7,0,0,0-.7-.7h-2.82a.7.7,0,0,0,0,1.39h2.82a.69.69,0,0,0,.7-.68v-.01Zm10.54-22.55a.7.7,0,0,0-.7-.7h-7.39a.7.7,0,0,0-.7.7h0a.69.69,0,0,0,.69.69h7.4a.69.69,0,0,0,.7-.68v-.01Zm0,3.22a.69.69,0,0,0-.69-.69h-7.4a.69.69,0,0,0-.7.68v.01a.7.7,0,0,0,.7.7h7.39a.7.7,0,0,0,.7-.7Zm0,3.22a.69.69,0,0,0-.69-.69h-7.4a.7.7,0,0,0-.167,1.39.668.668,0,0,0,.167,0h7.39a.7.7,0,0,0,.7-.7Zm0,3.22a.69.69,0,0,0-.69-.69h-7.4a.7.7,0,0,0-.167,1.39.668.668,0,0,0,.167,0h7.39a.7.7,0,0,0,.7-.7c0-.014,0-.027,0-.041Zm0,3.22a.69.69,0,0,0-.69-.69h-7.4a.7.7,0,0,0-.167,1.39.668.668,0,0,0,.167,0h7.39a.7.7,0,0,0,.7-.7Zm8.86,3.22a.69.69,0,0,0-.69-.69h-7.41a.7.7,0,0,0,0,1.39h7.4a.7.7,0,0,0,.7-.7Zm0,3.22a.69.69,0,0,0-.69-.69h-7.41a.7.7,0,0,0,0,1.39h7.4a.7.7,0,0,0,.7-.7Zm0,3.23a.7.7,0,0,0-.7-.7h-7.4a.7.7,0,0,0,0,1.39h7.4a.69.69,0,0,0,.7-.68v-.01Zm-5.6-22.55a.81.81,0,1,0-.81.81.81.81,0,0,0,.81-.81Zm2.41,0a.81.81,0,1,0-.82.8h.02a.8.8,0,0,0,.8-.8Zm2.42,0a.81.81,0,1,0-.82.8h.01a.81.81,0,0,0,.81-.8Zm2.41,0a.81.81,0,1,0-.82.8h.02a.8.8,0,0,0,.8-.8Zm2.42,0a.81.81,0,1,0-.82.8h.01a.81.81,0,0,0,.81-.8Zm2.41,0a.81.81,0,1,0-.82.8h.02a.8.8,0,0,0,.8-.8Zm-12.07,6.44a.764.764,0,1,0-.81.81.81.81,0,0,0,.81-.81Zm2.41,0a.81.81,0,1,0-.81.81h.01a.8.8,0,0,0,.8-.8v-.01Zm2.42,0a.81.81,0,1,0-.81.81h0a.8.8,0,0,0,.81-.79v-.02Zm2.41,0a.81.81,0,1,0-.81.81h.01a.8.8,0,0,0,.8-.8v-.01Zm2.42,0a.81.81,0,1,0-.81.81h0a.8.8,0,0,0,.81-.79v-.02Zm2.41,0a.81.81,0,1,0-.81.81h.01a.8.8,0,0,0,.8-.8v-.01Zm-3.82,9.26a.81.81,0,1,0-.81.81h0a.8.8,0,0,0,.81-.79v-.02Zm2.41,0a.81.81,0,1,0-.81.81h.01a.8.8,0,0,0,.8-.8v-.01Zm2.42,0a.81.81,0,1,0-.81.81h.01a.8.8,0,0,0,.8-.8v-.01Zm2.42,0a.81.81,0,1,0-.81.81h0a.8.8,0,0,0,.81-.79v-.02Zm2.41,0a.81.81,0,1,0-.81.81h.01a.8.8,0,0,0,.8-.8v-.01Zm2.42,0a.81.81,0,1,0-.81.81h0a.8.8,0,0,0,.81-.79v-.02Zm-12.08,6.64a.81.81,0,1,0-.81.81h0a.8.8,0,0,0,.81-.79v-.02Zm2.41,0a.81.81,0,1,0-.81.81h.01a.8.8,0,0,0,.8-.8v-.01Zm2.42,0a.81.81,0,1,0-.81.81h.01a.8.8,0,0,0,.8-.8v-.01Zm2.42,0a.81.81,0,1,0-.81.81h0a.8.8,0,0,0,.81-.79v-.02Zm2.41,0a.81.81,0,1,0-.81.81h.01a.8.8,0,0,0,.8-.8v-.01Zm2.42,0a.81.81,0,1,0-.81.81h0a.8.8,0,0,0,.81-.79v-.02Z"/><rect class="l" width="26.16" height="21.51" transform="translate(347.39 226.85)"/><path class="m" d="M347.68,238.47l9.88-6.39,5.81,7.85,4.94-2.62,4.65,5.52"/><path class="m" d="M370.35,232.08a3.2,3.2,0,1,1-3.2-3.2,3.2,3.2,0,0,1,3.2,3.2Z"/><line class="m" x2="30.73" transform="translate(125.88 373.42)"/><rect class="a" width="4.44" height="12.14" transform="translate(127.93 360.97)"/><rect class="a" width="4.44" height="22.04" transform="translate(135.44 351.06)"/><rect class="a" width="4.44" height="18.21" transform="translate(142.95 354.9)"/><rect class="a" width="4.44" height="7.67" transform="translate(150.46 365.44)"/><circle class="m" cx="20.67" cy="20.67" r="20.67" transform="translate(119.87 343.41)"/><line class="i" x2="447.83" transform="translate(29 477.27)"/></g></svg>