<svg xmlns="http://www.w3.org/2000/svg" width="466.798" height="440.977" viewBox="0 0 466.798 440.977"><defs><style>.a{fill:#f5f5f5;}.b{fill:#94c529;}.c,.q{opacity:0.1;}.c,.k,.n,.o{isolation:isolate;}.d,.k{fill:#fff;}.e{fill:#e0e0e0;}.f{fill:#ebebeb;}.g{fill:#ffa8a7;}.h{fill:#263238;}.i{fill:#37474f;}.j{fill:#f28f8f;}.k,.r{opacity:0.4;}.l{fill:#fafafa;}.m{fill:#455a64;}.n{opacity:0.05;}.o,.p{opacity:0.15;}.s{opacity:0.3;}.t{opacity:0.2;}</style></defs><g transform="translate(0 182.332)"><path class="a" d="M101.666,441.2c91.148,50.5,238.929,50.5,330.076,0s91.148-132.391,0-182.892-238.929-50.5-330.076-.011S10.518,390.683,101.666,441.2Z" transform="translate(-33.305 -220.426)"/></g><g transform="translate(21.291 174.215)"><path class="b" d="M398.741,256.179c.641-7.977,6.795-21.577,15.9-31.266s23.676-14.363,32.67-10.452c8.363,3.635,6.529,14.849-4.519,21.489s-27.5,14.783-33.145,27.355L398.73,278.4Z" transform="translate(-16.292 -213.079)"/><path class="c" d="M398.741,256.179c.641-7.977,6.795-21.577,15.9-31.266s23.676-14.363,32.67-10.452c8.363,3.635,6.529,14.849-4.519,21.489s-27.5,14.783-33.145,27.355L398.73,278.4Z" transform="translate(-16.292 -213.079)"/><path class="d" d="M397.752,266.059h-.166a.553.553,0,0,1-.358-.695l0-.012c8.96-27.046,34.382-45.176,44.933-46.911a.541.541,0,0,1,.628.439l0,.014a.552.552,0,0,1-.449.64h0c-10.319,1.69-35.233,19.522-44.06,46.17A.551.551,0,0,1,397.752,266.059Z" transform="translate(-16.452 -212.518)"/><path class="b" d="M399.931,285.864c1.646-4.419,7.734-11.335,17.058-16.738,10.341-5.977,22.991-8.087,26.273-13.114,3.944-6.043-.906-12.44-11.048-12.009s-28.957,12.75-33.454,33.145Z" transform="translate(-16.289 -209.84)"/><path class="d" d="M399.452,277.067a.694.694,0,0,1-.254-.055.563.563,0,0,1-.243-.74c8.75-17.423,27.212-25.566,36.746-27.621a.564.564,0,0,1,.232,1.1h0c-9.336,2.022-27.433,10-35.984,27.046A.563.563,0,0,1,399.452,277.067Z" transform="translate(-16.274 -209.352)"/><path class="e" d="M113.562,313l8.971-5.182s4.751-21.135-2.32-47.982-27.389-46.922-38.072-42.7-10.341,12.153-4.486,20.2c4.861,6.7,20.627,22.759,28.217,41.342A102.613,102.613,0,0,1,113.562,313Z" transform="translate(-50.372 -212.713)"/><path class="d" d="M117.369,310.3h-.1a.551.551,0,0,1-.476-.619v-.011c6.143-44.193-21.257-79.923-33.719-87.369a.554.554,0,0,1-.191-.758l0,0a.542.542,0,0,1,.74-.194l.011.007c12.65,7.568,40.459,43.762,34.249,88.474A.563.563,0,0,1,117.369,310.3Z" transform="translate(-49.407 -212.221)"/><path class="f" d="M115.765,309.78,102.3,317.514a25.775,25.775,0,0,0-8.971-2.6c-5.734-.718-9.546-6.242-8.982-10.363.387-2.784,1.271-5.955.851-8.761-.387-2.519-2.828-4.795-5.1-5.668a19.064,19.064,0,0,0-5.988-.862c-3.237-.144-6.629-.519-9.358-2.21S60,281.983,60.9,278.867a10.92,10.92,0,0,1,2.817-4.265,13.585,13.585,0,0,0,3.005-4.143c1.193-3.127-.906-5.1-3.425-6.552-8.839-5.093-12.816-9.1-9.634-12.949s11.932-5.524,20.892-.818,16.384-.342,22.3.652c9.258,1.547,9.811,8.087,8.662,13.777s10.275,8.087,13.158,14.882C120.759,284.435,122.5,300.709,115.765,309.78Z" transform="translate(-52.576 -209.495)"/><path class="d" d="M110.641,312.6a.553.553,0,0,1-.552-.53c-1.1-31.543-41.53-59.053-51.065-60.622a.554.554,0,0,1-.454-.636v0a.541.541,0,0,1,.615-.455l.014,0c10.043,1.657,50.888,28.957,51.993,61.682a.542.542,0,0,1-.518.563h-.034Z" transform="translate(-51.948 -209.173)"/></g><g transform="translate(94.026 0)"><g transform="translate(269.366)"><path class="g" d="M435.542,177.585c-1.967-.365-3.6-1.3-6.408-1.6a11.978,11.978,0,0,1-5.524-1.525c-2.21-1.2-6.839-6.806-10.617-12.462A66.608,66.608,0,0,1,404.5,141c-1.6-8.993-1.911-22.1-2.53-27.366s-2.817-6.806-5.679-8c-3.37-1.4-6.894.63-6.927,8.253a141.639,141.639,0,0,0,3.922,31.145,70.57,70.57,0,0,0,9.656,21.113c3.977,6.01,8.076,9.943,13.258,14.959,1.425,1.359,2.143,2.718,4.563,5.624a15.976,15.976,0,0,0,3.314,3.314,20.045,20.045,0,0,0,5.226,2.464,13.672,13.672,0,0,0,7.214.243,8.71,8.71,0,0,0,3.558-1.8A5.724,5.724,0,0,0,442,187.529a1.53,1.53,0,0,0-.011-.8,1.876,1.876,0,0,0-1.1-.884c-2.519-1.1-5.4-1.856-7.789-3.193-2.011-1.1-3.314-2.21-2.839-2.353s1.569.6,3.58.652,3.845-1.027,3.79-2.1S437.508,177.95,435.542,177.585Z" transform="translate(-359.375 -50.17)"/><path class="b" d="M390.565,138.606s-1.834-14.617-2.309-22.737,2.011-10.474,5.06-12.507c6.728-.519,10.584,6.518,11.722,11.214s1.724,16.4,1.724,24.008S417.4,168.149,417.4,168.149s-5.369,2.486-6.994,7.358c0,0-8.54-10.076-11.711-15.213C392.885,150.848,391.294,145.07,390.565,138.606Z" transform="translate(-359.497 -50.368)"/><path class="c" d="M390.565,138.606s-1.834-14.617-2.309-22.737,2.011-10.474,5.06-12.507c6.728-.519,10.584,6.518,11.722,11.214s1.724,16.4,1.724,24.008S417.4,168.149,417.4,168.149s-5.369,2.486-6.994,7.358c0,0-8.54-10.076-11.711-15.213C392.885,150.848,391.294,145.07,390.565,138.606Z" transform="translate(-359.497 -50.368)"/><rect class="g" width="9.159" height="15.666" transform="translate(3.071 243.377)"/><path class="g" d="M392.02,281.123l9.148.32.464-16.583-9.148-.32Z" transform="translate(-359.096 -33.47)"/><path class="h" d="M374.358,285.9v-1.315c.873.387,2.906,8.154,6.541,11.457,2.884,2.641,6.828,5.679,7.833,8.618s-5.524,4.74-8.187,4.265c-3.138-.563-8.562-2.762-9.943-4.806s-2-5.071-3.1-6.574-3.668-3.171-4.265-4.905c-.331-.95,0-3.038.519-4.806s.884-3.392,1.436-3.248v1.005a7.349,7.349,0,0,0,4.585,1.547C371.121,287.177,374.369,286.912,374.358,285.9Z" transform="translate(-362.128 -31.371)"/><path class="h" d="M401.528,277.33c.475,0,.862.685,1.911,1.823a20.162,20.162,0,0,0,5.38,3.878c3.436,1.712,10.1,4.353,13.114,5.712,1.878.851,1.79,3.127-.155,4.419s-6.629,2.21-12.3.972c-3.071-.7-7.082-3.535-9.612-3.381s-7.281.122-9.148-1.171-1.1-4.044-.6-6.408c.574-2.585,1.4-6.541,2.265-6.364v.818c1.1,1.668,6.706,2.342,9.126,1.1Z" transform="translate(-359.357 -32.185)"/><path class="h" d="M365.9,163.245v63.317c-.21,2.508-2.077,6.872-2.574,17.578-.619,13.125-1.1,49.109-1.1,49.109s6.839,4.419,12.893.155c0,0,8.131-51.6,9.767-64.6,1.436-11.347,3.856-42.182,3.856-42.182l5.524,46.4s-1.492,8.529-1.812,14.551,0,37.2,0,37.2,7.226,4.154,12.54,1.315c0,0,6.264-48.148,7.214-53.584s-3.436-69.316-3.436-69.316Z" transform="translate(-362.22 -44.094)"/><path d="M386.16,185.094a33.9,33.9,0,0,0,12.75-7.314s-2.453,4.607-9.767,8.894l.155,24.947Z" transform="translate(-359.711 -42.565)"/><path class="b" d="M374.344,106.277a20.714,20.714,0,0,0-3.779.873c-2.519.983-3.668,4.077-4.265,6.806a31.782,31.782,0,0,0-.751,6.96v48.612c6.419,6.982,28.792,10.231,42.812,0,0,0-.276-42.933-1.326-49.982-1.823-12.252-7.734-16.572-13.578-16.164l-14.153,2.011Z" transform="translate(-361.871 -50.366)"/><path class="i" d="M378.41,125.461s7.667-.309,10.816-1.536V122.39c-3.149,1.226-10.816,1.536-10.816,1.536Z" transform="translate(-360.523 -48.371)"/><path class="b" d="M391.742,112.767l-13.4-9.866-.055-2.431s-2.839.431-3.535,5.867a23.034,23.034,0,0,0,10.264,10.938l2.784-4.961Z" transform="translate(-360.907 -50.668)"/><path class="c" d="M391.742,112.767l-13.4-9.866-.055-2.431s-2.839.431-3.535,5.867a23.034,23.034,0,0,0,10.264,10.938l2.784-4.961Z" transform="translate(-360.907 -50.668)"/><path class="b" d="M390.87,101a6.627,6.627,0,0,1,4.353,2.618c1.326,2.21,1.016,10.551,1.016,10.551l-3.524-4.044-2.585,2.585c.276-2.8.751-7.48.751-7.48Z" transform="translate(-359.294 -50.613)"/><path class="c" d="M390.87,101a6.627,6.627,0,0,1,4.353,2.618c1.326,2.21,1.016,10.551,1.016,10.551l-3.524-4.044-2.585,2.585c.276-2.8.751-7.48.751-7.48Z" transform="translate(-359.294 -50.613)"/><path class="h" d="M372.84,85s2.1,9.943,2.95,11.523a4.422,4.422,0,0,0,2.585,2.088l-.144-6.96Z" transform="translate(-361.107 -52.29)"/><path class="h" d="M375.7,72.173a4.881,4.881,0,0,0-4.033,1.414c-1.735,1.779-.773,7.325,1.392,12.761l3.966.453Z" transform="translate(-361.324 -53.638)"/><path class="g" d="M378.377,87.382c-.8.475-1.933-1.1-2.917-2.077s-4.187-2.431-5.778.939,1.4,7.966,3.933,8.75c4.342,1.37,4.994-1.414,4.994-1.414l.331,15.666s5.668,6.021,13.379,7.071l.751-7.48v-4.773a27.411,27.411,0,0,0,5.856.3c3.2-.5,5.215-3.016,6.176-6.474,1.558-5.524,2.154-10.043.829-20.992-1.447-11.976-15.379-12.153-22.892-7.369S378.377,87.382,378.377,87.382Z" transform="translate(-361.484 -54.219)"/><path class="h" d="M377.836,88.862c-.409,0-1.922-2.519-2.917-3.425-1.37-1.248.4-12.551.4-12.551,1.646-7.734,15.092-8.839,22.6-6.375,3.9,1.2,6.419,2.961,6.275,6.253-.5,2.21-5.259,3.314-7.071,3.546-5.082.619-12.915-.751-14-.895-1.469-.2-1.878.265-2.674,4.176C379.758,83.017,379.173,88.829,377.836,88.862Z" transform="translate(-360.943 -54.351)"/><path class="h" d="M375.7,73.389,370.88,70.8a2.651,2.651,0,0,1,3.531-1.262c.039.018.077.038.115.057A2.873,2.873,0,0,1,375.7,73.389Z" transform="translate(-361.312 -53.937)"/><path class="j" d="M392.037,101.1s-7.126-1.436-9.623-2.762A8.253,8.253,0,0,1,379,94.92a11.144,11.144,0,0,0,1.956,4.022C382.779,101.273,392.07,103,392.07,103Z" transform="translate(-360.461 -51.25)"/><path class="h" d="M389.932,85.142a1.436,1.436,0,1,1-1.425-1.492,1.458,1.458,0,0,1,1.425,1.49Z" transform="translate(-359.616 -52.431)"/><path class="h" d="M388.6,80.19l-3.06,1.69a1.823,1.823,0,0,1,.718-2.431,1.7,1.7,0,0,1,2.309.676Z" transform="translate(-359.797 -52.894)"/><path class="j" d="M390.231,92.74l3.259,1.226a1.7,1.7,0,0,1-2.122,1.134c-.029-.009-.059-.018-.087-.029A1.812,1.812,0,0,1,390.231,92.74Z" transform="translate(-359.296 -51.479)"/><path class="h" d="M401.465,81.453l-2.8-2.143a1.691,1.691,0,0,1,2.351-.434l.08.059A1.868,1.868,0,0,1,401.465,81.453Z" transform="translate(-358.399 -52.963)"/><path class="h" d="M400.692,84.762a1.436,1.436,0,1,1-1.425-1.492,1.458,1.458,0,0,1,1.425,1.49Z" transform="translate(-358.488 -52.471)"/><path class="j" d="M393.42,82.2l.475,8.6,4.486-1.525Z" transform="translate(-358.95 -52.583)"/><path class="h" d="M380.93,77.756s14.208,7.933,24.085,1.889S402.1,68.42,402.1,68.42Z" transform="translate(-360.259 -54.028)"/><path class="b" d="M403.917,56.24c-8.463-1.315-17.677-1.712-28.306,3.458S362.63,71.774,362.63,71.774s10.849,2.95,19.677.42S403.917,56.24,403.917,56.24Z" transform="translate(-362.177 -55.393)"/><path class="k" d="M403.917,56.24c-8.463-1.315-17.677-1.712-28.306,3.458S362.63,71.774,362.63,71.774s10.849,2.95,19.677.42S403.917,56.24,403.917,56.24Z" transform="translate(-362.177 -55.393)"/><path class="b" d="M368.563,74.971s-5.436-1.911-5.933-3.314a37.108,37.108,0,0,0,12.617-2.375c7.06-2.563,14.363-10.319,22.339-12.5s11.335,1.447,11.335,1.447a38.392,38.392,0,0,1-4.508,9.634s-2.464,5.657-11.811,8.043S368.563,74.971,368.563,74.971Z" transform="translate(-362.177 -55.32)"/><path class="i" d="M368,73.851l.442,1.492a3.382,3.382,0,0,0,2.088,2.143,38.447,38.447,0,0,0,21.776-.519c6.629-2.022,9.535-4.077,10.717-5.524a3.591,3.591,0,0,0,1.1-3.193l-.221-1.469s-2.033,3.071-12.772,6.5S368,73.851,368,73.851Z" transform="translate(-361.614 -54.2)"/><path class="l" d="M395.392,59.53c-.066,1.624-1.812,4.939-4.132,3.834v4.165c0,2.607,1.536,3.314,4,2.486a6.23,6.23,0,0,0,4.3-5.811V60.613C397.734,63.286,395.392,60.171,395.392,59.53Z" transform="translate(-359.176 -54.96)"/></g><g transform="translate(0 48.649)"><path class="i" d="M252.745,100.59l-129.551,74.8a10.584,10.584,0,0,0-4.784,8.286V328.084a10.56,10.56,0,0,0,4.784,8.286l129.551,74.807a10.572,10.572,0,0,0,9.568,0l129.64-74.807a10.56,10.56,0,0,0,4.784-8.286V183.673a10.584,10.584,0,0,0-4.784-8.286L262.39,100.59A10.57,10.57,0,0,0,252.745,100.59Z" transform="translate(-118.41 -99.426)"/><path class="h" d="M257.57,249.62V405.079a9.758,9.758,0,0,1-4.784-1.1l-129.562-74.8a10.584,10.584,0,0,1-4.784-8.286V176.437a10.706,10.706,0,0,1,4.3-7.977c-2.143,1.536-1.978,3.79.486,5.215l129.518,74.8A9.8,9.8,0,0,0,257.57,249.62Z" transform="translate(-118.407 -92.19)"/><path class="m" d="M391.679,175.385l-129.562-74.8a10.572,10.572,0,0,0-9.568,0L123,175.385c-2.641,1.525-2.641,4,0,5.524l129.474,74.8a10.572,10.572,0,0,0,9.568,0l129.64-74.8C394.276,179.384,394.276,176.91,391.679,175.385Z" transform="translate(-118.137 -99.424)"/><path class="h" d="M254.876,253.226l116.393-67.2c1.315-.762,2.386-.144,2.386,1.381V316.676a5.3,5.3,0,0,1-2.386,4.143l-116.393,67.14c-1.315.762-2.386.155-2.386-1.381V257.369A5.272,5.272,0,0,1,254.876,253.226Z" transform="translate(-104.356 -90.382)"/><path class="i" d="M254.49,257.1a3.114,3.114,0,0,1,1.282-2.21L371.225,188.23V316.389a3.149,3.149,0,0,1-1.282,2.21L254.49,385.253Z" transform="translate(-104.146 -90.118)"/><path class="m" d="M252.86,258.637l25.267-14.617a1.7,1.7,0,0,1,1.657,0l4.088,2.364-26.516,14.8Z" transform="translate(-104.317 -84.292)"/><path class="h" d="M283.856,247.1v17.412a3.181,3.181,0,0,1-1.436,2.475l-25.5,14.727V260.985l25.5-14.716C283.2,245.815,283.856,246.18,283.856,247.1Z" transform="translate(-103.891 -84.055)"/><path d="M252.86,257.23l4.486,2.585v20.737l-4.486-2.6Z" transform="translate(-104.317 -82.885)"/><path class="m" d="M266.91,261.129c1.237-.718,2.21-.144,2.21,1.293a4.984,4.984,0,0,1-2.21,3.889c-1.237.707-2.21.133-2.21-1.3A4.94,4.94,0,0,1,266.91,261.129Z" transform="translate(-103.076 -82.509)"/><path class="m" d="M275.04,256.439c1.237-.718,2.21-.144,2.21,1.293a4.984,4.984,0,0,1-2.21,3.889c-1.248.707-2.21.133-2.21-1.3A4.961,4.961,0,0,1,275.04,256.439Z" transform="translate(-102.224 -83)"/><path class="m" d="M254.567,257.45l-6.209,3.591a5.525,5.525,0,0,1-5.524,0l-4.541-2.618a1.646,1.646,0,0,0-1.657,0l-4.066,2.342,10.264,5.458a5.525,5.525,0,0,0,5.524,0l10.695-6.176Z" transform="translate(-106.444 -82.862)"/><path class="i" d="M233.606,281.355l9.269,5.358a5.525,5.525,0,0,0,5.524,0l10.695-6.176V259.8L248.4,265.976a5.525,5.525,0,0,1-5.524,0l-9.269-5.347c-.784-.453-1.436-.088-1.436.829v17.412A3.183,3.183,0,0,0,233.606,281.355Z" transform="translate(-106.486 -82.616)"/><path class="h" d="M244.39,287.443a5.4,5.4,0,0,0,2.74-.74l10.695-6.176V259.8l-10.695,6.176a5.4,5.4,0,0,1-2.74.74Z" transform="translate(-105.205 -82.616)"/><path class="m" d="M252.86,338.4l25.267-14.584a1.646,1.646,0,0,1,1.657,0l4.088,2.364-26.516,14.8Z" transform="translate(-104.317 -75.928)"/><path class="h" d="M283.856,326.837v17.412a3.183,3.183,0,0,1-1.436,2.486l-25.5,14.716V340.724l25.5-14.705C283.2,325.555,283.856,325.92,283.856,326.837Z" transform="translate(-103.891 -75.696)"/><path d="M252.86,336.97l4.486,2.585v20.726L252.86,357.7Z" transform="translate(-104.317 -74.527)"/><path class="m" d="M266.91,340.859c1.237-.718,2.21-.133,2.21,1.293a4.949,4.949,0,0,1-2.21,3.889c-1.237.718-2.21.144-2.21-1.293A4.984,4.984,0,0,1,266.91,340.859Z" transform="translate(-103.076 -74.151)"/><path class="m" d="M275.04,336.169c1.237-.718,2.21-.133,2.21,1.293a4.961,4.961,0,0,1-2.21,3.889c-1.248.718-2.21.144-2.21-1.293A4.969,4.969,0,0,1,275.04,336.169Z" transform="translate(-102.224 -74.643)"/><path class="m" d="M254.567,337.19l-6.209,3.591a5.525,5.525,0,0,1-5.524,0l-4.541-2.618a1.646,1.646,0,0,0-1.657,0L232.57,340.5l10.264,5.458a5.525,5.525,0,0,0,5.524,0l10.695-6.176Z" transform="translate(-106.444 -74.504)"/><path class="i" d="M233.606,361.1l9.269,5.347a5.525,5.525,0,0,0,5.524,0l10.695-6.176V339.54L248.4,345.716a5.525,5.525,0,0,1-5.524,0l-9.269-5.347c-.784-.464-1.436-.088-1.436.829v17.412A3.2,3.2,0,0,0,233.606,361.1Z" transform="translate(-106.486 -74.257)"/><path class="h" d="M244.39,367.183a5.523,5.523,0,0,0,2.74-.74l10.695-6.176V339.54l-10.695,6.176a5.638,5.638,0,0,1-2.74.74Z" transform="translate(-105.205 -74.257)"/><path class="h" d="M327.35,261.425l.751-1.3-4.563-2.641h-.088c-3.646-2.033-8.64-1.712-14.164,1.48-11.148,6.441-20.2,22.1-20.2,34.979,0,6.32,2.21,10.783,5.723,12.948h0l.133.077.133.077,4.563,2.641.762-1.337a18.266,18.266,0,0,0,8.839-2.751c11.159-6.441,20.2-22.1,20.2-34.979A18.449,18.449,0,0,0,327.35,261.425Z" transform="translate(-100.519 -82.993)"/><ellipse class="h" cx="28.56" cy="16.484" rx="28.56" ry="16.484" transform="translate(185.37 218.711) rotate(-60)"/><ellipse class="i" cx="28.56" cy="16.484" rx="28.56" ry="16.484" transform="translate(184.64 218.299) rotate(-60)"/><path class="b" d="M313.321,268.729c-.453.166-.729-.21-.619-.84l.928-5.369a1.979,1.979,0,0,1,1.016-1.436c.442-.166.729.21.619.84l-.928,5.358A1.977,1.977,0,0,1,313.321,268.729Z" transform="translate(-98.047 -82.485)"/><path class="b" d="M306.571,273.8a.409.409,0,0,1-.552-.171.336.336,0,0,1-.022-.05l-1.5-3.513a1.857,1.857,0,0,1,.453-1.668c.431-.508.917-.574,1.1-.166l1.5,3.513a1.835,1.835,0,0,1-.453,1.657A1.169,1.169,0,0,1,306.571,273.8Z" transform="translate(-98.909 -81.759)"/><path class="b" d="M301.486,282.554a.641.641,0,0,1-.243,0l-3.314-.32c-.4,0-.519-.6-.276-1.248s.762-1.1,1.1-1.1l3.314.32c.387,0,.519.6.276,1.248A1.809,1.809,0,0,1,301.486,282.554Z" transform="translate(-99.635 -80.511)"/><path class="b" d="M295.991,294.914c-.354.133-.619-.055-.641-.5a2.108,2.108,0,0,1,.773-1.635l3.922-2.994c.464-.354.873-.2.906.354a2.147,2.147,0,0,1-.773,1.635l-3.933,2.994A.878.878,0,0,1,295.991,294.914Z" transform="translate(-99.863 -79.492)"/><path class="b" d="M299.451,303.237a.444.444,0,0,1-.442,0c-.3-.232-.254-.917.1-1.525l3.005-5.171c.354-.608.884-.906,1.182-.674s.254.928-.1,1.536l-2.994,5.16A1.641,1.641,0,0,1,299.451,303.237Z" transform="translate(-99.5 -78.843)"/><path class="b" d="M307.221,303.989c-.453.166-.729-.21-.619-.84l.928-5.358a1.988,1.988,0,0,1,1.005-1.447c.453-.166.729.21.619.84l-.928,5.369A2,2,0,0,1,307.221,303.989Z" transform="translate(-98.686 -78.789)"/><path class="b" d="M316.441,296.889a.408.408,0,0,1-.55-.176.414.414,0,0,1-.024-.056l-1.5-3.458a1.835,1.835,0,0,1,.453-1.657c.431-.508.928-.586,1.1-.166l1.492,3.5a1.857,1.857,0,0,1-.453,1.668A1.367,1.367,0,0,1,316.441,296.889Z" transform="translate(-97.875 -79.334)"/><path class="b" d="M323.555,284.654a.6.6,0,0,1-.243,0l-3.314-.32c-.387,0-.508-.6-.265-1.248s.751-1.1,1.1-1.1l3.314.32c.4,0,.519.6.276,1.248A1.879,1.879,0,0,1,323.555,284.654Z" transform="translate(-97.32 -80.291)"/><path class="b" d="M321.831,275.215c-.342.133-.608-.066-.641-.508a2.121,2.121,0,0,1,.773-1.624l3.933-3.005c.464-.354.862-.188.906.365a2.21,2.21,0,0,1-.773,1.624l-3.944,3.005A1.03,1.03,0,0,1,321.831,275.215Z" transform="translate(-97.154 -81.558)"/><path class="b" d="M319.2,269.267a.444.444,0,0,1-.442,0c-.3-.232-.254-.917.1-1.525l2.994-5.171c.354-.608.884-.906,1.193-.674s.254.928-.1,1.536l-3.005,5.16A1.627,1.627,0,0,1,319.2,269.267Z" transform="translate(-97.43 -82.404)"/><path class="h" d="M322.244,271.479h0c-1.922-2.85-5.59-3.425-9.8-.994-6.187,3.58-11.214,12.286-11.214,19.434,0,5.115,2.563,8.032,6.286,8h0l8.629.2,10.86-19.887Z" transform="translate(-99.247 -81.656)"/><path class="m" d="M318.79,276.958a18.517,18.517,0,0,0-8.33,14.528c0,5.336,3.745,7.491,8.363,4.828a18.493,18.493,0,0,0,8.363-14.484C327.187,276.461,323.442,274.3,318.79,276.958Z" transform="translate(-98.279 -80.937)"/><path class="h" d="M357.057,245.84a9.943,9.943,0,0,0-4.961-9.015L337.137,228.2h-.066a4.5,4.5,0,0,0-4.419.464,14.034,14.034,0,0,0-6.342,11.048c0,2.21.884,3.778,2.287,4.309h.088l14.363,4.552a8.011,8.011,0,0,1,5.579,7.226l1.646,30.681h0a2.6,2.6,0,0,0,5.182,0h0Z" transform="translate(-96.618 -85.968)"/></g><g transform="translate(241.182 55.828)"><path class="g" d="M360.25,118.33s-18.616,27.7-21.743,34.515c-1.05,2.309-1.956,3.524,1.823,7.413s17.677,15.467,19.036,17.2,1.3,4.419,2.353,6.795-.155,8.728.8,12.639,11.2-1.834,11.2-11.833c0-5.613.188-8.839-3.237-11.479S352.8,154.237,352.8,154.237l12.948-19.522Z" transform="translate(-336.618 -104.624)"/><path class="b" d="M364.176,141.572c4.419-5.822,11.678-14.451,11.678-14.451,3.381-4.718,6.132-16.926.784-20.992-3.624-.541-7.049-.442-12.153,5.9s-10.109,13.346-15.412,21.135-12.363,19.124-12.363,23.2,8.22,10.882,15.633,15.932a9.831,9.831,0,0,1,8.75-7.325l-6.96-9.733S359.768,147.394,364.176,141.572Z" transform="translate(-336.71 -105.925)"/><path class="n" d="M364.176,141.572c4.419-5.822,11.678-14.451,11.678-14.451,3.381-4.718,6.132-16.926.784-20.992-3.624-.541-7.049-.442-12.153,5.9s-10.109,13.346-15.412,21.135-12.363,19.124-12.363,23.2,8.22,10.882,15.633,15.932a9.831,9.831,0,0,1,8.75-7.325l-6.96-9.733S359.768,147.394,364.176,141.572Z" transform="translate(-336.71 -105.925)"/><path class="i" d="M362,113.909a7.489,7.489,0,0,1,5.016,2.994l.188-.3a.785.785,0,0,0-.088-.983,7.888,7.888,0,0,0-4.066-2.431.784.784,0,0,0-.8.331Z" transform="translate(-334.059 -105.165)"/><path class="i" d="M364.592,119.656c-1.005,1.536-2.751,2.21-3.911,1.414s-1.282-2.607-.276-4.154,2.762-2.21,3.911-1.414S365.553,118.12,364.592,119.656Z" transform="translate(-334.298 -104.956)"/></g></g><g transform="translate(33.581 257.409)"><path class="b" d="M248.68,375.555,125.36,304.36l-61.66,35.6,123.32,71.195Z" transform="translate(-63.7 -286.705)"/><path class="o" d="M69.57,339.6,186.4,407l55.175-31.852L124.745,307.75Zm3.248,0,51.927-29.985,113.587,65.571L186.4,405.173Z" transform="translate(-63.085 -286.35)"/><g class="p" transform="translate(60.942 52.617)"><path d="M152.712,372.867c-8.408,0-17.025-1.933-23.676-5.778h0c-6.474-3.734-10.175-8.839-10.175-13.976,0-4.729,3.038-9.082,8.551-12.275,11.788-6.795,31.686-6.375,44.37.939,6.463,3.734,10.175,8.839,10.175,13.987,0,4.718-3.038,9.082-8.551,12.263S160.346,372.867,152.712,372.867ZM148.1,337.1c-7.435,0-14.683,1.558-20.141,4.707-5.16,2.983-8,6.994-8,11.313,0,4.74,3.5,9.49,9.623,13.026h0c12.374,7.137,31.786,7.568,43.265.939,5.16-2.983,8-7,8-11.313,0-4.751-3.5-9.49-9.623-13.026C164.732,338.994,156.3,337.1,148.1,337.1Z" transform="translate(-118.86 -336.005)"/></g><g class="q" transform="translate(64.93 56.567)"><path d="M152.333,368.515c-7.988,0-15.887-1.911-21.677-5.259-5.2-3.005-8.187-6.839-8.187-10.518,0-3.237,2.331-6.364,6.563-8.839,4.828-2.784,11.468-4.32,18.694-4.32,7.988,0,15.887,1.922,21.677,5.259,5.2,3.005,8.187,6.839,8.187,10.529,0,3.237-2.331,6.364-6.563,8.839C166.2,366.98,159.515,368.515,152.333,368.515Z" transform="translate(-122.47 -339.58)"/></g><path class="c" d="M172.656,394.6l-33.9-19.7,2.718.354a57.418,57.418,0,0,0,7.314.464,51.4,51.4,0,0,0,23.577-6.209c6-3.458,12.054-9.656,12.054-15.688a14.618,14.618,0,0,0-1.37-6.088l-.729-1.58,37.122,21.555-4.066,2.353c-.685.4-1.1.884-1.1,1.392a1.768,1.768,0,0,0,1.1,1.392l4.077,2.353-33.819,19.4-3.524-2.066a6.629,6.629,0,0,0-5.944,0Z" transform="translate(-55.832 -282.324)"/><path class="b" d="M183.78,378.394a11.558,11.558,0,0,1-5.657-1.381,4.417,4.417,0,0,1-2.563-3.58,3.79,3.79,0,0,1,2.21-3.193,11.788,11.788,0,0,1,10.628.21,4.421,4.421,0,0,1,2.563,3.591,3.778,3.778,0,0,1-2.21,3.193A10.211,10.211,0,0,1,183.78,378.394Z" transform="translate(-51.975 -279.921)"/><path class="c" d="M120.226,363.78,83.181,342.435l4.066-2.342a1.447,1.447,0,0,0,0-2.8l-4.077-2.353,33.763-19.224,3.513,2.033a6.627,6.627,0,0,0,5.933,0l3.524-2.033,33.885,19.5-2.74-.354a57.583,57.583,0,0,0-7.325-.464c-8.032,0-17.622,2.42-23.875,6.032-7.8,4.508-11.755,9.336-11.755,14.363a21.094,21.094,0,0,0,1.425,7.413Z" transform="translate(-61.659 -285.514)"/><path class="b" d="M113.49,338a11.627,11.627,0,0,1-5.668-1.381h0a4.419,4.419,0,0,1-2.552-3.591,3.767,3.767,0,0,1,2.21-3.182,11.757,11.757,0,0,1,10.628.21,4.419,4.419,0,0,1,2.552,3.591,3.776,3.776,0,0,1-2.21,3.182A10.082,10.082,0,0,1,113.49,338Z" transform="translate(-59.343 -284.155)"/><path class="b" d="M236.98,368.8v14.981l-61.66,35.6V404.4Z" transform="translate(-52 -279.95)"/><g class="r" transform="translate(123.32 88.85)"><path class="d" d="M236.98,368.8v14.981l-61.66,35.6V404.4Z" transform="translate(-175.32 -368.8)"/></g><path class="b" d="M175.32,405.067l19.467-10.827L175.32,405.973Z" transform="translate(-52 -277.284)"/><path class="b" d="M231.746,375.24l-6.5,4.121,6.5-3.37Z" transform="translate(-46.766 -279.275)"/><path class="b" d="M234.209,378.47,201.76,397.76l32.449-18.185Z" transform="translate(-49.228 -278.937)"/><path class="b" d="M175.32,408.992l32.449-18.152L175.32,410.174Z" transform="translate(-52 -277.64)"/><path class="b" d="M187.02,422.756,63.7,351.561V336.58l123.32,71.195Z" transform="translate(-63.7 -283.328)"/><g class="p" transform="translate(0 53.252)"><path d="M187.02,422.756,63.7,351.561V336.58l123.32,71.195Z" transform="translate(-63.7 -336.58)"/></g><g class="s" transform="translate(116.824 124.447)"><path d="M175.936,404.357l-6.5-3.337,6.5,4.243Z" transform="translate(-169.44 -401.02)"/></g><g class="s" transform="translate(90.684 113.112)"><path d="M178.416,409,145.78,390.76l32.636,19.423Z" transform="translate(-145.78 -390.76)"/></g><g class="s" transform="translate(0 60.301)"><path d="M63.7,342.96l22.715,13.556L63.7,343.844Z" transform="translate(-63.7 -342.96)"/></g><g class="s" transform="translate(0 64.069)"><path d="M63.7,346.37l12.982,7.922L63.7,347.21Z" transform="translate(-63.7 -346.37)"/></g><path class="l" d="M192.94,341.007l-63.8,36.846L109.67,366.617l63.8-36.857Z" transform="translate(-58.881 -284.043)"/><path class="f" d="M109.67,363.12v16.307l19.467,11.236V374.356Z" transform="translate(-58.881 -280.546)"/><path class="e" d="M127.29,388.175l1.138-.663-1.138-.652Z" transform="translate(-57.034 -278.057)"/><path class="e" d="M185.244,339.94v2.486l-2.154-1.248Z" transform="translate(-51.185 -282.975)"/><g class="s" transform="translate(70.256 93.81)"><path d="M128.428,388.923v-14.97l-1.138-.663v14.981Z" transform="translate(-127.29 -373.29)"/></g><g class="t" transform="translate(70.256 58.202)"><path d="M128.428,377.331l61.66-35.608-1.149-.663L127.29,376.668Z" transform="translate(-127.29 -341.06)"/></g><path class="m" d="M189.359,338.928l-63.826,36.846-1.613-.939L187.723,338Z" transform="translate(-57.388 -283.179)"/><path class="m" d="M177.007,331.808l-63.814,36.835-1.613-.928,63.8-36.835Z" transform="translate(-58.681 -283.925)"/><path class="h" d="M125.533,372.279v16.307l-1.613-.939V371.34Z" transform="translate(-57.388 -279.684)"/><path class="h" d="M113.194,365.148v16.307l-1.624-.939.011-16.3Z" transform="translate(-58.682 -280.43)"/><path class="b" d="M248.68,359.575,125.36,288.38l-61.66,35.6,123.32,71.195Z" transform="translate(-63.7 -288.38)"/><path class="o" d="M69.57,323.622,186.4,391.016l55.175-31.852L124.745,291.77Zm3.248,0,51.927-29.974,113.587,65.571L186.4,389.2Z" transform="translate(-63.085 -288.025)"/><g class="p" transform="translate(60.942 34.965)"><path d="M152.712,356.9c-8.408,0-17.025-1.944-23.676-5.778h0c-6.474-3.734-10.175-8.839-10.175-13.987,0-4.718,3.038-9.082,8.551-12.264,11.788-6.806,31.686-6.386,44.37.939,6.463,3.734,10.175,8.839,10.175,13.987,0,4.718-3.038,9.071-8.551,12.263S160.346,356.9,152.712,356.9ZM148.1,321.1c-7.435,0-14.683,1.558-20.141,4.718-5.16,2.972-8,6.994-8,11.3,0,4.751,3.5,9.5,9.623,13.026h0c12.374,7.148,31.786,7.568,43.265.939,5.16-2.983,8-6.994,8-11.3,0-4.751-3.5-9.5-9.623-13.037C164.732,323.013,156.3,321.1,148.1,321.1Z" transform="translate(-118.86 -320.028)"/></g><g class="q" transform="translate(64.93 38.912)"><path d="M152.333,352.546c-7.988,0-15.887-1.922-21.677-5.259-5.2-3.005-8.187-6.839-8.187-10.529,0-3.237,2.331-6.364,6.563-8.839,4.828-2.784,11.468-4.32,18.694-4.32,7.988,0,15.887,1.911,21.677,5.259,5.2,3.005,8.187,6.839,8.187,10.529,0,3.237-2.331,6.364-6.563,8.839C166.2,351.011,159.515,352.546,152.333,352.546Z" transform="translate(-122.47 -323.6)"/></g><path class="c" d="M172.656,378.6l-33.9-19.688,2.718.354a57.418,57.418,0,0,0,7.314.464,51.4,51.4,0,0,0,23.577-6.209c6-3.458,12.054-9.656,12.054-15.7a14.606,14.606,0,0,0-1.37-6.077l-.729-1.58L219.445,351.7l-4.066,2.353a1.791,1.791,0,0,0-1.1,1.392,1.767,1.767,0,0,0,1.1,1.4l4.077,2.353L185.638,378.6l-3.524-2.033a6.629,6.629,0,0,0-5.944,0Z" transform="translate(-55.832 -284.001)"/><path class="b" d="M183.78,362.424a11.558,11.558,0,0,1-5.657-1.381,4.421,4.421,0,0,1-2.563-3.591,3.791,3.791,0,0,1,2.21-3.182,11.757,11.757,0,0,1,10.628.21,4.421,4.421,0,0,1,2.563,3.591,3.767,3.767,0,0,1-2.21,3.182A10.077,10.077,0,0,1,183.78,362.424Z" transform="translate(-51.975 -281.596)"/><path class="c" d="M120.226,347.811,83.181,326.466l4.066-2.353a1.768,1.768,0,0,0,1.1-1.392c0-.508-.376-.994-1.1-1.392l-4.077-2.364,33.763-19.224,3.513,2.044a6.705,6.705,0,0,0,5.933,0l3.524-2.033,33.885,19.511-2.74-.354a57.382,57.382,0,0,0-7.325-.475c-8.032,0-17.622,2.431-23.875,6.043-7.8,4.508-11.755,9.336-11.755,14.363a21.194,21.194,0,0,0,1.425,7.413Z" transform="translate(-61.659 -287.189)"/><path class="b" d="M113.49,322.035a11.627,11.627,0,0,1-5.668-1.381h0a4.419,4.419,0,0,1-2.552-3.591,3.779,3.779,0,0,1,2.21-3.193,11.754,11.754,0,0,1,10.628.221,4.417,4.417,0,0,1,2.552,3.58,3.778,3.778,0,0,1-2.21,3.193A10.082,10.082,0,0,1,113.49,322.035Z" transform="translate(-59.343 -285.83)"/><path class="b" d="M236.98,352.82v14.992l-61.66,35.6V388.417Z" transform="translate(-52 -281.625)"/><g class="r" transform="translate(123.32 71.195)"><path class="d" d="M236.98,352.82v14.992l-61.66,35.6V388.417Z" transform="translate(-175.32 -352.82)"/></g><path class="b" d="M175.32,389.1l19.467-10.838L175.32,390Z" transform="translate(-52 -278.959)"/><path class="b" d="M231.746,359.27l-6.5,4.121,6.5-3.37Z" transform="translate(-46.766 -280.949)"/><path class="b" d="M234.209,362.5,201.76,381.79,234.209,363.6Z" transform="translate(-49.228 -280.611)"/><path class="b" d="M175.32,393.022l32.449-18.152L175.32,394.193Z" transform="translate(-52 -279.314)"/><path class="b" d="M187.02,406.787,63.7,335.592V320.6l123.32,71.195Z" transform="translate(-63.7 -285.003)"/><g class="p" transform="translate(0 35.597)"><path d="M187.02,406.787,63.7,335.592V320.6l123.32,71.195Z" transform="translate(-63.7 -320.6)"/></g><g class="s" transform="translate(116.824 106.792)"><path d="M175.936,388.388l-6.5-3.348,6.5,4.254Z" transform="translate(-169.44 -385.04)"/></g><g class="s" transform="translate(90.684 95.468)"><path d="M178.416,393.031,145.78,374.79,178.416,394.2Z" transform="translate(-145.78 -374.79)"/></g><g class="s" transform="translate(0 42.657)"><path d="M63.7,326.99l22.715,13.556L63.7,327.874Z" transform="translate(-63.7 -326.99)"/></g><g class="s" transform="translate(0 46.425)"><path d="M63.7,330.4l12.982,7.911L63.7,331.24Z" transform="translate(-63.7 -330.4)"/></g><path class="l" d="M192.94,325.026l-63.8,36.846L109.67,350.636l63.8-36.846Z" transform="translate(-58.881 -285.717)"/><path class="f" d="M109.67,347.14v16.307l19.467,11.236V358.376Z" transform="translate(-58.881 -282.221)"/><path class="e" d="M127.29,372.195l1.138-.652-1.138-.663Z" transform="translate(-57.034 -279.732)"/><path class="e" d="M185.244,323.96v2.5l-2.154-1.248Z" transform="translate(-51.185 -284.651)"/><g class="s" transform="translate(70.256 76.155)"><path d="M128.428,372.954V357.973l-1.138-.663V372.3Z" transform="translate(-127.29 -357.31)"/></g><g class="t" transform="translate(70.256 40.558)"><path d="M128.428,361.35l61.66-35.6-1.149-.663-61.649,35.6Z" transform="translate(-127.29 -325.09)"/></g><path class="m" d="M189.359,322.959l-63.826,36.835-1.613-.928,63.8-36.846Z" transform="translate(-57.388 -284.854)"/><path class="m" d="M177.007,315.839l-63.814,36.835-1.613-.939,63.8-36.835Z" transform="translate(-58.681 -285.6)"/><path class="h" d="M125.533,356.3v16.318l-1.613-.939V355.37Z" transform="translate(-57.388 -281.358)"/><path class="h" d="M113.194,349.179v16.307l-1.624-.939.011-16.307Z" transform="translate(-58.682 -282.105)"/></g></svg>