<svg xmlns="http://www.w3.org/2000/svg" width="588.669" height="588.256" viewBox="0 0 588.669 588.256"><defs><style>.a{fill:#dfedbf;}.b,.g,.j{fill:#94c529;}.c,.h,.k{fill:#fff;}.c{opacity:0.7;isolation:isolate;}.d,.l{fill:#2e353a;}.d,.e,.f,.g,.h,.i,.j,.k{stroke:#2e353a;}.d,.e,.f,.g,.h,.i,.j,.k,.l{stroke-linecap:round;stroke-linejoin:round;}.e,.f,.i{fill:none;}.e{stroke-width:3px;}.f,.g,.h{stroke-width:2px;}.l{stroke:#fff;}</style></defs><g transform="translate(-1148.351 -281.744)"><ellipse class="a" cx="277" cy="110" rx="277" ry="110" transform="translate(1166 650)"/><g transform="translate(1108.611 229.06)"><g transform="translate(45.337 126.679)"><path class="b" d="M594.484,545.768H73.466S56.922,517.892,45.449,461.86s43.2-35.581,57.181-83.881S55.619,339.863,60.7,273.773s88.952-67.351,129.617-58.456,35.581-21.6,82.648-72.436,118.187-45.751,153.767-6.346,24.136,80.056,68.64,80.056,85.183,8.937,111.8,94.079-22.091,124.056-21.208,162.494A421.1,421.1,0,0,0,594.484,545.768Z" transform="translate(-43.879 -105.866)"/><path class="c" d="M594.484,545.768H73.466S56.922,517.892,45.449,461.86s43.2-35.581,57.181-83.881S55.619,339.863,60.7,273.773s88.952-67.351,129.617-58.456,35.581-21.6,82.648-72.436,118.187-45.751,153.767-6.346,24.136,80.056,68.64,80.056,85.183,8.937,111.8,94.079-22.091,124.056-21.208,162.494A421.1,421.1,0,0,0,594.484,545.768Z" transform="translate(-43.879 -105.866)"/></g><g transform="translate(116.766 53.94)"><path class="d" d="M263.724,449.471c-12.761-19.429-67.239-101.125-83.18-103.31-15.535-2.129-70.741,80.477-85.674,103.31Z" transform="translate(-94.87 63.17)"/><line class="e" y2="188.395" transform="translate(238.712 35.286)"/><line class="e" y2="183.338" transform="translate(261.097 40.343)"/><line class="e" y2="177.581" transform="translate(285.64 140.67)"/><line class="e" y2="277.907" transform="translate(311.625 40.343)"/><line class="e" y2="188.395" transform="translate(337.61 40.343)"/><line class="e" x2="119.111" transform="translate(219.227 60.543)"/><line class="e" x2="129.169" transform="translate(219.227 102.413)"/><line class="e" x2="143.639" transform="translate(217.07 140.67)"/><line class="e" x2="145.811" transform="translate(214.899 183.268)"/><line class="e" x2="110.44" transform="translate(242.326 229.453)"/><line class="e" x2="72.184" transform="translate(271.197 274.209)"/><line class="f" x2="25.481" y2="19.948" transform="translate(81.163 53.175)"/><line class="f" x2="8.867" y2="13.294" transform="translate(132.125 32.135)"/><line class="f" x2="7.761" y2="24.374" transform="translate(177.553)"/><path class="g" d="M393.423,356.765H351.4v-99.92H294.386V79.88A140.081,140.081,0,0,0,171.927,285.421c4.567,10.632,15.3,36.673,26.041,70.349,9.932,31.084,15.115,62.336,15.115,67.057v1.4a10.476,10.476,0,0,0,10.107,10.835c.119,0,.238.007.357.007H368.18a10.491,10.491,0,0,0,10.47-10.515c0-.109,0-.218-.006-.328v-1.4C378.616,418.162,383.7,387.512,393.423,356.765Z" transform="translate(-70.494 -43.543)"/><path class="f" d="M220.81,97.359a112.327,112.327,0,0,1,12.453-4.749" transform="translate(-44.392 -38.441)"/><path class="f" d="M187.51,130.058s11.417-18.211,36.505-30.468" transform="translate(-57.739 -35.643)"/><path class="f" d="M189.65,265.26c5.2,16.978,12.075,40.5,14.456,53.637,4.034,22.161,1.4,33.62,10.086,35.595" transform="translate(-56.881 30.76)"/><path class="f" d="M185.11,250.8s1.4,4.553,3.656,11.529" transform="translate(-58.701 24.964)"/><path class="f" d="M256.656,380.808V246.89s5.6-35.02-12.607-35.02-16.81,18.211,4.2,37.822,53.231,1.4,57.433-14.008-7-22.413-14.008-9.806,0,155.49,0,155.49" transform="translate(-40.161 9.36)"/><rect class="h" width="151.162" height="35.076" transform="translate(150.181 390.715)"/><rect class="h" width="151.162" height="35.076" transform="translate(150.181 434.14)"/><rect class="d" width="151.162" height="8.349" transform="translate(150.181 425.791)"/><rect class="h" width="151.162" height="35.076" transform="translate(150.181 477.565)"/><line class="i" x2="11.234" transform="translate(285.528 421.098)"/><line class="i" x2="124" transform="translate(156.121 421.098)"/><line class="i" x2="36.211" transform="translate(256.391 465.21)"/><line class="i" x2="73.669" transform="translate(178.562 465.21)"/><line class="i" x2="6.234" transform="translate(166.501 465.21)"/><rect class="d" width="151.162" height="8.349" transform="translate(150.181 469.216)"/><rect class="j" width="51.746" height="26.938" transform="translate(169.862 485.255)"/><rect class="j" width="51.746" height="26.938" transform="translate(237.2 485.255)"/></g><g transform="translate(40.24 520.336)"><path class="d" d="M371.89,433.132c-9.918-8.7-52.264-45.274-64.591-46.227-12.075-.967-54.94,36.029-66.539,46.227Z" transform="translate(40.131 -386.887)"/><line class="i" x2="12.159" transform="translate(575.51 46.245)"/><line class="i" x2="544.44" transform="translate(18.911 46.245)"/><line class="i" x2="9.455" transform="translate(0 46.245)"/></g><g transform="translate(64.236 128.085)"><path class="d" d="M444.011,362.83H407.66v50.99h51.424V388.325Z" transform="translate(83.03 -4.278)"/><rect class="k" width="16.656" height="11.585" transform="translate(525.459 409.541)"/><path class="j" d="M413.22,421.065s18.211-9.806,11.907-58.834l-23.113-12.607-39.923-6.3-35.721,1.4v20.312s20.312,17.51,22.413,23.113a38.82,38.82,0,0,1,2.1,11.907v19.611Z" transform="translate(50.448 -12.098)"/><line class="i" x1="11.907" y2="58.834" transform="translate(463.669 350.133)"/><line class="i" x1="13.308" y2="71.441" transform="translate(439.155 337.526)"/><line class="i" x1="9.806" y2="53.231" transform="translate(402.734 331.222)"/><path class="i" d="M327.37,356.82s23.113,9.806,32.219,16.109,7.7,19.611,7.7,19.611" transform="translate(50.849 -6.687)"/><rect class="k" width="108.605" height="9.105" transform="translate(382.408 409.906)"/><path class="k" d="M423.37,388.832h22.679L433.876,367.82H423.37Z" transform="translate(89.327 -2.278)"/><rect class="k" width="9.806" height="21.012" transform="translate(499.39 365.542)"/><rect class="k" width="66.118" height="15.787" transform="translate(382.982 409.541)"/><circle class="d" cx="13.91" cy="13.91" r="13.91" transform="translate(495.353 410.642)"/><circle class="k" cx="8.111" cy="8.111" r="8.111" transform="translate(501.127 416.489)"/><circle class="d" cx="13.91" cy="13.91" r="13.91" transform="translate(388.193 410.663)"/><circle class="k" cx="8.111" cy="8.111" r="8.111" transform="translate(393.964 416.489)"/><circle class="d" cx="13.91" cy="13.91" r="13.91" transform="translate(421.75 410.63)"/><circle class="k" cx="8.111" cy="8.111" r="8.111" transform="translate(427.542 416.489)"/><rect class="d" width="44.126" height="23.814" rx="3.25" transform="translate(391.527 385.153)"/><path class="i" d="M324.37,418.64V349.37h14.008v69.27" transform="translate(49.647 -9.673)"/><line class="i" x2="13.756" transform="translate(374.115 348.872)"/><line class="i" x2="13.756" transform="translate(374.115 359.687)"/><line class="i" x2="13.756" transform="translate(374.115 370.501)"/><line class="i" x2="13.756" transform="translate(374.115 381.329)"/><line class="i" x2="13.756" transform="translate(374.115 392.143)"/><line class="i" x2="13.756" transform="translate(374.115 402.958)"/><path class="i" d="M131.575,546.725H106.36V106.87l25.215,29.319Z" transform="translate(-37.734 -106.87)"/><path class="i" d="M106.54,361.712h24.724L106.54,337.8h24.724Z" transform="translate(-37.662 -14.31)"/><path class="i" d="M106.54,344.212h24.724L106.54,320.3h24.724Z" transform="translate(-37.662 -21.325)"/><path class="i" d="M106.54,326.712h24.724L106.54,302.8h24.724Z" transform="translate(-37.662 -28.339)"/><path class="i" d="M106.54,309.212h24.724L106.54,285.3h24.724Z" transform="translate(-37.662 -35.353)"/><path class="i" d="M106.54,291.712h24.724L106.54,267.8h24.724Z" transform="translate(-37.662 -42.367)"/><path class="i" d="M106.54,274.212h24.724L106.54,250.3h24.724Z" transform="translate(-37.662 -49.381)"/><path class="i" d="M106.54,256.712h24.724L106.54,232.8h24.724Z" transform="translate(-37.662 -56.396)"/><path class="i" d="M106.54,239.212h24.724L106.54,215.3h24.724Z" transform="translate(-37.662 -63.41)"/><path class="i" d="M106.54,221.712h24.724L106.54,197.8h24.724Z" transform="translate(-37.662 -70.424)"/><path class="i" d="M106.54,204.212h24.724L106.54,180.3h24.724Z" transform="translate(-37.662 -77.438)"/><path class="i" d="M106.54,186.712h24.724L106.54,162.8h24.724Z" transform="translate(-37.662 -84.453)"/><path class="i" d="M106.54,169.212h24.724L106.54,145.3h24.724Z" transform="translate(-37.662 -91.467)"/><path class="i" d="M106.54,151.712h24.724L106.54,127.8h24.724Z" transform="translate(-37.662 -98.481)"/><path class="i" d="M239.414,147.54,227.2,139.85H140.026l-10.646,7.69Z" transform="translate(-28.508 -93.651)"/><rect class="d" width="212.923" height="5.603" transform="translate(0 53.231)"/><path class="i" d="M236.425,153.069,106.36,106.87l42.893,46.2" transform="translate(-37.734 -106.87)"/><line class="i" x1="68.64" y2="53.231"/><rect class="d" width="52.53" height="33.619" transform="translate(59.535 65.138)"/><rect class="k" width="30.636" height="9.806" transform="translate(70.475 72.142)"/><line class="i" y2="60.403" transform="translate(212.923 58.834)"/><rect class="d" width="15.563" height="17.636" transform="translate(205.345 139.871)"/><path class="i" d="M203.96,212.953l7.789-21.783,7.789,21.783" transform="translate(1.385 -73.082)"/><path class="j" d="M179.687,361.476l33.62,53.147,8.4-6.15L196.973,359A13.38,13.38,0,0,0,185,351.6h0a6.429,6.429,0,0,0-5.309,9.876Z" transform="translate(-8.746 -8.779)"/><path class="l" d="M217.186,387.26l-34.586,24.6s3.082,13.056,23.057,12.285,19.219-21.516,19.219-21.516Z" transform="translate(-7.176 5.514)"/><path class="j" d="M138.71,384.066l62.644-28.226a9.919,9.919,0,0,1,12.047,3.152h0a9.9,9.9,0,0,1-2.079,13.851c-.071.053-.144.105-.219.157l-68.542,47.978Z" transform="translate(-24.768 -7.43)"/><rect class="k" width="64.563" height="9.988" transform="translate(40.161 411.222)"/><rect class="d" width="56.103" height="23.057" transform="translate(17.104 382.786)"/><path class="j" d="M105.626,361.47h47.628a4.2,4.2,0,0,1,4.2,4.2v44.966H101.41V365.672a4.2,4.2,0,0,1,4.2-4.2Z" transform="translate(-39.718 -4.823)"/><path class="d" d="M72.3,426.165h91.851a10.941,10.941,0,0,0,10.94-10.94h0a10.955,10.955,0,0,0-10.94-10.954H72.3a10.955,10.955,0,0,0-10.94,10.954h0A10.941,10.941,0,0,0,72.3,426.165Z" transform="translate(-55.771 12.332)"/><path class="k" d="M82.184,426.165h91.837a10.955,10.955,0,0,0,10.954-10.94h0a10.954,10.954,0,0,0-10.954-10.954H82.184A10.954,10.954,0,0,0,71.23,415.224h0A10.955,10.955,0,0,0,82.184,426.165Z" transform="translate(-51.815 12.332)"/><rect class="k" width="100.676" height="7.69" transform="translate(17.104 405.843)"/><path class="d" d="M88.36,414.07a6.92,6.92,0,1,1-6.92-6.92,6.921,6.921,0,0,1,6.92,6.92Z" transform="translate(-50.496 13.486)"/><circle class="d" cx="6.92" cy="6.92" r="6.92" transform="translate(42.473 420.636)"/><circle class="d" cx="6.92" cy="6.92" r="6.92" transform="translate(60.907 420.636)"/><path class="d" d="M127.86,414.07a6.92,6.92,0,1,1-6.92-6.92,6.921,6.921,0,0,1,6.92,6.92Z" transform="translate(-34.664 13.486)"/><path class="d" d="M141.03,414.07a6.92,6.92,0,1,1-6.92-6.92,6.921,6.921,0,0,1,6.92,6.92Z" transform="translate(-29.385 13.486)"/><path class="d" d="M154.19,414.07a6.92,6.92,0,1,1-6.92-6.92h.014a6.906,6.906,0,0,1,6.906,6.906Z" transform="translate(-24.111 13.486)"/><path class="d" d="M190.844,362.572a3.852,3.852,0,1,0-3.852,3.852h.014a3.839,3.839,0,0,0,3.838-3.838Z" transform="translate(-6.96 -5.925)"/><rect class="k" width="40.736" height="24.598" transform="translate(68.598 362.796)"/><rect class="k" width="22.287" height="24.598" transform="translate(87.046 362.796)"/></g></g></g></svg>