<svg xmlns="http://www.w3.org/2000/svg" width="201.539" height="201.539" viewBox="0 0 201.539 201.539"><defs><style>.a,.b,.c{fill-rule:evenodd;}.b{fill:#94c628;}.c{fill:#fff;}.d,.e{fill:#102a40;font-size:9px;font-family:Raleway-Bold, Raleway;font-weight:700;}.d{letter-spacing:0.005em;}.e{letter-spacing:-0.005em;}</style></defs><g transform="translate(0 0)"><g transform="translate(0 0)"><path class="a" d="M174.908-86.352H194.23A100.583,100.583,0,0,0,169.6-152.41a3.35,3.35,0,0,1,.988-2.264c1.364-1.37,3.842-.481,6.037-2.682a5.931,5.931,0,0,0,0-8.393,5.875,5.875,0,0,0-8.357,0c-2.418,2.428-.984,4.406-2.668,6.066a3.078,3.078,0,0,1-1.972.957A99.687,99.687,0,0,0,94-187v17.263a3.269,3.269,0,0,0,2.223.862c2.353,0,2.733-2.391,6.167-2.391a5.929,5.929,0,0,1,5.912,5.934,5.953,5.953,0,0,1-5.912,5.934c-3.114,0-4.227-2.428-6.167-2.428a3.454,3.454,0,0,0-2.223.862v17.84a56.633,56.633,0,0,1,56.533,56.771h16.654a3.209,3.209,0,0,1,.348,1.465c0,1.946-2.38,3.062-2.38,6.193a5.931,5.931,0,0,0,5.907,5.934,5.932,5.932,0,0,0,5.912-5.934c0-3.448-2.413-3.829-2.413-6.193A3.209,3.209,0,0,1,174.908-86.352Z" transform="translate(7.308 187)"/><path class="b" d="M171.492-25.336a3.441,3.441,0,0,1-.993-2.153A101.222,101.222,0,0,0,195.319-94H175.848a3.25,3.25,0,0,0-.352,1.477c0,2.378,2.435,2.763,2.435,6.233a5.975,5.975,0,0,1-5.958,5.975,5.97,5.97,0,0,1-5.953-5.975c0-3.147,2.4-4.273,2.4-6.233A3.249,3.249,0,0,0,168.064-94h-16.78A57.043,57.043,0,0,1,94.313-36.841v16.678a3.326,3.326,0,0,1-2.146.769c-2.37,0-2.75-2.444-6.209-2.444A6,6,0,0,0,80-15.857a5.977,5.977,0,0,0,5.958,5.975c3.139,0,4.255-2.411,6.209-2.411a3.3,3.3,0,0,1,2.146.774V7.308a100.509,100.509,0,0,0,70.3-28.563,3.314,3.314,0,0,1,1.858.929c1.692,1.707.251,3.663,2.685,6.107a5.924,5.924,0,0,0,8.425,0,5.968,5.968,0,0,0,0-8.452C175.368-24.885,172.869-23.99,171.492-25.336Z" transform="translate(6.22 194.23)"/><path class="a" d="M92.927-20.615c3.466,0,3.851,2.422,6.229,2.422a3.352,3.352,0,0,0,2.153-.767V-35.472h0c-31.574,0-57.141-25.323-57.141-56.592H27.015a3.355,3.355,0,0,1-.549-1.846c0-2.354,2.411-2.74,2.411-6.172A5.936,5.936,0,0,0,22.9-106a5.936,5.936,0,0,0-5.975,5.918c0,3.115,2.411,4.231,2.411,6.172a3.355,3.355,0,0,1-.549,1.846H0A99.363,99.363,0,0,0,25.341-25.7a3.566,3.566,0,0,1-.9,1.624c-1.384,1.333-3.888.444-6.107,2.639a5.863,5.863,0,0,0,0,8.367,6,6,0,0,0,8.452,0c2.439-2.417.994-4.358,2.664-6.045a3.185,3.185,0,0,1,1.445-.825A101.384,101.384,0,0,0,101.308,8.241V-10.4a3.348,3.348,0,0,0-2.153-.762c-1.961,0-3.081,2.385-6.229,2.385A5.954,5.954,0,0,1,86.951-14.7,5.978,5.978,0,0,1,92.927-20.615Z" transform="translate(0 193.297)"/><path class="b" d="M100.92-143.3h0V-161.07a3.512,3.512,0,0,1,2.242-.858c1.949,0,3.07,2.418,6.2,2.418a5.959,5.959,0,0,0,5.953-5.912,5.941,5.941,0,0,0-5.953-5.912c-3.454,0-3.839,2.385-6.2,2.385a3.344,3.344,0,0,1-2.242-.858V-187a100.951,100.951,0,0,0-70.04,28.092,3.6,3.6,0,0,1-1.538-.891c-1.666-1.652-.224-3.619-2.659-6.037a5.956,5.956,0,0,0-8.414,0,5.864,5.864,0,0,0,0,8.357c2.21,2.195,4.7,1.3,6.081,2.668a3.371,3.371,0,0,1,.929,1.717A99.514,99.514,0,0,0,0-86.77H18.718a3.352,3.352,0,0,0,.545-1.842c0-1.94-2.4-3.053-2.4-6.167a5.924,5.924,0,0,1,5.953-5.912,5.921,5.921,0,0,1,5.953,5.912c0,3.434-2.4,3.814-2.4,6.167a3.348,3.348,0,0,0,.539,1.842H44A56.71,56.71,0,0,1,100.92-143.3Z" transform="translate(0 187)"/><path class="c" d="M144.412-48a4.513,4.513,0,0,0-3.09,1.33l-14.508,15.2L125-23.212l7.925-1.89,14.508-15.2a4.548,4.548,0,0,0,1.277-3.151,4.441,4.441,0,0,0-4.3-4.551M131.986-26.153l-3.762.911v-1.4h-1.276l.873-3.921h4.165Zm1.075-.77v-4.2a.542.542,0,0,0-.538-.56h-4.03L140.113-43.8l4.568,4.761ZM146.7-41.067l-1.209,1.26-4.635-4.761,1.276-1.26a3.2,3.2,0,0,1,2.284-1.051,3.358,3.358,0,0,1,3.224,3.431,3.408,3.408,0,0,1-.941,2.381" transform="translate(9.718 197.807)"/><path class="c" d="M33.172-137.014l.6-.537a.512.512,0,0,0,.135-.336.53.53,0,0,0-.538-.538.492.492,0,0,0-.4.135l-.537.537a.564.564,0,0,0-.135.4.53.53,0,0,0,.538.538.37.37,0,0,0,.336-.2m3.425-.336a.529.529,0,0,0-.537-.537.493.493,0,0,0-.4.134l-5.374,5.373a.961.961,0,0,0-.134.4.53.53,0,0,0,.538.538.517.517,0,0,0,.336-.134l5.44-5.441a.512.512,0,0,0,.134-.336m0,2.149a.947.947,0,0,0-.4.135l-1.611,1.611a.949.949,0,0,0-.135.4.53.53,0,0,0,.538.538.58.58,0,0,0,.4-.2L37-134.327a.51.51,0,0,0,.135-.336.53.53,0,0,0-.538-.538M51.71-152.462a.53.53,0,0,0-.538-.538.4.4,0,0,0-.268.067h0L28.269-143.26h0a.448.448,0,0,0-.269.47.53.53,0,0,0,.336.537h0l8.933,3.695,3.695,8.866h0a.489.489,0,0,0,.47.4.5.5,0,0,0,.47-.336h.067l9.673-22.636h0c0-.067.067-.134.067-.2M29.88-142.79l18.942-8.06L37.538-139.633Zm11.553,11.552-3.157-7.656,11.284-11.217Z" transform="translate(2.177 189.643)"/><path class="c" d="M43.43-52.627a6.664,6.664,0,0,0-6.812,6.448,6.676,6.676,0,0,0,6.812,6.516,6.613,6.613,0,0,0,6.741-6.516,6.6,6.6,0,0,0-6.741-6.448m0,1.075A5.8,5.8,0,0,1,48.064-49.2l-3.019,1.544a2.337,2.337,0,0,0-1.615-.672,2.213,2.213,0,0,0-1.616.672L38.794-49.2a5.7,5.7,0,0,1,4.635-2.351M42.867-40.8a5.44,5.44,0,0,1-5.056-5.374,5.024,5.024,0,0,1,.422-2.081l3.019,1.544a1.6,1.6,0,0,0-.07.537A2.118,2.118,0,0,0,42.867-44.1Zm-.561-5.374a1.13,1.13,0,0,1,1.123-1.075,1.131,1.131,0,0,1,1.123,1.075A1.086,1.086,0,0,1,43.43-45.1a1.085,1.085,0,0,1-1.123-1.075m6.741,0A5.494,5.494,0,0,1,43.991-40.8V-44.1a2.119,2.119,0,0,0,1.686-2.082c0-.134-.071-.336-.071-.537l3.02-1.544a5.042,5.042,0,0,1,.421,2.081m5.969-2.35L53.822-48.8A10.1,10.1,0,0,0,52.7-51.283l.631-1.008c.211-.4.351-.806,0-1.142l-2.317-2.216a.773.773,0,0,0-.491-.2,1.391,1.391,0,0,0-.7.2l-1.053.6a8.644,8.644,0,0,0-2.6-1.007l-.281-1.143c-.14-.4-.351-.806-.842-.806h-3.3a.879.879,0,0,0-.772.806l-.351,1.143a9.426,9.426,0,0,0-2.6,1.007l-1.053-.6a1.161,1.161,0,0,0-.632-.2.649.649,0,0,0-.491.2l-2.387,2.216c-.281.336-.141.739,0,1.142l.631,1.008A9.888,9.888,0,0,0,33.037-48.8l-1.195.269c-.421.134-.842.336-.842.806v3.157c0,.4.421.672.842.806l1.195.269a11.049,11.049,0,0,0,1.052,2.485L33.458-40a.975.975,0,0,0,0,1.142l2.387,2.216a.649.649,0,0,0,.491.2,2.265,2.265,0,0,0,.632-.2l1.053-.6a12.155,12.155,0,0,0,2.6,1.007l.351,1.143a.879.879,0,0,0,.772.806h3.3c.491,0,.7-.4.842-.806l.281-1.143a10.874,10.874,0,0,0,2.6-1.007l1.053.6a2.72,2.72,0,0,0,.7.2.649.649,0,0,0,.491-.2l2.317-2.216a.878.878,0,0,0,0-1.142L52.7-41.006a11.366,11.366,0,0,0,1.124-2.485l1.193-.269c.351-.134.772-.4.772-.806v-3.157c0-.47-.421-.672-.772-.806m-.351,3.694h0l-1.124.269a1.238,1.238,0,0,0-.842.806,10.268,10.268,0,0,1-.984,2.217,1,1,0,0,0,.07,1.075l.562,1.007-1.967,1.881h0l-.982-.6a2.138,2.138,0,0,0-.632-.134.873.873,0,0,0-.561.134,11.8,11.8,0,0,1-2.318.941,1.052,1.052,0,0,0-.772.739l-.281,1.142H42.025l-.281-1.142a1.152,1.152,0,0,0-.842-.739,16.89,16.89,0,0,1-2.318-.941.782.782,0,0,0-.561-.134,2.271,2.271,0,0,0-.562.134l-1.052.6h0L34.44-39.462l.632-1.007a.991.991,0,0,0,0-1.075,15.4,15.4,0,0,1-.983-2.217,1.026,1.026,0,0,0-.772-.806l-1.194-.269h0v-2.619l1.194-.336a.875.875,0,0,0,.772-.739,10.764,10.764,0,0,1,.983-2.217.991.991,0,0,0,0-1.075l-.632-1.007h0l1.967-1.881,1.052.6a2.271,2.271,0,0,0,.562.134,1.368,1.368,0,0,0,.561-.134,11.263,11.263,0,0,1,2.318-.941,1.152,1.152,0,0,0,.842-.739l.281-1.142h2.808l.281,1.142a1.052,1.052,0,0,0,.772.739A8.764,8.764,0,0,1,48.2-54.1a1.708,1.708,0,0,0,.561.134A2.138,2.138,0,0,0,49.4-54.1l.982-.6,1.967,1.881h0l-.562,1.007a1,1,0,0,0-.07,1.075,7.994,7.994,0,0,1,.984,2.217,1.038,1.038,0,0,0,.842.739l1.124.336Z" transform="translate(2.41 197.029)"/><path class="c" d="M135.668-138.5a2.867,2.867,0,0,0,2.107-2.887,3.665,3.665,0,0,0-.913-2.752v-.067h0c-.07-.067-.14-.336,0-.939a.883.883,0,0,0-.07-.739,2.964,2.964,0,0,1-.351-2.08c.492-1.142.7-1.209,1.265-1.477.07,0,.14,0,.14-.066a3.568,3.568,0,0,1,1.335-.269,2.163,2.163,0,0,1,.7.134,1.527,1.527,0,0,1,.14-.537,3.076,3.076,0,0,1,.211-.47,2.921,2.921,0,0,0-1.053-.2,3.769,3.769,0,0,0-1.9.47c-.914.336-1.335.738-1.9,2.014a3.652,3.652,0,0,0,.422,2.954c-.351,1.342.14,1.812.14,1.812a3.371,3.371,0,0,1,.7,2.215,1.771,1.771,0,0,1-1.265,1.88A3.1,3.1,0,0,0,133-136.286a.534.534,0,0,0,.562.537h2.457a3.962,3.962,0,0,1,.562-1.074h-2.458a2.071,2.071,0,0,1,1.545-1.678m19.733-1.007a1.771,1.771,0,0,1-1.265-1.88,3.017,3.017,0,0,1,.7-2.215s.491-.471.07-1.812a3.4,3.4,0,0,0,.421-2.954c-.561-1.275-.982-1.678-1.826-2.014a4.262,4.262,0,0,0-1.9-.47,3.7,3.7,0,0,0-1.194.2,6.414,6.414,0,0,1,.351,1.074.067.067,0,0,0,.07-.067,2.252,2.252,0,0,1,.772-.134,3.471,3.471,0,0,1,1.265.269c.07.066.07.066.14.066.562.269.772.336,1.265,1.477a2.963,2.963,0,0,1-.351,2.08,1.275,1.275,0,0,0-.071.739,2.422,2.422,0,0,1,.071.939h0l-.071.067a4.071,4.071,0,0,0-.842,2.752,2.823,2.823,0,0,0,2.037,2.887,1.984,1.984,0,0,1,1.545,1.678h-2.458a3.963,3.963,0,0,1,.562,1.074h2.527a.534.534,0,0,0,.562-.537,3.16,3.16,0,0,0-2.387-3.221m-5.547,1.141a2.642,2.642,0,0,1-2.037-2.483,3.736,3.736,0,0,1,1.194-2.819s.632-.537.211-2.282a4.485,4.485,0,0,0,.07-4.565,3.981,3.981,0,0,0-1.615-2.147,3.327,3.327,0,0,0-1.616-.336,5.048,5.048,0,0,0-2.387.6,3.959,3.959,0,0,0-2.6,2.618c-.562,1.409.14,2.953.491,3.759-.421,1.745.211,2.35.211,2.35a4.051,4.051,0,0,1,1.123,2.819,2.642,2.642,0,0,1-2.037,2.483c-1.264.471-3.932,1.343-3.932,4.229a.534.534,0,0,0,.561.537h15.8a.534.534,0,0,0,.561-.537c0-2.887-2.738-3.759-4-4.229m-11.8,3.692c.28-1.544,1.685-2.148,3.089-2.618h.07a3.77,3.77,0,0,0,2.809-3.558,4.683,4.683,0,0,0-1.193-3.289.511.511,0,0,1-.211-.2,2.437,2.437,0,0,1,.07-1.477.983.983,0,0,0-.07-.671,3.641,3.641,0,0,1-.491-2.887,3.1,3.1,0,0,1,2.036-2.081c.07,0,.07-.067.141-.067a3.794,3.794,0,0,1,1.755-.4,2.448,2.448,0,0,1,1.053.2c.351.2.632.537,1.123,1.679.914,1.946.351,3.02.07,3.423a1.035,1.035,0,0,0-.21.873,3.226,3.226,0,0,1,.07,1.41l-.211.2a4.653,4.653,0,0,0-1.263,3.289,3.77,3.77,0,0,0,2.809,3.558h.07c1.4.47,2.808,1.074,3.089,2.618Z" transform="translate(10.34 189.643)"/><g transform="translate(66.1 91.453)"><text class="d" transform="translate(0 8)"><tspan x="0" y="0">Venture Builder </tspan></text></g><g transform="translate(101.155 108.138)"><text class="e" transform="translate(-13 5)"><tspan x="0" y="0">Cycle</tspan></text></g></g></g></svg>