<svg xmlns="http://www.w3.org/2000/svg" width="1179.123" height="805.921" viewBox="0 0 1179.123 805.921"><defs><style>.a{opacity:0.069;}.b{fill:#94c529;}</style></defs><g class="a"><path class="b" d="M546.217,615.893,528.6,604.183q54.921-89.667,114.506-136.5,59.542-46.829,123.329-36.283a290.563,290.563,0,0,1,48.217,12.872q26.318,9.257,45.36,12.4,31.393,5.194,26.364,35.646a121.971,121.971,0,0,1-25,56.475A125.338,125.338,0,0,1,813.6,586.356a100.368,100.368,0,0,1-58.428,7.431q-20.944-3.471-43.865-15.575t-44.806-15.726q-35.2-5.83-61.512,8.388T546.217,615.893Z" transform="translate(-528.6 83.29)"/><path class="b" d="M592.009,618.7q-33.3-5.517-28.431-35.019a121.2,121.2,0,0,1,25.078-56.952,130.837,130.837,0,0,1,47.773-37.553,98.236,98.236,0,0,1,58.506-7.906,92.511,92.511,0,0,0,53.425-6.8q25.816-11.355,58.616-49.939l18.881,9.978a558.263,558.263,0,0,1-37.67,65.13,411.608,411.608,0,0,1-52.648,64.121q-29.878,29.767-65.761,45.814Q633.874,625.639,592.009,618.7Z" transform="translate(-363.68 59.641)"/><path class="b" d="M598.231,863.611l1.552-21.254q25.856-8.433,59.766-21.388,33.911-12.974,69.894-29.5t66.728-33.922q30.757-17.385,51.185-34.538t22.952-32.374q3.629-21.892-19.959-62.462-23.607-40.573-90.4-85.851,5.828-11.72,19.473-31.968,13.59-20.221,30.156-43.4,16.535-23.155,32.066-43.088,15.5-19.908,25.964-29.92l10.477,1.735q23.936,20.6,43.969,50.3,20.032,29.714,29.9,67.521t2.3,83.484q-5.83,35.221-21.955,73.605a408.129,408.129,0,0,1-39.968,73.059q-23.841,34.683-50.918,59.521t-54.991,33.911Q732.837,853.624,598.231,863.611Z" transform="translate(-194.316 -87.18)"/><path class="b" d="M766.3,1145.432q-112.3-18.594-77.146-230.8,12.922-78.013,28.065-148.846t29.121-128.631q13.972-57.818,24.865-97.069,10.9-39.267,15.165-53.222a421.766,421.766,0,0,1,28.62-72.5q17.409-34.266,41.48-73.3l18.23,7.911Q849.9,422.1,826.531,524.8T781.115,760.723q-6.306,38.076-10.462,77.949a399.79,399.79,0,0,0-1.2,75.084q2.985,35.215,18.537,59.285,15.569,24.091,49.828,29.762,41.878,6.936,32.9,61.169-6.142,37.117-24.374,55.605-18.213,18.5-40.1,23.672T766.3,1145.432Z" transform="translate(201.981 -341.064)"/><path class="b" d="M723.306,655.754q-40.918-6.776-31.952-61.012,5.83-35.2,23.579-53.784,17.724-18.567,39.77-24.7,22.023-6.116,40.124-3.132,27.594,4.568,57.3-9.583,29.726-14.14,62.83-60.478l19.188,8.074q-42.864,111.2-97.354,162.786Q782.278,665.541,723.306,655.754Z" transform="translate(244.98 148.613)"/></g></svg>