<svg xmlns="http://www.w3.org/2000/svg" width="464.78" height="441.809" viewBox="0 0 464.78 441.809"><defs><style>.a,.e,.f,.g{fill:#94c529;}.b,.d{fill:#fff;}.b{opacity:0.9;}.b,.e,.f,.g,.i{isolation:isolate;}.c{fill:#f5f5f5;}.e,.i{opacity:0.2;}.f{opacity:0.5;}.g{opacity:0.4;}.h{fill:#263238;}.j{fill:#ffc3bd;}.k{fill:#ed847e;}</style></defs><g transform="translate(-56.11 -58.945)"><g transform="translate(61.491 58.945)"><path class="a" d="M386.358,195.12c43.76,17.151,96.113,41.339,80.891,106.672-12.357,52.953-75.51,73.772-118.826,72.381-49.824-1.594-75.1-47.427-118.994-67.12-44.718-20.028-88.838,32.505-130.9,10.176C57.64,295.524,54.6,220.458,67.1,179.395c15.318-50.34,58.262-81.263,98.846-101.411C209.2,56.518,259.9,46.294,300.948,85.248,338.979,121.336,334.484,174.768,386.358,195.12Z" transform="translate(-60.599 -58.945)"/><path class="b" d="M386.358,195.12c43.76,17.151,96.113,41.339,80.891,106.672-12.357,52.953-75.51,73.772-118.826,72.381-49.824-1.594-75.1-47.427-118.994-67.12-44.718-20.028-88.838,32.505-130.9,10.176C57.64,295.524,54.6,220.458,67.1,179.395c15.318-50.34,58.262-81.263,98.846-101.411C209.2,56.518,259.9,46.294,300.948,85.248,338.979,121.336,334.484,174.768,386.358,195.12Z" transform="translate(-60.599 -58.945)"/></g><g transform="translate(56.11 473.619)"><ellipse class="c" cx="232.39" cy="13.568" rx="232.39" ry="13.568"/></g><g transform="translate(143.294 100.721)"><path class="d" d="M142.6,94.24H280.818a11.986,11.986,0,0,1,11.83,11.195L308.193,380.05a10.487,10.487,0,0,1-9.756,11.171c-.267.019-.535.026-.8.024H159.439a11.985,11.985,0,0,1-11.854-11.195L132,105.435a10.489,10.489,0,0,1,9.755-11.172C142.04,94.244,142.319,94.237,142.6,94.24Z" transform="translate(-128.229 -93.712)"/><path class="a" d="M132.53,188.12l-.731-12.9,1.318-.072.731,12.9Zm-1.51-26.644L128.85,123.3l1.318-.072,2.169,38.174Z" transform="translate(-128.85 -87.956)"/><path class="a" d="M297.789,391.859H159.559a12.6,12.6,0,0,1-12.393-11.722L131.584,105.522a10.967,10.967,0,0,1,10.185-11.7q.431-.029.865-.025H280.878a12.574,12.574,0,0,1,12.381,11.722L308.84,380.137a10.967,10.967,0,0,1-10.185,11.7Q298.223,391.863,297.789,391.859Zm-155.082-297a9.972,9.972,0,0,0-10.08,9.863c0,.268,0,.537.024.8l15.581,274.615A11.446,11.446,0,0,0,159.511,390.8H297.73a9.984,9.984,0,0,0,10.079-9.888q0-.39-.023-.779L292.2,105.522a11.422,11.422,0,0,0-11.267-10.667Z" transform="translate(-128.312 -93.8)"/><path class="e" d="M152.05,382.948h0a3.932,3.932,0,0,0,3.989-3.874c0-.11,0-.222-.01-.333L140.448,104.389A4.519,4.519,0,0,0,136,100.17h0a3.944,3.944,0,0,0-3.989,3.9c0,.107,0,.215.01.321L147.6,378.741A4.507,4.507,0,0,0,152.05,382.948Z" transform="translate(-128.222 -92.535)"/><path class="f" d="M210.322,110.87h48.818a6.592,6.592,0,0,1,6.5,6.149l2.769,48.818a5.754,5.754,0,0,1-5.343,6.135c-.152.011-.306.014-.458.013H213.785a6.581,6.581,0,0,1-6.484-6.149l-2.769-48.818a5.741,5.741,0,0,1,5.319-6.134C210.007,110.874,210.165,110.869,210.322,110.87Z" transform="translate(-113.825 -90.41)"/><path class="g" d="M183.643,112.29h12.992a6.592,6.592,0,0,1,6.5,6.149l.731,12.992a5.741,5.741,0,0,1-5.319,6.134c-.156.011-.313.016-.47.014h-13a6.581,6.581,0,0,1-6.484-6.149l-.743-12.992a5.754,5.754,0,0,1,5.343-6.135C183.338,112.292,183.491,112.289,183.643,112.29Z" transform="translate(-119.125 -90.128)"/><path class="e" d="M156.872,112.29h12.992a6.579,6.579,0,0,1,6.5,6.149l.743,12.992a5.754,5.754,0,0,1-5.343,6.135c-.152.011-.306.014-.458.013H158.31a6.592,6.592,0,0,1-6.5-6.149l-.731-12.992A5.741,5.741,0,0,1,156.4,112.3C156.557,112.294,156.715,112.289,156.872,112.29Z" transform="translate(-124.438 -90.128)"/><path class="g" d="M185.172,139.34h12.992a6.579,6.579,0,0,1,6.5,6.149l.743,12.992a5.754,5.754,0,0,1-5.343,6.135c-.152.011-.306.014-.458.013H186.61a6.592,6.592,0,0,1-6.5-6.149l-.731-12.992a5.741,5.741,0,0,1,5.319-6.134C184.857,139.344,185.014,139.339,185.172,139.34Z" transform="translate(-118.819 -84.757)"/><path class="g" d="M158.413,139.34h12.992a6.592,6.592,0,0,1,6.5,6.149l.731,12.992a5.741,5.741,0,0,1-5.319,6.134c-.156.011-.313.016-.47.014h-13a6.581,6.581,0,0,1-6.484-6.149l-.743-12.992a5.754,5.754,0,0,1,5.343-6.135C158.108,139.342,158.261,139.339,158.413,139.34Z" transform="translate(-124.134 -84.757)"/><path class="d" d="M169.358,159.584h-8.006a4.626,4.626,0,0,1-4.555-4.315l-.455-8.006a4.027,4.027,0,0,1,3.742-4.293c.11-.008.222-.011.333-.01h7.994a4.625,4.625,0,0,1,4.555,4.3l.455,8.006a4.039,4.039,0,0,1-3.754,4.305C169.564,159.582,169.461,159.585,169.358,159.584ZM160.477,144a3.058,3.058,0,0,0-3.087,3.025c0,.079,0,.157.007.235l.455,8.006a3.5,3.5,0,0,0,3.44,3.26H169.3a3.043,3.043,0,0,0,3.076-3.012q0-.124-.007-.248l-.455-8.006a3.488,3.488,0,0,0-3.44-3.26Z" transform="translate(-123.393 -84.038)"/><path class="f" d="M212.661,235.11H163.843a5.753,5.753,0,0,0-5.814,5.691c0,.153,0,.306.013.458l2.769,48.854a6.579,6.579,0,0,0,6.5,6.149h48.818a5.728,5.728,0,0,0,5.8-5.654c0-.165,0-.33-.014-.495l-2.793-48.854A6.581,6.581,0,0,0,212.661,235.11Z" transform="translate(-123.056 -65.74)"/><path class="g" d="M233.566,236.53H220.573a5.741,5.741,0,0,0-5.814,5.667c0,.157,0,.314.013.47l.743,13a6.58,6.58,0,0,0,6.5,6.137H235a5.73,5.73,0,0,0,5.8-5.654c0-.162,0-.322-.014-.483l-.731-13A6.58,6.58,0,0,0,233.566,236.53Z" transform="translate(-111.792 -65.458)"/><path class="g" d="M260.336,236.53h-13a5.73,5.73,0,0,0-5.8,5.654c0,.162,0,.322.014.483l.731,13a6.58,6.58,0,0,0,6.5,6.137h12.992a5.741,5.741,0,0,0,5.814-5.667c0-.157,0-.314-.013-.47l-.743-13A6.568,6.568,0,0,0,260.336,236.53Z" transform="translate(-106.476 -65.458)"/><path class="g" d="M235.118,263.58H222.1a5.741,5.741,0,0,0-5.8,5.679c0,.157,0,.313.014.47l.731,12.992a6.58,6.58,0,0,0,6.5,6.137h12.992a5.741,5.741,0,0,0,5.814-5.667c0-.157,0-.314-.013-.47l-.743-12.992A6.569,6.569,0,0,0,235.118,263.58Z" transform="translate(-111.486 -60.087)"/><path class="g" d="M261.866,263.58H248.873a5.742,5.742,0,0,0-5.815,5.666c0,.162,0,.322.014.483l.743,12.992a6.58,6.58,0,0,0,6.5,6.137h13.052a5.73,5.73,0,0,0,5.8-5.654c0-.162,0-.322-.014-.483l-.731-12.992A6.58,6.58,0,0,0,261.866,263.58Z" transform="translate(-106.172 -60.087)"/><path class="g" d="M236.336,303.67H223.343a5.753,5.753,0,0,0-5.814,5.691c0,.153,0,.306.013.458l.743,12.992a6.579,6.579,0,0,0,6.5,6.149h12.992a5.741,5.741,0,0,0,5.8-5.679c0-.157,0-.313-.014-.47l-.731-12.992A6.592,6.592,0,0,0,236.336,303.67Z" transform="translate(-111.241 -52.127)"/><path class="g" d="M264.11,303.67H251.141a5.741,5.741,0,0,0-5.8,5.679c0,.157,0,.313.014.47l.731,12.992a6.592,6.592,0,0,0,6.5,6.149h12.992a5.753,5.753,0,0,0,5.814-5.691c0-.153,0-.306-.013-.458l-.743-12.992A6.58,6.58,0,0,0,264.11,303.67Z" transform="translate(-105.72 -52.127)"/><path class="g" d="M180.726,303.67H167.733a5.753,5.753,0,0,0-5.814,5.691c0,.153,0,.306.013.458l.743,12.992a6.579,6.579,0,0,0,6.5,6.149h12.992a5.753,5.753,0,0,0,5.814-5.691c0-.153,0-.306-.013-.458l-.779-12.992A6.593,6.593,0,0,0,180.726,303.67Z" transform="translate(-122.284 -52.127)"/><path class="g" d="M208.536,303.67h-13a5.741,5.741,0,0,0-5.8,5.679c0,.157,0,.313.014.47l.731,12.992a6.592,6.592,0,0,0,6.5,6.149h12.992a5.753,5.753,0,0,0,5.814-5.691c0-.153,0-.306-.013-.458l-.743-12.992A6.581,6.581,0,0,0,208.536,303.67Z" transform="translate(-116.762 -52.127)"/><path class="e" d="M218.055,293h0a1.582,1.582,0,0,0-1.6,1.567c0,.041,0,.083,0,.123h0a1.81,1.81,0,0,0,1.786,1.69h0a1.572,1.572,0,0,0,1.6-1.541c0-.049,0-.1,0-.149h0A1.81,1.81,0,0,0,218.055,293Z" transform="translate(-111.454 -54.245)"/><path class="e" d="M227.057,293h0a1.593,1.593,0,0,0-1.608,1.58c0,.036,0,.073,0,.11h0a1.821,1.821,0,0,0,1.8,1.69h0a1.582,1.582,0,0,0,1.6-1.567c0-.041,0-.083,0-.123h0A1.81,1.81,0,0,0,227.057,293Z" transform="translate(-109.669 -54.245)"/><path class="e" d="M200.065,293h0a1.582,1.582,0,0,0-1.6,1.567c0,.041,0,.083,0,.123h0a1.81,1.81,0,0,0,1.786,1.69h0a1.572,1.572,0,0,0,1.6-1.541c0-.049,0-.1,0-.149h0A1.81,1.81,0,0,0,200.065,293Z" transform="translate(-115.026 -54.245)"/><path class="g" d="M209.067,293h0a1.593,1.593,0,0,0-1.608,1.58c0,.036,0,.073,0,.11h0a1.821,1.821,0,0,0,1.8,1.69h0a1.582,1.582,0,0,0,1.6-1.567c0-.041,0-.083,0-.123h0A1.81,1.81,0,0,0,209.067,293Z" transform="translate(-113.241 -54.245)"/><path class="d" d="M160.322,150.516a4.052,4.052,0,0,0,3.991,3.775,3.525,3.525,0,0,0,3.6-3.442c0-.11,0-.222-.008-.333a4.052,4.052,0,0,0-3.991-3.775,3.525,3.525,0,0,0-3.6,3.442C160.311,150.293,160.313,150.4,160.322,150.516Z" transform="translate(-122.603 -83.288)"/><path class="d" d="M236.046,161.856a23.467,23.467,0,0,1-23.108-21.862,20.472,20.472,0,0,1,19.02-21.827c.535-.036,1.072-.052,1.607-.047a23.468,23.468,0,0,1,23.1,21.874,20.46,20.46,0,0,1-19.008,21.815C237.119,161.845,236.582,161.861,236.046,161.856Zm-2.4-42.681a19.477,19.477,0,0,0-19.678,19.273q-.007.775.046,1.546A22.329,22.329,0,0,0,236.01,160.8a19.465,19.465,0,0,0,19.666-19.261q.007-.775-.046-1.546a22.318,22.318,0,0,0-22.006-20.819Z" transform="translate(-112.163 -88.971)"/><path class="d" d="M232.588,138.254a.488.488,0,0,1-.228,0l-7.815-3.6a.564.564,0,0,1-.3-.707.5.5,0,0,1,.662-.261l.022.01,7.515,3.428,8.8-7.515a.54.54,0,0,1,.707.815l-9.037,7.731A.522.522,0,0,1,232.588,138.254Z" transform="translate(-109.914 -86.715)"/><path class="d" d="M193.846,130.818a1.46,1.46,0,0,1-.815-.264l-2.685-1.87a.288.288,0,0,0-.36,0l-2.469,1.87a1.367,1.367,0,0,1-1.606,0,1.45,1.45,0,0,1-.587-1.534l.815-3.02a.336.336,0,0,0-.132-.348l-2.673-1.87a1.39,1.39,0,0,1-.587-1.522,1.258,1.258,0,0,1,1.2-.947h3.176a.3.3,0,0,0,.288-.216l.8-3.02a1.258,1.258,0,0,1,1.2-.947h0a1.439,1.439,0,0,1,1.354.947l1.2,3.02a.346.346,0,0,0,.312.216h3.176a1.439,1.439,0,0,1,1.354.947,1.282,1.282,0,0,1-.408,1.522l-2.469,1.87a.287.287,0,0,0-.084.348l1.2,3.02a1.306,1.306,0,0,1-.408,1.534A1.391,1.391,0,0,1,193.846,130.818Zm-9.792-8.45a.287.287,0,0,0-.288.216.324.324,0,0,0,.132.348l2.673,1.87a1.414,1.414,0,0,1,.587,1.522l-.8,3.02a.313.313,0,0,0,.132.36.3.3,0,0,0,.36,0l2.469-1.87a1.367,1.367,0,0,1,1.606,0l2.673,1.87a.305.305,0,0,0,.467-.36l-1.2-3.02a1.294,1.294,0,0,1,.408-1.522l2.4-1.87a.276.276,0,0,0,.1-.348.311.311,0,0,0-.312-.216h-3.176a1.474,1.474,0,0,1-1.354-.947l-1.2-3.02a.325.325,0,0,0-.312-.216h0a.275.275,0,0,0-.276.216h0l-.815,3.02a1.27,1.27,0,0,1-1.2.947Zm4.722-4.123" transform="translate(-118.157 -89.167)"/><path class="d" d="M166.753,131.573h-7.419a1.978,1.978,0,0,1-1.954-1.846l-.419-7.431a.491.491,0,0,1,.454-.526h2.123a1.725,1.725,0,0,0,1.742-1.709,1.3,1.3,0,0,0,0-.137l-.108-2.085a.491.491,0,0,1,.454-.526h4.328a1.966,1.966,0,0,1,1.942,1.846l.6,10.571a1.727,1.727,0,0,1-1.6,1.842Q166.821,131.573,166.753,131.573Zm-8.714-8.75.4,6.9a.864.864,0,0,0,.839.791h7.419a.731.731,0,0,0,.746-.717c0-.025,0-.049,0-.074l-.6-10.571a.851.851,0,0,0-.827-.791h-3.764l.084,1.558a2.7,2.7,0,0,1-2.485,2.893q-.124.009-.248.007Z" transform="translate(-123.269 -89.131)"/><path class="d" d="M196.641,156.034H186.393a1.127,1.127,0,0,1-1.1-1.043,1,1,0,0,1,.264-.719l.659-.707-.156-2.733a4.914,4.914,0,0,1,4.549-5.255l.126-.007a5.346,5.346,0,0,1,3.859,1.438,5.48,5.48,0,0,1,1.786,3.716l.156,2.853.743.683a1.086,1.086,0,0,1,.336.731.972.972,0,0,1-.9,1.04Zm-5.705-9.421h-.156a3.919,3.919,0,0,0-3.723,4.106l.007.113.156,2.745a1.008,1.008,0,0,1-.264.731l-.659.7h10.236l-.755-.671a1.2,1.2,0,0,1-.348-.731l-.156-2.853a4.388,4.388,0,0,0-1.426-2.96A4.318,4.318,0,0,0,190.935,146.613Z" transform="translate(-117.643 -83.521)"/><path class="d" d="M189.24,144.179a.838.838,0,0,0,.839.791.731.731,0,0,0,.745-.717c0-.025,0-.049,0-.074a.839.839,0,0,0-.839-.779.731.731,0,0,0-.744.718A.521.521,0,0,0,189.24,144.179Z" transform="translate(-116.859 -83.951)"/><path class="d" d="M191.811,155.11a.431.431,0,0,1,.436.427.4.4,0,0,1-.017.125,1.438,1.438,0,0,1-1.378.983,1.642,1.642,0,0,1-1.486-.983.383.383,0,0,1,.36-.551Z" transform="translate(-116.841 -81.626)"/><path class="d" d="M220.6,255.373a.589.589,0,0,1-.443-.216.554.554,0,0,1,0-.6,17.125,17.125,0,0,0,1.091-2.229,7.4,7.4,0,0,1-1.534-4.087,6.688,6.688,0,0,1,6.165-7.172c.189-.014.38-.022.571-.019a7.646,7.646,0,0,1,7.539,7.191,6.665,6.665,0,0,1-6.18,7.116c-.185.013-.37.018-.556.016a7.458,7.458,0,0,1-3.871-1.1,11.611,11.611,0,0,1-2.613,1.091Zm2.7-2.241a.5.5,0,0,1,.312.1,6.315,6.315,0,0,0,3.6,1.091,5.681,5.681,0,0,0,5.742-5.619c0-.153,0-.306-.013-.458a6.522,6.522,0,0,0-6.424-6.089,5.693,5.693,0,0,0-5.754,5.631c0,.153,0,.306.013.458a6.437,6.437,0,0,0,1.474,3.7.5.5,0,0,1,.1.527c-.2.527-.408,1.007-.6,1.414a11.77,11.77,0,0,0,1.342-.683.553.553,0,0,1,.216-.036Z" transform="translate(-110.812 -64.561)"/><path class="d" d="M190.853,278.618h-5.537a7.48,7.48,0,0,1-6.46-3.907,6.658,6.658,0,0,0-1.822-2.085,18.287,18.287,0,0,1-7.287-13.5A16.135,16.135,0,0,1,187.1,241.918a18.589,18.589,0,0,1,17.08,16.78,16.132,16.132,0,0,1-5.693,13.9,5.762,5.762,0,0,0-1.618,2.109A6.508,6.508,0,0,1,190.853,278.618Zm-4.794-35.729a15.161,15.161,0,0,0-15.343,14.978c0,.421.007.843.037,1.262a17.215,17.215,0,0,0,6.868,12.717,7.525,7.525,0,0,1,2.109,2.4,6.435,6.435,0,0,0,5.537,3.344h5.537a5.584,5.584,0,0,0,5.154-3.344,6.679,6.679,0,0,1,1.87-2.457,15.188,15.188,0,0,0,5.37-13.1,17.523,17.523,0,0,0-16.085-15.809Z" transform="translate(-120.737 -64.398)"/><path class="d" d="M190.417,280.522h-7.8a2.553,2.553,0,0,1-2.517-2.4l-.1-1.678a2.217,2.217,0,0,1,2.03-2.39,2.053,2.053,0,0,1,.211-.007h7.815a2.564,2.564,0,0,1,2.517,2.4l.1,1.678a2.23,2.23,0,0,1-2.056,2.391C190.549,280.521,190.483,280.523,190.417,280.522Zm-8.114-5.441a1.294,1.294,0,0,0-1.309,1.28.9.9,0,0,0,0,.1l.1,1.678a1.474,1.474,0,0,0,1.462,1.39h7.8a1.3,1.3,0,0,0,1.31-1.279q0-.056,0-.112l-.1-1.678a1.475,1.475,0,0,0-1.462-1.378Z" transform="translate(-118.695 -58.008)"/><path class="d" d="M235.935,282.331H222.164a1.942,1.942,0,0,1-1.906-1.81l-.587-10.463a1.679,1.679,0,0,1,1.553-1.794c.049,0,.1,0,.149,0h13.76a1.929,1.929,0,0,1,1.906,1.8l.6,10.463a1.7,1.7,0,0,1-1.59,1.806Q235.991,282.331,235.935,282.331Zm-14.5-13.016a.683.683,0,0,0-.71.656.7.7,0,0,0,0,.087l.587,10.463a.8.8,0,0,0,.791.755h13.772a.706.706,0,0,0,.708-.706c0-.016,0-.032,0-.049l-.6-10.463a.791.791,0,0,0-.791-.743Z" transform="translate(-110.817 -59.158)"/><path class="d" d="M236.624,271.915H220.312a.552.552,0,0,1-.551-.527.491.491,0,0,1,.454-.526h16.35a.563.563,0,0,1,.563.527.491.491,0,0,1-.454.526Z" transform="translate(-110.799 -58.642)"/><path class="d" d="M222.532,275.068h1.678a.419.419,0,0,0,.434-.4.37.37,0,0,0,0-.064v-.743a.5.5,0,0,0-.491-.467h-1.678a.43.43,0,0,0-.433.43c0,.012,0,.025,0,.037v.743A.491.491,0,0,0,222.532,275.068Z" transform="translate(-110.346 -58.139)"/><path class="d" d="M226.582,275.068h1.678a.419.419,0,0,0,.434-.4.371.371,0,0,0,0-.064v-.743a.5.5,0,0,0-.491-.467h-1.678a.43.43,0,0,0-.433.43c0,.012,0,.025,0,.037v.743A.491.491,0,0,0,226.582,275.068Z" transform="translate(-109.542 -58.139)"/><path class="d" d="M230.62,275.068h1.738a.431.431,0,0,0,.445-.418.339.339,0,0,0,0-.049v-.743a.5.5,0,0,0-.491-.467h-1.678a.442.442,0,0,0-.431.454v.756A.5.5,0,0,0,230.62,275.068Z" transform="translate(-108.725 -58.139)"/><path class="d" d="M222.692,277.936h1.666a.43.43,0,0,0,.443-.418.194.194,0,0,0,0-.037v-.755a.48.48,0,0,0-.479-.456h-1.69a.433.433,0,0,0-.433.43c0,.008,0,.017,0,.025v.755A.5.5,0,0,0,222.692,277.936Z" transform="translate(-110.314 -57.567)"/><path class="d" d="M226.74,277.936h1.69a.433.433,0,0,0,.433-.43c0-.008,0-.017,0-.025v-.755a.48.48,0,0,0-.479-.456h-1.69a.433.433,0,0,0-.433.43c0,.008,0,.017,0,.025v.755A.48.48,0,0,0,226.74,277.936Z" transform="translate(-109.508 -57.567)"/><path class="d" d="M230.79,277.936h1.69a.433.433,0,0,0,.433-.43c0-.008,0-.017,0-.025v-.755a.48.48,0,0,0-.479-.456h-1.69a.433.433,0,0,0-.433.43c0,.008,0,.017,0,.025v.755A.48.48,0,0,0,230.79,277.936Z" transform="translate(-108.704 -57.567)"/><path class="d" d="M254.775,257.285H252.45a1.45,1.45,0,0,1-1.438-1.342l-.1-1.87a1.2,1.2,0,0,1,1.27-1.342h2.325a1.426,1.426,0,0,1,1.426,1.342l.108,1.87a1.2,1.2,0,0,1-1.27,1.342Zm-2.529-3.5a.264.264,0,0,0-.277.251c0,.012,0,.025,0,.037l.1,1.87a.324.324,0,0,0,.324.288h2.325a.264.264,0,0,0,.277-.25c0-.012,0-.025,0-.037l-.1-1.87a.324.324,0,0,0-.324-.288Zm2.889-2.4h-3.716a.575.575,0,0,1-.563-.527v-.372a4.671,4.671,0,0,1,.144-1.714,3.607,3.607,0,0,1,.671-1.2,16.77,16.77,0,0,1,1.87-1.786c.527-.455.563-.707.551-.779a.529.529,0,0,0-.18-.443.945.945,0,0,0-.6-.156.971.971,0,0,0-.767.3,2.192,2.192,0,0,0-.36,1.294.429.429,0,0,1-.168.348.493.493,0,0,1-.384.12l-3.823-.479a.551.551,0,0,1-.491-.563,5.371,5.371,0,0,1,1.462-3.7,5.993,5.993,0,0,1,4.351-1.414,6.828,6.828,0,0,1,3.787.971,4.508,4.508,0,0,1,2.217,3.6,3.587,3.587,0,0,1-.42,1.87,7.556,7.556,0,0,1-1.894,2.038,3.962,3.962,0,0,0-1.043,1.091,1.957,1.957,0,0,0-.144.983.493.493,0,0,1-.5.575Zm-3.248-1.055h2.685a2.558,2.558,0,0,1,.24-.959,4.809,4.809,0,0,1,1.306-1.414,6.981,6.981,0,0,0,1.654-1.75,2.4,2.4,0,0,0,.3-1.33,3.394,3.394,0,0,0-1.7-2.769,5.759,5.759,0,0,0-3.188-.8,4.914,4.914,0,0,0-3.6,1.139,4.146,4.146,0,0,0-1.2,2.529l2.781.336a2.517,2.517,0,0,1,.563-1.39,1.964,1.964,0,0,1,1.5-.611,1.925,1.925,0,0,1,1.342.443,1.715,1.715,0,0,1,.551,1.2,1.989,1.989,0,0,1-.9,1.594,18.531,18.531,0,0,0-1.75,1.666,2.788,2.788,0,0,0-.491.911,3.866,3.866,0,0,0-.1,1.259Z" transform="translate(-105.326 -64.711)"/><path class="d" d="M254.764,276.262a4.686,4.686,0,0,1-4.6-4.351,4.075,4.075,0,0,1,3.79-4.341c.107-.007.215-.011.321-.01a4.675,4.675,0,0,1,4.591,4.351,4.075,4.075,0,0,1-3.79,4.341C254.97,276.259,254.867,276.263,254.764,276.262Zm-.443-7.647a3.092,3.092,0,0,0-3.111,3.073q0,.111.007.223a3.6,3.6,0,0,0,3.488,3.3,3.092,3.092,0,0,0,3.111-3.073q0-.111-.007-.223a3.6,3.6,0,0,0-3.524-3.3Z" transform="translate(-104.764 -59.297)"/><path class="d" d="M261.253,281.659a.588.588,0,0,1-.563-.527c-.216-3.967-4.339-4.279-5.6-4.279s-5.334.312-5.106,4.279a.5.5,0,0,1-.479.527h-.024a.564.564,0,0,1-.551-.527c-.192-3.236,2.205-5.322,6.1-5.322s6.532,2.086,6.712,5.322a.491.491,0,0,1-.454.526Z" transform="translate(-105.008 -57.659)"/></g><g transform="translate(173.502 96.442)"><path class="f" d="M266.067,165.026,158.58,192.173a6.161,6.161,0,0,0-4.3,7.576c.04.14.083.28.132.418l15.857,51.059a6.988,6.988,0,0,0,8.162,4.878l107.487-27.16a6.136,6.136,0,0,0,4.3-7.539c-.041-.15-.087-.3-.139-.443l-15.857-51.071A6.975,6.975,0,0,0,266.067,165.026Z" transform="translate(-154.054 -75.409)"/><path class="h" d="M392.235,152.228l.887,3.392c.276,1.1.515,2.205.755,3.308.5,2.193.911,4.4,1.318,6.616.779,4.447,1.462,8.929,1.87,13.532q.324,3.452.491,7.012t0,7.311a56.451,56.451,0,0,1-.767,7.935,33.253,33.253,0,0,1-3.068,9.589l-.084.4a8.632,8.632,0,0,1-.635,1.067,19.682,19.682,0,0,1-8.63,6.724,24.15,24.15,0,0,1-8.462,1.606,31.6,31.6,0,0,1-6.808-.647,49.328,49.328,0,0,1-5.837-1.57,66.3,66.3,0,0,1-10.14-4.531c-1.582-.863-3.1-1.8-4.614-2.757l-2.205-1.51-2.241-1.654a6.281,6.281,0,0,1,5.07-11.195l.611.132,4.483.971c1.51.336,3.032.635,4.519.923a79.526,79.526,0,0,0,8.678,1.2,35.442,35.442,0,0,0,3.859.1,16.221,16.221,0,0,0,3.008-.419c.767-.2,1.2-.515,1.079-.635s-.767.18-1.127.539l-.8,1.378c-.06-.132.2-1.33.252-2.733a48.223,48.223,0,0,0,0-4.89c-.1-1.786-.252-3.6-.479-5.537s-.443-3.835-.755-5.789c-.611-3.907-1.282-7.887-2.073-11.866l-1.2-5.993-1.2-5.837-.084-.431a12.549,12.549,0,0,1,24.427-5.693Z" transform="translate(-116.833 -79.751)"/><path class="i" d="M392.235,152.228l.887,3.392c.276,1.1.515,2.205.755,3.308.5,2.193.911,4.4,1.318,6.616.779,4.447,1.462,8.929,1.87,13.532q.324,3.452.491,7.012t0,7.311a56.451,56.451,0,0,1-.767,7.935,33.253,33.253,0,0,1-3.068,9.589l-.084.4a8.632,8.632,0,0,1-.635,1.067,19.682,19.682,0,0,1-8.63,6.724,24.15,24.15,0,0,1-8.462,1.606,31.6,31.6,0,0,1-6.808-.647,49.328,49.328,0,0,1-5.837-1.57,66.3,66.3,0,0,1-10.14-4.531c-1.582-.863-3.1-1.8-4.614-2.757l-2.205-1.51-2.241-1.654a6.281,6.281,0,0,1,5.07-11.195l.611.132,4.483.971c1.51.336,3.032.635,4.519.923a79.526,79.526,0,0,0,8.678,1.2,35.442,35.442,0,0,0,3.859.1,16.221,16.221,0,0,0,3.008-.419c.767-.2,1.2-.515,1.079-.635s-.767.18-1.127.539l-.8,1.378c-.06-.132.2-1.33.252-2.733a48.223,48.223,0,0,0,0-4.89c-.1-1.786-.252-3.6-.479-5.537s-.443-3.835-.755-5.789c-.611-3.907-1.282-7.887-2.073-11.866l-1.2-5.993-1.2-5.837-.084-.431a12.549,12.549,0,0,1,24.427-5.693Z" transform="translate(-116.833 -79.751)"/><path class="h" d="M395.6,414.606s9.744-9.792,9.361-13.04l9.205-5.226,5.993,9.433-5.082,3.14-1.426-.372-.887,1.678c-4.59,2.613-13.5,6.748-17.08,6.772A2.3,2.3,0,0,1,395.6,414.606Z" transform="translate(-106.15 -29.447)"/><path class="a" d="M397.494,328.3c-6.856-49.141-4.614-78.949-11.818-103.149l-44.587-3.6s19.764,77.907,28.826,110.34,43.844,106.576,43.844,106.576l12.117-6.892S409.564,366.287,397.494,328.3Z" transform="translate(-116.915 -64.152)"/><path class="i" d="M358.376,251.87c3.032,7.012,8.953,52.042,8.929,74.527l-.144-.5c-3.188-11.4-7.695-28.43-12.2-45.7Z" transform="translate(-114.161 -58.134)"/><path class="h" d="M329.211,414.111s18.494-4.195,19.345-7.191H360.3l.971,11.183h-6.52l-1.2-1.031L352.1,418.1c-5.274,0-20.519,0-23.8-1.918C328.252,414.483,329.211,414.111,329.211,414.111Z" transform="translate(-119.455 -27.346)"/><path class="a" d="M360.788,329.734c9.792-66.532,9.792-107.727,9.792-107.727L327,221.3s5.25,79.345,7.072,112.581C335.953,368.436,346.74,444.5,346.74,444.5h15.21S365.354,372.463,360.788,329.734Z" transform="translate(-119.713 -64.204)"/><path class="j" d="M362.819,117.67c2.026,8.785,3.6,20.052,6.077,26.536-4.411,4.1-11.542,9.169-21.047,9.037s-7.779-6.568-5.226-9.888c6.82-3.44,7.084-6.916,5.418-9.96Z" transform="translate(-117.01 -84.781)"/><path class="a" d="M379.825,142.785s-6.065-7.131-8.462-8.33-20.531,1.2-24.81,2.062-9.493,7.191-9.493,7.191Z" transform="translate(-117.715 -81.514)"/><path class="h" d="M334.426,116.985c.192.863-.108,1.654-.671,1.774s-1.2-.479-1.366-1.342.108-1.654.671-1.774S334.234,116.074,334.426,116.985Z" transform="translate(-118.653 -85.187)"/><path class="h" d="M333.7,123.121c-2.217,0-4.435-2.277-5.142-5.453a7.536,7.536,0,0,1,.719-5.609,3.593,3.593,0,0,1,2.253-1.666c2.4-.527,5.034,1.882,5.813,5.37h0a7.579,7.579,0,0,1-.719,5.621,3.593,3.593,0,0,1-2.253,1.666A3.162,3.162,0,0,1,333.7,123.121Zm-1.486-12.165a2.744,2.744,0,0,0-2.4,1.438,6.941,6.941,0,0,0-.635,5.13c.707,3.152,2.972,5.346,5.046,4.9a2.922,2.922,0,0,0,1.858-1.39,6.941,6.941,0,0,0,.635-5.13c-.647-2.829-2.589-4.9-4.507-4.9Z" transform="translate(-119.452 -86.241)"/><path class="k" d="M334.759,117.75a31.244,31.244,0,0,1-2.469,8.234c1.846,1.091,4.291-.12,4.291-.12Z" transform="translate(-118.663 -84.765)"/><path class="h" d="M331.639,112.868a.494.494,0,0,0,.479,0,4.066,4.066,0,0,1,3.728.12.5.5,0,0,0,.7-.132l.007-.012a.515.515,0,0,0-.139-.716l0,0a5.072,5.072,0,0,0-4.7-.216.515.515,0,0,0-.266.678l0,0A.453.453,0,0,0,331.639,112.868Z" transform="translate(-118.839 -86.02)"/><path class="j" d="M362.824,111.562c1.714,10.691,3.272,16.864-.863,23.432-6.209,9.876-20.376,7.863-25.254-2.133-4.411-8.989-6.484-24.966,2.937-31.39a14.934,14.934,0,0,1,23.18,10.092Z" transform="translate(-118.525 -88.514)"/><path class="h" d="M345.809,124.233a19.383,19.383,0,0,1-9.013-2.4,40.742,40.742,0,0,1,.348-10.643c-1.918.743-9.241,2.685-9.589-4.734,3.092,2.6,8.15-1.39,6.161-2.685s-6.94-2.6-6.316-5.19c2.529,2.589,7.8,2.4,8.965.863-1.858-3.152-4.339-1.978-4.339-1.978s3.847-4.95,11.446-.995C340.751,92.4,346.5,90.23,346.5,90.23s-2.038,3.4,1.294,3.775,16.025-1.582,14.167,4.243c4.95-1.714,10.715,4.051,8.666,11.986s-1.043,23.971-3.26,24.415C355.565,136.77,347.978,130.849,345.809,124.233Z" transform="translate(-119.644 -90.23)"/><path class="h" d="M344.137,117.417h0l-15.306-.611a.336.336,0,0,1-.312-.336.323.323,0,0,1,.324-.3h0l15.306.611a.324.324,0,0,1,0,.635Z" transform="translate(-119.411 -85.079)"/><path class="h" d="M353.89,98.7c4.111-.719,4.794-6.8,1.978-7.707C362.8,91.481,361.021,100.3,353.89,98.7Z" transform="translate(-114.374 -90.079)"/><path class="j" d="M347,117.771a9.121,9.121,0,0,1-1.414,6.532c-1.69,2.4-4.3.9-5.322-1.99-.911-2.589-1.127-6.952,1.282-8.258S346.546,114.847,347,117.771Z" transform="translate(-117.205 -85.578)"/><path class="h" d="M382.642,140.552c-14.742-1.81-35.657-1.654-49.537.767a15.785,15.785,0,0,0-12.944,14.287c-1.726,21.179,2.96,58.19,7.012,95.454,32.661,10.955,65.813-.156,65.813-.156.731-7.515-3.32-32.146-5.849-45.294,1.858-13.568,6.568-29.113,9.217-47.152a15.761,15.761,0,0,0-13.34-17.857C382.89,140.584,382.767,140.568,382.642,140.552Z" transform="translate(-121.144 -80.48)"/><path class="i" d="M338.177,165.09c-2.229,12.753-9.289,27.951-15.749,38.007-.887-8.809-1.63-17.2-2.1-24.942Z" transform="translate(-121.037 -75.365)"/><path class="d" d="M176.966,237.674l115.662-16.528a5.992,5.992,0,0,0,5.109-6.761c-.019-.145-.046-.288-.076-.43l-11.123-55.29a6.832,6.832,0,0,0-7.551-5.346L163.326,169.848a5.992,5.992,0,0,0-5.109,6.761c.019.145.046.288.076.43l11.123,55.278A6.819,6.819,0,0,0,176.966,237.674Z" transform="translate(-153.239 -77.714)"/><path class="e" d="M176.966,237.674l115.662-16.528a5.992,5.992,0,0,0,5.109-6.761c-.019-.145-.046-.288-.076-.43l-11.123-55.29a6.832,6.832,0,0,0-7.551-5.346L163.326,169.848a5.992,5.992,0,0,0-5.109,6.761c.019.145.046.288.076.43l11.123,55.278A6.819,6.819,0,0,0,176.966,237.674Z" transform="translate(-153.239 -77.714)"/><path class="d" d="M269.614,174.982l-92.829,13.256a5.705,5.705,0,0,1-6.316-4.471,4.974,4.974,0,0,1,3.8-5.921q.2-.045.41-.072l92.841-13.256a5.693,5.693,0,0,1,6.316,4.459,4.974,4.974,0,0,1-3.785,5.929C269.9,174.937,269.759,174.963,269.614,174.982Zm-94.687,3.811a4.014,4.014,0,0,0-3.452,4.508c.012.1.029.192.048.286a4.6,4.6,0,0,0,5.106,3.6l92.781-13.2a4.027,4.027,0,0,0,3.448-4.533c-.012-.088-.026-.175-.044-.261a4.614,4.614,0,0,0-5.106-3.6Z" transform="translate(-150.818 -75.489)"/><path class="d" d="M272.444,189.091l-92.829,13.256a5.693,5.693,0,0,1-6.316-4.459,4.974,4.974,0,0,1,3.8-5.921q.2-.045.41-.072l92.841-13.268a5.705,5.705,0,0,1,6.316,4.471,4.973,4.973,0,0,1-3.8,5.92C272.725,189.048,272.585,189.073,272.444,189.091ZM177.758,192.9a4.014,4.014,0,0,0-3.452,4.508c.012.1.029.192.048.286a4.614,4.614,0,0,0,5.106,3.6L272.3,188.025a4.027,4.027,0,0,0,3.448-4.533c-.012-.087-.026-.175-.044-.261a4.6,4.6,0,0,0-5.106-3.6Z" transform="translate(-150.256 -72.687)"/><path class="d" d="M269.691,203.088l-59.185,8.45a5.61,5.61,0,0,1-6.209-4.387,4.9,4.9,0,0,1,3.783-5.811c.12-.025.242-.046.364-.062l59.185-8.39a5.585,5.585,0,0,1,6.2,4.387A4.89,4.89,0,0,1,270,203.036C269.9,203.057,269.794,203.073,269.691,203.088Zm-61.127-.995a4.11,4.11,0,0,0-3.531,4.618c.014.108.032.215.055.32a4.7,4.7,0,0,0,5.214,3.692l59.185-8.39a4.123,4.123,0,0,0,3.541-4.634c-.014-.1-.031-.2-.053-.3a4.71,4.71,0,0,0-5.226-3.692Z" transform="translate(-144.099 -69.855)"/><path class="j" d="M266.363,176.384l3.236-1.2a4.017,4.017,0,0,1,3.68.4l5.082,3.356a7.514,7.514,0,0,1,3.38,5.993v1.51c-5.226,2.4-12.669,1.2-12.669,1.2l-2.157-.108a3.369,3.369,0,0,1-3.285-3.449v-.026l.168-4.279A3.858,3.858,0,0,1,266.363,176.384Z" transform="translate(-132.296 -73.415)"/><path class="h" d="M354.517,159.693l-1.378,3.224c-.455,1.043-.935,2.062-1.414,3.08-.947,2.038-1.966,4.039-3,6.053-2.109,3.991-4.3,7.958-6.8,11.854q-1.857,2.925-3.883,5.849c-1.39,1.93-2.865,3.859-4.471,5.789a56.2,56.2,0,0,1-5.441,5.813,33.478,33.478,0,0,1-8.318,5.753l-.491.24a6.112,6.112,0,0,1-.983.372,32.055,32.055,0,0,1-14.071.455,56.488,56.488,0,0,1-11-3.164,77.944,77.944,0,0,1-9.589-4.65c-1.522-.863-3-1.786-4.447-2.733s-2.817-1.942-4.327-3.1a6.317,6.317,0,0,1,5.166-11.183l.479.1,4.435.959c1.5.348,3.008.647,4.495.947,2.984.587,5.909,1.1,8.75,1.438,1.414.168,2.8.324,4.147.408a31.076,31.076,0,0,0,3.811,0,11.625,11.625,0,0,0,5.082-1.055l-1.486.611c0-.144.983-.935,1.87-2.014a47.928,47.928,0,0,0,2.984-3.9c1.007-1.462,2.014-3.02,3-4.674s1.99-3.308,2.936-5.034c1.906-3.476,3.8-7.036,5.609-10.667l2.709-5.477,2.613-5.37.192-.384a12.549,12.549,0,0,1,22.773,10.416Z" transform="translate(-130.546 -79.821)"/></g></g></svg>