<svg xmlns="http://www.w3.org/2000/svg" width="45.956" height="55.24" viewBox="0 0 45.956 55.24"><defs><style>.a{fill:#fff;}</style></defs><g transform="translate(87.302) rotate(90)"><g transform="translate(0 41.346)"><path class="a" d="M54.357,62.178,34.408,42.228a3.032,3.032,0,0,0-4.276,0L28.321,44.04a3,3,0,0,0-.882,2.138,3.06,3.06,0,0,0,.882,2.163L39.959,60H2.984A2.95,2.95,0,0,0,0,62.977v2.561a3.064,3.064,0,0,0,2.984,3.1H40.091L28.321,80.371a2.994,2.994,0,0,0,0,4.245l1.811,1.806a3.033,3.033,0,0,0,4.276,0L54.358,66.469a3.049,3.049,0,0,0,0-4.291Z" transform="translate(0 -41.346)"/></g></g></svg>